G04 (created by PCBNEW (2013-07-07 BZR 4022)-stable) date 12/7/2014 8:29:54 AM*
%MOIN*%
G04 Gerber Fmt 3.4, Leading zero omitted, Abs format*
%FSLAX34Y34*%
G01*
G70*
G90*
G04 APERTURE LIST*
%ADD10C,0.00590551*%
%ADD11R,0.055X0.055*%
%ADD12C,0.055*%
%ADD13C,0.07*%
%ADD14R,0.07X0.07*%
%ADD15R,0.35X0.35*%
%ADD16C,0.16*%
%ADD17R,0.06X0.06*%
%ADD18C,0.06*%
%ADD19C,0.035*%
%ADD20C,0.015*%
%ADD21C,0.01*%
%ADD22C,0.025*%
%ADD23C,0.05*%
G04 APERTURE END LIST*
G54D10*
G54D11*
X65579Y-61111D03*
G54D12*
X65579Y-64111D03*
G54D11*
X60279Y-53411D03*
G54D12*
X57279Y-53411D03*
G54D11*
X65579Y-57711D03*
G54D12*
X65579Y-54711D03*
G54D11*
X68881Y-54709D03*
G54D12*
X68881Y-57709D03*
G54D11*
X66681Y-57709D03*
G54D12*
X66681Y-54709D03*
G54D11*
X67781Y-54709D03*
G54D12*
X67781Y-57709D03*
G54D11*
X52079Y-53411D03*
G54D12*
X55079Y-53411D03*
G54D11*
X68881Y-64109D03*
G54D12*
X68881Y-61109D03*
G54D11*
X67781Y-64109D03*
G54D12*
X67781Y-61109D03*
G54D11*
X66681Y-61109D03*
G54D12*
X66681Y-64109D03*
G54D13*
X57779Y-57211D03*
G54D14*
X59779Y-57211D03*
G54D13*
X58779Y-57211D03*
G54D15*
X58779Y-63711D03*
X53579Y-63711D03*
G54D13*
X54579Y-57211D03*
G54D14*
X53579Y-57211D03*
G54D13*
X52579Y-57211D03*
G54D16*
X74379Y-67411D03*
X52379Y-67411D03*
X52379Y-51411D03*
X74379Y-51411D03*
G54D17*
X54381Y-51409D03*
G54D18*
X55381Y-51409D03*
X56381Y-51409D03*
X57381Y-51409D03*
X58381Y-51409D03*
G54D17*
X54381Y-67409D03*
G54D18*
X55381Y-67409D03*
X56381Y-67409D03*
X57381Y-67409D03*
X58381Y-67409D03*
G54D17*
X63381Y-67409D03*
G54D18*
X64381Y-67409D03*
X65381Y-67409D03*
X66381Y-67409D03*
X67381Y-67409D03*
G54D17*
X63381Y-51409D03*
G54D18*
X64381Y-51409D03*
X65381Y-51409D03*
X66381Y-51409D03*
X67381Y-51409D03*
G54D19*
X72000Y-62500D03*
X72500Y-62500D03*
X73000Y-62500D03*
X73500Y-62500D03*
X73500Y-62000D03*
X73000Y-62000D03*
X72500Y-62000D03*
X72000Y-62000D03*
X69731Y-57109D03*
X69731Y-56609D03*
X69731Y-56109D03*
X70231Y-56109D03*
X70231Y-56609D03*
X70231Y-57109D03*
X70731Y-57109D03*
X70731Y-56609D03*
X70731Y-56109D03*
X60879Y-67411D03*
X60379Y-67411D03*
X59879Y-67411D03*
X59379Y-67411D03*
X59379Y-66911D03*
X59879Y-66911D03*
X60379Y-66911D03*
X60879Y-66911D03*
X60879Y-66411D03*
X60379Y-66411D03*
X59879Y-66411D03*
X59379Y-66411D03*
X60629Y-58411D03*
X61129Y-58411D03*
X61629Y-58411D03*
X62129Y-58411D03*
X62129Y-57911D03*
X61629Y-57911D03*
X61129Y-57911D03*
X60629Y-57911D03*
X60629Y-57411D03*
X61129Y-57411D03*
X61629Y-57411D03*
X62129Y-57411D03*
X62129Y-56911D03*
X61629Y-56911D03*
X61129Y-56911D03*
X60629Y-56911D03*
X51629Y-54411D03*
X74379Y-58661D03*
X74379Y-59161D03*
X74379Y-59661D03*
X73879Y-59661D03*
X73379Y-59661D03*
X72879Y-59661D03*
X72879Y-59161D03*
X73379Y-59161D03*
X73879Y-59161D03*
X73879Y-58661D03*
X73379Y-58661D03*
X72879Y-58661D03*
X68879Y-52661D03*
X68379Y-52661D03*
X68379Y-52161D03*
X68879Y-52161D03*
X68879Y-51661D03*
X68379Y-51661D03*
X68379Y-51161D03*
X68879Y-51161D03*
X59379Y-51911D03*
X59879Y-51911D03*
X60379Y-51911D03*
X60879Y-51911D03*
X61379Y-51911D03*
X61879Y-51911D03*
X61879Y-51411D03*
X61379Y-51411D03*
X60879Y-51411D03*
X60379Y-51411D03*
X59879Y-51411D03*
X59379Y-51411D03*
X68379Y-67161D03*
X68879Y-67161D03*
X69379Y-67161D03*
X69379Y-66661D03*
X68879Y-66661D03*
X68379Y-66661D03*
X68379Y-66161D03*
X68879Y-66161D03*
X69379Y-66161D03*
X73879Y-56911D03*
X73379Y-56911D03*
X72879Y-56911D03*
X72879Y-56411D03*
X73379Y-56411D03*
X73879Y-56411D03*
X73879Y-55911D03*
X73379Y-55911D03*
X72879Y-55911D03*
X70679Y-62811D03*
X71529Y-52311D03*
X71079Y-52011D03*
X74279Y-57711D03*
G54D20*
X72500Y-62500D02*
X72000Y-62500D01*
X73500Y-62500D02*
X73000Y-62500D01*
X73000Y-62000D02*
X73500Y-62000D01*
X72000Y-62000D02*
X72500Y-62000D01*
X69731Y-56109D02*
X69731Y-56609D01*
X70231Y-56609D02*
X70231Y-56109D01*
X70731Y-57109D02*
X70231Y-57109D01*
X70731Y-56109D02*
X70731Y-56609D01*
X60379Y-67411D02*
X60879Y-67411D01*
X59379Y-67411D02*
X59879Y-67411D01*
X59879Y-66911D02*
X59379Y-66911D01*
X60879Y-66911D02*
X60379Y-66911D01*
X60379Y-66411D02*
X60879Y-66411D01*
X59379Y-66411D02*
X59879Y-66411D01*
G54D21*
X61129Y-58411D02*
X60629Y-58411D01*
X62129Y-58411D02*
X61629Y-58411D01*
X61629Y-57911D02*
X62129Y-57911D01*
X60629Y-57911D02*
X61129Y-57911D01*
X61129Y-57411D02*
X60629Y-57411D01*
X62129Y-57411D02*
X61629Y-57411D01*
X61629Y-56911D02*
X62129Y-56911D01*
X60629Y-56911D02*
X61129Y-56911D01*
G54D22*
X74379Y-59161D02*
X74379Y-58661D01*
X73879Y-59661D02*
X74379Y-59661D01*
X72879Y-59661D02*
X73379Y-59661D01*
X73379Y-59161D02*
X72879Y-59161D01*
X73879Y-58661D02*
X73879Y-59161D01*
X72879Y-58661D02*
X73379Y-58661D01*
G54D21*
X68379Y-52661D02*
X68879Y-52661D01*
X68879Y-52161D02*
X68379Y-52161D01*
X68379Y-51661D02*
X68879Y-51661D01*
X68879Y-51161D02*
X68379Y-51161D01*
G54D20*
X60279Y-53411D02*
X60279Y-52311D01*
X60379Y-51911D02*
X59879Y-51911D01*
X61379Y-51911D02*
X60879Y-51911D01*
X61879Y-51411D02*
X61879Y-51911D01*
X60879Y-51411D02*
X61379Y-51411D01*
X59879Y-51411D02*
X60379Y-51411D01*
X60279Y-52311D02*
X59379Y-51411D01*
X69379Y-67161D02*
X68879Y-67161D01*
X68879Y-66661D02*
X69379Y-66661D01*
X68379Y-66161D02*
X68379Y-66661D01*
X69379Y-66161D02*
X68879Y-66161D01*
X72879Y-56911D02*
X73379Y-56911D01*
X73379Y-56411D02*
X72879Y-56411D01*
X73879Y-55911D02*
X73879Y-56411D01*
X72879Y-55911D02*
X73379Y-55911D01*
X67781Y-64109D02*
X67781Y-62908D01*
X70679Y-62811D02*
X67879Y-62811D01*
X67879Y-62811D02*
X67781Y-62908D01*
X68881Y-54709D02*
X70031Y-54709D01*
X70031Y-54709D02*
X70029Y-54711D01*
X71529Y-53211D02*
X71529Y-52311D01*
X70029Y-54711D02*
X71529Y-53211D01*
X67781Y-54709D02*
X67781Y-53909D01*
X67781Y-53909D02*
X68130Y-53561D01*
X71079Y-52011D02*
X69529Y-53561D01*
X69529Y-53561D02*
X68130Y-53561D01*
G54D23*
X52579Y-57211D02*
X52579Y-53911D01*
X52579Y-53911D02*
X52079Y-53411D01*
G54D22*
X67781Y-57709D02*
X68881Y-57709D01*
X68881Y-57709D02*
X68883Y-57711D01*
X68883Y-57711D02*
X74279Y-57711D01*
X67781Y-57709D02*
X67781Y-58209D01*
X67781Y-58209D02*
X67179Y-58811D01*
X68881Y-61109D02*
X67781Y-61109D01*
X67781Y-61109D02*
X67179Y-60506D01*
X67179Y-60506D02*
X67179Y-59361D01*
X67179Y-58811D02*
X67179Y-59361D01*
X56079Y-60711D02*
X56879Y-59911D01*
X66629Y-59911D02*
X67179Y-59361D01*
X56879Y-59911D02*
X66629Y-59911D01*
G54D23*
X56379Y-67411D02*
X55379Y-67411D01*
X56379Y-67411D02*
X56379Y-66311D01*
X56079Y-65211D02*
X56079Y-66011D01*
X56079Y-60711D02*
X56079Y-65211D01*
X56379Y-66311D02*
X56079Y-66011D01*
X56079Y-60461D02*
X56079Y-60711D01*
X56079Y-59711D02*
X56079Y-60461D01*
X56079Y-58911D02*
X56079Y-59711D01*
X57379Y-67411D02*
X56379Y-67411D01*
X57779Y-57211D02*
X56079Y-58911D01*
X57779Y-57211D02*
X57779Y-53911D01*
X57779Y-53911D02*
X57279Y-53411D01*
G54D10*
G36*
X75609Y-68641D02*
X75429Y-68641D01*
X75429Y-67203D01*
X75429Y-51203D01*
X75270Y-50817D01*
X74974Y-50521D01*
X74589Y-50361D01*
X74171Y-50361D01*
X73785Y-50520D01*
X73489Y-50815D01*
X73329Y-51201D01*
X73329Y-51619D01*
X73488Y-52005D01*
X73783Y-52300D01*
X74169Y-52461D01*
X74587Y-52461D01*
X74973Y-52301D01*
X75268Y-52006D01*
X75429Y-51621D01*
X75429Y-51203D01*
X75429Y-67203D01*
X75270Y-66817D01*
X74974Y-66521D01*
X74704Y-66409D01*
X74704Y-57627D01*
X74639Y-57470D01*
X74520Y-57351D01*
X74364Y-57286D01*
X74195Y-57286D01*
X74074Y-57336D01*
X71954Y-57336D01*
X71954Y-52227D01*
X71889Y-52070D01*
X71770Y-51951D01*
X71614Y-51886D01*
X71487Y-51886D01*
X71439Y-51770D01*
X71320Y-51651D01*
X71164Y-51586D01*
X70995Y-51586D01*
X70838Y-51650D01*
X70719Y-51770D01*
X70654Y-51926D01*
X70654Y-51976D01*
X69394Y-53236D01*
X68130Y-53236D01*
X68005Y-53260D01*
X67936Y-53307D01*
X67936Y-51491D01*
X67925Y-51272D01*
X67863Y-51121D01*
X67767Y-51094D01*
X67697Y-51164D01*
X67697Y-51023D01*
X67669Y-50928D01*
X67463Y-50854D01*
X67245Y-50865D01*
X67094Y-50928D01*
X67066Y-51023D01*
X67381Y-51338D01*
X67697Y-51023D01*
X67697Y-51164D01*
X67452Y-51409D01*
X67767Y-51724D01*
X67863Y-51697D01*
X67936Y-51491D01*
X67936Y-53307D01*
X67900Y-53331D01*
X67900Y-53331D01*
X67697Y-53534D01*
X67697Y-51795D01*
X67381Y-51480D01*
X67311Y-51550D01*
X67311Y-51409D01*
X66995Y-51094D01*
X66900Y-51121D01*
X66880Y-51176D01*
X66848Y-51098D01*
X66693Y-50943D01*
X66491Y-50859D01*
X66272Y-50859D01*
X66070Y-50942D01*
X65915Y-51097D01*
X65881Y-51179D01*
X65848Y-51098D01*
X65693Y-50943D01*
X65491Y-50859D01*
X65272Y-50859D01*
X65070Y-50942D01*
X64915Y-51097D01*
X64881Y-51179D01*
X64848Y-51098D01*
X64693Y-50943D01*
X64491Y-50859D01*
X64272Y-50859D01*
X64070Y-50942D01*
X63931Y-51081D01*
X63931Y-51059D01*
X63893Y-50968D01*
X63823Y-50897D01*
X63731Y-50859D01*
X63632Y-50859D01*
X63032Y-50859D01*
X62940Y-50897D01*
X62870Y-50967D01*
X62831Y-51059D01*
X62831Y-51158D01*
X62831Y-51758D01*
X62869Y-51850D01*
X62940Y-51921D01*
X63031Y-51959D01*
X63131Y-51959D01*
X63731Y-51959D01*
X63823Y-51921D01*
X63893Y-51851D01*
X63931Y-51759D01*
X63931Y-51737D01*
X64069Y-51875D01*
X64272Y-51959D01*
X64490Y-51959D01*
X64693Y-51875D01*
X64847Y-51721D01*
X64881Y-51639D01*
X64915Y-51720D01*
X65069Y-51875D01*
X65272Y-51959D01*
X65490Y-51959D01*
X65693Y-51875D01*
X65847Y-51721D01*
X65881Y-51639D01*
X65915Y-51720D01*
X66069Y-51875D01*
X66272Y-51959D01*
X66490Y-51959D01*
X66693Y-51875D01*
X66847Y-51721D01*
X66879Y-51645D01*
X66900Y-51697D01*
X66995Y-51724D01*
X67311Y-51409D01*
X67311Y-51550D01*
X67066Y-51795D01*
X67094Y-51890D01*
X67300Y-51964D01*
X67518Y-51953D01*
X67669Y-51890D01*
X67697Y-51795D01*
X67697Y-53534D01*
X67552Y-53679D01*
X67481Y-53785D01*
X67456Y-53909D01*
X67456Y-54184D01*
X67365Y-54222D01*
X67295Y-54292D01*
X67256Y-54384D01*
X67256Y-54483D01*
X67256Y-55033D01*
X67294Y-55125D01*
X67365Y-55196D01*
X67456Y-55234D01*
X67556Y-55234D01*
X68106Y-55234D01*
X68198Y-55196D01*
X68268Y-55126D01*
X68306Y-55034D01*
X68306Y-54934D01*
X68306Y-54384D01*
X68268Y-54293D01*
X68198Y-54222D01*
X68106Y-54184D01*
X68106Y-54044D01*
X68264Y-53886D01*
X69529Y-53886D01*
X69653Y-53861D01*
X69653Y-53861D01*
X69759Y-53791D01*
X71113Y-52436D01*
X71121Y-52436D01*
X71168Y-52551D01*
X71204Y-52587D01*
X71204Y-53076D01*
X69896Y-54384D01*
X69406Y-54384D01*
X69368Y-54293D01*
X69298Y-54222D01*
X69206Y-54184D01*
X69107Y-54184D01*
X68557Y-54184D01*
X68465Y-54222D01*
X68395Y-54292D01*
X68356Y-54384D01*
X68356Y-54483D01*
X68356Y-55033D01*
X68394Y-55125D01*
X68465Y-55196D01*
X68556Y-55234D01*
X68656Y-55234D01*
X69206Y-55234D01*
X69298Y-55196D01*
X69368Y-55126D01*
X69406Y-55034D01*
X70020Y-55034D01*
X70029Y-55036D01*
X70153Y-55011D01*
X70259Y-54941D01*
X70260Y-54939D01*
X70260Y-54939D01*
X70260Y-54939D01*
X70260Y-54939D01*
X71759Y-53441D01*
X71759Y-53441D01*
X71759Y-53441D01*
X71829Y-53335D01*
X71829Y-53335D01*
X71854Y-53211D01*
X71854Y-52587D01*
X71889Y-52552D01*
X71954Y-52396D01*
X71954Y-52227D01*
X71954Y-57336D01*
X69251Y-57336D01*
X69179Y-57264D01*
X68986Y-57184D01*
X68777Y-57184D01*
X68584Y-57264D01*
X68514Y-57334D01*
X68149Y-57334D01*
X68079Y-57264D01*
X67886Y-57184D01*
X67677Y-57184D01*
X67484Y-57264D01*
X67337Y-57411D01*
X67256Y-57604D01*
X67256Y-57813D01*
X67336Y-58006D01*
X67395Y-58065D01*
X67206Y-58254D01*
X67206Y-54605D01*
X67127Y-54412D01*
X66979Y-54264D01*
X66786Y-54184D01*
X66577Y-54184D01*
X66384Y-54264D01*
X66237Y-54411D01*
X66156Y-54604D01*
X66156Y-54813D01*
X66236Y-55006D01*
X66384Y-55154D01*
X66577Y-55234D01*
X66785Y-55234D01*
X66978Y-55154D01*
X67126Y-55007D01*
X67206Y-54814D01*
X67206Y-54605D01*
X67206Y-58254D01*
X67206Y-58254D01*
X67206Y-57934D01*
X67206Y-57384D01*
X67168Y-57293D01*
X67098Y-57222D01*
X67006Y-57184D01*
X66907Y-57184D01*
X66357Y-57184D01*
X66265Y-57222D01*
X66195Y-57292D01*
X66156Y-57384D01*
X66156Y-57483D01*
X66156Y-58033D01*
X66194Y-58125D01*
X66265Y-58196D01*
X66356Y-58234D01*
X66456Y-58234D01*
X67006Y-58234D01*
X67098Y-58196D01*
X67168Y-58126D01*
X67206Y-58034D01*
X67206Y-57934D01*
X67206Y-58254D01*
X66914Y-58546D01*
X66832Y-58668D01*
X66804Y-58811D01*
X66804Y-59205D01*
X66474Y-59536D01*
X66104Y-59536D01*
X66104Y-54607D01*
X66024Y-54414D01*
X65877Y-54266D01*
X65684Y-54186D01*
X65475Y-54186D01*
X65282Y-54265D01*
X65134Y-54413D01*
X65054Y-54606D01*
X65054Y-54815D01*
X65134Y-55008D01*
X65281Y-55156D01*
X65474Y-55236D01*
X65683Y-55236D01*
X65876Y-55156D01*
X66024Y-55009D01*
X66104Y-54816D01*
X66104Y-54607D01*
X66104Y-59536D01*
X66104Y-59536D01*
X66104Y-57936D01*
X66104Y-57386D01*
X66066Y-57294D01*
X65996Y-57224D01*
X65904Y-57186D01*
X65804Y-57186D01*
X65254Y-57186D01*
X65162Y-57224D01*
X65092Y-57294D01*
X65054Y-57386D01*
X65054Y-57485D01*
X65054Y-58035D01*
X65092Y-58127D01*
X65162Y-58198D01*
X65254Y-58236D01*
X65353Y-58236D01*
X65903Y-58236D01*
X65995Y-58198D01*
X66066Y-58128D01*
X66104Y-58036D01*
X66104Y-57936D01*
X66104Y-59536D01*
X60804Y-59536D01*
X60804Y-53636D01*
X60804Y-53185D01*
X60804Y-53086D01*
X60766Y-52994D01*
X60695Y-52924D01*
X60603Y-52886D01*
X60391Y-52886D01*
X60329Y-52948D01*
X60329Y-53361D01*
X60741Y-53361D01*
X60804Y-53298D01*
X60804Y-53185D01*
X60804Y-53636D01*
X60804Y-53523D01*
X60741Y-53461D01*
X60329Y-53461D01*
X60329Y-53873D01*
X60391Y-53936D01*
X60603Y-53936D01*
X60695Y-53898D01*
X60766Y-53828D01*
X60804Y-53736D01*
X60804Y-53636D01*
X60804Y-59536D01*
X60379Y-59536D01*
X60379Y-57610D01*
X60379Y-56811D01*
X60341Y-56719D01*
X60271Y-56649D01*
X60229Y-56632D01*
X60229Y-53873D01*
X60229Y-53461D01*
X60229Y-53361D01*
X60229Y-52948D01*
X60166Y-52886D01*
X59954Y-52886D01*
X59862Y-52924D01*
X59792Y-52994D01*
X59754Y-53086D01*
X59754Y-53185D01*
X59754Y-53298D01*
X59816Y-53361D01*
X60229Y-53361D01*
X60229Y-53461D01*
X59816Y-53461D01*
X59754Y-53523D01*
X59754Y-53636D01*
X59754Y-53736D01*
X59792Y-53828D01*
X59862Y-53898D01*
X59954Y-53936D01*
X60166Y-53936D01*
X60229Y-53873D01*
X60229Y-56632D01*
X60179Y-56611D01*
X60079Y-56611D01*
X59891Y-56611D01*
X59829Y-56673D01*
X59829Y-57161D01*
X60316Y-57161D01*
X60379Y-57098D01*
X60379Y-56811D01*
X60379Y-57610D01*
X60379Y-57323D01*
X60316Y-57261D01*
X59829Y-57261D01*
X59829Y-57748D01*
X59891Y-57811D01*
X60079Y-57811D01*
X60179Y-57811D01*
X60271Y-57773D01*
X60341Y-57702D01*
X60379Y-57610D01*
X60379Y-59536D01*
X56879Y-59536D01*
X56735Y-59564D01*
X56662Y-59613D01*
X56614Y-59646D01*
X56579Y-59680D01*
X56579Y-59118D01*
X57886Y-57811D01*
X57898Y-57811D01*
X58118Y-57720D01*
X58279Y-57559D01*
X58439Y-57719D01*
X58659Y-57811D01*
X58898Y-57811D01*
X59118Y-57720D01*
X59193Y-57645D01*
X59217Y-57702D01*
X59287Y-57773D01*
X59379Y-57811D01*
X59478Y-57811D01*
X59666Y-57811D01*
X59729Y-57748D01*
X59729Y-57261D01*
X59721Y-57261D01*
X59721Y-57161D01*
X59729Y-57161D01*
X59729Y-56673D01*
X59666Y-56611D01*
X59478Y-56611D01*
X59379Y-56611D01*
X59287Y-56649D01*
X59217Y-56719D01*
X59193Y-56777D01*
X59119Y-56702D01*
X58936Y-56626D01*
X58936Y-51491D01*
X58925Y-51272D01*
X58863Y-51121D01*
X58767Y-51094D01*
X58697Y-51164D01*
X58697Y-51023D01*
X58669Y-50928D01*
X58463Y-50854D01*
X58245Y-50865D01*
X58094Y-50928D01*
X58066Y-51023D01*
X58381Y-51338D01*
X58697Y-51023D01*
X58697Y-51164D01*
X58452Y-51409D01*
X58767Y-51724D01*
X58863Y-51697D01*
X58936Y-51491D01*
X58936Y-56626D01*
X58899Y-56611D01*
X58697Y-56611D01*
X58697Y-51795D01*
X58381Y-51480D01*
X58311Y-51550D01*
X58311Y-51409D01*
X57995Y-51094D01*
X57900Y-51121D01*
X57880Y-51176D01*
X57848Y-51098D01*
X57693Y-50943D01*
X57491Y-50859D01*
X57272Y-50859D01*
X57070Y-50942D01*
X56915Y-51097D01*
X56881Y-51179D01*
X56848Y-51098D01*
X56693Y-50943D01*
X56491Y-50859D01*
X56272Y-50859D01*
X56070Y-50942D01*
X55915Y-51097D01*
X55881Y-51179D01*
X55848Y-51098D01*
X55693Y-50943D01*
X55491Y-50859D01*
X55272Y-50859D01*
X55070Y-50942D01*
X54931Y-51081D01*
X54931Y-51059D01*
X54893Y-50968D01*
X54823Y-50897D01*
X54731Y-50859D01*
X54632Y-50859D01*
X54032Y-50859D01*
X53940Y-50897D01*
X53870Y-50967D01*
X53831Y-51059D01*
X53831Y-51158D01*
X53831Y-51758D01*
X53869Y-51850D01*
X53940Y-51921D01*
X54031Y-51959D01*
X54131Y-51959D01*
X54731Y-51959D01*
X54823Y-51921D01*
X54893Y-51851D01*
X54931Y-51759D01*
X54931Y-51737D01*
X55069Y-51875D01*
X55272Y-51959D01*
X55490Y-51959D01*
X55693Y-51875D01*
X55847Y-51721D01*
X55881Y-51639D01*
X55915Y-51720D01*
X56069Y-51875D01*
X56272Y-51959D01*
X56490Y-51959D01*
X56693Y-51875D01*
X56847Y-51721D01*
X56881Y-51639D01*
X56915Y-51720D01*
X57069Y-51875D01*
X57272Y-51959D01*
X57490Y-51959D01*
X57693Y-51875D01*
X57847Y-51721D01*
X57879Y-51645D01*
X57900Y-51697D01*
X57995Y-51724D01*
X58311Y-51409D01*
X58311Y-51550D01*
X58066Y-51795D01*
X58094Y-51890D01*
X58300Y-51964D01*
X58518Y-51953D01*
X58669Y-51890D01*
X58697Y-51795D01*
X58697Y-56611D01*
X58660Y-56611D01*
X58439Y-56702D01*
X58279Y-56862D01*
X58279Y-53911D01*
X58241Y-53719D01*
X58132Y-53557D01*
X58132Y-53557D01*
X57749Y-53174D01*
X57724Y-53114D01*
X57577Y-52966D01*
X57384Y-52886D01*
X57175Y-52886D01*
X56982Y-52965D01*
X56834Y-53113D01*
X56754Y-53306D01*
X56754Y-53515D01*
X56834Y-53708D01*
X56981Y-53856D01*
X57042Y-53881D01*
X57279Y-54118D01*
X57279Y-56862D01*
X57271Y-56870D01*
X57179Y-57091D01*
X57179Y-57104D01*
X55725Y-58557D01*
X55617Y-58719D01*
X55609Y-58760D01*
X55609Y-53487D01*
X55597Y-53278D01*
X55539Y-53138D01*
X55447Y-53114D01*
X55376Y-53184D01*
X55376Y-53043D01*
X55352Y-52950D01*
X55155Y-52881D01*
X54946Y-52892D01*
X54806Y-52950D01*
X54782Y-53043D01*
X55079Y-53340D01*
X55376Y-53043D01*
X55376Y-53184D01*
X55150Y-53411D01*
X55447Y-53708D01*
X55539Y-53684D01*
X55609Y-53487D01*
X55609Y-58760D01*
X55579Y-58911D01*
X55579Y-58911D01*
X55579Y-59711D01*
X55579Y-60461D01*
X55579Y-60711D01*
X55579Y-61911D01*
X55541Y-61819D01*
X55471Y-61749D01*
X55379Y-61711D01*
X55376Y-61711D01*
X55376Y-53779D01*
X55079Y-53481D01*
X55008Y-53552D01*
X55008Y-53411D01*
X54711Y-53114D01*
X54618Y-53138D01*
X54549Y-53335D01*
X54560Y-53544D01*
X54618Y-53684D01*
X54711Y-53708D01*
X55008Y-53411D01*
X55008Y-53552D01*
X54782Y-53779D01*
X54806Y-53871D01*
X55003Y-53941D01*
X55212Y-53929D01*
X55352Y-53871D01*
X55376Y-53779D01*
X55376Y-61711D01*
X55279Y-61711D01*
X55179Y-61711D01*
X55179Y-57092D01*
X55088Y-56871D01*
X54919Y-56702D01*
X54699Y-56611D01*
X54460Y-56611D01*
X54239Y-56702D01*
X54165Y-56777D01*
X54141Y-56719D01*
X54071Y-56649D01*
X53979Y-56611D01*
X53879Y-56611D01*
X53691Y-56611D01*
X53629Y-56673D01*
X53629Y-57161D01*
X53637Y-57161D01*
X53637Y-57261D01*
X53629Y-57261D01*
X53629Y-57748D01*
X53691Y-57811D01*
X53879Y-57811D01*
X53979Y-57811D01*
X54071Y-57773D01*
X54141Y-57702D01*
X54165Y-57645D01*
X54239Y-57719D01*
X54459Y-57811D01*
X54698Y-57811D01*
X54918Y-57720D01*
X55087Y-57551D01*
X55179Y-57331D01*
X55179Y-57092D01*
X55179Y-61711D01*
X53529Y-61711D01*
X53529Y-57748D01*
X53529Y-57261D01*
X53521Y-57261D01*
X53521Y-57161D01*
X53529Y-57161D01*
X53529Y-56673D01*
X53466Y-56611D01*
X53429Y-56611D01*
X53429Y-51203D01*
X53270Y-50817D01*
X52974Y-50521D01*
X52589Y-50361D01*
X52171Y-50361D01*
X51785Y-50520D01*
X51489Y-50815D01*
X51329Y-51201D01*
X51329Y-51619D01*
X51488Y-52005D01*
X51783Y-52300D01*
X52169Y-52461D01*
X52587Y-52461D01*
X52973Y-52301D01*
X53268Y-52006D01*
X53429Y-51621D01*
X53429Y-51203D01*
X53429Y-56611D01*
X53278Y-56611D01*
X53179Y-56611D01*
X53087Y-56649D01*
X53079Y-56657D01*
X53079Y-53911D01*
X53041Y-53719D01*
X52932Y-53557D01*
X52932Y-53557D01*
X52604Y-53229D01*
X52604Y-53086D01*
X52566Y-52994D01*
X52496Y-52924D01*
X52404Y-52886D01*
X52304Y-52886D01*
X51754Y-52886D01*
X51662Y-52924D01*
X51592Y-52994D01*
X51554Y-53086D01*
X51554Y-53185D01*
X51554Y-53735D01*
X51592Y-53827D01*
X51662Y-53898D01*
X51754Y-53936D01*
X51853Y-53936D01*
X51897Y-53936D01*
X52079Y-54118D01*
X52079Y-56862D01*
X52071Y-56870D01*
X51979Y-57091D01*
X51979Y-57330D01*
X52070Y-57550D01*
X52239Y-57719D01*
X52459Y-57811D01*
X52698Y-57811D01*
X52918Y-57720D01*
X52993Y-57645D01*
X53017Y-57702D01*
X53087Y-57773D01*
X53179Y-57811D01*
X53278Y-57811D01*
X53466Y-57811D01*
X53529Y-57748D01*
X53529Y-61711D01*
X51779Y-61711D01*
X51687Y-61749D01*
X51617Y-61819D01*
X51579Y-61911D01*
X51579Y-62010D01*
X51579Y-65510D01*
X51617Y-65602D01*
X51687Y-65673D01*
X51779Y-65711D01*
X51878Y-65711D01*
X55378Y-65711D01*
X55470Y-65673D01*
X55541Y-65603D01*
X55579Y-65511D01*
X55579Y-65461D01*
X55579Y-66011D01*
X55579Y-66011D01*
X55617Y-66202D01*
X55725Y-66364D01*
X55879Y-66518D01*
X55879Y-66911D01*
X55616Y-66911D01*
X55491Y-66859D01*
X55272Y-66859D01*
X55070Y-66942D01*
X54931Y-67081D01*
X54931Y-67059D01*
X54893Y-66968D01*
X54823Y-66897D01*
X54731Y-66859D01*
X54632Y-66859D01*
X54032Y-66859D01*
X53940Y-66897D01*
X53870Y-66967D01*
X53831Y-67059D01*
X53831Y-67158D01*
X53831Y-67758D01*
X53869Y-67850D01*
X53940Y-67921D01*
X54031Y-67959D01*
X54131Y-67959D01*
X54731Y-67959D01*
X54823Y-67921D01*
X54893Y-67851D01*
X54931Y-67759D01*
X54931Y-67737D01*
X55069Y-67875D01*
X55272Y-67959D01*
X55490Y-67959D01*
X55607Y-67911D01*
X56156Y-67911D01*
X56272Y-67959D01*
X56490Y-67959D01*
X56607Y-67911D01*
X57156Y-67911D01*
X57272Y-67959D01*
X57490Y-67959D01*
X57693Y-67875D01*
X57847Y-67721D01*
X57879Y-67645D01*
X57900Y-67697D01*
X57995Y-67724D01*
X58311Y-67409D01*
X57995Y-67094D01*
X57900Y-67121D01*
X57880Y-67176D01*
X57848Y-67098D01*
X57693Y-66943D01*
X57491Y-66859D01*
X57272Y-66859D01*
X57147Y-66911D01*
X56879Y-66911D01*
X56879Y-66311D01*
X56879Y-66311D01*
X56879Y-66311D01*
X56841Y-66119D01*
X56732Y-65957D01*
X56732Y-65957D01*
X56579Y-65804D01*
X56579Y-65211D01*
X56579Y-60741D01*
X57034Y-60286D01*
X66629Y-60286D01*
X66772Y-60257D01*
X66804Y-60236D01*
X66804Y-60506D01*
X66819Y-60584D01*
X66357Y-60584D01*
X66265Y-60622D01*
X66195Y-60692D01*
X66156Y-60784D01*
X66156Y-60883D01*
X66156Y-61433D01*
X66194Y-61525D01*
X66265Y-61596D01*
X66356Y-61634D01*
X66456Y-61634D01*
X67006Y-61634D01*
X67098Y-61596D01*
X67168Y-61526D01*
X67206Y-61434D01*
X67206Y-61334D01*
X67206Y-61064D01*
X67256Y-61114D01*
X67256Y-61213D01*
X67336Y-61406D01*
X67484Y-61554D01*
X67677Y-61634D01*
X67885Y-61634D01*
X68078Y-61554D01*
X68149Y-61484D01*
X68514Y-61484D01*
X68584Y-61554D01*
X68777Y-61634D01*
X68985Y-61634D01*
X69178Y-61554D01*
X69326Y-61407D01*
X69406Y-61214D01*
X69406Y-61005D01*
X69327Y-60812D01*
X69179Y-60664D01*
X68986Y-60584D01*
X68777Y-60584D01*
X68584Y-60664D01*
X68514Y-60734D01*
X68149Y-60734D01*
X68079Y-60664D01*
X67886Y-60584D01*
X67787Y-60584D01*
X67554Y-60351D01*
X67554Y-59361D01*
X67554Y-58967D01*
X68047Y-58474D01*
X68047Y-58474D01*
X68128Y-58352D01*
X68156Y-58209D01*
X68156Y-58209D01*
X68156Y-58084D01*
X68514Y-58084D01*
X68584Y-58154D01*
X68777Y-58234D01*
X68985Y-58234D01*
X69178Y-58154D01*
X69247Y-58086D01*
X74074Y-58086D01*
X74194Y-58136D01*
X74363Y-58136D01*
X74519Y-58071D01*
X74639Y-57952D01*
X74704Y-57796D01*
X74704Y-57627D01*
X74704Y-66409D01*
X74589Y-66361D01*
X74171Y-66361D01*
X73785Y-66520D01*
X73489Y-66815D01*
X73329Y-67201D01*
X73329Y-67619D01*
X73488Y-68005D01*
X73783Y-68300D01*
X74169Y-68461D01*
X74587Y-68461D01*
X74973Y-68301D01*
X75268Y-68006D01*
X75429Y-67621D01*
X75429Y-67203D01*
X75429Y-68641D01*
X71104Y-68641D01*
X71104Y-62727D01*
X71039Y-62570D01*
X70920Y-62451D01*
X70764Y-62386D01*
X70595Y-62386D01*
X70438Y-62450D01*
X70403Y-62486D01*
X67879Y-62486D01*
X67754Y-62510D01*
X67712Y-62539D01*
X67649Y-62581D01*
X67649Y-62581D01*
X67552Y-62678D01*
X67481Y-62784D01*
X67456Y-62908D01*
X67456Y-63584D01*
X67365Y-63622D01*
X67295Y-63692D01*
X67256Y-63784D01*
X67256Y-63883D01*
X67256Y-64433D01*
X67294Y-64525D01*
X67365Y-64596D01*
X67456Y-64634D01*
X67556Y-64634D01*
X68106Y-64634D01*
X68198Y-64596D01*
X68268Y-64526D01*
X68306Y-64434D01*
X68306Y-64334D01*
X68306Y-63784D01*
X68268Y-63693D01*
X68198Y-63622D01*
X68106Y-63584D01*
X68106Y-63136D01*
X70403Y-63136D01*
X70438Y-63171D01*
X70594Y-63236D01*
X70763Y-63236D01*
X70919Y-63171D01*
X71039Y-63052D01*
X71104Y-62896D01*
X71104Y-62727D01*
X71104Y-68641D01*
X69406Y-68641D01*
X69406Y-64334D01*
X69406Y-63784D01*
X69368Y-63693D01*
X69298Y-63622D01*
X69206Y-63584D01*
X69107Y-63584D01*
X68557Y-63584D01*
X68465Y-63622D01*
X68395Y-63692D01*
X68356Y-63784D01*
X68356Y-63883D01*
X68356Y-64433D01*
X68394Y-64525D01*
X68465Y-64596D01*
X68556Y-64634D01*
X68656Y-64634D01*
X69206Y-64634D01*
X69298Y-64596D01*
X69368Y-64526D01*
X69406Y-64434D01*
X69406Y-64334D01*
X69406Y-68641D01*
X67936Y-68641D01*
X67936Y-67491D01*
X67925Y-67272D01*
X67863Y-67121D01*
X67767Y-67094D01*
X67697Y-67164D01*
X67697Y-67023D01*
X67669Y-66928D01*
X67463Y-66854D01*
X67245Y-66865D01*
X67206Y-66881D01*
X67206Y-64005D01*
X67127Y-63812D01*
X66979Y-63664D01*
X66786Y-63584D01*
X66577Y-63584D01*
X66384Y-63664D01*
X66237Y-63811D01*
X66156Y-64004D01*
X66156Y-64213D01*
X66236Y-64406D01*
X66384Y-64554D01*
X66577Y-64634D01*
X66785Y-64634D01*
X66978Y-64554D01*
X67126Y-64407D01*
X67206Y-64214D01*
X67206Y-64005D01*
X67206Y-66881D01*
X67094Y-66928D01*
X67066Y-67023D01*
X67381Y-67338D01*
X67697Y-67023D01*
X67697Y-67164D01*
X67452Y-67409D01*
X67767Y-67724D01*
X67863Y-67697D01*
X67936Y-67491D01*
X67936Y-68641D01*
X67697Y-68641D01*
X67697Y-67795D01*
X67381Y-67480D01*
X67311Y-67550D01*
X67311Y-67409D01*
X66995Y-67094D01*
X66900Y-67121D01*
X66880Y-67176D01*
X66848Y-67098D01*
X66693Y-66943D01*
X66491Y-66859D01*
X66272Y-66859D01*
X66104Y-66928D01*
X66104Y-64007D01*
X66104Y-64007D01*
X66104Y-61336D01*
X66104Y-60786D01*
X66066Y-60694D01*
X65996Y-60624D01*
X65904Y-60586D01*
X65804Y-60586D01*
X65254Y-60586D01*
X65162Y-60624D01*
X65092Y-60694D01*
X65054Y-60786D01*
X65054Y-60885D01*
X65054Y-61435D01*
X65092Y-61527D01*
X65162Y-61598D01*
X65254Y-61636D01*
X65353Y-61636D01*
X65903Y-61636D01*
X65995Y-61598D01*
X66066Y-61528D01*
X66104Y-61436D01*
X66104Y-61336D01*
X66104Y-64007D01*
X66024Y-63814D01*
X65877Y-63666D01*
X65684Y-63586D01*
X65475Y-63586D01*
X65282Y-63665D01*
X65134Y-63813D01*
X65054Y-64006D01*
X65054Y-64215D01*
X65134Y-64408D01*
X65281Y-64556D01*
X65474Y-64636D01*
X65683Y-64636D01*
X65876Y-64556D01*
X66024Y-64409D01*
X66104Y-64216D01*
X66104Y-64007D01*
X66104Y-66928D01*
X66070Y-66942D01*
X65915Y-67097D01*
X65881Y-67179D01*
X65848Y-67098D01*
X65693Y-66943D01*
X65491Y-66859D01*
X65272Y-66859D01*
X65070Y-66942D01*
X64915Y-67097D01*
X64881Y-67179D01*
X64848Y-67098D01*
X64693Y-66943D01*
X64491Y-66859D01*
X64272Y-66859D01*
X64070Y-66942D01*
X63931Y-67081D01*
X63931Y-67059D01*
X63893Y-66968D01*
X63823Y-66897D01*
X63731Y-66859D01*
X63632Y-66859D01*
X63032Y-66859D01*
X62940Y-66897D01*
X62870Y-66967D01*
X62831Y-67059D01*
X62831Y-67158D01*
X62831Y-67758D01*
X62869Y-67850D01*
X62940Y-67921D01*
X63031Y-67959D01*
X63131Y-67959D01*
X63731Y-67959D01*
X63823Y-67921D01*
X63893Y-67851D01*
X63931Y-67759D01*
X63931Y-67737D01*
X64069Y-67875D01*
X64272Y-67959D01*
X64490Y-67959D01*
X64693Y-67875D01*
X64847Y-67721D01*
X64881Y-67639D01*
X64915Y-67720D01*
X65069Y-67875D01*
X65272Y-67959D01*
X65490Y-67959D01*
X65693Y-67875D01*
X65847Y-67721D01*
X65881Y-67639D01*
X65915Y-67720D01*
X66069Y-67875D01*
X66272Y-67959D01*
X66490Y-67959D01*
X66693Y-67875D01*
X66847Y-67721D01*
X66879Y-67645D01*
X66900Y-67697D01*
X66995Y-67724D01*
X67311Y-67409D01*
X67311Y-67550D01*
X67066Y-67795D01*
X67094Y-67890D01*
X67300Y-67964D01*
X67518Y-67953D01*
X67669Y-67890D01*
X67697Y-67795D01*
X67697Y-68641D01*
X60779Y-68641D01*
X60779Y-65411D01*
X60779Y-61911D01*
X60741Y-61819D01*
X60671Y-61749D01*
X60579Y-61711D01*
X60479Y-61711D01*
X56979Y-61711D01*
X56887Y-61749D01*
X56817Y-61819D01*
X56779Y-61911D01*
X56779Y-62010D01*
X56779Y-65510D01*
X56817Y-65602D01*
X56887Y-65673D01*
X56979Y-65711D01*
X57078Y-65711D01*
X60578Y-65711D01*
X60670Y-65673D01*
X60741Y-65603D01*
X60779Y-65511D01*
X60779Y-65411D01*
X60779Y-68641D01*
X58936Y-68641D01*
X58936Y-67491D01*
X58925Y-67272D01*
X58863Y-67121D01*
X58767Y-67094D01*
X58697Y-67164D01*
X58697Y-67023D01*
X58669Y-66928D01*
X58463Y-66854D01*
X58245Y-66865D01*
X58094Y-66928D01*
X58066Y-67023D01*
X58381Y-67338D01*
X58697Y-67023D01*
X58697Y-67164D01*
X58452Y-67409D01*
X58767Y-67724D01*
X58863Y-67697D01*
X58936Y-67491D01*
X58936Y-68641D01*
X58697Y-68641D01*
X58697Y-67795D01*
X58381Y-67480D01*
X58066Y-67795D01*
X58094Y-67890D01*
X58300Y-67964D01*
X58518Y-67953D01*
X58669Y-67890D01*
X58697Y-67795D01*
X58697Y-68641D01*
X53429Y-68641D01*
X53429Y-67203D01*
X53270Y-66817D01*
X52974Y-66521D01*
X52589Y-66361D01*
X52171Y-66361D01*
X51785Y-66520D01*
X51489Y-66815D01*
X51329Y-67201D01*
X51329Y-67619D01*
X51488Y-68005D01*
X51783Y-68300D01*
X52169Y-68461D01*
X52587Y-68461D01*
X52973Y-68301D01*
X53268Y-68006D01*
X53429Y-67621D01*
X53429Y-67203D01*
X53429Y-68641D01*
X51149Y-68641D01*
X51149Y-50411D01*
X51149Y-50180D01*
X75609Y-50180D01*
X75609Y-50411D01*
X75609Y-68641D01*
X75609Y-68641D01*
G37*
G54D21*
X75609Y-68641D02*
X75429Y-68641D01*
X75429Y-67203D01*
X75429Y-51203D01*
X75270Y-50817D01*
X74974Y-50521D01*
X74589Y-50361D01*
X74171Y-50361D01*
X73785Y-50520D01*
X73489Y-50815D01*
X73329Y-51201D01*
X73329Y-51619D01*
X73488Y-52005D01*
X73783Y-52300D01*
X74169Y-52461D01*
X74587Y-52461D01*
X74973Y-52301D01*
X75268Y-52006D01*
X75429Y-51621D01*
X75429Y-51203D01*
X75429Y-67203D01*
X75270Y-66817D01*
X74974Y-66521D01*
X74704Y-66409D01*
X74704Y-57627D01*
X74639Y-57470D01*
X74520Y-57351D01*
X74364Y-57286D01*
X74195Y-57286D01*
X74074Y-57336D01*
X71954Y-57336D01*
X71954Y-52227D01*
X71889Y-52070D01*
X71770Y-51951D01*
X71614Y-51886D01*
X71487Y-51886D01*
X71439Y-51770D01*
X71320Y-51651D01*
X71164Y-51586D01*
X70995Y-51586D01*
X70838Y-51650D01*
X70719Y-51770D01*
X70654Y-51926D01*
X70654Y-51976D01*
X69394Y-53236D01*
X68130Y-53236D01*
X68005Y-53260D01*
X67936Y-53307D01*
X67936Y-51491D01*
X67925Y-51272D01*
X67863Y-51121D01*
X67767Y-51094D01*
X67697Y-51164D01*
X67697Y-51023D01*
X67669Y-50928D01*
X67463Y-50854D01*
X67245Y-50865D01*
X67094Y-50928D01*
X67066Y-51023D01*
X67381Y-51338D01*
X67697Y-51023D01*
X67697Y-51164D01*
X67452Y-51409D01*
X67767Y-51724D01*
X67863Y-51697D01*
X67936Y-51491D01*
X67936Y-53307D01*
X67900Y-53331D01*
X67900Y-53331D01*
X67697Y-53534D01*
X67697Y-51795D01*
X67381Y-51480D01*
X67311Y-51550D01*
X67311Y-51409D01*
X66995Y-51094D01*
X66900Y-51121D01*
X66880Y-51176D01*
X66848Y-51098D01*
X66693Y-50943D01*
X66491Y-50859D01*
X66272Y-50859D01*
X66070Y-50942D01*
X65915Y-51097D01*
X65881Y-51179D01*
X65848Y-51098D01*
X65693Y-50943D01*
X65491Y-50859D01*
X65272Y-50859D01*
X65070Y-50942D01*
X64915Y-51097D01*
X64881Y-51179D01*
X64848Y-51098D01*
X64693Y-50943D01*
X64491Y-50859D01*
X64272Y-50859D01*
X64070Y-50942D01*
X63931Y-51081D01*
X63931Y-51059D01*
X63893Y-50968D01*
X63823Y-50897D01*
X63731Y-50859D01*
X63632Y-50859D01*
X63032Y-50859D01*
X62940Y-50897D01*
X62870Y-50967D01*
X62831Y-51059D01*
X62831Y-51158D01*
X62831Y-51758D01*
X62869Y-51850D01*
X62940Y-51921D01*
X63031Y-51959D01*
X63131Y-51959D01*
X63731Y-51959D01*
X63823Y-51921D01*
X63893Y-51851D01*
X63931Y-51759D01*
X63931Y-51737D01*
X64069Y-51875D01*
X64272Y-51959D01*
X64490Y-51959D01*
X64693Y-51875D01*
X64847Y-51721D01*
X64881Y-51639D01*
X64915Y-51720D01*
X65069Y-51875D01*
X65272Y-51959D01*
X65490Y-51959D01*
X65693Y-51875D01*
X65847Y-51721D01*
X65881Y-51639D01*
X65915Y-51720D01*
X66069Y-51875D01*
X66272Y-51959D01*
X66490Y-51959D01*
X66693Y-51875D01*
X66847Y-51721D01*
X66879Y-51645D01*
X66900Y-51697D01*
X66995Y-51724D01*
X67311Y-51409D01*
X67311Y-51550D01*
X67066Y-51795D01*
X67094Y-51890D01*
X67300Y-51964D01*
X67518Y-51953D01*
X67669Y-51890D01*
X67697Y-51795D01*
X67697Y-53534D01*
X67552Y-53679D01*
X67481Y-53785D01*
X67456Y-53909D01*
X67456Y-54184D01*
X67365Y-54222D01*
X67295Y-54292D01*
X67256Y-54384D01*
X67256Y-54483D01*
X67256Y-55033D01*
X67294Y-55125D01*
X67365Y-55196D01*
X67456Y-55234D01*
X67556Y-55234D01*
X68106Y-55234D01*
X68198Y-55196D01*
X68268Y-55126D01*
X68306Y-55034D01*
X68306Y-54934D01*
X68306Y-54384D01*
X68268Y-54293D01*
X68198Y-54222D01*
X68106Y-54184D01*
X68106Y-54044D01*
X68264Y-53886D01*
X69529Y-53886D01*
X69653Y-53861D01*
X69653Y-53861D01*
X69759Y-53791D01*
X71113Y-52436D01*
X71121Y-52436D01*
X71168Y-52551D01*
X71204Y-52587D01*
X71204Y-53076D01*
X69896Y-54384D01*
X69406Y-54384D01*
X69368Y-54293D01*
X69298Y-54222D01*
X69206Y-54184D01*
X69107Y-54184D01*
X68557Y-54184D01*
X68465Y-54222D01*
X68395Y-54292D01*
X68356Y-54384D01*
X68356Y-54483D01*
X68356Y-55033D01*
X68394Y-55125D01*
X68465Y-55196D01*
X68556Y-55234D01*
X68656Y-55234D01*
X69206Y-55234D01*
X69298Y-55196D01*
X69368Y-55126D01*
X69406Y-55034D01*
X70020Y-55034D01*
X70029Y-55036D01*
X70153Y-55011D01*
X70259Y-54941D01*
X70260Y-54939D01*
X70260Y-54939D01*
X70260Y-54939D01*
X70260Y-54939D01*
X71759Y-53441D01*
X71759Y-53441D01*
X71759Y-53441D01*
X71829Y-53335D01*
X71829Y-53335D01*
X71854Y-53211D01*
X71854Y-52587D01*
X71889Y-52552D01*
X71954Y-52396D01*
X71954Y-52227D01*
X71954Y-57336D01*
X69251Y-57336D01*
X69179Y-57264D01*
X68986Y-57184D01*
X68777Y-57184D01*
X68584Y-57264D01*
X68514Y-57334D01*
X68149Y-57334D01*
X68079Y-57264D01*
X67886Y-57184D01*
X67677Y-57184D01*
X67484Y-57264D01*
X67337Y-57411D01*
X67256Y-57604D01*
X67256Y-57813D01*
X67336Y-58006D01*
X67395Y-58065D01*
X67206Y-58254D01*
X67206Y-54605D01*
X67127Y-54412D01*
X66979Y-54264D01*
X66786Y-54184D01*
X66577Y-54184D01*
X66384Y-54264D01*
X66237Y-54411D01*
X66156Y-54604D01*
X66156Y-54813D01*
X66236Y-55006D01*
X66384Y-55154D01*
X66577Y-55234D01*
X66785Y-55234D01*
X66978Y-55154D01*
X67126Y-55007D01*
X67206Y-54814D01*
X67206Y-54605D01*
X67206Y-58254D01*
X67206Y-58254D01*
X67206Y-57934D01*
X67206Y-57384D01*
X67168Y-57293D01*
X67098Y-57222D01*
X67006Y-57184D01*
X66907Y-57184D01*
X66357Y-57184D01*
X66265Y-57222D01*
X66195Y-57292D01*
X66156Y-57384D01*
X66156Y-57483D01*
X66156Y-58033D01*
X66194Y-58125D01*
X66265Y-58196D01*
X66356Y-58234D01*
X66456Y-58234D01*
X67006Y-58234D01*
X67098Y-58196D01*
X67168Y-58126D01*
X67206Y-58034D01*
X67206Y-57934D01*
X67206Y-58254D01*
X66914Y-58546D01*
X66832Y-58668D01*
X66804Y-58811D01*
X66804Y-59205D01*
X66474Y-59536D01*
X66104Y-59536D01*
X66104Y-54607D01*
X66024Y-54414D01*
X65877Y-54266D01*
X65684Y-54186D01*
X65475Y-54186D01*
X65282Y-54265D01*
X65134Y-54413D01*
X65054Y-54606D01*
X65054Y-54815D01*
X65134Y-55008D01*
X65281Y-55156D01*
X65474Y-55236D01*
X65683Y-55236D01*
X65876Y-55156D01*
X66024Y-55009D01*
X66104Y-54816D01*
X66104Y-54607D01*
X66104Y-59536D01*
X66104Y-59536D01*
X66104Y-57936D01*
X66104Y-57386D01*
X66066Y-57294D01*
X65996Y-57224D01*
X65904Y-57186D01*
X65804Y-57186D01*
X65254Y-57186D01*
X65162Y-57224D01*
X65092Y-57294D01*
X65054Y-57386D01*
X65054Y-57485D01*
X65054Y-58035D01*
X65092Y-58127D01*
X65162Y-58198D01*
X65254Y-58236D01*
X65353Y-58236D01*
X65903Y-58236D01*
X65995Y-58198D01*
X66066Y-58128D01*
X66104Y-58036D01*
X66104Y-57936D01*
X66104Y-59536D01*
X60804Y-59536D01*
X60804Y-53636D01*
X60804Y-53185D01*
X60804Y-53086D01*
X60766Y-52994D01*
X60695Y-52924D01*
X60603Y-52886D01*
X60391Y-52886D01*
X60329Y-52948D01*
X60329Y-53361D01*
X60741Y-53361D01*
X60804Y-53298D01*
X60804Y-53185D01*
X60804Y-53636D01*
X60804Y-53523D01*
X60741Y-53461D01*
X60329Y-53461D01*
X60329Y-53873D01*
X60391Y-53936D01*
X60603Y-53936D01*
X60695Y-53898D01*
X60766Y-53828D01*
X60804Y-53736D01*
X60804Y-53636D01*
X60804Y-59536D01*
X60379Y-59536D01*
X60379Y-57610D01*
X60379Y-56811D01*
X60341Y-56719D01*
X60271Y-56649D01*
X60229Y-56632D01*
X60229Y-53873D01*
X60229Y-53461D01*
X60229Y-53361D01*
X60229Y-52948D01*
X60166Y-52886D01*
X59954Y-52886D01*
X59862Y-52924D01*
X59792Y-52994D01*
X59754Y-53086D01*
X59754Y-53185D01*
X59754Y-53298D01*
X59816Y-53361D01*
X60229Y-53361D01*
X60229Y-53461D01*
X59816Y-53461D01*
X59754Y-53523D01*
X59754Y-53636D01*
X59754Y-53736D01*
X59792Y-53828D01*
X59862Y-53898D01*
X59954Y-53936D01*
X60166Y-53936D01*
X60229Y-53873D01*
X60229Y-56632D01*
X60179Y-56611D01*
X60079Y-56611D01*
X59891Y-56611D01*
X59829Y-56673D01*
X59829Y-57161D01*
X60316Y-57161D01*
X60379Y-57098D01*
X60379Y-56811D01*
X60379Y-57610D01*
X60379Y-57323D01*
X60316Y-57261D01*
X59829Y-57261D01*
X59829Y-57748D01*
X59891Y-57811D01*
X60079Y-57811D01*
X60179Y-57811D01*
X60271Y-57773D01*
X60341Y-57702D01*
X60379Y-57610D01*
X60379Y-59536D01*
X56879Y-59536D01*
X56735Y-59564D01*
X56662Y-59613D01*
X56614Y-59646D01*
X56579Y-59680D01*
X56579Y-59118D01*
X57886Y-57811D01*
X57898Y-57811D01*
X58118Y-57720D01*
X58279Y-57559D01*
X58439Y-57719D01*
X58659Y-57811D01*
X58898Y-57811D01*
X59118Y-57720D01*
X59193Y-57645D01*
X59217Y-57702D01*
X59287Y-57773D01*
X59379Y-57811D01*
X59478Y-57811D01*
X59666Y-57811D01*
X59729Y-57748D01*
X59729Y-57261D01*
X59721Y-57261D01*
X59721Y-57161D01*
X59729Y-57161D01*
X59729Y-56673D01*
X59666Y-56611D01*
X59478Y-56611D01*
X59379Y-56611D01*
X59287Y-56649D01*
X59217Y-56719D01*
X59193Y-56777D01*
X59119Y-56702D01*
X58936Y-56626D01*
X58936Y-51491D01*
X58925Y-51272D01*
X58863Y-51121D01*
X58767Y-51094D01*
X58697Y-51164D01*
X58697Y-51023D01*
X58669Y-50928D01*
X58463Y-50854D01*
X58245Y-50865D01*
X58094Y-50928D01*
X58066Y-51023D01*
X58381Y-51338D01*
X58697Y-51023D01*
X58697Y-51164D01*
X58452Y-51409D01*
X58767Y-51724D01*
X58863Y-51697D01*
X58936Y-51491D01*
X58936Y-56626D01*
X58899Y-56611D01*
X58697Y-56611D01*
X58697Y-51795D01*
X58381Y-51480D01*
X58311Y-51550D01*
X58311Y-51409D01*
X57995Y-51094D01*
X57900Y-51121D01*
X57880Y-51176D01*
X57848Y-51098D01*
X57693Y-50943D01*
X57491Y-50859D01*
X57272Y-50859D01*
X57070Y-50942D01*
X56915Y-51097D01*
X56881Y-51179D01*
X56848Y-51098D01*
X56693Y-50943D01*
X56491Y-50859D01*
X56272Y-50859D01*
X56070Y-50942D01*
X55915Y-51097D01*
X55881Y-51179D01*
X55848Y-51098D01*
X55693Y-50943D01*
X55491Y-50859D01*
X55272Y-50859D01*
X55070Y-50942D01*
X54931Y-51081D01*
X54931Y-51059D01*
X54893Y-50968D01*
X54823Y-50897D01*
X54731Y-50859D01*
X54632Y-50859D01*
X54032Y-50859D01*
X53940Y-50897D01*
X53870Y-50967D01*
X53831Y-51059D01*
X53831Y-51158D01*
X53831Y-51758D01*
X53869Y-51850D01*
X53940Y-51921D01*
X54031Y-51959D01*
X54131Y-51959D01*
X54731Y-51959D01*
X54823Y-51921D01*
X54893Y-51851D01*
X54931Y-51759D01*
X54931Y-51737D01*
X55069Y-51875D01*
X55272Y-51959D01*
X55490Y-51959D01*
X55693Y-51875D01*
X55847Y-51721D01*
X55881Y-51639D01*
X55915Y-51720D01*
X56069Y-51875D01*
X56272Y-51959D01*
X56490Y-51959D01*
X56693Y-51875D01*
X56847Y-51721D01*
X56881Y-51639D01*
X56915Y-51720D01*
X57069Y-51875D01*
X57272Y-51959D01*
X57490Y-51959D01*
X57693Y-51875D01*
X57847Y-51721D01*
X57879Y-51645D01*
X57900Y-51697D01*
X57995Y-51724D01*
X58311Y-51409D01*
X58311Y-51550D01*
X58066Y-51795D01*
X58094Y-51890D01*
X58300Y-51964D01*
X58518Y-51953D01*
X58669Y-51890D01*
X58697Y-51795D01*
X58697Y-56611D01*
X58660Y-56611D01*
X58439Y-56702D01*
X58279Y-56862D01*
X58279Y-53911D01*
X58241Y-53719D01*
X58132Y-53557D01*
X58132Y-53557D01*
X57749Y-53174D01*
X57724Y-53114D01*
X57577Y-52966D01*
X57384Y-52886D01*
X57175Y-52886D01*
X56982Y-52965D01*
X56834Y-53113D01*
X56754Y-53306D01*
X56754Y-53515D01*
X56834Y-53708D01*
X56981Y-53856D01*
X57042Y-53881D01*
X57279Y-54118D01*
X57279Y-56862D01*
X57271Y-56870D01*
X57179Y-57091D01*
X57179Y-57104D01*
X55725Y-58557D01*
X55617Y-58719D01*
X55609Y-58760D01*
X55609Y-53487D01*
X55597Y-53278D01*
X55539Y-53138D01*
X55447Y-53114D01*
X55376Y-53184D01*
X55376Y-53043D01*
X55352Y-52950D01*
X55155Y-52881D01*
X54946Y-52892D01*
X54806Y-52950D01*
X54782Y-53043D01*
X55079Y-53340D01*
X55376Y-53043D01*
X55376Y-53184D01*
X55150Y-53411D01*
X55447Y-53708D01*
X55539Y-53684D01*
X55609Y-53487D01*
X55609Y-58760D01*
X55579Y-58911D01*
X55579Y-58911D01*
X55579Y-59711D01*
X55579Y-60461D01*
X55579Y-60711D01*
X55579Y-61911D01*
X55541Y-61819D01*
X55471Y-61749D01*
X55379Y-61711D01*
X55376Y-61711D01*
X55376Y-53779D01*
X55079Y-53481D01*
X55008Y-53552D01*
X55008Y-53411D01*
X54711Y-53114D01*
X54618Y-53138D01*
X54549Y-53335D01*
X54560Y-53544D01*
X54618Y-53684D01*
X54711Y-53708D01*
X55008Y-53411D01*
X55008Y-53552D01*
X54782Y-53779D01*
X54806Y-53871D01*
X55003Y-53941D01*
X55212Y-53929D01*
X55352Y-53871D01*
X55376Y-53779D01*
X55376Y-61711D01*
X55279Y-61711D01*
X55179Y-61711D01*
X55179Y-57092D01*
X55088Y-56871D01*
X54919Y-56702D01*
X54699Y-56611D01*
X54460Y-56611D01*
X54239Y-56702D01*
X54165Y-56777D01*
X54141Y-56719D01*
X54071Y-56649D01*
X53979Y-56611D01*
X53879Y-56611D01*
X53691Y-56611D01*
X53629Y-56673D01*
X53629Y-57161D01*
X53637Y-57161D01*
X53637Y-57261D01*
X53629Y-57261D01*
X53629Y-57748D01*
X53691Y-57811D01*
X53879Y-57811D01*
X53979Y-57811D01*
X54071Y-57773D01*
X54141Y-57702D01*
X54165Y-57645D01*
X54239Y-57719D01*
X54459Y-57811D01*
X54698Y-57811D01*
X54918Y-57720D01*
X55087Y-57551D01*
X55179Y-57331D01*
X55179Y-57092D01*
X55179Y-61711D01*
X53529Y-61711D01*
X53529Y-57748D01*
X53529Y-57261D01*
X53521Y-57261D01*
X53521Y-57161D01*
X53529Y-57161D01*
X53529Y-56673D01*
X53466Y-56611D01*
X53429Y-56611D01*
X53429Y-51203D01*
X53270Y-50817D01*
X52974Y-50521D01*
X52589Y-50361D01*
X52171Y-50361D01*
X51785Y-50520D01*
X51489Y-50815D01*
X51329Y-51201D01*
X51329Y-51619D01*
X51488Y-52005D01*
X51783Y-52300D01*
X52169Y-52461D01*
X52587Y-52461D01*
X52973Y-52301D01*
X53268Y-52006D01*
X53429Y-51621D01*
X53429Y-51203D01*
X53429Y-56611D01*
X53278Y-56611D01*
X53179Y-56611D01*
X53087Y-56649D01*
X53079Y-56657D01*
X53079Y-53911D01*
X53041Y-53719D01*
X52932Y-53557D01*
X52932Y-53557D01*
X52604Y-53229D01*
X52604Y-53086D01*
X52566Y-52994D01*
X52496Y-52924D01*
X52404Y-52886D01*
X52304Y-52886D01*
X51754Y-52886D01*
X51662Y-52924D01*
X51592Y-52994D01*
X51554Y-53086D01*
X51554Y-53185D01*
X51554Y-53735D01*
X51592Y-53827D01*
X51662Y-53898D01*
X51754Y-53936D01*
X51853Y-53936D01*
X51897Y-53936D01*
X52079Y-54118D01*
X52079Y-56862D01*
X52071Y-56870D01*
X51979Y-57091D01*
X51979Y-57330D01*
X52070Y-57550D01*
X52239Y-57719D01*
X52459Y-57811D01*
X52698Y-57811D01*
X52918Y-57720D01*
X52993Y-57645D01*
X53017Y-57702D01*
X53087Y-57773D01*
X53179Y-57811D01*
X53278Y-57811D01*
X53466Y-57811D01*
X53529Y-57748D01*
X53529Y-61711D01*
X51779Y-61711D01*
X51687Y-61749D01*
X51617Y-61819D01*
X51579Y-61911D01*
X51579Y-62010D01*
X51579Y-65510D01*
X51617Y-65602D01*
X51687Y-65673D01*
X51779Y-65711D01*
X51878Y-65711D01*
X55378Y-65711D01*
X55470Y-65673D01*
X55541Y-65603D01*
X55579Y-65511D01*
X55579Y-65461D01*
X55579Y-66011D01*
X55579Y-66011D01*
X55617Y-66202D01*
X55725Y-66364D01*
X55879Y-66518D01*
X55879Y-66911D01*
X55616Y-66911D01*
X55491Y-66859D01*
X55272Y-66859D01*
X55070Y-66942D01*
X54931Y-67081D01*
X54931Y-67059D01*
X54893Y-66968D01*
X54823Y-66897D01*
X54731Y-66859D01*
X54632Y-66859D01*
X54032Y-66859D01*
X53940Y-66897D01*
X53870Y-66967D01*
X53831Y-67059D01*
X53831Y-67158D01*
X53831Y-67758D01*
X53869Y-67850D01*
X53940Y-67921D01*
X54031Y-67959D01*
X54131Y-67959D01*
X54731Y-67959D01*
X54823Y-67921D01*
X54893Y-67851D01*
X54931Y-67759D01*
X54931Y-67737D01*
X55069Y-67875D01*
X55272Y-67959D01*
X55490Y-67959D01*
X55607Y-67911D01*
X56156Y-67911D01*
X56272Y-67959D01*
X56490Y-67959D01*
X56607Y-67911D01*
X57156Y-67911D01*
X57272Y-67959D01*
X57490Y-67959D01*
X57693Y-67875D01*
X57847Y-67721D01*
X57879Y-67645D01*
X57900Y-67697D01*
X57995Y-67724D01*
X58311Y-67409D01*
X57995Y-67094D01*
X57900Y-67121D01*
X57880Y-67176D01*
X57848Y-67098D01*
X57693Y-66943D01*
X57491Y-66859D01*
X57272Y-66859D01*
X57147Y-66911D01*
X56879Y-66911D01*
X56879Y-66311D01*
X56879Y-66311D01*
X56879Y-66311D01*
X56841Y-66119D01*
X56732Y-65957D01*
X56732Y-65957D01*
X56579Y-65804D01*
X56579Y-65211D01*
X56579Y-60741D01*
X57034Y-60286D01*
X66629Y-60286D01*
X66772Y-60257D01*
X66804Y-60236D01*
X66804Y-60506D01*
X66819Y-60584D01*
X66357Y-60584D01*
X66265Y-60622D01*
X66195Y-60692D01*
X66156Y-60784D01*
X66156Y-60883D01*
X66156Y-61433D01*
X66194Y-61525D01*
X66265Y-61596D01*
X66356Y-61634D01*
X66456Y-61634D01*
X67006Y-61634D01*
X67098Y-61596D01*
X67168Y-61526D01*
X67206Y-61434D01*
X67206Y-61334D01*
X67206Y-61064D01*
X67256Y-61114D01*
X67256Y-61213D01*
X67336Y-61406D01*
X67484Y-61554D01*
X67677Y-61634D01*
X67885Y-61634D01*
X68078Y-61554D01*
X68149Y-61484D01*
X68514Y-61484D01*
X68584Y-61554D01*
X68777Y-61634D01*
X68985Y-61634D01*
X69178Y-61554D01*
X69326Y-61407D01*
X69406Y-61214D01*
X69406Y-61005D01*
X69327Y-60812D01*
X69179Y-60664D01*
X68986Y-60584D01*
X68777Y-60584D01*
X68584Y-60664D01*
X68514Y-60734D01*
X68149Y-60734D01*
X68079Y-60664D01*
X67886Y-60584D01*
X67787Y-60584D01*
X67554Y-60351D01*
X67554Y-59361D01*
X67554Y-58967D01*
X68047Y-58474D01*
X68047Y-58474D01*
X68128Y-58352D01*
X68156Y-58209D01*
X68156Y-58209D01*
X68156Y-58084D01*
X68514Y-58084D01*
X68584Y-58154D01*
X68777Y-58234D01*
X68985Y-58234D01*
X69178Y-58154D01*
X69247Y-58086D01*
X74074Y-58086D01*
X74194Y-58136D01*
X74363Y-58136D01*
X74519Y-58071D01*
X74639Y-57952D01*
X74704Y-57796D01*
X74704Y-57627D01*
X74704Y-66409D01*
X74589Y-66361D01*
X74171Y-66361D01*
X73785Y-66520D01*
X73489Y-66815D01*
X73329Y-67201D01*
X73329Y-67619D01*
X73488Y-68005D01*
X73783Y-68300D01*
X74169Y-68461D01*
X74587Y-68461D01*
X74973Y-68301D01*
X75268Y-68006D01*
X75429Y-67621D01*
X75429Y-67203D01*
X75429Y-68641D01*
X71104Y-68641D01*
X71104Y-62727D01*
X71039Y-62570D01*
X70920Y-62451D01*
X70764Y-62386D01*
X70595Y-62386D01*
X70438Y-62450D01*
X70403Y-62486D01*
X67879Y-62486D01*
X67754Y-62510D01*
X67712Y-62539D01*
X67649Y-62581D01*
X67649Y-62581D01*
X67552Y-62678D01*
X67481Y-62784D01*
X67456Y-62908D01*
X67456Y-63584D01*
X67365Y-63622D01*
X67295Y-63692D01*
X67256Y-63784D01*
X67256Y-63883D01*
X67256Y-64433D01*
X67294Y-64525D01*
X67365Y-64596D01*
X67456Y-64634D01*
X67556Y-64634D01*
X68106Y-64634D01*
X68198Y-64596D01*
X68268Y-64526D01*
X68306Y-64434D01*
X68306Y-64334D01*
X68306Y-63784D01*
X68268Y-63693D01*
X68198Y-63622D01*
X68106Y-63584D01*
X68106Y-63136D01*
X70403Y-63136D01*
X70438Y-63171D01*
X70594Y-63236D01*
X70763Y-63236D01*
X70919Y-63171D01*
X71039Y-63052D01*
X71104Y-62896D01*
X71104Y-62727D01*
X71104Y-68641D01*
X69406Y-68641D01*
X69406Y-64334D01*
X69406Y-63784D01*
X69368Y-63693D01*
X69298Y-63622D01*
X69206Y-63584D01*
X69107Y-63584D01*
X68557Y-63584D01*
X68465Y-63622D01*
X68395Y-63692D01*
X68356Y-63784D01*
X68356Y-63883D01*
X68356Y-64433D01*
X68394Y-64525D01*
X68465Y-64596D01*
X68556Y-64634D01*
X68656Y-64634D01*
X69206Y-64634D01*
X69298Y-64596D01*
X69368Y-64526D01*
X69406Y-64434D01*
X69406Y-64334D01*
X69406Y-68641D01*
X67936Y-68641D01*
X67936Y-67491D01*
X67925Y-67272D01*
X67863Y-67121D01*
X67767Y-67094D01*
X67697Y-67164D01*
X67697Y-67023D01*
X67669Y-66928D01*
X67463Y-66854D01*
X67245Y-66865D01*
X67206Y-66881D01*
X67206Y-64005D01*
X67127Y-63812D01*
X66979Y-63664D01*
X66786Y-63584D01*
X66577Y-63584D01*
X66384Y-63664D01*
X66237Y-63811D01*
X66156Y-64004D01*
X66156Y-64213D01*
X66236Y-64406D01*
X66384Y-64554D01*
X66577Y-64634D01*
X66785Y-64634D01*
X66978Y-64554D01*
X67126Y-64407D01*
X67206Y-64214D01*
X67206Y-64005D01*
X67206Y-66881D01*
X67094Y-66928D01*
X67066Y-67023D01*
X67381Y-67338D01*
X67697Y-67023D01*
X67697Y-67164D01*
X67452Y-67409D01*
X67767Y-67724D01*
X67863Y-67697D01*
X67936Y-67491D01*
X67936Y-68641D01*
X67697Y-68641D01*
X67697Y-67795D01*
X67381Y-67480D01*
X67311Y-67550D01*
X67311Y-67409D01*
X66995Y-67094D01*
X66900Y-67121D01*
X66880Y-67176D01*
X66848Y-67098D01*
X66693Y-66943D01*
X66491Y-66859D01*
X66272Y-66859D01*
X66104Y-66928D01*
X66104Y-64007D01*
X66104Y-64007D01*
X66104Y-61336D01*
X66104Y-60786D01*
X66066Y-60694D01*
X65996Y-60624D01*
X65904Y-60586D01*
X65804Y-60586D01*
X65254Y-60586D01*
X65162Y-60624D01*
X65092Y-60694D01*
X65054Y-60786D01*
X65054Y-60885D01*
X65054Y-61435D01*
X65092Y-61527D01*
X65162Y-61598D01*
X65254Y-61636D01*
X65353Y-61636D01*
X65903Y-61636D01*
X65995Y-61598D01*
X66066Y-61528D01*
X66104Y-61436D01*
X66104Y-61336D01*
X66104Y-64007D01*
X66024Y-63814D01*
X65877Y-63666D01*
X65684Y-63586D01*
X65475Y-63586D01*
X65282Y-63665D01*
X65134Y-63813D01*
X65054Y-64006D01*
X65054Y-64215D01*
X65134Y-64408D01*
X65281Y-64556D01*
X65474Y-64636D01*
X65683Y-64636D01*
X65876Y-64556D01*
X66024Y-64409D01*
X66104Y-64216D01*
X66104Y-64007D01*
X66104Y-66928D01*
X66070Y-66942D01*
X65915Y-67097D01*
X65881Y-67179D01*
X65848Y-67098D01*
X65693Y-66943D01*
X65491Y-66859D01*
X65272Y-66859D01*
X65070Y-66942D01*
X64915Y-67097D01*
X64881Y-67179D01*
X64848Y-67098D01*
X64693Y-66943D01*
X64491Y-66859D01*
X64272Y-66859D01*
X64070Y-66942D01*
X63931Y-67081D01*
X63931Y-67059D01*
X63893Y-66968D01*
X63823Y-66897D01*
X63731Y-66859D01*
X63632Y-66859D01*
X63032Y-66859D01*
X62940Y-66897D01*
X62870Y-66967D01*
X62831Y-67059D01*
X62831Y-67158D01*
X62831Y-67758D01*
X62869Y-67850D01*
X62940Y-67921D01*
X63031Y-67959D01*
X63131Y-67959D01*
X63731Y-67959D01*
X63823Y-67921D01*
X63893Y-67851D01*
X63931Y-67759D01*
X63931Y-67737D01*
X64069Y-67875D01*
X64272Y-67959D01*
X64490Y-67959D01*
X64693Y-67875D01*
X64847Y-67721D01*
X64881Y-67639D01*
X64915Y-67720D01*
X65069Y-67875D01*
X65272Y-67959D01*
X65490Y-67959D01*
X65693Y-67875D01*
X65847Y-67721D01*
X65881Y-67639D01*
X65915Y-67720D01*
X66069Y-67875D01*
X66272Y-67959D01*
X66490Y-67959D01*
X66693Y-67875D01*
X66847Y-67721D01*
X66879Y-67645D01*
X66900Y-67697D01*
X66995Y-67724D01*
X67311Y-67409D01*
X67311Y-67550D01*
X67066Y-67795D01*
X67094Y-67890D01*
X67300Y-67964D01*
X67518Y-67953D01*
X67669Y-67890D01*
X67697Y-67795D01*
X67697Y-68641D01*
X60779Y-68641D01*
X60779Y-65411D01*
X60779Y-61911D01*
X60741Y-61819D01*
X60671Y-61749D01*
X60579Y-61711D01*
X60479Y-61711D01*
X56979Y-61711D01*
X56887Y-61749D01*
X56817Y-61819D01*
X56779Y-61911D01*
X56779Y-62010D01*
X56779Y-65510D01*
X56817Y-65602D01*
X56887Y-65673D01*
X56979Y-65711D01*
X57078Y-65711D01*
X60578Y-65711D01*
X60670Y-65673D01*
X60741Y-65603D01*
X60779Y-65511D01*
X60779Y-65411D01*
X60779Y-68641D01*
X58936Y-68641D01*
X58936Y-67491D01*
X58925Y-67272D01*
X58863Y-67121D01*
X58767Y-67094D01*
X58697Y-67164D01*
X58697Y-67023D01*
X58669Y-66928D01*
X58463Y-66854D01*
X58245Y-66865D01*
X58094Y-66928D01*
X58066Y-67023D01*
X58381Y-67338D01*
X58697Y-67023D01*
X58697Y-67164D01*
X58452Y-67409D01*
X58767Y-67724D01*
X58863Y-67697D01*
X58936Y-67491D01*
X58936Y-68641D01*
X58697Y-68641D01*
X58697Y-67795D01*
X58381Y-67480D01*
X58066Y-67795D01*
X58094Y-67890D01*
X58300Y-67964D01*
X58518Y-67953D01*
X58669Y-67890D01*
X58697Y-67795D01*
X58697Y-68641D01*
X53429Y-68641D01*
X53429Y-67203D01*
X53270Y-66817D01*
X52974Y-66521D01*
X52589Y-66361D01*
X52171Y-66361D01*
X51785Y-66520D01*
X51489Y-66815D01*
X51329Y-67201D01*
X51329Y-67619D01*
X51488Y-68005D01*
X51783Y-68300D01*
X52169Y-68461D01*
X52587Y-68461D01*
X52973Y-68301D01*
X53268Y-68006D01*
X53429Y-67621D01*
X53429Y-67203D01*
X53429Y-68641D01*
X51149Y-68641D01*
X51149Y-50411D01*
X51149Y-50180D01*
X75609Y-50180D01*
X75609Y-50411D01*
X75609Y-68641D01*
M02*
