G04 (created by PCBNEW (2013-07-07 BZR 4022)-stable) date 10/7/2014 12:40:21 PM*
%MOIN*%
G04 Gerber Fmt 3.4, Leading zero omitted, Abs format*
%FSLAX34Y34*%
G01*
G70*
G90*
G04 APERTURE LIST*
%ADD10C,0.00590551*%
%ADD11R,0.02X0.045*%
%ADD12R,0.035X0.055*%
%ADD13R,0.055X0.035*%
%ADD14R,0.055X0.055*%
%ADD15C,0.055*%
%ADD16R,0.0933071X0.0956693*%
%ADD17R,0.0708661X0.0877953*%
%ADD18C,0.07*%
%ADD19R,0.07X0.07*%
%ADD20R,0.35X0.35*%
%ADD21O,0.0593X0.1187*%
%ADD22R,0.025X0.05*%
%ADD23R,0.05X0.025*%
%ADD24C,0.16*%
%ADD25C,0.035*%
%ADD26C,0.01*%
%ADD27C,0.025*%
%ADD28C,0.015*%
%ADD29C,0.05*%
G04 APERTURE END LIST*
G54D10*
G54D11*
X44250Y-21550D03*
X43750Y-21550D03*
X43250Y-21550D03*
X42750Y-21550D03*
X42750Y-19050D03*
X43250Y-19050D03*
X43750Y-19050D03*
X44250Y-19050D03*
X44350Y-11050D03*
X43850Y-11050D03*
X43350Y-11050D03*
X42850Y-11050D03*
X42850Y-8550D03*
X43350Y-8550D03*
X43850Y-8550D03*
X44350Y-8550D03*
G54D12*
X39775Y-8400D03*
X39025Y-8400D03*
X46415Y-20340D03*
X47165Y-20340D03*
X46415Y-19540D03*
X47165Y-19540D03*
G54D13*
X36800Y-9925D03*
X36800Y-10675D03*
G54D12*
X35925Y-11600D03*
X36675Y-11600D03*
X43875Y-11950D03*
X44625Y-11950D03*
X42825Y-7650D03*
X42075Y-7650D03*
X47275Y-10900D03*
X46525Y-10900D03*
X46525Y-9300D03*
X47275Y-9300D03*
G54D13*
X38250Y-9075D03*
X38250Y-8325D03*
X36800Y-13025D03*
X36800Y-13775D03*
X35900Y-13775D03*
X35900Y-13025D03*
X35900Y-9925D03*
X35900Y-10675D03*
G54D12*
X46525Y-10100D03*
X47275Y-10100D03*
X42725Y-17600D03*
X43475Y-17600D03*
X47165Y-21140D03*
X46415Y-21140D03*
X43575Y-22600D03*
X42825Y-22600D03*
X35925Y-18400D03*
X36675Y-18400D03*
G54D13*
X24600Y-11375D03*
X24600Y-10625D03*
X29800Y-10625D03*
X29800Y-11375D03*
X36800Y-19975D03*
X36800Y-19225D03*
G54D12*
X39775Y-21600D03*
X39025Y-21600D03*
G54D13*
X38200Y-20925D03*
X38200Y-21675D03*
X36800Y-16975D03*
X36800Y-16225D03*
X35900Y-16225D03*
X35900Y-16975D03*
X35800Y-19975D03*
X35800Y-19225D03*
G54D14*
X38200Y-16700D03*
G54D15*
X38200Y-19700D03*
G54D14*
X32900Y-9000D03*
G54D15*
X29900Y-9000D03*
G54D14*
X38200Y-13300D03*
G54D15*
X38200Y-10300D03*
G54D14*
X41200Y-10300D03*
G54D15*
X41200Y-13300D03*
G54D14*
X39200Y-13300D03*
G54D15*
X39200Y-10300D03*
G54D14*
X40200Y-10300D03*
G54D15*
X40200Y-13300D03*
G54D14*
X24700Y-9000D03*
G54D15*
X27700Y-9000D03*
G54D14*
X41200Y-19700D03*
G54D15*
X41200Y-16700D03*
G54D14*
X40200Y-19700D03*
G54D15*
X40200Y-16700D03*
G54D14*
X39200Y-16700D03*
G54D15*
X39200Y-19700D03*
G54D16*
X33828Y-10800D03*
X31371Y-10800D03*
G54D17*
X27174Y-10600D03*
X26025Y-10600D03*
G54D18*
X30400Y-12800D03*
G54D19*
X32400Y-12800D03*
G54D18*
X31400Y-12800D03*
G54D20*
X31400Y-19300D03*
X26200Y-19300D03*
G54D18*
X27200Y-12800D03*
G54D19*
X26200Y-12800D03*
G54D18*
X25200Y-12800D03*
G54D21*
X31000Y-23000D03*
X31000Y-7000D03*
X27000Y-7000D03*
X27000Y-23000D03*
X39000Y-7000D03*
X38000Y-7000D03*
X37000Y-7000D03*
X36000Y-7000D03*
X40000Y-7000D03*
X40000Y-23000D03*
X36000Y-23000D03*
X30000Y-23000D03*
X29000Y-23000D03*
X28000Y-23000D03*
X30000Y-7000D03*
X28000Y-7000D03*
X29000Y-7000D03*
X39000Y-23000D03*
X38000Y-23000D03*
X37000Y-23000D03*
G54D22*
X37100Y-21000D03*
X36750Y-21000D03*
X37450Y-21000D03*
X35500Y-21000D03*
X35150Y-21000D03*
X35850Y-21000D03*
X37200Y-8900D03*
X36850Y-8900D03*
X37550Y-8900D03*
X35500Y-8900D03*
X35150Y-8900D03*
X35850Y-8900D03*
G54D23*
X45090Y-20340D03*
X45090Y-19940D03*
X45690Y-20340D03*
X45090Y-20740D03*
X45200Y-10100D03*
X45200Y-9700D03*
X45800Y-10100D03*
X45200Y-10500D03*
G54D24*
X47000Y-23000D03*
X25000Y-23000D03*
X25000Y-7000D03*
X47000Y-7000D03*
G54D25*
X44250Y-18000D03*
X44750Y-18000D03*
X45250Y-18000D03*
X45750Y-18000D03*
X46250Y-18000D03*
X46250Y-17500D03*
X45750Y-17500D03*
X45250Y-17500D03*
X44750Y-17500D03*
X44250Y-17500D03*
X46900Y-13300D03*
X33250Y-14000D03*
X33750Y-14000D03*
X34250Y-14000D03*
X34750Y-14000D03*
X34750Y-13500D03*
X34250Y-13500D03*
X33750Y-13500D03*
X33250Y-13500D03*
X33250Y-13000D03*
X33750Y-13000D03*
X34250Y-13000D03*
X34750Y-13000D03*
X34750Y-12500D03*
X34250Y-12500D03*
X33750Y-12500D03*
X33250Y-12500D03*
X24250Y-10000D03*
X47000Y-14250D03*
X47000Y-14750D03*
X47000Y-15250D03*
X46500Y-15250D03*
X46000Y-15250D03*
X45500Y-15250D03*
X45500Y-14750D03*
X46000Y-14750D03*
X46500Y-14750D03*
X46500Y-14250D03*
X46000Y-14250D03*
X45500Y-14250D03*
X41500Y-8250D03*
X41000Y-8250D03*
X41000Y-7750D03*
X41500Y-7750D03*
X41500Y-7250D03*
X41000Y-7250D03*
X41000Y-6750D03*
X41500Y-6750D03*
X32000Y-7500D03*
X32500Y-7500D03*
X33000Y-7500D03*
X33500Y-7500D03*
X34000Y-7500D03*
X34500Y-7500D03*
X34500Y-7000D03*
X34000Y-7000D03*
X33500Y-7000D03*
X33000Y-7000D03*
X32500Y-7000D03*
X32000Y-7000D03*
X33500Y-23000D03*
X33000Y-23000D03*
X32500Y-23000D03*
X32000Y-23000D03*
X32000Y-22500D03*
X32500Y-22500D03*
X33000Y-22500D03*
X33500Y-22500D03*
X33500Y-22000D03*
X33000Y-22000D03*
X32500Y-22000D03*
X32000Y-22000D03*
X41000Y-22750D03*
X41500Y-22750D03*
X42000Y-22750D03*
X42000Y-22250D03*
X41500Y-22250D03*
X41000Y-22250D03*
X41000Y-21750D03*
X41500Y-21750D03*
X42000Y-21750D03*
X42000Y-12750D03*
X42000Y-12250D03*
X42000Y-11750D03*
X42500Y-11750D03*
X42500Y-12250D03*
X42500Y-12750D03*
X43000Y-12750D03*
X43000Y-12250D03*
X43000Y-11750D03*
X46500Y-12500D03*
X46000Y-12500D03*
X45500Y-12500D03*
X45500Y-12000D03*
X46000Y-12000D03*
X46500Y-12000D03*
X46500Y-11500D03*
X46000Y-11500D03*
X45500Y-11500D03*
X44150Y-7900D03*
X43300Y-18400D03*
X43700Y-7600D03*
G54D26*
X44750Y-18000D02*
X44250Y-18000D01*
X45750Y-18000D02*
X45250Y-18000D01*
X46250Y-17500D02*
X46250Y-18000D01*
X45250Y-17500D02*
X45750Y-17500D01*
X44250Y-17500D02*
X44750Y-17500D01*
G54D27*
X24200Y-21200D02*
X24200Y-21300D01*
X26200Y-23500D02*
X26500Y-23800D01*
X26200Y-22100D02*
X26200Y-23500D01*
X25800Y-21700D02*
X26200Y-22100D01*
X24600Y-21700D02*
X25800Y-21700D01*
X24200Y-21300D02*
X24600Y-21700D01*
X43575Y-22600D02*
X44100Y-22600D01*
X44100Y-22600D02*
X45000Y-21700D01*
X45000Y-21700D02*
X47700Y-21700D01*
X47700Y-21700D02*
X47700Y-17200D01*
X24200Y-21200D02*
X24200Y-14650D01*
X24200Y-14650D02*
X25050Y-13800D01*
X31600Y-23800D02*
X35500Y-23800D01*
G54D28*
X31600Y-23800D02*
X26500Y-23800D01*
G54D27*
X42950Y-23800D02*
X43575Y-23175D01*
G54D28*
X40500Y-23800D02*
X35500Y-23800D01*
G54D27*
X40500Y-23800D02*
X42950Y-23800D01*
X43575Y-23175D02*
X43575Y-22600D01*
G54D28*
X25050Y-13800D02*
X24200Y-14650D01*
X25200Y-13800D02*
X25050Y-13800D01*
G54D27*
X38200Y-16700D02*
X39200Y-16700D01*
X39800Y-16100D02*
X46600Y-16100D01*
X46600Y-16100D02*
X47700Y-17200D01*
X47700Y-17200D02*
X47700Y-17200D01*
X39200Y-16700D02*
X39800Y-16100D01*
X39200Y-13300D02*
X39200Y-15500D01*
X39200Y-15500D02*
X39800Y-16100D01*
X38200Y-13300D02*
X39200Y-13300D01*
G54D28*
X43875Y-11950D02*
X43875Y-15625D01*
X43875Y-15625D02*
X43400Y-16100D01*
X43850Y-11050D02*
X43850Y-11925D01*
X43850Y-11925D02*
X43875Y-11950D01*
X39200Y-15500D02*
X39800Y-16100D01*
X47700Y-17200D02*
X46600Y-16100D01*
X46600Y-16100D02*
X43400Y-16100D01*
X43400Y-16100D02*
X39800Y-16100D01*
X39800Y-16100D02*
X39200Y-16700D01*
X43750Y-21550D02*
X43750Y-22425D01*
X43750Y-22425D02*
X43575Y-22600D01*
G54D29*
X29000Y-7000D02*
X29000Y-9800D01*
X29000Y-9800D02*
X29000Y-12800D01*
X29000Y-12800D02*
X28600Y-13200D01*
X29000Y-7000D02*
X30000Y-7000D01*
X28000Y-7000D02*
X29000Y-7000D01*
X25200Y-12800D02*
X25200Y-13800D01*
X27800Y-14000D02*
X28600Y-13200D01*
X25400Y-14000D02*
X27800Y-14000D01*
X25200Y-13800D02*
X25400Y-14000D01*
X24600Y-11375D02*
X24600Y-12200D01*
X24600Y-12200D02*
X25200Y-12800D01*
X27174Y-10600D02*
X27174Y-9974D01*
X26700Y-7800D02*
X27000Y-7000D01*
X26700Y-9000D02*
X26700Y-7800D01*
X27174Y-9974D02*
X26700Y-9000D01*
X27200Y-12800D02*
X27200Y-10625D01*
X27200Y-10625D02*
X27174Y-10600D01*
G54D27*
X43100Y-6400D02*
X43650Y-5850D01*
X48200Y-6000D02*
X48200Y-6800D01*
X48050Y-5850D02*
X48200Y-6000D01*
X43650Y-5850D02*
X48050Y-5850D01*
X42825Y-6700D02*
X42825Y-6675D01*
X42825Y-6675D02*
X43100Y-6400D01*
X48200Y-8100D02*
X48000Y-8300D01*
X46950Y-13300D02*
X48000Y-12250D01*
X48000Y-12250D02*
X48000Y-8300D01*
X46900Y-13300D02*
X46950Y-13300D01*
X48200Y-6800D02*
X48200Y-8100D01*
X41200Y-16700D02*
X42450Y-16700D01*
X42450Y-16700D02*
X42725Y-16975D01*
X42725Y-16975D02*
X42725Y-17600D01*
X42825Y-6700D02*
X42825Y-7650D01*
G54D28*
X42750Y-19050D02*
X42750Y-17625D01*
X42750Y-17000D02*
X42450Y-16700D01*
X42750Y-17625D02*
X42750Y-17000D01*
X42850Y-8550D02*
X42850Y-7675D01*
X42850Y-7675D02*
X42825Y-7650D01*
G54D29*
X29800Y-11375D02*
X29800Y-12200D01*
X29800Y-12200D02*
X30400Y-12800D01*
X27000Y-23000D02*
X27000Y-22200D01*
X31400Y-13400D02*
X31400Y-12800D01*
X31000Y-13800D02*
X31400Y-13400D01*
X29400Y-13800D02*
X31000Y-13800D01*
X28800Y-14400D02*
X29400Y-13800D01*
X28800Y-21200D02*
X28800Y-14400D01*
X28200Y-21800D02*
X28800Y-21200D01*
X27400Y-21800D02*
X28200Y-21800D01*
G54D27*
X27000Y-22200D02*
X27400Y-21800D01*
G54D29*
X31400Y-12800D02*
X31400Y-10828D01*
X31400Y-10828D02*
X31371Y-10800D01*
G54D26*
X33828Y-10800D02*
X33828Y-11921D01*
X34250Y-14000D02*
X33750Y-14000D01*
X34750Y-13500D02*
X34750Y-14000D01*
X33750Y-13500D02*
X34250Y-13500D01*
X33250Y-13000D02*
X33250Y-13500D01*
X34250Y-13000D02*
X33750Y-13000D01*
X34750Y-12500D02*
X34750Y-13000D01*
X33750Y-12500D02*
X34250Y-12500D01*
X33828Y-11921D02*
X33250Y-12500D01*
G54D27*
X24600Y-10625D02*
X24600Y-10350D01*
X24600Y-10350D02*
X24250Y-10000D01*
X45500Y-12500D02*
X45500Y-14250D01*
X47000Y-15250D02*
X47000Y-14750D01*
X46000Y-15250D02*
X46500Y-15250D01*
X45500Y-14750D02*
X45500Y-15250D01*
X46500Y-14750D02*
X46000Y-14750D01*
X46000Y-14250D02*
X46500Y-14250D01*
G54D26*
X42075Y-7650D02*
X42075Y-6825D01*
X41000Y-7750D02*
X41000Y-8250D01*
X41500Y-7250D02*
X41500Y-7750D01*
X41000Y-6750D02*
X41000Y-7250D01*
X42000Y-6750D02*
X41500Y-6750D01*
X42075Y-6825D02*
X42000Y-6750D01*
G54D28*
X32500Y-7500D02*
X32000Y-7500D01*
X33500Y-7500D02*
X33000Y-7500D01*
X34500Y-7500D02*
X34000Y-7500D01*
X34000Y-7000D02*
X34500Y-7000D01*
X33000Y-7000D02*
X33500Y-7000D01*
X32000Y-7000D02*
X32500Y-7000D01*
X31000Y-23000D02*
X31750Y-23000D01*
X32500Y-23000D02*
X33000Y-23000D01*
X32000Y-22500D02*
X32000Y-23000D01*
X33000Y-22500D02*
X32500Y-22500D01*
X33500Y-22000D02*
X33500Y-22500D01*
X32500Y-22000D02*
X33000Y-22000D01*
X32000Y-22750D02*
X32000Y-22000D01*
X31750Y-23000D02*
X32000Y-22750D01*
X42825Y-22600D02*
X42100Y-22600D01*
X41500Y-22750D02*
X41000Y-22750D01*
X42000Y-22250D02*
X42000Y-22750D01*
X41000Y-22250D02*
X41500Y-22250D01*
X41500Y-21750D02*
X41000Y-21750D01*
X42000Y-22500D02*
X42000Y-21750D01*
X42100Y-22600D02*
X42000Y-22500D01*
X42000Y-12250D02*
X42000Y-12750D01*
X42500Y-11750D02*
X42000Y-11750D01*
X42500Y-12750D02*
X42500Y-12250D01*
X43000Y-12250D02*
X43000Y-12750D01*
X42850Y-11600D02*
X43000Y-11750D01*
X42850Y-11050D02*
X42850Y-11600D01*
X44625Y-11950D02*
X45050Y-11950D01*
X46000Y-12500D02*
X46500Y-12500D01*
X45500Y-12000D02*
X45500Y-12500D01*
X46500Y-12000D02*
X46000Y-12000D01*
X46000Y-11500D02*
X46500Y-11500D01*
X45050Y-11950D02*
X45500Y-11500D01*
X38000Y-7000D02*
X38000Y-7450D01*
X38250Y-7700D02*
X38250Y-8325D01*
X38000Y-7450D02*
X38250Y-7700D01*
X43850Y-8200D02*
X43850Y-8550D01*
X44150Y-7900D02*
X43850Y-8200D01*
X35150Y-11500D02*
X35150Y-11750D01*
X35150Y-11750D02*
X35300Y-11900D01*
X35300Y-11900D02*
X35900Y-12500D01*
X35150Y-8900D02*
X35150Y-11500D01*
X38400Y-12200D02*
X40300Y-12200D01*
X35900Y-13300D02*
X36000Y-13400D01*
X36000Y-13400D02*
X37200Y-13400D01*
X37200Y-13400D02*
X38400Y-12200D01*
X35900Y-13025D02*
X35900Y-13300D01*
X41200Y-11300D02*
X41200Y-10300D01*
X40300Y-12200D02*
X41200Y-11300D01*
X38200Y-10300D02*
X38200Y-10200D01*
X38200Y-10200D02*
X38800Y-9600D01*
X38800Y-9600D02*
X40400Y-9600D01*
X40400Y-9600D02*
X40500Y-9600D01*
X40500Y-9600D02*
X41200Y-10300D01*
X35900Y-13025D02*
X35900Y-12500D01*
X35900Y-12500D02*
X35900Y-12400D01*
X35900Y-12400D02*
X35900Y-11625D01*
X35900Y-11625D02*
X35925Y-11600D01*
X35925Y-11600D02*
X35925Y-10700D01*
X35925Y-10700D02*
X35900Y-10675D01*
X45200Y-10500D02*
X45200Y-10750D01*
X45350Y-10900D02*
X46525Y-10900D01*
X45200Y-10750D02*
X45350Y-10900D01*
X45800Y-10100D02*
X46525Y-10100D01*
X46525Y-9300D02*
X45400Y-9300D01*
X45200Y-9500D02*
X45200Y-9700D01*
X45400Y-9300D02*
X45200Y-9500D01*
X44350Y-10300D02*
X44350Y-10250D01*
X44600Y-10100D02*
X45200Y-10100D01*
X44500Y-10100D02*
X44600Y-10100D01*
X44350Y-10250D02*
X44500Y-10100D01*
X44350Y-10300D02*
X44350Y-11050D01*
X35900Y-9925D02*
X35900Y-8950D01*
X35900Y-8950D02*
X35850Y-8900D01*
X36000Y-7000D02*
X36000Y-7100D01*
X35500Y-7600D02*
X35500Y-8900D01*
X36000Y-7100D02*
X35500Y-7600D01*
X36800Y-9925D02*
X36800Y-8950D01*
X36800Y-8950D02*
X36850Y-8900D01*
X37000Y-7000D02*
X37000Y-7700D01*
X37200Y-7900D02*
X37200Y-8900D01*
X37000Y-7700D02*
X37200Y-7900D01*
X43350Y-11050D02*
X43350Y-10100D01*
X41025Y-9075D02*
X38250Y-9075D01*
X41800Y-9850D02*
X41025Y-9075D01*
X43100Y-9850D02*
X41800Y-9850D01*
X43350Y-10100D02*
X43100Y-9850D01*
X47165Y-19540D02*
X47165Y-19065D01*
X47150Y-19050D02*
X44250Y-19050D01*
X47165Y-19065D02*
X47150Y-19050D01*
X47165Y-20340D02*
X47165Y-21140D01*
X47165Y-19540D02*
X47165Y-20340D01*
X38200Y-21675D02*
X38200Y-22100D01*
X38200Y-22100D02*
X38000Y-22300D01*
X38000Y-23000D02*
X38000Y-22300D01*
X43250Y-21550D02*
X43250Y-21050D01*
X43125Y-20925D02*
X38200Y-20925D01*
X43250Y-21050D02*
X43125Y-20925D01*
X39000Y-23000D02*
X39000Y-21625D01*
X39000Y-21625D02*
X39025Y-21600D01*
X44250Y-21550D02*
X44250Y-20650D01*
X44560Y-20340D02*
X45090Y-20340D01*
X44250Y-20650D02*
X44560Y-20340D01*
X46415Y-21140D02*
X45190Y-21140D01*
X45090Y-21040D02*
X45090Y-20740D01*
X45190Y-21140D02*
X45090Y-21040D01*
X45690Y-20340D02*
X46415Y-20340D01*
X46415Y-19540D02*
X45190Y-19540D01*
X45090Y-19640D02*
X45090Y-19940D01*
X45190Y-19540D02*
X45090Y-19640D01*
X39000Y-7000D02*
X39000Y-8375D01*
X39000Y-8375D02*
X39025Y-8400D01*
X35850Y-21000D02*
X35850Y-20025D01*
X35850Y-20025D02*
X35800Y-19975D01*
X35500Y-21000D02*
X35500Y-22500D01*
X35500Y-22500D02*
X36000Y-23000D01*
X36750Y-21000D02*
X36750Y-20025D01*
X36750Y-20025D02*
X36800Y-19975D01*
X37100Y-21000D02*
X37100Y-22200D01*
X37000Y-22300D02*
X37000Y-23000D01*
X37100Y-22200D02*
X37000Y-22300D01*
X43750Y-19050D02*
X43750Y-19650D01*
X43700Y-19700D02*
X41200Y-19700D01*
X43750Y-19650D02*
X43700Y-19700D01*
X36300Y-16600D02*
X37300Y-16600D01*
X35925Y-16975D02*
X36300Y-16600D01*
X35900Y-16975D02*
X35925Y-16975D01*
X40500Y-19000D02*
X41200Y-19700D01*
X38900Y-19000D02*
X40500Y-19000D01*
X37800Y-17900D02*
X38900Y-19000D01*
X37800Y-17100D02*
X37800Y-17900D01*
X37300Y-16600D02*
X37800Y-17100D01*
X38200Y-19700D02*
X38200Y-19900D01*
X38200Y-19900D02*
X38600Y-20300D01*
X38600Y-20300D02*
X40800Y-20300D01*
X40800Y-20300D02*
X41200Y-19900D01*
X41200Y-19900D02*
X41200Y-19700D01*
X35900Y-16975D02*
X35900Y-17000D01*
X35900Y-17000D02*
X35150Y-17750D01*
X35150Y-21000D02*
X35150Y-17750D01*
X35925Y-18400D02*
X35925Y-17000D01*
X35925Y-17000D02*
X35900Y-16975D01*
X35800Y-19225D02*
X35800Y-19000D01*
X35925Y-18875D02*
X35925Y-18400D01*
X35800Y-19000D02*
X35925Y-18875D01*
X43250Y-19050D02*
X43250Y-18450D01*
X43250Y-18450D02*
X43300Y-18400D01*
X37450Y-17700D02*
X37450Y-17950D01*
X37450Y-17950D02*
X39200Y-19700D01*
X39200Y-19700D02*
X40200Y-19700D01*
X36800Y-16975D02*
X36800Y-17000D01*
X37450Y-17650D02*
X37450Y-17700D01*
X37450Y-17700D02*
X37450Y-21000D01*
X36800Y-17000D02*
X37450Y-17650D01*
X36675Y-18400D02*
X36675Y-17100D01*
X36675Y-17100D02*
X36800Y-16975D01*
X36675Y-18400D02*
X36675Y-18875D01*
X36800Y-19000D02*
X36800Y-19225D01*
X36675Y-18875D02*
X36800Y-19000D01*
X43350Y-8550D02*
X43350Y-7950D01*
X43350Y-7950D02*
X43700Y-7600D01*
X37550Y-8900D02*
X37550Y-11750D01*
X37550Y-11750D02*
X36800Y-12500D01*
X36800Y-13025D02*
X37075Y-13025D01*
X39200Y-11400D02*
X39200Y-10300D01*
X38900Y-11700D02*
X39200Y-11400D01*
X38400Y-11700D02*
X38900Y-11700D01*
X37075Y-13025D02*
X38400Y-11700D01*
X39200Y-10300D02*
X40200Y-10300D01*
X36800Y-13025D02*
X36800Y-12500D01*
X36800Y-12500D02*
X36800Y-11725D01*
X36800Y-11725D02*
X36675Y-11600D01*
X36675Y-11600D02*
X36675Y-10800D01*
X36675Y-10800D02*
X36800Y-10675D01*
X44600Y-8550D02*
X44750Y-8700D01*
X44750Y-8700D02*
X47200Y-8700D01*
X47200Y-8700D02*
X47275Y-8775D01*
X47275Y-8775D02*
X47275Y-9300D01*
X47275Y-9300D02*
X47275Y-10100D01*
X44350Y-8550D02*
X44600Y-8550D01*
X47275Y-10900D02*
X47275Y-10100D01*
G54D10*
G36*
X43425Y-22074D02*
X43350Y-22074D01*
X43258Y-22112D01*
X43200Y-22171D01*
X43141Y-22112D01*
X43049Y-22074D01*
X42937Y-22075D01*
X42875Y-22137D01*
X42875Y-22550D01*
X42882Y-22550D01*
X42882Y-22650D01*
X42875Y-22650D01*
X42875Y-23062D01*
X42937Y-23125D01*
X43049Y-23125D01*
X43126Y-23093D01*
X42794Y-23425D01*
X42775Y-23425D01*
X42775Y-23062D01*
X42775Y-22650D01*
X42775Y-22550D01*
X42775Y-22137D01*
X42712Y-22075D01*
X42700Y-22074D01*
X42700Y-21962D01*
X42700Y-21600D01*
X42462Y-21600D01*
X42400Y-21662D01*
X42399Y-21725D01*
X42400Y-21824D01*
X42438Y-21916D01*
X42508Y-21987D01*
X42600Y-22025D01*
X42637Y-22025D01*
X42700Y-21962D01*
X42700Y-22074D01*
X42600Y-22074D01*
X42508Y-22112D01*
X42438Y-22183D01*
X42400Y-22275D01*
X42399Y-22374D01*
X42400Y-22487D01*
X42462Y-22550D01*
X42775Y-22550D01*
X42775Y-22650D01*
X42462Y-22650D01*
X42400Y-22712D01*
X42399Y-22825D01*
X42400Y-22924D01*
X42438Y-23016D01*
X42508Y-23087D01*
X42600Y-23125D01*
X42712Y-23125D01*
X42775Y-23062D01*
X42775Y-23425D01*
X40523Y-23425D01*
X40546Y-23347D01*
X40546Y-23050D01*
X40546Y-22950D01*
X40546Y-22653D01*
X40485Y-22447D01*
X40351Y-22281D01*
X40200Y-22199D01*
X40200Y-21825D01*
X40200Y-21712D01*
X40137Y-21650D01*
X39825Y-21650D01*
X39825Y-22062D01*
X39887Y-22125D01*
X39999Y-22125D01*
X40091Y-22087D01*
X40161Y-22016D01*
X40199Y-21924D01*
X40200Y-21825D01*
X40200Y-22199D01*
X40162Y-22178D01*
X40134Y-22173D01*
X40050Y-22221D01*
X40050Y-22950D01*
X40546Y-22950D01*
X40546Y-23050D01*
X40050Y-23050D01*
X40050Y-23057D01*
X39950Y-23057D01*
X39950Y-23050D01*
X39942Y-23050D01*
X39942Y-22950D01*
X39950Y-22950D01*
X39950Y-22221D01*
X39865Y-22173D01*
X39837Y-22178D01*
X39648Y-22281D01*
X39514Y-22447D01*
X39505Y-22478D01*
X39504Y-22477D01*
X39386Y-22300D01*
X39325Y-22258D01*
X39325Y-22093D01*
X39341Y-22087D01*
X39400Y-22028D01*
X39458Y-22087D01*
X39550Y-22125D01*
X39662Y-22125D01*
X39725Y-22062D01*
X39725Y-21650D01*
X39717Y-21650D01*
X39717Y-21550D01*
X39725Y-21550D01*
X39725Y-21542D01*
X39825Y-21542D01*
X39825Y-21550D01*
X40137Y-21550D01*
X40200Y-21487D01*
X40200Y-21374D01*
X40199Y-21275D01*
X40189Y-21250D01*
X42410Y-21250D01*
X42400Y-21275D01*
X42399Y-21374D01*
X42400Y-21437D01*
X42462Y-21500D01*
X42700Y-21500D01*
X42700Y-21492D01*
X42800Y-21492D01*
X42800Y-21500D01*
X42807Y-21500D01*
X42807Y-21600D01*
X42800Y-21600D01*
X42800Y-21962D01*
X42862Y-22025D01*
X42899Y-22025D01*
X42991Y-21987D01*
X42999Y-21978D01*
X43008Y-21986D01*
X43100Y-22024D01*
X43199Y-22025D01*
X43399Y-22025D01*
X43425Y-22014D01*
X43425Y-22074D01*
X43425Y-22074D01*
G37*
G54D26*
X43425Y-22074D02*
X43350Y-22074D01*
X43258Y-22112D01*
X43200Y-22171D01*
X43141Y-22112D01*
X43049Y-22074D01*
X42937Y-22075D01*
X42875Y-22137D01*
X42875Y-22550D01*
X42882Y-22550D01*
X42882Y-22650D01*
X42875Y-22650D01*
X42875Y-23062D01*
X42937Y-23125D01*
X43049Y-23125D01*
X43126Y-23093D01*
X42794Y-23425D01*
X42775Y-23425D01*
X42775Y-23062D01*
X42775Y-22650D01*
X42775Y-22550D01*
X42775Y-22137D01*
X42712Y-22075D01*
X42700Y-22074D01*
X42700Y-21962D01*
X42700Y-21600D01*
X42462Y-21600D01*
X42400Y-21662D01*
X42399Y-21725D01*
X42400Y-21824D01*
X42438Y-21916D01*
X42508Y-21987D01*
X42600Y-22025D01*
X42637Y-22025D01*
X42700Y-21962D01*
X42700Y-22074D01*
X42600Y-22074D01*
X42508Y-22112D01*
X42438Y-22183D01*
X42400Y-22275D01*
X42399Y-22374D01*
X42400Y-22487D01*
X42462Y-22550D01*
X42775Y-22550D01*
X42775Y-22650D01*
X42462Y-22650D01*
X42400Y-22712D01*
X42399Y-22825D01*
X42400Y-22924D01*
X42438Y-23016D01*
X42508Y-23087D01*
X42600Y-23125D01*
X42712Y-23125D01*
X42775Y-23062D01*
X42775Y-23425D01*
X40523Y-23425D01*
X40546Y-23347D01*
X40546Y-23050D01*
X40546Y-22950D01*
X40546Y-22653D01*
X40485Y-22447D01*
X40351Y-22281D01*
X40200Y-22199D01*
X40200Y-21825D01*
X40200Y-21712D01*
X40137Y-21650D01*
X39825Y-21650D01*
X39825Y-22062D01*
X39887Y-22125D01*
X39999Y-22125D01*
X40091Y-22087D01*
X40161Y-22016D01*
X40199Y-21924D01*
X40200Y-21825D01*
X40200Y-22199D01*
X40162Y-22178D01*
X40134Y-22173D01*
X40050Y-22221D01*
X40050Y-22950D01*
X40546Y-22950D01*
X40546Y-23050D01*
X40050Y-23050D01*
X40050Y-23057D01*
X39950Y-23057D01*
X39950Y-23050D01*
X39942Y-23050D01*
X39942Y-22950D01*
X39950Y-22950D01*
X39950Y-22221D01*
X39865Y-22173D01*
X39837Y-22178D01*
X39648Y-22281D01*
X39514Y-22447D01*
X39505Y-22478D01*
X39504Y-22477D01*
X39386Y-22300D01*
X39325Y-22258D01*
X39325Y-22093D01*
X39341Y-22087D01*
X39400Y-22028D01*
X39458Y-22087D01*
X39550Y-22125D01*
X39662Y-22125D01*
X39725Y-22062D01*
X39725Y-21650D01*
X39717Y-21650D01*
X39717Y-21550D01*
X39725Y-21550D01*
X39725Y-21542D01*
X39825Y-21542D01*
X39825Y-21550D01*
X40137Y-21550D01*
X40200Y-21487D01*
X40200Y-21374D01*
X40199Y-21275D01*
X40189Y-21250D01*
X42410Y-21250D01*
X42400Y-21275D01*
X42399Y-21374D01*
X42400Y-21437D01*
X42462Y-21500D01*
X42700Y-21500D01*
X42700Y-21492D01*
X42800Y-21492D01*
X42800Y-21500D01*
X42807Y-21500D01*
X42807Y-21600D01*
X42800Y-21600D01*
X42800Y-21962D01*
X42862Y-22025D01*
X42899Y-22025D01*
X42991Y-21987D01*
X42999Y-21978D01*
X43008Y-21986D01*
X43100Y-22024D01*
X43199Y-22025D01*
X43399Y-22025D01*
X43425Y-22014D01*
X43425Y-22074D01*
G54D10*
G36*
X43550Y-15490D02*
X43315Y-15725D01*
X42800Y-15725D01*
X42800Y-11462D01*
X42800Y-11100D01*
X42800Y-11000D01*
X42800Y-10637D01*
X42737Y-10575D01*
X42700Y-10574D01*
X42608Y-10612D01*
X42538Y-10683D01*
X42500Y-10775D01*
X42499Y-10874D01*
X42500Y-10937D01*
X42562Y-11000D01*
X42800Y-11000D01*
X42800Y-11100D01*
X42562Y-11100D01*
X42500Y-11162D01*
X42499Y-11225D01*
X42500Y-11324D01*
X42538Y-11416D01*
X42608Y-11487D01*
X42700Y-11525D01*
X42737Y-11525D01*
X42800Y-11462D01*
X42800Y-15725D01*
X39955Y-15725D01*
X39575Y-15344D01*
X39575Y-13804D01*
X39616Y-13787D01*
X39686Y-13716D01*
X39724Y-13624D01*
X39725Y-13525D01*
X39725Y-13525D01*
X39754Y-13597D01*
X39902Y-13744D01*
X40095Y-13824D01*
X40303Y-13825D01*
X40497Y-13745D01*
X40644Y-13597D01*
X40700Y-13464D01*
X40754Y-13597D01*
X40902Y-13744D01*
X41095Y-13824D01*
X41303Y-13825D01*
X41497Y-13745D01*
X41644Y-13597D01*
X41724Y-13404D01*
X41725Y-13196D01*
X41645Y-13003D01*
X41497Y-12855D01*
X41304Y-12775D01*
X41096Y-12774D01*
X40903Y-12854D01*
X40755Y-13002D01*
X40699Y-13135D01*
X40645Y-13003D01*
X40497Y-12855D01*
X40304Y-12775D01*
X40096Y-12774D01*
X39903Y-12854D01*
X39755Y-13002D01*
X39725Y-13074D01*
X39725Y-12975D01*
X39687Y-12883D01*
X39616Y-12813D01*
X39524Y-12775D01*
X39425Y-12774D01*
X38875Y-12774D01*
X38783Y-12812D01*
X38713Y-12883D01*
X38700Y-12914D01*
X38687Y-12883D01*
X38616Y-12813D01*
X38524Y-12775D01*
X38425Y-12774D01*
X38284Y-12774D01*
X38534Y-12525D01*
X40300Y-12525D01*
X40424Y-12500D01*
X40424Y-12500D01*
X40529Y-12429D01*
X41429Y-11529D01*
X41500Y-11424D01*
X41500Y-11424D01*
X41525Y-11300D01*
X41525Y-10824D01*
X41616Y-10787D01*
X41686Y-10716D01*
X41724Y-10624D01*
X41725Y-10525D01*
X41725Y-10160D01*
X41800Y-10175D01*
X42965Y-10175D01*
X43025Y-10234D01*
X43025Y-10585D01*
X42999Y-10574D01*
X42962Y-10575D01*
X42900Y-10637D01*
X42900Y-11000D01*
X42907Y-11000D01*
X42907Y-11100D01*
X42900Y-11100D01*
X42900Y-11462D01*
X42962Y-11525D01*
X42999Y-11525D01*
X43091Y-11487D01*
X43099Y-11478D01*
X43108Y-11486D01*
X43200Y-11524D01*
X43299Y-11525D01*
X43496Y-11525D01*
X43488Y-11533D01*
X43450Y-11625D01*
X43449Y-11724D01*
X43449Y-12274D01*
X43487Y-12366D01*
X43550Y-12428D01*
X43550Y-15490D01*
X43550Y-15490D01*
G37*
G54D26*
X43550Y-15490D02*
X43315Y-15725D01*
X42800Y-15725D01*
X42800Y-11462D01*
X42800Y-11100D01*
X42800Y-11000D01*
X42800Y-10637D01*
X42737Y-10575D01*
X42700Y-10574D01*
X42608Y-10612D01*
X42538Y-10683D01*
X42500Y-10775D01*
X42499Y-10874D01*
X42500Y-10937D01*
X42562Y-11000D01*
X42800Y-11000D01*
X42800Y-11100D01*
X42562Y-11100D01*
X42500Y-11162D01*
X42499Y-11225D01*
X42500Y-11324D01*
X42538Y-11416D01*
X42608Y-11487D01*
X42700Y-11525D01*
X42737Y-11525D01*
X42800Y-11462D01*
X42800Y-15725D01*
X39955Y-15725D01*
X39575Y-15344D01*
X39575Y-13804D01*
X39616Y-13787D01*
X39686Y-13716D01*
X39724Y-13624D01*
X39725Y-13525D01*
X39725Y-13525D01*
X39754Y-13597D01*
X39902Y-13744D01*
X40095Y-13824D01*
X40303Y-13825D01*
X40497Y-13745D01*
X40644Y-13597D01*
X40700Y-13464D01*
X40754Y-13597D01*
X40902Y-13744D01*
X41095Y-13824D01*
X41303Y-13825D01*
X41497Y-13745D01*
X41644Y-13597D01*
X41724Y-13404D01*
X41725Y-13196D01*
X41645Y-13003D01*
X41497Y-12855D01*
X41304Y-12775D01*
X41096Y-12774D01*
X40903Y-12854D01*
X40755Y-13002D01*
X40699Y-13135D01*
X40645Y-13003D01*
X40497Y-12855D01*
X40304Y-12775D01*
X40096Y-12774D01*
X39903Y-12854D01*
X39755Y-13002D01*
X39725Y-13074D01*
X39725Y-12975D01*
X39687Y-12883D01*
X39616Y-12813D01*
X39524Y-12775D01*
X39425Y-12774D01*
X38875Y-12774D01*
X38783Y-12812D01*
X38713Y-12883D01*
X38700Y-12914D01*
X38687Y-12883D01*
X38616Y-12813D01*
X38524Y-12775D01*
X38425Y-12774D01*
X38284Y-12774D01*
X38534Y-12525D01*
X40300Y-12525D01*
X40424Y-12500D01*
X40424Y-12500D01*
X40529Y-12429D01*
X41429Y-11529D01*
X41500Y-11424D01*
X41500Y-11424D01*
X41525Y-11300D01*
X41525Y-10824D01*
X41616Y-10787D01*
X41686Y-10716D01*
X41724Y-10624D01*
X41725Y-10525D01*
X41725Y-10160D01*
X41800Y-10175D01*
X42965Y-10175D01*
X43025Y-10234D01*
X43025Y-10585D01*
X42999Y-10574D01*
X42962Y-10575D01*
X42900Y-10637D01*
X42900Y-11000D01*
X42907Y-11000D01*
X42907Y-11100D01*
X42900Y-11100D01*
X42900Y-11462D01*
X42962Y-11525D01*
X42999Y-11525D01*
X43091Y-11487D01*
X43099Y-11478D01*
X43108Y-11486D01*
X43200Y-11524D01*
X43299Y-11525D01*
X43496Y-11525D01*
X43488Y-11533D01*
X43450Y-11625D01*
X43449Y-11724D01*
X43449Y-12274D01*
X43487Y-12366D01*
X43550Y-12428D01*
X43550Y-15490D01*
G54D10*
G36*
X47325Y-18783D02*
X47274Y-18749D01*
X47150Y-18725D01*
X44579Y-18725D01*
X44562Y-18683D01*
X44491Y-18613D01*
X44399Y-18575D01*
X44300Y-18574D01*
X44100Y-18574D01*
X44008Y-18612D01*
X44000Y-18621D01*
X43991Y-18613D01*
X43899Y-18575D01*
X43800Y-18574D01*
X43687Y-18574D01*
X43724Y-18484D01*
X43725Y-18315D01*
X43660Y-18159D01*
X43626Y-18125D01*
X43699Y-18125D01*
X43791Y-18087D01*
X43824Y-18053D01*
X43824Y-18084D01*
X43889Y-18240D01*
X44008Y-18360D01*
X44165Y-18424D01*
X44334Y-18425D01*
X44490Y-18360D01*
X44499Y-18351D01*
X44508Y-18360D01*
X44665Y-18424D01*
X44834Y-18425D01*
X44990Y-18360D01*
X44999Y-18351D01*
X45008Y-18360D01*
X45165Y-18424D01*
X45334Y-18425D01*
X45490Y-18360D01*
X45499Y-18351D01*
X45508Y-18360D01*
X45665Y-18424D01*
X45834Y-18425D01*
X45990Y-18360D01*
X45999Y-18351D01*
X46008Y-18360D01*
X46165Y-18424D01*
X46334Y-18425D01*
X46490Y-18360D01*
X46610Y-18241D01*
X46674Y-18084D01*
X46675Y-17915D01*
X46610Y-17759D01*
X46601Y-17750D01*
X46610Y-17741D01*
X46674Y-17584D01*
X46675Y-17415D01*
X46610Y-17259D01*
X46491Y-17139D01*
X46334Y-17075D01*
X46165Y-17074D01*
X46009Y-17139D01*
X46000Y-17148D01*
X45991Y-17139D01*
X45834Y-17075D01*
X45665Y-17074D01*
X45509Y-17139D01*
X45500Y-17148D01*
X45491Y-17139D01*
X45334Y-17075D01*
X45165Y-17074D01*
X45009Y-17139D01*
X45000Y-17148D01*
X44991Y-17139D01*
X44834Y-17075D01*
X44665Y-17074D01*
X44509Y-17139D01*
X44500Y-17148D01*
X44491Y-17139D01*
X44334Y-17075D01*
X44165Y-17074D01*
X44009Y-17139D01*
X43892Y-17256D01*
X43861Y-17183D01*
X43791Y-17112D01*
X43699Y-17074D01*
X43587Y-17075D01*
X43525Y-17137D01*
X43525Y-17550D01*
X43532Y-17550D01*
X43532Y-17650D01*
X43525Y-17650D01*
X43525Y-17657D01*
X43425Y-17657D01*
X43425Y-17650D01*
X43417Y-17650D01*
X43417Y-17550D01*
X43425Y-17550D01*
X43425Y-17137D01*
X43362Y-17075D01*
X43250Y-17074D01*
X43158Y-17112D01*
X43100Y-17171D01*
X43100Y-16975D01*
X43071Y-16831D01*
X42990Y-16709D01*
X42755Y-16475D01*
X46444Y-16475D01*
X47325Y-17355D01*
X47325Y-18783D01*
X47325Y-18783D01*
G37*
G54D26*
X47325Y-18783D02*
X47274Y-18749D01*
X47150Y-18725D01*
X44579Y-18725D01*
X44562Y-18683D01*
X44491Y-18613D01*
X44399Y-18575D01*
X44300Y-18574D01*
X44100Y-18574D01*
X44008Y-18612D01*
X44000Y-18621D01*
X43991Y-18613D01*
X43899Y-18575D01*
X43800Y-18574D01*
X43687Y-18574D01*
X43724Y-18484D01*
X43725Y-18315D01*
X43660Y-18159D01*
X43626Y-18125D01*
X43699Y-18125D01*
X43791Y-18087D01*
X43824Y-18053D01*
X43824Y-18084D01*
X43889Y-18240D01*
X44008Y-18360D01*
X44165Y-18424D01*
X44334Y-18425D01*
X44490Y-18360D01*
X44499Y-18351D01*
X44508Y-18360D01*
X44665Y-18424D01*
X44834Y-18425D01*
X44990Y-18360D01*
X44999Y-18351D01*
X45008Y-18360D01*
X45165Y-18424D01*
X45334Y-18425D01*
X45490Y-18360D01*
X45499Y-18351D01*
X45508Y-18360D01*
X45665Y-18424D01*
X45834Y-18425D01*
X45990Y-18360D01*
X45999Y-18351D01*
X46008Y-18360D01*
X46165Y-18424D01*
X46334Y-18425D01*
X46490Y-18360D01*
X46610Y-18241D01*
X46674Y-18084D01*
X46675Y-17915D01*
X46610Y-17759D01*
X46601Y-17750D01*
X46610Y-17741D01*
X46674Y-17584D01*
X46675Y-17415D01*
X46610Y-17259D01*
X46491Y-17139D01*
X46334Y-17075D01*
X46165Y-17074D01*
X46009Y-17139D01*
X46000Y-17148D01*
X45991Y-17139D01*
X45834Y-17075D01*
X45665Y-17074D01*
X45509Y-17139D01*
X45500Y-17148D01*
X45491Y-17139D01*
X45334Y-17075D01*
X45165Y-17074D01*
X45009Y-17139D01*
X45000Y-17148D01*
X44991Y-17139D01*
X44834Y-17075D01*
X44665Y-17074D01*
X44509Y-17139D01*
X44500Y-17148D01*
X44491Y-17139D01*
X44334Y-17075D01*
X44165Y-17074D01*
X44009Y-17139D01*
X43892Y-17256D01*
X43861Y-17183D01*
X43791Y-17112D01*
X43699Y-17074D01*
X43587Y-17075D01*
X43525Y-17137D01*
X43525Y-17550D01*
X43532Y-17550D01*
X43532Y-17650D01*
X43525Y-17650D01*
X43525Y-17657D01*
X43425Y-17657D01*
X43425Y-17650D01*
X43417Y-17650D01*
X43417Y-17550D01*
X43425Y-17550D01*
X43425Y-17137D01*
X43362Y-17075D01*
X43250Y-17074D01*
X43158Y-17112D01*
X43100Y-17171D01*
X43100Y-16975D01*
X43071Y-16831D01*
X42990Y-16709D01*
X42755Y-16475D01*
X46444Y-16475D01*
X47325Y-17355D01*
X47325Y-18783D01*
G54D10*
G36*
X48230Y-24230D02*
X23769Y-24230D01*
X23769Y-6000D01*
X23769Y-5769D01*
X43199Y-5769D01*
X42834Y-6134D01*
X42559Y-6409D01*
X42478Y-6531D01*
X42450Y-6675D01*
X42450Y-6700D01*
X42450Y-7221D01*
X42391Y-7162D01*
X42299Y-7124D01*
X42187Y-7125D01*
X42125Y-7187D01*
X42125Y-7600D01*
X42132Y-7600D01*
X42132Y-7700D01*
X42125Y-7700D01*
X42125Y-8112D01*
X42187Y-8175D01*
X42299Y-8175D01*
X42391Y-8137D01*
X42450Y-8078D01*
X42508Y-8136D01*
X42525Y-8143D01*
X42525Y-8214D01*
X42500Y-8275D01*
X42499Y-8374D01*
X42499Y-8824D01*
X42537Y-8916D01*
X42608Y-8986D01*
X42700Y-9024D01*
X42799Y-9025D01*
X42999Y-9025D01*
X43091Y-8987D01*
X43099Y-8978D01*
X43108Y-8986D01*
X43200Y-9024D01*
X43299Y-9025D01*
X43499Y-9025D01*
X43591Y-8987D01*
X43599Y-8978D01*
X43608Y-8986D01*
X43700Y-9024D01*
X43799Y-9025D01*
X43999Y-9025D01*
X44091Y-8987D01*
X44099Y-8978D01*
X44108Y-8986D01*
X44200Y-9024D01*
X44299Y-9025D01*
X44499Y-9025D01*
X44591Y-8987D01*
X44597Y-8981D01*
X44597Y-8981D01*
X44625Y-9000D01*
X44625Y-9000D01*
X44750Y-9025D01*
X45237Y-9025D01*
X45170Y-9070D01*
X45170Y-9070D01*
X44970Y-9270D01*
X44933Y-9324D01*
X44900Y-9324D01*
X44808Y-9362D01*
X44738Y-9433D01*
X44700Y-9525D01*
X44699Y-9624D01*
X44699Y-9775D01*
X44600Y-9775D01*
X44500Y-9775D01*
X44375Y-9799D01*
X44270Y-9870D01*
X44270Y-9870D01*
X44120Y-10020D01*
X44049Y-10125D01*
X44025Y-10250D01*
X44025Y-10300D01*
X44025Y-10585D01*
X43999Y-10575D01*
X43900Y-10574D01*
X43700Y-10574D01*
X43675Y-10585D01*
X43675Y-10100D01*
X43650Y-9975D01*
X43650Y-9975D01*
X43579Y-9870D01*
X43579Y-9870D01*
X43329Y-9620D01*
X43224Y-9549D01*
X43100Y-9525D01*
X42025Y-9525D01*
X42025Y-8112D01*
X42025Y-7700D01*
X42025Y-7600D01*
X42025Y-7187D01*
X41962Y-7125D01*
X41850Y-7124D01*
X41758Y-7162D01*
X41688Y-7233D01*
X41650Y-7325D01*
X41649Y-7424D01*
X41650Y-7537D01*
X41712Y-7600D01*
X42025Y-7600D01*
X42025Y-7700D01*
X41712Y-7700D01*
X41650Y-7762D01*
X41649Y-7875D01*
X41650Y-7974D01*
X41688Y-8066D01*
X41758Y-8137D01*
X41850Y-8175D01*
X41962Y-8175D01*
X42025Y-8112D01*
X42025Y-9525D01*
X41934Y-9525D01*
X41254Y-8845D01*
X41149Y-8774D01*
X41025Y-8750D01*
X40546Y-8750D01*
X40546Y-7347D01*
X40546Y-7050D01*
X40546Y-6950D01*
X40546Y-6653D01*
X40485Y-6447D01*
X40351Y-6281D01*
X40162Y-6178D01*
X40134Y-6173D01*
X40050Y-6221D01*
X40050Y-6950D01*
X40546Y-6950D01*
X40546Y-7050D01*
X40050Y-7050D01*
X40050Y-7778D01*
X40134Y-7826D01*
X40162Y-7821D01*
X40351Y-7718D01*
X40485Y-7552D01*
X40546Y-7347D01*
X40546Y-8750D01*
X40189Y-8750D01*
X40199Y-8724D01*
X40200Y-8625D01*
X40200Y-8174D01*
X40199Y-8075D01*
X40161Y-7983D01*
X40091Y-7912D01*
X39999Y-7874D01*
X39887Y-7875D01*
X39825Y-7937D01*
X39825Y-8350D01*
X40137Y-8350D01*
X40200Y-8287D01*
X40200Y-8174D01*
X40200Y-8625D01*
X40200Y-8512D01*
X40137Y-8450D01*
X39825Y-8450D01*
X39825Y-8457D01*
X39725Y-8457D01*
X39725Y-8450D01*
X39717Y-8450D01*
X39717Y-8350D01*
X39725Y-8350D01*
X39725Y-7937D01*
X39662Y-7875D01*
X39550Y-7874D01*
X39458Y-7912D01*
X39399Y-7971D01*
X39341Y-7913D01*
X39325Y-7906D01*
X39325Y-7741D01*
X39386Y-7699D01*
X39504Y-7522D01*
X39505Y-7521D01*
X39514Y-7552D01*
X39648Y-7718D01*
X39837Y-7821D01*
X39865Y-7826D01*
X39950Y-7778D01*
X39950Y-7050D01*
X39942Y-7050D01*
X39942Y-6950D01*
X39950Y-6950D01*
X39950Y-6221D01*
X39865Y-6173D01*
X39837Y-6178D01*
X39648Y-6281D01*
X39514Y-6447D01*
X39505Y-6478D01*
X39504Y-6477D01*
X39386Y-6300D01*
X39209Y-6181D01*
X39000Y-6139D01*
X38790Y-6181D01*
X38613Y-6300D01*
X38500Y-6470D01*
X38386Y-6300D01*
X38209Y-6181D01*
X38000Y-6139D01*
X37790Y-6181D01*
X37613Y-6300D01*
X37500Y-6470D01*
X37386Y-6300D01*
X37209Y-6181D01*
X37000Y-6139D01*
X36790Y-6181D01*
X36613Y-6300D01*
X36500Y-6470D01*
X36386Y-6300D01*
X36209Y-6181D01*
X36000Y-6139D01*
X35790Y-6181D01*
X35613Y-6300D01*
X35495Y-6477D01*
X35453Y-6686D01*
X35453Y-7186D01*
X35270Y-7370D01*
X35199Y-7475D01*
X35175Y-7600D01*
X35175Y-8399D01*
X34975Y-8399D01*
X34883Y-8437D01*
X34813Y-8508D01*
X34775Y-8600D01*
X34774Y-8699D01*
X34774Y-9199D01*
X34812Y-9291D01*
X34825Y-9303D01*
X34825Y-11500D01*
X34825Y-11750D01*
X34849Y-11874D01*
X34920Y-11979D01*
X35070Y-12129D01*
X35070Y-12129D01*
X35550Y-12610D01*
X35483Y-12637D01*
X35413Y-12708D01*
X35375Y-12800D01*
X35374Y-12899D01*
X35374Y-13249D01*
X35412Y-13341D01*
X35471Y-13400D01*
X35412Y-13458D01*
X35374Y-13550D01*
X35375Y-13662D01*
X35437Y-13725D01*
X35850Y-13725D01*
X35850Y-13717D01*
X35950Y-13717D01*
X35950Y-13725D01*
X36000Y-13725D01*
X36337Y-13725D01*
X36362Y-13725D01*
X36750Y-13725D01*
X36850Y-13725D01*
X37200Y-13725D01*
X37262Y-13725D01*
X37278Y-13709D01*
X37324Y-13700D01*
X37324Y-13700D01*
X37429Y-13629D01*
X37674Y-13384D01*
X37674Y-13624D01*
X37712Y-13716D01*
X37783Y-13786D01*
X37875Y-13824D01*
X37974Y-13825D01*
X38524Y-13825D01*
X38616Y-13787D01*
X38686Y-13716D01*
X38699Y-13685D01*
X38712Y-13716D01*
X38783Y-13786D01*
X38825Y-13804D01*
X38825Y-15500D01*
X38853Y-15643D01*
X38934Y-15765D01*
X39269Y-16100D01*
X39194Y-16174D01*
X38875Y-16174D01*
X38783Y-16212D01*
X38713Y-16283D01*
X38700Y-16314D01*
X38687Y-16283D01*
X38616Y-16213D01*
X38524Y-16175D01*
X38425Y-16174D01*
X37875Y-16174D01*
X37783Y-16212D01*
X37713Y-16283D01*
X37675Y-16375D01*
X37674Y-16474D01*
X37674Y-16515D01*
X37529Y-16370D01*
X37424Y-16299D01*
X37325Y-16279D01*
X37325Y-16000D01*
X37325Y-13999D01*
X37325Y-13887D01*
X37262Y-13825D01*
X36850Y-13825D01*
X36850Y-14137D01*
X36912Y-14200D01*
X37025Y-14200D01*
X37124Y-14199D01*
X37216Y-14161D01*
X37287Y-14091D01*
X37325Y-13999D01*
X37325Y-16000D01*
X37287Y-15908D01*
X37216Y-15838D01*
X37124Y-15800D01*
X37025Y-15799D01*
X36912Y-15800D01*
X36850Y-15862D01*
X36850Y-16175D01*
X37262Y-16175D01*
X37325Y-16112D01*
X37325Y-16000D01*
X37325Y-16279D01*
X37300Y-16275D01*
X37262Y-16275D01*
X36850Y-16275D01*
X36750Y-16275D01*
X36750Y-16175D01*
X36750Y-15862D01*
X36750Y-14137D01*
X36750Y-13825D01*
X36362Y-13825D01*
X36337Y-13825D01*
X35950Y-13825D01*
X35950Y-14137D01*
X36012Y-14200D01*
X36125Y-14200D01*
X36224Y-14199D01*
X36316Y-14161D01*
X36350Y-14128D01*
X36383Y-14161D01*
X36475Y-14199D01*
X36574Y-14200D01*
X36687Y-14200D01*
X36750Y-14137D01*
X36750Y-15862D01*
X36687Y-15800D01*
X36574Y-15799D01*
X36475Y-15800D01*
X36383Y-15838D01*
X36350Y-15871D01*
X36316Y-15838D01*
X36224Y-15800D01*
X36125Y-15799D01*
X36012Y-15800D01*
X35950Y-15862D01*
X35950Y-16175D01*
X36337Y-16175D01*
X36362Y-16175D01*
X36750Y-16175D01*
X36750Y-16275D01*
X36362Y-16275D01*
X36337Y-16275D01*
X36300Y-16275D01*
X35950Y-16275D01*
X35950Y-16282D01*
X35850Y-16282D01*
X35850Y-16275D01*
X35850Y-16175D01*
X35850Y-15862D01*
X35850Y-14137D01*
X35850Y-13825D01*
X35437Y-13825D01*
X35375Y-13887D01*
X35374Y-13999D01*
X35412Y-14091D01*
X35483Y-14161D01*
X35575Y-14199D01*
X35674Y-14200D01*
X35787Y-14200D01*
X35850Y-14137D01*
X35850Y-15862D01*
X35787Y-15800D01*
X35674Y-15799D01*
X35575Y-15800D01*
X35483Y-15838D01*
X35412Y-15908D01*
X35374Y-16000D01*
X35375Y-16112D01*
X35437Y-16175D01*
X35850Y-16175D01*
X35850Y-16275D01*
X35437Y-16275D01*
X35375Y-16337D01*
X35374Y-16449D01*
X35412Y-16541D01*
X35471Y-16600D01*
X35413Y-16658D01*
X35375Y-16750D01*
X35374Y-16849D01*
X35374Y-17065D01*
X34920Y-17520D01*
X34849Y-17625D01*
X34825Y-17750D01*
X34825Y-20596D01*
X34813Y-20608D01*
X34775Y-20700D01*
X34774Y-20799D01*
X34774Y-21299D01*
X34812Y-21391D01*
X34883Y-21461D01*
X34975Y-21499D01*
X35074Y-21500D01*
X35175Y-21500D01*
X35175Y-22500D01*
X35199Y-22624D01*
X35270Y-22729D01*
X35453Y-22913D01*
X35453Y-23313D01*
X35475Y-23425D01*
X34544Y-23425D01*
X34544Y-11228D01*
X34544Y-10371D01*
X34544Y-10271D01*
X34506Y-10179D01*
X34436Y-10109D01*
X34344Y-10071D01*
X33940Y-10071D01*
X33878Y-10134D01*
X33878Y-10750D01*
X34482Y-10750D01*
X34544Y-10687D01*
X34544Y-10371D01*
X34544Y-11228D01*
X34544Y-10912D01*
X34482Y-10850D01*
X33878Y-10850D01*
X33878Y-11465D01*
X33940Y-11528D01*
X34344Y-11528D01*
X34436Y-11490D01*
X34506Y-11420D01*
X34544Y-11328D01*
X34544Y-11228D01*
X34544Y-23425D01*
X33778Y-23425D01*
X33778Y-11465D01*
X33778Y-10850D01*
X33778Y-10750D01*
X33778Y-10134D01*
X33715Y-10071D01*
X33425Y-10071D01*
X33425Y-9225D01*
X33425Y-8774D01*
X33424Y-8675D01*
X33386Y-8583D01*
X33316Y-8512D01*
X33224Y-8474D01*
X33012Y-8475D01*
X32950Y-8537D01*
X32950Y-8950D01*
X33362Y-8950D01*
X33425Y-8887D01*
X33425Y-8774D01*
X33425Y-9225D01*
X33425Y-9112D01*
X33362Y-9050D01*
X32950Y-9050D01*
X32950Y-9462D01*
X33012Y-9525D01*
X33224Y-9525D01*
X33316Y-9487D01*
X33386Y-9416D01*
X33424Y-9324D01*
X33425Y-9225D01*
X33425Y-10071D01*
X33312Y-10071D01*
X33220Y-10109D01*
X33149Y-10179D01*
X33111Y-10271D01*
X33111Y-10371D01*
X33111Y-10687D01*
X33174Y-10750D01*
X33778Y-10750D01*
X33778Y-10850D01*
X33174Y-10850D01*
X33111Y-10912D01*
X33111Y-11228D01*
X33111Y-11328D01*
X33149Y-11420D01*
X33220Y-11490D01*
X33312Y-11528D01*
X33715Y-11528D01*
X33778Y-11465D01*
X33778Y-23425D01*
X33400Y-23425D01*
X33400Y-21000D01*
X33400Y-17500D01*
X33362Y-17408D01*
X33291Y-17338D01*
X33199Y-17300D01*
X33100Y-17299D01*
X33000Y-17299D01*
X33000Y-13199D01*
X33000Y-12400D01*
X32962Y-12308D01*
X32891Y-12238D01*
X32850Y-12220D01*
X32850Y-9462D01*
X32850Y-9050D01*
X32850Y-8950D01*
X32850Y-8537D01*
X32787Y-8475D01*
X32575Y-8474D01*
X32483Y-8512D01*
X32413Y-8583D01*
X32375Y-8675D01*
X32374Y-8774D01*
X32375Y-8887D01*
X32437Y-8950D01*
X32850Y-8950D01*
X32850Y-9050D01*
X32437Y-9050D01*
X32375Y-9112D01*
X32374Y-9225D01*
X32375Y-9324D01*
X32413Y-9416D01*
X32483Y-9487D01*
X32575Y-9525D01*
X32787Y-9525D01*
X32850Y-9462D01*
X32850Y-12220D01*
X32799Y-12200D01*
X32700Y-12199D01*
X32512Y-12200D01*
X32450Y-12262D01*
X32450Y-12750D01*
X32937Y-12750D01*
X33000Y-12687D01*
X33000Y-12400D01*
X33000Y-13199D01*
X33000Y-12912D01*
X32937Y-12850D01*
X32450Y-12850D01*
X32450Y-13337D01*
X32512Y-13400D01*
X32700Y-13400D01*
X32799Y-13399D01*
X32891Y-13361D01*
X32962Y-13291D01*
X33000Y-13199D01*
X33000Y-17299D01*
X29600Y-17299D01*
X29508Y-17337D01*
X29438Y-17408D01*
X29400Y-17500D01*
X29399Y-17599D01*
X29399Y-21099D01*
X29437Y-21191D01*
X29508Y-21261D01*
X29600Y-21299D01*
X29699Y-21300D01*
X33199Y-21300D01*
X33291Y-21262D01*
X33361Y-21191D01*
X33399Y-21099D01*
X33400Y-21000D01*
X33400Y-23425D01*
X31600Y-23425D01*
X31518Y-23441D01*
X31546Y-23347D01*
X31546Y-23050D01*
X31546Y-22950D01*
X31546Y-22653D01*
X31485Y-22447D01*
X31351Y-22281D01*
X31162Y-22178D01*
X31134Y-22173D01*
X31050Y-22221D01*
X31050Y-22950D01*
X31546Y-22950D01*
X31546Y-23050D01*
X31050Y-23050D01*
X31050Y-23057D01*
X30950Y-23057D01*
X30950Y-23050D01*
X30942Y-23050D01*
X30942Y-22950D01*
X30950Y-22950D01*
X30950Y-22221D01*
X30865Y-22173D01*
X30837Y-22178D01*
X30648Y-22281D01*
X30514Y-22447D01*
X30505Y-22478D01*
X30504Y-22477D01*
X30386Y-22300D01*
X30209Y-22181D01*
X30000Y-22139D01*
X29790Y-22181D01*
X29613Y-22300D01*
X29500Y-22470D01*
X29386Y-22300D01*
X29209Y-22181D01*
X29000Y-22139D01*
X28790Y-22181D01*
X28613Y-22300D01*
X28500Y-22470D01*
X28386Y-22300D01*
X28343Y-22271D01*
X28391Y-22261D01*
X28553Y-22153D01*
X29153Y-21553D01*
X29153Y-21553D01*
X29153Y-21553D01*
X29261Y-21391D01*
X29300Y-21200D01*
X29300Y-14607D01*
X29607Y-14300D01*
X30999Y-14300D01*
X31000Y-14300D01*
X31000Y-14300D01*
X31191Y-14261D01*
X31353Y-14153D01*
X31753Y-13753D01*
X31753Y-13753D01*
X31753Y-13753D01*
X31861Y-13591D01*
X31861Y-13591D01*
X31892Y-13438D01*
X31900Y-13400D01*
X31899Y-13400D01*
X31900Y-13400D01*
X31900Y-13353D01*
X31908Y-13361D01*
X32000Y-13399D01*
X32099Y-13400D01*
X32287Y-13400D01*
X32350Y-13337D01*
X32350Y-12850D01*
X32342Y-12850D01*
X32342Y-12750D01*
X32350Y-12750D01*
X32350Y-12262D01*
X32287Y-12200D01*
X32099Y-12199D01*
X32000Y-12200D01*
X31908Y-12238D01*
X31900Y-12246D01*
X31900Y-11523D01*
X31979Y-11490D01*
X32050Y-11420D01*
X32088Y-11328D01*
X32088Y-11228D01*
X32088Y-10272D01*
X32050Y-10180D01*
X31979Y-10109D01*
X31888Y-10071D01*
X31788Y-10071D01*
X31546Y-10071D01*
X31546Y-7347D01*
X31546Y-7050D01*
X31546Y-6950D01*
X31546Y-6653D01*
X31485Y-6447D01*
X31351Y-6281D01*
X31162Y-6178D01*
X31134Y-6173D01*
X31050Y-6221D01*
X31050Y-6950D01*
X31546Y-6950D01*
X31546Y-7050D01*
X31050Y-7050D01*
X31050Y-7778D01*
X31134Y-7826D01*
X31162Y-7821D01*
X31351Y-7718D01*
X31485Y-7552D01*
X31546Y-7347D01*
X31546Y-10071D01*
X30855Y-10071D01*
X30763Y-10109D01*
X30693Y-10179D01*
X30655Y-10271D01*
X30655Y-10371D01*
X30655Y-11327D01*
X30693Y-11419D01*
X30763Y-11490D01*
X30855Y-11528D01*
X30900Y-11528D01*
X30900Y-12451D01*
X30899Y-12451D01*
X30740Y-12291D01*
X30519Y-12200D01*
X30507Y-12200D01*
X30300Y-11992D01*
X30300Y-11660D01*
X30324Y-11599D01*
X30325Y-11500D01*
X30325Y-11150D01*
X30287Y-11058D01*
X30228Y-11000D01*
X30287Y-10941D01*
X30325Y-10849D01*
X30325Y-10400D01*
X30287Y-10308D01*
X30216Y-10238D01*
X30124Y-10200D01*
X30025Y-10199D01*
X29912Y-10200D01*
X29850Y-10262D01*
X29850Y-10575D01*
X30262Y-10575D01*
X30325Y-10512D01*
X30325Y-10400D01*
X30325Y-10849D01*
X30325Y-10737D01*
X30262Y-10675D01*
X29850Y-10675D01*
X29850Y-10682D01*
X29750Y-10682D01*
X29750Y-10675D01*
X29742Y-10675D01*
X29742Y-10575D01*
X29750Y-10575D01*
X29750Y-10262D01*
X29687Y-10200D01*
X29574Y-10199D01*
X29500Y-10200D01*
X29500Y-9800D01*
X29500Y-9342D01*
X29602Y-9444D01*
X29795Y-9524D01*
X30003Y-9525D01*
X30197Y-9445D01*
X30344Y-9297D01*
X30424Y-9104D01*
X30425Y-8896D01*
X30345Y-8703D01*
X30197Y-8555D01*
X30004Y-8475D01*
X29796Y-8474D01*
X29603Y-8554D01*
X29500Y-8657D01*
X29500Y-7529D01*
X29613Y-7699D01*
X29790Y-7818D01*
X30000Y-7860D01*
X30209Y-7818D01*
X30386Y-7699D01*
X30504Y-7522D01*
X30505Y-7521D01*
X30514Y-7552D01*
X30648Y-7718D01*
X30837Y-7821D01*
X30865Y-7826D01*
X30950Y-7778D01*
X30950Y-7050D01*
X30942Y-7050D01*
X30942Y-6950D01*
X30950Y-6950D01*
X30950Y-6221D01*
X30865Y-6173D01*
X30837Y-6178D01*
X30648Y-6281D01*
X30514Y-6447D01*
X30505Y-6478D01*
X30504Y-6477D01*
X30386Y-6300D01*
X30209Y-6181D01*
X30000Y-6139D01*
X29790Y-6181D01*
X29613Y-6300D01*
X29500Y-6470D01*
X29386Y-6300D01*
X29209Y-6181D01*
X29000Y-6139D01*
X28790Y-6181D01*
X28613Y-6300D01*
X28500Y-6470D01*
X28386Y-6300D01*
X28209Y-6181D01*
X28000Y-6139D01*
X27790Y-6181D01*
X27613Y-6300D01*
X27500Y-6470D01*
X27386Y-6300D01*
X27209Y-6181D01*
X27000Y-6139D01*
X26790Y-6181D01*
X26613Y-6300D01*
X26495Y-6477D01*
X26453Y-6686D01*
X26453Y-7034D01*
X26231Y-7624D01*
X26217Y-7712D01*
X26200Y-7800D01*
X26200Y-9000D01*
X26203Y-9015D01*
X26200Y-9030D01*
X26221Y-9110D01*
X26238Y-9191D01*
X26246Y-9204D01*
X26250Y-9219D01*
X26630Y-9997D01*
X26608Y-10019D01*
X26600Y-10040D01*
X26591Y-10019D01*
X26520Y-9948D01*
X26429Y-9910D01*
X26137Y-9911D01*
X26075Y-9973D01*
X26075Y-10550D01*
X26083Y-10550D01*
X26083Y-10650D01*
X26075Y-10650D01*
X26075Y-11226D01*
X26137Y-11288D01*
X26429Y-11289D01*
X26520Y-11251D01*
X26591Y-11180D01*
X26599Y-11159D01*
X26608Y-11180D01*
X26678Y-11250D01*
X26700Y-11259D01*
X26700Y-12246D01*
X26691Y-12238D01*
X26599Y-12200D01*
X26500Y-12199D01*
X26312Y-12200D01*
X26250Y-12262D01*
X26250Y-12750D01*
X26257Y-12750D01*
X26257Y-12850D01*
X26250Y-12850D01*
X26250Y-13337D01*
X26312Y-13400D01*
X26500Y-13400D01*
X26599Y-13399D01*
X26691Y-13361D01*
X26762Y-13291D01*
X26785Y-13234D01*
X26859Y-13308D01*
X27080Y-13399D01*
X27318Y-13400D01*
X27539Y-13308D01*
X27708Y-13140D01*
X27799Y-12919D01*
X27800Y-12681D01*
X27708Y-12460D01*
X27700Y-12451D01*
X27700Y-11221D01*
X27740Y-11180D01*
X27779Y-11088D01*
X27779Y-10989D01*
X27779Y-10111D01*
X27741Y-10019D01*
X27673Y-9951D01*
X27674Y-9944D01*
X27651Y-9855D01*
X27636Y-9783D01*
X27629Y-9772D01*
X27624Y-9755D01*
X27492Y-9483D01*
X27624Y-9529D01*
X27832Y-9518D01*
X27972Y-9460D01*
X27997Y-9367D01*
X27700Y-9070D01*
X27694Y-9076D01*
X27623Y-9005D01*
X27629Y-9000D01*
X27332Y-8702D01*
X27239Y-8727D01*
X27200Y-8839D01*
X27200Y-7890D01*
X27233Y-7802D01*
X27386Y-7699D01*
X27500Y-7529D01*
X27613Y-7699D01*
X27790Y-7818D01*
X28000Y-7860D01*
X28209Y-7818D01*
X28386Y-7699D01*
X28500Y-7529D01*
X28500Y-9800D01*
X28500Y-12592D01*
X28246Y-12846D01*
X28246Y-12846D01*
X28229Y-12863D01*
X28229Y-9075D01*
X28218Y-8867D01*
X28160Y-8727D01*
X28067Y-8702D01*
X27997Y-8773D01*
X27997Y-8632D01*
X27972Y-8539D01*
X27775Y-8470D01*
X27567Y-8481D01*
X27427Y-8539D01*
X27402Y-8632D01*
X27700Y-8929D01*
X27997Y-8632D01*
X27997Y-8773D01*
X27770Y-9000D01*
X28067Y-9297D01*
X28160Y-9272D01*
X28229Y-9075D01*
X28229Y-12863D01*
X27592Y-13500D01*
X25700Y-13500D01*
X25700Y-13353D01*
X25708Y-13361D01*
X25800Y-13399D01*
X25899Y-13400D01*
X26087Y-13400D01*
X26150Y-13337D01*
X26150Y-12850D01*
X26142Y-12850D01*
X26142Y-12750D01*
X26150Y-12750D01*
X26150Y-12262D01*
X26087Y-12200D01*
X26050Y-12199D01*
X26050Y-6792D01*
X25890Y-6406D01*
X25595Y-6110D01*
X25209Y-5950D01*
X24792Y-5949D01*
X24406Y-6109D01*
X24110Y-6404D01*
X23950Y-6790D01*
X23949Y-7207D01*
X24109Y-7594D01*
X24404Y-7889D01*
X24790Y-8049D01*
X25207Y-8050D01*
X25594Y-7890D01*
X25889Y-7595D01*
X26049Y-7209D01*
X26050Y-6792D01*
X26050Y-12199D01*
X25975Y-12199D01*
X25975Y-11226D01*
X25975Y-10650D01*
X25975Y-10550D01*
X25975Y-9973D01*
X25912Y-9911D01*
X25621Y-9910D01*
X25529Y-9948D01*
X25459Y-10019D01*
X25420Y-10111D01*
X25420Y-10210D01*
X25420Y-10487D01*
X25483Y-10550D01*
X25975Y-10550D01*
X25975Y-10650D01*
X25483Y-10650D01*
X25420Y-10712D01*
X25420Y-10989D01*
X25420Y-11088D01*
X25459Y-11180D01*
X25529Y-11251D01*
X25621Y-11289D01*
X25912Y-11288D01*
X25975Y-11226D01*
X25975Y-12199D01*
X25899Y-12199D01*
X25800Y-12200D01*
X25708Y-12238D01*
X25637Y-12308D01*
X25614Y-12365D01*
X25540Y-12291D01*
X25319Y-12200D01*
X25307Y-12200D01*
X25225Y-12117D01*
X25225Y-9225D01*
X25225Y-8675D01*
X25187Y-8583D01*
X25116Y-8513D01*
X25024Y-8475D01*
X24925Y-8474D01*
X24375Y-8474D01*
X24283Y-8512D01*
X24213Y-8583D01*
X24175Y-8675D01*
X24174Y-8774D01*
X24174Y-9324D01*
X24212Y-9416D01*
X24283Y-9486D01*
X24375Y-9524D01*
X24474Y-9525D01*
X25024Y-9525D01*
X25116Y-9487D01*
X25186Y-9416D01*
X25224Y-9324D01*
X25225Y-9225D01*
X25225Y-12117D01*
X25100Y-11992D01*
X25100Y-11660D01*
X25124Y-11599D01*
X25125Y-11500D01*
X25125Y-11150D01*
X25087Y-11058D01*
X25028Y-11000D01*
X25087Y-10941D01*
X25125Y-10849D01*
X25125Y-10400D01*
X25087Y-10308D01*
X25016Y-10238D01*
X24924Y-10200D01*
X24825Y-10199D01*
X24712Y-10200D01*
X24650Y-10262D01*
X24650Y-10575D01*
X25062Y-10575D01*
X25125Y-10512D01*
X25125Y-10400D01*
X25125Y-10849D01*
X25125Y-10737D01*
X25062Y-10675D01*
X24650Y-10675D01*
X24650Y-10682D01*
X24550Y-10682D01*
X24550Y-10675D01*
X24550Y-10575D01*
X24550Y-10262D01*
X24487Y-10200D01*
X24374Y-10199D01*
X24275Y-10200D01*
X24183Y-10238D01*
X24112Y-10308D01*
X24074Y-10400D01*
X24075Y-10512D01*
X24137Y-10575D01*
X24550Y-10575D01*
X24550Y-10675D01*
X24137Y-10675D01*
X24075Y-10737D01*
X24074Y-10849D01*
X24112Y-10941D01*
X24171Y-11000D01*
X24113Y-11058D01*
X24075Y-11150D01*
X24074Y-11249D01*
X24074Y-11599D01*
X24100Y-11660D01*
X24100Y-12199D01*
X24099Y-12200D01*
X24138Y-12391D01*
X24246Y-12553D01*
X24599Y-12907D01*
X24599Y-12918D01*
X24691Y-13139D01*
X24700Y-13148D01*
X24700Y-13619D01*
X23934Y-14384D01*
X23853Y-14506D01*
X23825Y-14650D01*
X23825Y-21200D01*
X23825Y-21300D01*
X23853Y-21443D01*
X23934Y-21565D01*
X24334Y-21965D01*
X24334Y-21965D01*
X24383Y-21997D01*
X24456Y-22046D01*
X24525Y-22060D01*
X24406Y-22109D01*
X24110Y-22404D01*
X23950Y-22790D01*
X23949Y-23207D01*
X24109Y-23594D01*
X24404Y-23889D01*
X24790Y-24049D01*
X25207Y-24050D01*
X25594Y-23890D01*
X25851Y-23633D01*
X25853Y-23643D01*
X25934Y-23765D01*
X26234Y-24065D01*
X26356Y-24146D01*
X26499Y-24174D01*
X26643Y-24146D01*
X26675Y-24125D01*
X31424Y-24125D01*
X31456Y-24146D01*
X31600Y-24175D01*
X35500Y-24175D01*
X35643Y-24146D01*
X35675Y-24125D01*
X40324Y-24125D01*
X40356Y-24146D01*
X40500Y-24175D01*
X42950Y-24175D01*
X43093Y-24146D01*
X43215Y-24065D01*
X43840Y-23440D01*
X43921Y-23318D01*
X43950Y-23175D01*
X43950Y-23028D01*
X43961Y-23016D01*
X43979Y-22975D01*
X44100Y-22975D01*
X44243Y-22946D01*
X44365Y-22865D01*
X45155Y-22075D01*
X46489Y-22075D01*
X46406Y-22109D01*
X46110Y-22404D01*
X45950Y-22790D01*
X45949Y-23207D01*
X46109Y-23594D01*
X46404Y-23889D01*
X46790Y-24049D01*
X47207Y-24050D01*
X47594Y-23890D01*
X47889Y-23595D01*
X48049Y-23209D01*
X48050Y-22792D01*
X47890Y-22406D01*
X47595Y-22110D01*
X47510Y-22075D01*
X47700Y-22075D01*
X47843Y-22046D01*
X47965Y-21965D01*
X48046Y-21843D01*
X48075Y-21700D01*
X48075Y-17200D01*
X48046Y-17056D01*
X47965Y-16934D01*
X47965Y-16934D01*
X46865Y-15834D01*
X46743Y-15753D01*
X46600Y-15725D01*
X45050Y-15725D01*
X45050Y-12175D01*
X45050Y-12062D01*
X44987Y-12000D01*
X44675Y-12000D01*
X44675Y-12412D01*
X44737Y-12475D01*
X44849Y-12475D01*
X44941Y-12437D01*
X45011Y-12366D01*
X45049Y-12274D01*
X45050Y-12175D01*
X45050Y-15725D01*
X44180Y-15725D01*
X44200Y-15625D01*
X44200Y-12428D01*
X44250Y-12378D01*
X44308Y-12437D01*
X44400Y-12475D01*
X44512Y-12475D01*
X44575Y-12412D01*
X44575Y-12000D01*
X44567Y-12000D01*
X44567Y-11900D01*
X44575Y-11900D01*
X44575Y-11892D01*
X44675Y-11892D01*
X44675Y-11900D01*
X44987Y-11900D01*
X45050Y-11837D01*
X45050Y-11724D01*
X45049Y-11625D01*
X45011Y-11533D01*
X44941Y-11462D01*
X44849Y-11424D01*
X44737Y-11425D01*
X44675Y-11487D01*
X44675Y-11425D01*
X44653Y-11425D01*
X44661Y-11416D01*
X44699Y-11324D01*
X44700Y-11225D01*
X44700Y-10775D01*
X44675Y-10714D01*
X44675Y-10425D01*
X44699Y-10425D01*
X44699Y-10674D01*
X44737Y-10766D01*
X44808Y-10836D01*
X44900Y-10874D01*
X44900Y-10874D01*
X44970Y-10979D01*
X45120Y-11129D01*
X45120Y-11129D01*
X45225Y-11200D01*
X45225Y-11200D01*
X45350Y-11225D01*
X46100Y-11225D01*
X46137Y-11316D01*
X46208Y-11386D01*
X46300Y-11424D01*
X46399Y-11425D01*
X46749Y-11425D01*
X46841Y-11387D01*
X46900Y-11328D01*
X46958Y-11386D01*
X47050Y-11424D01*
X47149Y-11425D01*
X47499Y-11425D01*
X47591Y-11387D01*
X47625Y-11353D01*
X47625Y-12094D01*
X46844Y-12874D01*
X46815Y-12874D01*
X46659Y-12939D01*
X46539Y-13058D01*
X46475Y-13215D01*
X46474Y-13384D01*
X46539Y-13540D01*
X46658Y-13660D01*
X46815Y-13724D01*
X46984Y-13725D01*
X47140Y-13660D01*
X47260Y-13541D01*
X47274Y-13505D01*
X48230Y-12550D01*
X48230Y-24230D01*
X48230Y-24230D01*
G37*
G54D26*
X48230Y-24230D02*
X23769Y-24230D01*
X23769Y-6000D01*
X23769Y-5769D01*
X43199Y-5769D01*
X42834Y-6134D01*
X42559Y-6409D01*
X42478Y-6531D01*
X42450Y-6675D01*
X42450Y-6700D01*
X42450Y-7221D01*
X42391Y-7162D01*
X42299Y-7124D01*
X42187Y-7125D01*
X42125Y-7187D01*
X42125Y-7600D01*
X42132Y-7600D01*
X42132Y-7700D01*
X42125Y-7700D01*
X42125Y-8112D01*
X42187Y-8175D01*
X42299Y-8175D01*
X42391Y-8137D01*
X42450Y-8078D01*
X42508Y-8136D01*
X42525Y-8143D01*
X42525Y-8214D01*
X42500Y-8275D01*
X42499Y-8374D01*
X42499Y-8824D01*
X42537Y-8916D01*
X42608Y-8986D01*
X42700Y-9024D01*
X42799Y-9025D01*
X42999Y-9025D01*
X43091Y-8987D01*
X43099Y-8978D01*
X43108Y-8986D01*
X43200Y-9024D01*
X43299Y-9025D01*
X43499Y-9025D01*
X43591Y-8987D01*
X43599Y-8978D01*
X43608Y-8986D01*
X43700Y-9024D01*
X43799Y-9025D01*
X43999Y-9025D01*
X44091Y-8987D01*
X44099Y-8978D01*
X44108Y-8986D01*
X44200Y-9024D01*
X44299Y-9025D01*
X44499Y-9025D01*
X44591Y-8987D01*
X44597Y-8981D01*
X44597Y-8981D01*
X44625Y-9000D01*
X44625Y-9000D01*
X44750Y-9025D01*
X45237Y-9025D01*
X45170Y-9070D01*
X45170Y-9070D01*
X44970Y-9270D01*
X44933Y-9324D01*
X44900Y-9324D01*
X44808Y-9362D01*
X44738Y-9433D01*
X44700Y-9525D01*
X44699Y-9624D01*
X44699Y-9775D01*
X44600Y-9775D01*
X44500Y-9775D01*
X44375Y-9799D01*
X44270Y-9870D01*
X44270Y-9870D01*
X44120Y-10020D01*
X44049Y-10125D01*
X44025Y-10250D01*
X44025Y-10300D01*
X44025Y-10585D01*
X43999Y-10575D01*
X43900Y-10574D01*
X43700Y-10574D01*
X43675Y-10585D01*
X43675Y-10100D01*
X43650Y-9975D01*
X43650Y-9975D01*
X43579Y-9870D01*
X43579Y-9870D01*
X43329Y-9620D01*
X43224Y-9549D01*
X43100Y-9525D01*
X42025Y-9525D01*
X42025Y-8112D01*
X42025Y-7700D01*
X42025Y-7600D01*
X42025Y-7187D01*
X41962Y-7125D01*
X41850Y-7124D01*
X41758Y-7162D01*
X41688Y-7233D01*
X41650Y-7325D01*
X41649Y-7424D01*
X41650Y-7537D01*
X41712Y-7600D01*
X42025Y-7600D01*
X42025Y-7700D01*
X41712Y-7700D01*
X41650Y-7762D01*
X41649Y-7875D01*
X41650Y-7974D01*
X41688Y-8066D01*
X41758Y-8137D01*
X41850Y-8175D01*
X41962Y-8175D01*
X42025Y-8112D01*
X42025Y-9525D01*
X41934Y-9525D01*
X41254Y-8845D01*
X41149Y-8774D01*
X41025Y-8750D01*
X40546Y-8750D01*
X40546Y-7347D01*
X40546Y-7050D01*
X40546Y-6950D01*
X40546Y-6653D01*
X40485Y-6447D01*
X40351Y-6281D01*
X40162Y-6178D01*
X40134Y-6173D01*
X40050Y-6221D01*
X40050Y-6950D01*
X40546Y-6950D01*
X40546Y-7050D01*
X40050Y-7050D01*
X40050Y-7778D01*
X40134Y-7826D01*
X40162Y-7821D01*
X40351Y-7718D01*
X40485Y-7552D01*
X40546Y-7347D01*
X40546Y-8750D01*
X40189Y-8750D01*
X40199Y-8724D01*
X40200Y-8625D01*
X40200Y-8174D01*
X40199Y-8075D01*
X40161Y-7983D01*
X40091Y-7912D01*
X39999Y-7874D01*
X39887Y-7875D01*
X39825Y-7937D01*
X39825Y-8350D01*
X40137Y-8350D01*
X40200Y-8287D01*
X40200Y-8174D01*
X40200Y-8625D01*
X40200Y-8512D01*
X40137Y-8450D01*
X39825Y-8450D01*
X39825Y-8457D01*
X39725Y-8457D01*
X39725Y-8450D01*
X39717Y-8450D01*
X39717Y-8350D01*
X39725Y-8350D01*
X39725Y-7937D01*
X39662Y-7875D01*
X39550Y-7874D01*
X39458Y-7912D01*
X39399Y-7971D01*
X39341Y-7913D01*
X39325Y-7906D01*
X39325Y-7741D01*
X39386Y-7699D01*
X39504Y-7522D01*
X39505Y-7521D01*
X39514Y-7552D01*
X39648Y-7718D01*
X39837Y-7821D01*
X39865Y-7826D01*
X39950Y-7778D01*
X39950Y-7050D01*
X39942Y-7050D01*
X39942Y-6950D01*
X39950Y-6950D01*
X39950Y-6221D01*
X39865Y-6173D01*
X39837Y-6178D01*
X39648Y-6281D01*
X39514Y-6447D01*
X39505Y-6478D01*
X39504Y-6477D01*
X39386Y-6300D01*
X39209Y-6181D01*
X39000Y-6139D01*
X38790Y-6181D01*
X38613Y-6300D01*
X38500Y-6470D01*
X38386Y-6300D01*
X38209Y-6181D01*
X38000Y-6139D01*
X37790Y-6181D01*
X37613Y-6300D01*
X37500Y-6470D01*
X37386Y-6300D01*
X37209Y-6181D01*
X37000Y-6139D01*
X36790Y-6181D01*
X36613Y-6300D01*
X36500Y-6470D01*
X36386Y-6300D01*
X36209Y-6181D01*
X36000Y-6139D01*
X35790Y-6181D01*
X35613Y-6300D01*
X35495Y-6477D01*
X35453Y-6686D01*
X35453Y-7186D01*
X35270Y-7370D01*
X35199Y-7475D01*
X35175Y-7600D01*
X35175Y-8399D01*
X34975Y-8399D01*
X34883Y-8437D01*
X34813Y-8508D01*
X34775Y-8600D01*
X34774Y-8699D01*
X34774Y-9199D01*
X34812Y-9291D01*
X34825Y-9303D01*
X34825Y-11500D01*
X34825Y-11750D01*
X34849Y-11874D01*
X34920Y-11979D01*
X35070Y-12129D01*
X35070Y-12129D01*
X35550Y-12610D01*
X35483Y-12637D01*
X35413Y-12708D01*
X35375Y-12800D01*
X35374Y-12899D01*
X35374Y-13249D01*
X35412Y-13341D01*
X35471Y-13400D01*
X35412Y-13458D01*
X35374Y-13550D01*
X35375Y-13662D01*
X35437Y-13725D01*
X35850Y-13725D01*
X35850Y-13717D01*
X35950Y-13717D01*
X35950Y-13725D01*
X36000Y-13725D01*
X36337Y-13725D01*
X36362Y-13725D01*
X36750Y-13725D01*
X36850Y-13725D01*
X37200Y-13725D01*
X37262Y-13725D01*
X37278Y-13709D01*
X37324Y-13700D01*
X37324Y-13700D01*
X37429Y-13629D01*
X37674Y-13384D01*
X37674Y-13624D01*
X37712Y-13716D01*
X37783Y-13786D01*
X37875Y-13824D01*
X37974Y-13825D01*
X38524Y-13825D01*
X38616Y-13787D01*
X38686Y-13716D01*
X38699Y-13685D01*
X38712Y-13716D01*
X38783Y-13786D01*
X38825Y-13804D01*
X38825Y-15500D01*
X38853Y-15643D01*
X38934Y-15765D01*
X39269Y-16100D01*
X39194Y-16174D01*
X38875Y-16174D01*
X38783Y-16212D01*
X38713Y-16283D01*
X38700Y-16314D01*
X38687Y-16283D01*
X38616Y-16213D01*
X38524Y-16175D01*
X38425Y-16174D01*
X37875Y-16174D01*
X37783Y-16212D01*
X37713Y-16283D01*
X37675Y-16375D01*
X37674Y-16474D01*
X37674Y-16515D01*
X37529Y-16370D01*
X37424Y-16299D01*
X37325Y-16279D01*
X37325Y-16000D01*
X37325Y-13999D01*
X37325Y-13887D01*
X37262Y-13825D01*
X36850Y-13825D01*
X36850Y-14137D01*
X36912Y-14200D01*
X37025Y-14200D01*
X37124Y-14199D01*
X37216Y-14161D01*
X37287Y-14091D01*
X37325Y-13999D01*
X37325Y-16000D01*
X37287Y-15908D01*
X37216Y-15838D01*
X37124Y-15800D01*
X37025Y-15799D01*
X36912Y-15800D01*
X36850Y-15862D01*
X36850Y-16175D01*
X37262Y-16175D01*
X37325Y-16112D01*
X37325Y-16000D01*
X37325Y-16279D01*
X37300Y-16275D01*
X37262Y-16275D01*
X36850Y-16275D01*
X36750Y-16275D01*
X36750Y-16175D01*
X36750Y-15862D01*
X36750Y-14137D01*
X36750Y-13825D01*
X36362Y-13825D01*
X36337Y-13825D01*
X35950Y-13825D01*
X35950Y-14137D01*
X36012Y-14200D01*
X36125Y-14200D01*
X36224Y-14199D01*
X36316Y-14161D01*
X36350Y-14128D01*
X36383Y-14161D01*
X36475Y-14199D01*
X36574Y-14200D01*
X36687Y-14200D01*
X36750Y-14137D01*
X36750Y-15862D01*
X36687Y-15800D01*
X36574Y-15799D01*
X36475Y-15800D01*
X36383Y-15838D01*
X36350Y-15871D01*
X36316Y-15838D01*
X36224Y-15800D01*
X36125Y-15799D01*
X36012Y-15800D01*
X35950Y-15862D01*
X35950Y-16175D01*
X36337Y-16175D01*
X36362Y-16175D01*
X36750Y-16175D01*
X36750Y-16275D01*
X36362Y-16275D01*
X36337Y-16275D01*
X36300Y-16275D01*
X35950Y-16275D01*
X35950Y-16282D01*
X35850Y-16282D01*
X35850Y-16275D01*
X35850Y-16175D01*
X35850Y-15862D01*
X35850Y-14137D01*
X35850Y-13825D01*
X35437Y-13825D01*
X35375Y-13887D01*
X35374Y-13999D01*
X35412Y-14091D01*
X35483Y-14161D01*
X35575Y-14199D01*
X35674Y-14200D01*
X35787Y-14200D01*
X35850Y-14137D01*
X35850Y-15862D01*
X35787Y-15800D01*
X35674Y-15799D01*
X35575Y-15800D01*
X35483Y-15838D01*
X35412Y-15908D01*
X35374Y-16000D01*
X35375Y-16112D01*
X35437Y-16175D01*
X35850Y-16175D01*
X35850Y-16275D01*
X35437Y-16275D01*
X35375Y-16337D01*
X35374Y-16449D01*
X35412Y-16541D01*
X35471Y-16600D01*
X35413Y-16658D01*
X35375Y-16750D01*
X35374Y-16849D01*
X35374Y-17065D01*
X34920Y-17520D01*
X34849Y-17625D01*
X34825Y-17750D01*
X34825Y-20596D01*
X34813Y-20608D01*
X34775Y-20700D01*
X34774Y-20799D01*
X34774Y-21299D01*
X34812Y-21391D01*
X34883Y-21461D01*
X34975Y-21499D01*
X35074Y-21500D01*
X35175Y-21500D01*
X35175Y-22500D01*
X35199Y-22624D01*
X35270Y-22729D01*
X35453Y-22913D01*
X35453Y-23313D01*
X35475Y-23425D01*
X34544Y-23425D01*
X34544Y-11228D01*
X34544Y-10371D01*
X34544Y-10271D01*
X34506Y-10179D01*
X34436Y-10109D01*
X34344Y-10071D01*
X33940Y-10071D01*
X33878Y-10134D01*
X33878Y-10750D01*
X34482Y-10750D01*
X34544Y-10687D01*
X34544Y-10371D01*
X34544Y-11228D01*
X34544Y-10912D01*
X34482Y-10850D01*
X33878Y-10850D01*
X33878Y-11465D01*
X33940Y-11528D01*
X34344Y-11528D01*
X34436Y-11490D01*
X34506Y-11420D01*
X34544Y-11328D01*
X34544Y-11228D01*
X34544Y-23425D01*
X33778Y-23425D01*
X33778Y-11465D01*
X33778Y-10850D01*
X33778Y-10750D01*
X33778Y-10134D01*
X33715Y-10071D01*
X33425Y-10071D01*
X33425Y-9225D01*
X33425Y-8774D01*
X33424Y-8675D01*
X33386Y-8583D01*
X33316Y-8512D01*
X33224Y-8474D01*
X33012Y-8475D01*
X32950Y-8537D01*
X32950Y-8950D01*
X33362Y-8950D01*
X33425Y-8887D01*
X33425Y-8774D01*
X33425Y-9225D01*
X33425Y-9112D01*
X33362Y-9050D01*
X32950Y-9050D01*
X32950Y-9462D01*
X33012Y-9525D01*
X33224Y-9525D01*
X33316Y-9487D01*
X33386Y-9416D01*
X33424Y-9324D01*
X33425Y-9225D01*
X33425Y-10071D01*
X33312Y-10071D01*
X33220Y-10109D01*
X33149Y-10179D01*
X33111Y-10271D01*
X33111Y-10371D01*
X33111Y-10687D01*
X33174Y-10750D01*
X33778Y-10750D01*
X33778Y-10850D01*
X33174Y-10850D01*
X33111Y-10912D01*
X33111Y-11228D01*
X33111Y-11328D01*
X33149Y-11420D01*
X33220Y-11490D01*
X33312Y-11528D01*
X33715Y-11528D01*
X33778Y-11465D01*
X33778Y-23425D01*
X33400Y-23425D01*
X33400Y-21000D01*
X33400Y-17500D01*
X33362Y-17408D01*
X33291Y-17338D01*
X33199Y-17300D01*
X33100Y-17299D01*
X33000Y-17299D01*
X33000Y-13199D01*
X33000Y-12400D01*
X32962Y-12308D01*
X32891Y-12238D01*
X32850Y-12220D01*
X32850Y-9462D01*
X32850Y-9050D01*
X32850Y-8950D01*
X32850Y-8537D01*
X32787Y-8475D01*
X32575Y-8474D01*
X32483Y-8512D01*
X32413Y-8583D01*
X32375Y-8675D01*
X32374Y-8774D01*
X32375Y-8887D01*
X32437Y-8950D01*
X32850Y-8950D01*
X32850Y-9050D01*
X32437Y-9050D01*
X32375Y-9112D01*
X32374Y-9225D01*
X32375Y-9324D01*
X32413Y-9416D01*
X32483Y-9487D01*
X32575Y-9525D01*
X32787Y-9525D01*
X32850Y-9462D01*
X32850Y-12220D01*
X32799Y-12200D01*
X32700Y-12199D01*
X32512Y-12200D01*
X32450Y-12262D01*
X32450Y-12750D01*
X32937Y-12750D01*
X33000Y-12687D01*
X33000Y-12400D01*
X33000Y-13199D01*
X33000Y-12912D01*
X32937Y-12850D01*
X32450Y-12850D01*
X32450Y-13337D01*
X32512Y-13400D01*
X32700Y-13400D01*
X32799Y-13399D01*
X32891Y-13361D01*
X32962Y-13291D01*
X33000Y-13199D01*
X33000Y-17299D01*
X29600Y-17299D01*
X29508Y-17337D01*
X29438Y-17408D01*
X29400Y-17500D01*
X29399Y-17599D01*
X29399Y-21099D01*
X29437Y-21191D01*
X29508Y-21261D01*
X29600Y-21299D01*
X29699Y-21300D01*
X33199Y-21300D01*
X33291Y-21262D01*
X33361Y-21191D01*
X33399Y-21099D01*
X33400Y-21000D01*
X33400Y-23425D01*
X31600Y-23425D01*
X31518Y-23441D01*
X31546Y-23347D01*
X31546Y-23050D01*
X31546Y-22950D01*
X31546Y-22653D01*
X31485Y-22447D01*
X31351Y-22281D01*
X31162Y-22178D01*
X31134Y-22173D01*
X31050Y-22221D01*
X31050Y-22950D01*
X31546Y-22950D01*
X31546Y-23050D01*
X31050Y-23050D01*
X31050Y-23057D01*
X30950Y-23057D01*
X30950Y-23050D01*
X30942Y-23050D01*
X30942Y-22950D01*
X30950Y-22950D01*
X30950Y-22221D01*
X30865Y-22173D01*
X30837Y-22178D01*
X30648Y-22281D01*
X30514Y-22447D01*
X30505Y-22478D01*
X30504Y-22477D01*
X30386Y-22300D01*
X30209Y-22181D01*
X30000Y-22139D01*
X29790Y-22181D01*
X29613Y-22300D01*
X29500Y-22470D01*
X29386Y-22300D01*
X29209Y-22181D01*
X29000Y-22139D01*
X28790Y-22181D01*
X28613Y-22300D01*
X28500Y-22470D01*
X28386Y-22300D01*
X28343Y-22271D01*
X28391Y-22261D01*
X28553Y-22153D01*
X29153Y-21553D01*
X29153Y-21553D01*
X29153Y-21553D01*
X29261Y-21391D01*
X29300Y-21200D01*
X29300Y-14607D01*
X29607Y-14300D01*
X30999Y-14300D01*
X31000Y-14300D01*
X31000Y-14300D01*
X31191Y-14261D01*
X31353Y-14153D01*
X31753Y-13753D01*
X31753Y-13753D01*
X31753Y-13753D01*
X31861Y-13591D01*
X31861Y-13591D01*
X31892Y-13438D01*
X31900Y-13400D01*
X31899Y-13400D01*
X31900Y-13400D01*
X31900Y-13353D01*
X31908Y-13361D01*
X32000Y-13399D01*
X32099Y-13400D01*
X32287Y-13400D01*
X32350Y-13337D01*
X32350Y-12850D01*
X32342Y-12850D01*
X32342Y-12750D01*
X32350Y-12750D01*
X32350Y-12262D01*
X32287Y-12200D01*
X32099Y-12199D01*
X32000Y-12200D01*
X31908Y-12238D01*
X31900Y-12246D01*
X31900Y-11523D01*
X31979Y-11490D01*
X32050Y-11420D01*
X32088Y-11328D01*
X32088Y-11228D01*
X32088Y-10272D01*
X32050Y-10180D01*
X31979Y-10109D01*
X31888Y-10071D01*
X31788Y-10071D01*
X31546Y-10071D01*
X31546Y-7347D01*
X31546Y-7050D01*
X31546Y-6950D01*
X31546Y-6653D01*
X31485Y-6447D01*
X31351Y-6281D01*
X31162Y-6178D01*
X31134Y-6173D01*
X31050Y-6221D01*
X31050Y-6950D01*
X31546Y-6950D01*
X31546Y-7050D01*
X31050Y-7050D01*
X31050Y-7778D01*
X31134Y-7826D01*
X31162Y-7821D01*
X31351Y-7718D01*
X31485Y-7552D01*
X31546Y-7347D01*
X31546Y-10071D01*
X30855Y-10071D01*
X30763Y-10109D01*
X30693Y-10179D01*
X30655Y-10271D01*
X30655Y-10371D01*
X30655Y-11327D01*
X30693Y-11419D01*
X30763Y-11490D01*
X30855Y-11528D01*
X30900Y-11528D01*
X30900Y-12451D01*
X30899Y-12451D01*
X30740Y-12291D01*
X30519Y-12200D01*
X30507Y-12200D01*
X30300Y-11992D01*
X30300Y-11660D01*
X30324Y-11599D01*
X30325Y-11500D01*
X30325Y-11150D01*
X30287Y-11058D01*
X30228Y-11000D01*
X30287Y-10941D01*
X30325Y-10849D01*
X30325Y-10400D01*
X30287Y-10308D01*
X30216Y-10238D01*
X30124Y-10200D01*
X30025Y-10199D01*
X29912Y-10200D01*
X29850Y-10262D01*
X29850Y-10575D01*
X30262Y-10575D01*
X30325Y-10512D01*
X30325Y-10400D01*
X30325Y-10849D01*
X30325Y-10737D01*
X30262Y-10675D01*
X29850Y-10675D01*
X29850Y-10682D01*
X29750Y-10682D01*
X29750Y-10675D01*
X29742Y-10675D01*
X29742Y-10575D01*
X29750Y-10575D01*
X29750Y-10262D01*
X29687Y-10200D01*
X29574Y-10199D01*
X29500Y-10200D01*
X29500Y-9800D01*
X29500Y-9342D01*
X29602Y-9444D01*
X29795Y-9524D01*
X30003Y-9525D01*
X30197Y-9445D01*
X30344Y-9297D01*
X30424Y-9104D01*
X30425Y-8896D01*
X30345Y-8703D01*
X30197Y-8555D01*
X30004Y-8475D01*
X29796Y-8474D01*
X29603Y-8554D01*
X29500Y-8657D01*
X29500Y-7529D01*
X29613Y-7699D01*
X29790Y-7818D01*
X30000Y-7860D01*
X30209Y-7818D01*
X30386Y-7699D01*
X30504Y-7522D01*
X30505Y-7521D01*
X30514Y-7552D01*
X30648Y-7718D01*
X30837Y-7821D01*
X30865Y-7826D01*
X30950Y-7778D01*
X30950Y-7050D01*
X30942Y-7050D01*
X30942Y-6950D01*
X30950Y-6950D01*
X30950Y-6221D01*
X30865Y-6173D01*
X30837Y-6178D01*
X30648Y-6281D01*
X30514Y-6447D01*
X30505Y-6478D01*
X30504Y-6477D01*
X30386Y-6300D01*
X30209Y-6181D01*
X30000Y-6139D01*
X29790Y-6181D01*
X29613Y-6300D01*
X29500Y-6470D01*
X29386Y-6300D01*
X29209Y-6181D01*
X29000Y-6139D01*
X28790Y-6181D01*
X28613Y-6300D01*
X28500Y-6470D01*
X28386Y-6300D01*
X28209Y-6181D01*
X28000Y-6139D01*
X27790Y-6181D01*
X27613Y-6300D01*
X27500Y-6470D01*
X27386Y-6300D01*
X27209Y-6181D01*
X27000Y-6139D01*
X26790Y-6181D01*
X26613Y-6300D01*
X26495Y-6477D01*
X26453Y-6686D01*
X26453Y-7034D01*
X26231Y-7624D01*
X26217Y-7712D01*
X26200Y-7800D01*
X26200Y-9000D01*
X26203Y-9015D01*
X26200Y-9030D01*
X26221Y-9110D01*
X26238Y-9191D01*
X26246Y-9204D01*
X26250Y-9219D01*
X26630Y-9997D01*
X26608Y-10019D01*
X26600Y-10040D01*
X26591Y-10019D01*
X26520Y-9948D01*
X26429Y-9910D01*
X26137Y-9911D01*
X26075Y-9973D01*
X26075Y-10550D01*
X26083Y-10550D01*
X26083Y-10650D01*
X26075Y-10650D01*
X26075Y-11226D01*
X26137Y-11288D01*
X26429Y-11289D01*
X26520Y-11251D01*
X26591Y-11180D01*
X26599Y-11159D01*
X26608Y-11180D01*
X26678Y-11250D01*
X26700Y-11259D01*
X26700Y-12246D01*
X26691Y-12238D01*
X26599Y-12200D01*
X26500Y-12199D01*
X26312Y-12200D01*
X26250Y-12262D01*
X26250Y-12750D01*
X26257Y-12750D01*
X26257Y-12850D01*
X26250Y-12850D01*
X26250Y-13337D01*
X26312Y-13400D01*
X26500Y-13400D01*
X26599Y-13399D01*
X26691Y-13361D01*
X26762Y-13291D01*
X26785Y-13234D01*
X26859Y-13308D01*
X27080Y-13399D01*
X27318Y-13400D01*
X27539Y-13308D01*
X27708Y-13140D01*
X27799Y-12919D01*
X27800Y-12681D01*
X27708Y-12460D01*
X27700Y-12451D01*
X27700Y-11221D01*
X27740Y-11180D01*
X27779Y-11088D01*
X27779Y-10989D01*
X27779Y-10111D01*
X27741Y-10019D01*
X27673Y-9951D01*
X27674Y-9944D01*
X27651Y-9855D01*
X27636Y-9783D01*
X27629Y-9772D01*
X27624Y-9755D01*
X27492Y-9483D01*
X27624Y-9529D01*
X27832Y-9518D01*
X27972Y-9460D01*
X27997Y-9367D01*
X27700Y-9070D01*
X27694Y-9076D01*
X27623Y-9005D01*
X27629Y-9000D01*
X27332Y-8702D01*
X27239Y-8727D01*
X27200Y-8839D01*
X27200Y-7890D01*
X27233Y-7802D01*
X27386Y-7699D01*
X27500Y-7529D01*
X27613Y-7699D01*
X27790Y-7818D01*
X28000Y-7860D01*
X28209Y-7818D01*
X28386Y-7699D01*
X28500Y-7529D01*
X28500Y-9800D01*
X28500Y-12592D01*
X28246Y-12846D01*
X28246Y-12846D01*
X28229Y-12863D01*
X28229Y-9075D01*
X28218Y-8867D01*
X28160Y-8727D01*
X28067Y-8702D01*
X27997Y-8773D01*
X27997Y-8632D01*
X27972Y-8539D01*
X27775Y-8470D01*
X27567Y-8481D01*
X27427Y-8539D01*
X27402Y-8632D01*
X27700Y-8929D01*
X27997Y-8632D01*
X27997Y-8773D01*
X27770Y-9000D01*
X28067Y-9297D01*
X28160Y-9272D01*
X28229Y-9075D01*
X28229Y-12863D01*
X27592Y-13500D01*
X25700Y-13500D01*
X25700Y-13353D01*
X25708Y-13361D01*
X25800Y-13399D01*
X25899Y-13400D01*
X26087Y-13400D01*
X26150Y-13337D01*
X26150Y-12850D01*
X26142Y-12850D01*
X26142Y-12750D01*
X26150Y-12750D01*
X26150Y-12262D01*
X26087Y-12200D01*
X26050Y-12199D01*
X26050Y-6792D01*
X25890Y-6406D01*
X25595Y-6110D01*
X25209Y-5950D01*
X24792Y-5949D01*
X24406Y-6109D01*
X24110Y-6404D01*
X23950Y-6790D01*
X23949Y-7207D01*
X24109Y-7594D01*
X24404Y-7889D01*
X24790Y-8049D01*
X25207Y-8050D01*
X25594Y-7890D01*
X25889Y-7595D01*
X26049Y-7209D01*
X26050Y-6792D01*
X26050Y-12199D01*
X25975Y-12199D01*
X25975Y-11226D01*
X25975Y-10650D01*
X25975Y-10550D01*
X25975Y-9973D01*
X25912Y-9911D01*
X25621Y-9910D01*
X25529Y-9948D01*
X25459Y-10019D01*
X25420Y-10111D01*
X25420Y-10210D01*
X25420Y-10487D01*
X25483Y-10550D01*
X25975Y-10550D01*
X25975Y-10650D01*
X25483Y-10650D01*
X25420Y-10712D01*
X25420Y-10989D01*
X25420Y-11088D01*
X25459Y-11180D01*
X25529Y-11251D01*
X25621Y-11289D01*
X25912Y-11288D01*
X25975Y-11226D01*
X25975Y-12199D01*
X25899Y-12199D01*
X25800Y-12200D01*
X25708Y-12238D01*
X25637Y-12308D01*
X25614Y-12365D01*
X25540Y-12291D01*
X25319Y-12200D01*
X25307Y-12200D01*
X25225Y-12117D01*
X25225Y-9225D01*
X25225Y-8675D01*
X25187Y-8583D01*
X25116Y-8513D01*
X25024Y-8475D01*
X24925Y-8474D01*
X24375Y-8474D01*
X24283Y-8512D01*
X24213Y-8583D01*
X24175Y-8675D01*
X24174Y-8774D01*
X24174Y-9324D01*
X24212Y-9416D01*
X24283Y-9486D01*
X24375Y-9524D01*
X24474Y-9525D01*
X25024Y-9525D01*
X25116Y-9487D01*
X25186Y-9416D01*
X25224Y-9324D01*
X25225Y-9225D01*
X25225Y-12117D01*
X25100Y-11992D01*
X25100Y-11660D01*
X25124Y-11599D01*
X25125Y-11500D01*
X25125Y-11150D01*
X25087Y-11058D01*
X25028Y-11000D01*
X25087Y-10941D01*
X25125Y-10849D01*
X25125Y-10400D01*
X25087Y-10308D01*
X25016Y-10238D01*
X24924Y-10200D01*
X24825Y-10199D01*
X24712Y-10200D01*
X24650Y-10262D01*
X24650Y-10575D01*
X25062Y-10575D01*
X25125Y-10512D01*
X25125Y-10400D01*
X25125Y-10849D01*
X25125Y-10737D01*
X25062Y-10675D01*
X24650Y-10675D01*
X24650Y-10682D01*
X24550Y-10682D01*
X24550Y-10675D01*
X24550Y-10575D01*
X24550Y-10262D01*
X24487Y-10200D01*
X24374Y-10199D01*
X24275Y-10200D01*
X24183Y-10238D01*
X24112Y-10308D01*
X24074Y-10400D01*
X24075Y-10512D01*
X24137Y-10575D01*
X24550Y-10575D01*
X24550Y-10675D01*
X24137Y-10675D01*
X24075Y-10737D01*
X24074Y-10849D01*
X24112Y-10941D01*
X24171Y-11000D01*
X24113Y-11058D01*
X24075Y-11150D01*
X24074Y-11249D01*
X24074Y-11599D01*
X24100Y-11660D01*
X24100Y-12199D01*
X24099Y-12200D01*
X24138Y-12391D01*
X24246Y-12553D01*
X24599Y-12907D01*
X24599Y-12918D01*
X24691Y-13139D01*
X24700Y-13148D01*
X24700Y-13619D01*
X23934Y-14384D01*
X23853Y-14506D01*
X23825Y-14650D01*
X23825Y-21200D01*
X23825Y-21300D01*
X23853Y-21443D01*
X23934Y-21565D01*
X24334Y-21965D01*
X24334Y-21965D01*
X24383Y-21997D01*
X24456Y-22046D01*
X24525Y-22060D01*
X24406Y-22109D01*
X24110Y-22404D01*
X23950Y-22790D01*
X23949Y-23207D01*
X24109Y-23594D01*
X24404Y-23889D01*
X24790Y-24049D01*
X25207Y-24050D01*
X25594Y-23890D01*
X25851Y-23633D01*
X25853Y-23643D01*
X25934Y-23765D01*
X26234Y-24065D01*
X26356Y-24146D01*
X26499Y-24174D01*
X26643Y-24146D01*
X26675Y-24125D01*
X31424Y-24125D01*
X31456Y-24146D01*
X31600Y-24175D01*
X35500Y-24175D01*
X35643Y-24146D01*
X35675Y-24125D01*
X40324Y-24125D01*
X40356Y-24146D01*
X40500Y-24175D01*
X42950Y-24175D01*
X43093Y-24146D01*
X43215Y-24065D01*
X43840Y-23440D01*
X43921Y-23318D01*
X43950Y-23175D01*
X43950Y-23028D01*
X43961Y-23016D01*
X43979Y-22975D01*
X44100Y-22975D01*
X44243Y-22946D01*
X44365Y-22865D01*
X45155Y-22075D01*
X46489Y-22075D01*
X46406Y-22109D01*
X46110Y-22404D01*
X45950Y-22790D01*
X45949Y-23207D01*
X46109Y-23594D01*
X46404Y-23889D01*
X46790Y-24049D01*
X47207Y-24050D01*
X47594Y-23890D01*
X47889Y-23595D01*
X48049Y-23209D01*
X48050Y-22792D01*
X47890Y-22406D01*
X47595Y-22110D01*
X47510Y-22075D01*
X47700Y-22075D01*
X47843Y-22046D01*
X47965Y-21965D01*
X48046Y-21843D01*
X48075Y-21700D01*
X48075Y-17200D01*
X48046Y-17056D01*
X47965Y-16934D01*
X47965Y-16934D01*
X46865Y-15834D01*
X46743Y-15753D01*
X46600Y-15725D01*
X45050Y-15725D01*
X45050Y-12175D01*
X45050Y-12062D01*
X44987Y-12000D01*
X44675Y-12000D01*
X44675Y-12412D01*
X44737Y-12475D01*
X44849Y-12475D01*
X44941Y-12437D01*
X45011Y-12366D01*
X45049Y-12274D01*
X45050Y-12175D01*
X45050Y-15725D01*
X44180Y-15725D01*
X44200Y-15625D01*
X44200Y-12428D01*
X44250Y-12378D01*
X44308Y-12437D01*
X44400Y-12475D01*
X44512Y-12475D01*
X44575Y-12412D01*
X44575Y-12000D01*
X44567Y-12000D01*
X44567Y-11900D01*
X44575Y-11900D01*
X44575Y-11892D01*
X44675Y-11892D01*
X44675Y-11900D01*
X44987Y-11900D01*
X45050Y-11837D01*
X45050Y-11724D01*
X45049Y-11625D01*
X45011Y-11533D01*
X44941Y-11462D01*
X44849Y-11424D01*
X44737Y-11425D01*
X44675Y-11487D01*
X44675Y-11425D01*
X44653Y-11425D01*
X44661Y-11416D01*
X44699Y-11324D01*
X44700Y-11225D01*
X44700Y-10775D01*
X44675Y-10714D01*
X44675Y-10425D01*
X44699Y-10425D01*
X44699Y-10674D01*
X44737Y-10766D01*
X44808Y-10836D01*
X44900Y-10874D01*
X44900Y-10874D01*
X44970Y-10979D01*
X45120Y-11129D01*
X45120Y-11129D01*
X45225Y-11200D01*
X45225Y-11200D01*
X45350Y-11225D01*
X46100Y-11225D01*
X46137Y-11316D01*
X46208Y-11386D01*
X46300Y-11424D01*
X46399Y-11425D01*
X46749Y-11425D01*
X46841Y-11387D01*
X46900Y-11328D01*
X46958Y-11386D01*
X47050Y-11424D01*
X47149Y-11425D01*
X47499Y-11425D01*
X47591Y-11387D01*
X47625Y-11353D01*
X47625Y-12094D01*
X46844Y-12874D01*
X46815Y-12874D01*
X46659Y-12939D01*
X46539Y-13058D01*
X46475Y-13215D01*
X46474Y-13384D01*
X46539Y-13540D01*
X46658Y-13660D01*
X46815Y-13724D01*
X46984Y-13725D01*
X47140Y-13660D01*
X47260Y-13541D01*
X47274Y-13505D01*
X48230Y-12550D01*
X48230Y-24230D01*
M02*
