M48
INCH,TZ
T1C0.025
T2C0.032
T3C0.039
T4C0.045
T5C0.120
%
G90
G05
T1
X24250Y-10000
X32000Y-7000
X32000Y-7500
X32000Y-22000
X32000Y-22500
X32000Y-23000
X32500Y-7000
X32500Y-7500
X32500Y-22000
X32500Y-22500
X32500Y-23000
X33000Y-7000
X33000Y-7500
X33000Y-22000
X33000Y-22500
X33000Y-23000
X33250Y-12500
X33250Y-13000
X33250Y-13500
X33250Y-14000
X33500Y-7000
X33500Y-7500
X33500Y-22000
X33500Y-22500
X33500Y-23000
X33750Y-12500
X33750Y-13000
X33750Y-13500
X33750Y-14000
X34000Y-7000
X34000Y-7500
X34250Y-12500
X34250Y-13000
X34250Y-13500
X34250Y-14000
X34500Y-7000
X34500Y-7500
X34750Y-12500
X34750Y-13000
X34750Y-13500
X34750Y-14000
X41000Y-6750
X41000Y-7250
X41000Y-7750
X41000Y-8250
X41000Y-21750
X41000Y-22250
X41000Y-22750
X41500Y-6750
X41500Y-7250
X41500Y-7750
X41500Y-8250
X41500Y-21750
X41500Y-22250
X41500Y-22750
X42000Y-11750
X42000Y-12250
X42000Y-12750
X42000Y-21750
X42000Y-22250
X42000Y-22750
X42500Y-11750
X42500Y-12250
X42500Y-12750
X43000Y-11750
X43000Y-12250
X43000Y-12750
X43300Y-18400
X43700Y-7600
X44150Y-7900
X44250Y-17500
X44250Y-18000
X44750Y-17500
X44750Y-18000
X45250Y-17500
X45250Y-18000
X45500Y-11500
X45500Y-12000
X45500Y-12500
X45500Y-14250
X45500Y-14750
X45500Y-15250
X45750Y-17500
X45750Y-18000
X46000Y-11500
X46000Y-12000
X46000Y-12500
X46000Y-14250
X46000Y-14750
X46000Y-15250
X46250Y-17500
X46250Y-18000
X46500Y-11500
X46500Y-12000
X46500Y-12500
X46500Y-14250
X46500Y-14750
X46500Y-15250
X46900Y-13300
X47000Y-14250
X47000Y-14750
X47000Y-15250
T2
X24700Y-9000
X27700Y-9000
X29900Y-9000
X32900Y-9000
X38200Y-10300
X38200Y-13300
X38200Y-16700
X38200Y-19700
X39200Y-10300
X39200Y-13300
X39200Y-16700
X39200Y-19700
X40200Y-10300
X40200Y-13300
X40200Y-16700
X40200Y-19700
X41200Y-10300
X41200Y-13300
X41200Y-16700
X41200Y-19700
T3
X27000Y-7000
X27000Y-23000
X28000Y-7000
X28000Y-23000
X29000Y-7000
X29000Y-23000
X30000Y-7000
X30000Y-23000
X31000Y-7000
X31000Y-23000
X36000Y-7000
X36000Y-23000
X37000Y-7000
X37000Y-23000
X38000Y-7000
X38000Y-23000
X39000Y-7000
X39000Y-23000
X40000Y-7000
X40000Y-23000
T4
X25200Y-12800
X26200Y-12800
X27200Y-12800
X30400Y-12800
X31400Y-12800
X32400Y-12800
T5
X25000Y-7000
X25000Y-23000
X26200Y-19300
X31400Y-19300
X47000Y-7000
X47000Y-23000
T0
M30
