G04 (created by PCBNEW (2013-07-07 BZR 4022)-stable) date 10/7/2014 12:40:21 PM*
%MOIN*%
G04 Gerber Fmt 3.4, Leading zero omitted, Abs format*
%FSLAX34Y34*%
G01*
G70*
G90*
G04 APERTURE LIST*
%ADD10C,0.00590551*%
%ADD11R,0.055X0.055*%
%ADD12C,0.055*%
%ADD13C,0.07*%
%ADD14R,0.07X0.07*%
%ADD15R,0.35X0.35*%
%ADD16O,0.0593X0.1187*%
%ADD17C,0.16*%
%ADD18C,0.035*%
%ADD19C,0.01*%
%ADD20C,0.05*%
%ADD21C,0.025*%
%ADD22C,0.015*%
G04 APERTURE END LIST*
G54D10*
G54D11*
X38200Y-16700D03*
G54D12*
X38200Y-19700D03*
G54D11*
X32900Y-9000D03*
G54D12*
X29900Y-9000D03*
G54D11*
X38200Y-13300D03*
G54D12*
X38200Y-10300D03*
G54D11*
X41200Y-10300D03*
G54D12*
X41200Y-13300D03*
G54D11*
X39200Y-13300D03*
G54D12*
X39200Y-10300D03*
G54D11*
X40200Y-10300D03*
G54D12*
X40200Y-13300D03*
G54D11*
X24700Y-9000D03*
G54D12*
X27700Y-9000D03*
G54D11*
X41200Y-19700D03*
G54D12*
X41200Y-16700D03*
G54D11*
X40200Y-19700D03*
G54D12*
X40200Y-16700D03*
G54D11*
X39200Y-16700D03*
G54D12*
X39200Y-19700D03*
G54D13*
X30400Y-12800D03*
G54D14*
X32400Y-12800D03*
G54D13*
X31400Y-12800D03*
G54D15*
X31400Y-19300D03*
X26200Y-19300D03*
G54D13*
X27200Y-12800D03*
G54D14*
X26200Y-12800D03*
G54D13*
X25200Y-12800D03*
G54D16*
X31000Y-23000D03*
X31000Y-7000D03*
X27000Y-7000D03*
X27000Y-23000D03*
X39000Y-7000D03*
X38000Y-7000D03*
X37000Y-7000D03*
X36000Y-7000D03*
X40000Y-7000D03*
X40000Y-23000D03*
X36000Y-23000D03*
X30000Y-23000D03*
X29000Y-23000D03*
X28000Y-23000D03*
X30000Y-7000D03*
X28000Y-7000D03*
X29000Y-7000D03*
X39000Y-23000D03*
X38000Y-23000D03*
X37000Y-23000D03*
G54D17*
X47000Y-23000D03*
X25000Y-23000D03*
X25000Y-7000D03*
X47000Y-7000D03*
G54D18*
X44250Y-18000D03*
X44750Y-18000D03*
X45250Y-18000D03*
X45750Y-18000D03*
X46250Y-18000D03*
X46250Y-17500D03*
X45750Y-17500D03*
X45250Y-17500D03*
X44750Y-17500D03*
X44250Y-17500D03*
X46900Y-13300D03*
X33250Y-14000D03*
X33750Y-14000D03*
X34250Y-14000D03*
X34750Y-14000D03*
X34750Y-13500D03*
X34250Y-13500D03*
X33750Y-13500D03*
X33250Y-13500D03*
X33250Y-13000D03*
X33750Y-13000D03*
X34250Y-13000D03*
X34750Y-13000D03*
X34750Y-12500D03*
X34250Y-12500D03*
X33750Y-12500D03*
X33250Y-12500D03*
X24250Y-10000D03*
X47000Y-14250D03*
X47000Y-14750D03*
X47000Y-15250D03*
X46500Y-15250D03*
X46000Y-15250D03*
X45500Y-15250D03*
X45500Y-14750D03*
X46000Y-14750D03*
X46500Y-14750D03*
X46500Y-14250D03*
X46000Y-14250D03*
X45500Y-14250D03*
X41500Y-8250D03*
X41000Y-8250D03*
X41000Y-7750D03*
X41500Y-7750D03*
X41500Y-7250D03*
X41000Y-7250D03*
X41000Y-6750D03*
X41500Y-6750D03*
X32000Y-7500D03*
X32500Y-7500D03*
X33000Y-7500D03*
X33500Y-7500D03*
X34000Y-7500D03*
X34500Y-7500D03*
X34500Y-7000D03*
X34000Y-7000D03*
X33500Y-7000D03*
X33000Y-7000D03*
X32500Y-7000D03*
X32000Y-7000D03*
X33500Y-23000D03*
X33000Y-23000D03*
X32500Y-23000D03*
X32000Y-23000D03*
X32000Y-22500D03*
X32500Y-22500D03*
X33000Y-22500D03*
X33500Y-22500D03*
X33500Y-22000D03*
X33000Y-22000D03*
X32500Y-22000D03*
X32000Y-22000D03*
X41000Y-22750D03*
X41500Y-22750D03*
X42000Y-22750D03*
X42000Y-22250D03*
X41500Y-22250D03*
X41000Y-22250D03*
X41000Y-21750D03*
X41500Y-21750D03*
X42000Y-21750D03*
X42000Y-12750D03*
X42000Y-12250D03*
X42000Y-11750D03*
X42500Y-11750D03*
X42500Y-12250D03*
X42500Y-12750D03*
X43000Y-12750D03*
X43000Y-12250D03*
X43000Y-11750D03*
X46500Y-12500D03*
X46000Y-12500D03*
X45500Y-12500D03*
X45500Y-12000D03*
X46000Y-12000D03*
X46500Y-12000D03*
X46500Y-11500D03*
X46000Y-11500D03*
X45500Y-11500D03*
X44150Y-7900D03*
X43300Y-18400D03*
X43700Y-7600D03*
G54D19*
X43500Y-17500D02*
X44250Y-17500D01*
X45250Y-18000D02*
X44750Y-18000D01*
X46250Y-18000D02*
X45750Y-18000D01*
X45750Y-17500D02*
X46250Y-17500D01*
X44750Y-17500D02*
X45250Y-17500D01*
G54D20*
X25200Y-12800D02*
X25200Y-9500D01*
X25200Y-9500D02*
X24700Y-9000D01*
G54D21*
X41200Y-13300D02*
X46900Y-13300D01*
X40200Y-16700D02*
X41200Y-16700D01*
X39800Y-14250D02*
X39800Y-14950D01*
X40200Y-13300D02*
X41200Y-13300D01*
X39800Y-14250D02*
X39800Y-13700D01*
X39800Y-13700D02*
X40200Y-13300D01*
X40200Y-16700D02*
X40200Y-15350D01*
X40200Y-15350D02*
X39800Y-14950D01*
X28700Y-16300D02*
X29500Y-15500D01*
X39250Y-15500D02*
X39800Y-14950D01*
X29500Y-15500D02*
X39250Y-15500D01*
G54D22*
X40200Y-13300D02*
X39800Y-13700D01*
G54D20*
X29000Y-23000D02*
X29000Y-21900D01*
X28700Y-20800D02*
X28700Y-21600D01*
X28700Y-16300D02*
X28700Y-20800D01*
X29000Y-21900D02*
X28700Y-21600D01*
X28700Y-16050D02*
X28700Y-16300D01*
X28700Y-15300D02*
X28700Y-16050D01*
X30400Y-12800D02*
X28700Y-14500D01*
X28700Y-14500D02*
X28700Y-15300D01*
X29000Y-23000D02*
X28000Y-23000D01*
X30000Y-23000D02*
X29000Y-23000D01*
X30400Y-12800D02*
X30400Y-9500D01*
X30400Y-9500D02*
X29900Y-9000D01*
G54D19*
X33750Y-14000D02*
X33250Y-14000D01*
X34750Y-14000D02*
X34250Y-14000D01*
X34250Y-13500D02*
X34750Y-13500D01*
X33250Y-13500D02*
X33750Y-13500D01*
X33750Y-13000D02*
X33250Y-13000D01*
X34750Y-13000D02*
X34250Y-13000D01*
X34250Y-12500D02*
X34750Y-12500D01*
X33250Y-12500D02*
X33750Y-12500D01*
G54D21*
X47000Y-14750D02*
X47000Y-14250D01*
X46500Y-15250D02*
X47000Y-15250D01*
X45500Y-15250D02*
X46000Y-15250D01*
X46000Y-14750D02*
X45500Y-14750D01*
X46500Y-14250D02*
X46500Y-14750D01*
X45500Y-14250D02*
X46000Y-14250D01*
G54D19*
X41000Y-8250D02*
X41500Y-8250D01*
X41500Y-7750D02*
X41000Y-7750D01*
X41000Y-7250D02*
X41500Y-7250D01*
X41500Y-6750D02*
X41000Y-6750D01*
G54D22*
X32900Y-9000D02*
X32900Y-7900D01*
X33000Y-7500D02*
X32500Y-7500D01*
X34000Y-7500D02*
X33500Y-7500D01*
X34500Y-7000D02*
X34500Y-7500D01*
X33500Y-7000D02*
X34000Y-7000D01*
X32500Y-7000D02*
X33000Y-7000D01*
X32900Y-7900D02*
X32000Y-7000D01*
X33000Y-23000D02*
X33500Y-23000D01*
X32000Y-23000D02*
X32500Y-23000D01*
X32500Y-22500D02*
X32000Y-22500D01*
X33500Y-22500D02*
X33000Y-22500D01*
X33000Y-22000D02*
X33500Y-22000D01*
X32000Y-22000D02*
X32500Y-22000D01*
X42000Y-22750D02*
X41500Y-22750D01*
X41500Y-22250D02*
X42000Y-22250D01*
X41000Y-21750D02*
X41000Y-22250D01*
X42000Y-21750D02*
X41500Y-21750D01*
X42000Y-11750D02*
X42000Y-12250D01*
X42500Y-12250D02*
X42500Y-11750D01*
X43000Y-12750D02*
X42500Y-12750D01*
X43000Y-11750D02*
X43000Y-12250D01*
X45500Y-12500D02*
X46000Y-12500D01*
X46000Y-12000D02*
X45500Y-12000D01*
X46500Y-11500D02*
X46500Y-12000D01*
X45500Y-11500D02*
X46000Y-11500D01*
X41200Y-10300D02*
X42650Y-10300D01*
X44150Y-8800D02*
X44150Y-7900D01*
X42650Y-10300D02*
X44150Y-8800D01*
X40200Y-18700D02*
X40200Y-19700D01*
X40500Y-18400D02*
X40200Y-18700D01*
X43300Y-18400D02*
X40500Y-18400D01*
X40200Y-9250D02*
X40200Y-10300D01*
X40300Y-9150D02*
X40200Y-9250D01*
X42150Y-9150D02*
X40300Y-9150D01*
X43700Y-7600D02*
X42150Y-9150D01*
G54D10*
G36*
X48230Y-24230D02*
X48050Y-24230D01*
X48050Y-22792D01*
X48050Y-6792D01*
X47890Y-6406D01*
X47595Y-6110D01*
X47209Y-5950D01*
X46792Y-5949D01*
X46406Y-6109D01*
X46110Y-6404D01*
X45950Y-6790D01*
X45949Y-7207D01*
X46109Y-7594D01*
X46404Y-7889D01*
X46790Y-8049D01*
X47207Y-8050D01*
X47594Y-7890D01*
X47889Y-7595D01*
X48049Y-7209D01*
X48050Y-6792D01*
X48050Y-22792D01*
X47890Y-22406D01*
X47595Y-22110D01*
X47325Y-21998D01*
X47325Y-13215D01*
X47260Y-13059D01*
X47141Y-12939D01*
X46984Y-12875D01*
X46815Y-12874D01*
X46694Y-12925D01*
X44575Y-12925D01*
X44575Y-7815D01*
X44510Y-7659D01*
X44391Y-7539D01*
X44234Y-7475D01*
X44108Y-7474D01*
X44060Y-7359D01*
X43941Y-7239D01*
X43784Y-7175D01*
X43615Y-7174D01*
X43459Y-7239D01*
X43339Y-7358D01*
X43275Y-7515D01*
X43275Y-7565D01*
X42015Y-8825D01*
X40546Y-8825D01*
X40546Y-7347D01*
X40546Y-7050D01*
X40546Y-6950D01*
X40546Y-6653D01*
X40485Y-6447D01*
X40351Y-6281D01*
X40162Y-6178D01*
X40134Y-6173D01*
X40050Y-6221D01*
X40050Y-6950D01*
X40546Y-6950D01*
X40546Y-7050D01*
X40050Y-7050D01*
X40050Y-7778D01*
X40134Y-7826D01*
X40162Y-7821D01*
X40351Y-7718D01*
X40485Y-7552D01*
X40546Y-7347D01*
X40546Y-8825D01*
X40300Y-8825D01*
X40175Y-8849D01*
X40133Y-8877D01*
X40070Y-8920D01*
X40070Y-8920D01*
X39970Y-9020D01*
X39950Y-9050D01*
X39950Y-7778D01*
X39950Y-7050D01*
X39942Y-7050D01*
X39942Y-6950D01*
X39950Y-6950D01*
X39950Y-6221D01*
X39865Y-6173D01*
X39837Y-6178D01*
X39648Y-6281D01*
X39514Y-6447D01*
X39505Y-6478D01*
X39504Y-6477D01*
X39386Y-6300D01*
X39209Y-6181D01*
X39000Y-6139D01*
X38790Y-6181D01*
X38613Y-6300D01*
X38500Y-6470D01*
X38386Y-6300D01*
X38209Y-6181D01*
X38000Y-6139D01*
X37790Y-6181D01*
X37613Y-6300D01*
X37500Y-6470D01*
X37386Y-6300D01*
X37209Y-6181D01*
X37000Y-6139D01*
X36790Y-6181D01*
X36613Y-6300D01*
X36500Y-6470D01*
X36386Y-6300D01*
X36209Y-6181D01*
X36000Y-6139D01*
X35790Y-6181D01*
X35613Y-6300D01*
X35495Y-6477D01*
X35453Y-6686D01*
X35453Y-7313D01*
X35495Y-7522D01*
X35613Y-7699D01*
X35790Y-7818D01*
X36000Y-7860D01*
X36209Y-7818D01*
X36386Y-7699D01*
X36500Y-7529D01*
X36613Y-7699D01*
X36790Y-7818D01*
X37000Y-7860D01*
X37209Y-7818D01*
X37386Y-7699D01*
X37500Y-7529D01*
X37613Y-7699D01*
X37790Y-7818D01*
X38000Y-7860D01*
X38209Y-7818D01*
X38386Y-7699D01*
X38500Y-7529D01*
X38613Y-7699D01*
X38790Y-7818D01*
X39000Y-7860D01*
X39209Y-7818D01*
X39386Y-7699D01*
X39504Y-7522D01*
X39505Y-7521D01*
X39514Y-7552D01*
X39648Y-7718D01*
X39837Y-7821D01*
X39865Y-7826D01*
X39950Y-7778D01*
X39950Y-9050D01*
X39899Y-9125D01*
X39875Y-9250D01*
X39875Y-9775D01*
X39783Y-9812D01*
X39713Y-9883D01*
X39675Y-9975D01*
X39674Y-10074D01*
X39674Y-10074D01*
X39645Y-10003D01*
X39497Y-9855D01*
X39304Y-9775D01*
X39096Y-9774D01*
X38903Y-9854D01*
X38755Y-10002D01*
X38699Y-10135D01*
X38645Y-10003D01*
X38497Y-9855D01*
X38304Y-9775D01*
X38096Y-9774D01*
X37903Y-9854D01*
X37755Y-10002D01*
X37675Y-10195D01*
X37674Y-10403D01*
X37754Y-10597D01*
X37902Y-10744D01*
X38095Y-10824D01*
X38303Y-10825D01*
X38497Y-10745D01*
X38644Y-10597D01*
X38700Y-10464D01*
X38754Y-10597D01*
X38902Y-10744D01*
X39095Y-10824D01*
X39303Y-10825D01*
X39497Y-10745D01*
X39644Y-10597D01*
X39674Y-10525D01*
X39674Y-10624D01*
X39712Y-10716D01*
X39783Y-10786D01*
X39875Y-10824D01*
X39974Y-10825D01*
X40524Y-10825D01*
X40616Y-10787D01*
X40686Y-10716D01*
X40699Y-10685D01*
X40712Y-10716D01*
X40783Y-10786D01*
X40875Y-10824D01*
X40974Y-10825D01*
X41524Y-10825D01*
X41616Y-10787D01*
X41686Y-10716D01*
X41724Y-10625D01*
X42650Y-10625D01*
X42774Y-10600D01*
X42774Y-10600D01*
X42879Y-10529D01*
X44379Y-9029D01*
X44379Y-9029D01*
X44379Y-9029D01*
X44450Y-8924D01*
X44450Y-8924D01*
X44475Y-8800D01*
X44475Y-8176D01*
X44510Y-8141D01*
X44574Y-7984D01*
X44575Y-7815D01*
X44575Y-12925D01*
X41567Y-12925D01*
X41497Y-12855D01*
X41304Y-12775D01*
X41096Y-12774D01*
X40903Y-12854D01*
X40832Y-12925D01*
X40567Y-12925D01*
X40497Y-12855D01*
X40304Y-12775D01*
X40096Y-12774D01*
X39903Y-12854D01*
X39755Y-13002D01*
X39725Y-13074D01*
X39725Y-12975D01*
X39687Y-12883D01*
X39616Y-12813D01*
X39524Y-12775D01*
X39425Y-12774D01*
X38875Y-12774D01*
X38783Y-12812D01*
X38713Y-12883D01*
X38700Y-12914D01*
X38687Y-12883D01*
X38616Y-12813D01*
X38524Y-12775D01*
X38425Y-12774D01*
X37875Y-12774D01*
X37783Y-12812D01*
X37713Y-12883D01*
X37675Y-12975D01*
X37674Y-13074D01*
X37674Y-13624D01*
X37712Y-13716D01*
X37783Y-13786D01*
X37875Y-13824D01*
X37974Y-13825D01*
X38524Y-13825D01*
X38616Y-13787D01*
X38686Y-13716D01*
X38699Y-13685D01*
X38712Y-13716D01*
X38783Y-13786D01*
X38875Y-13824D01*
X38974Y-13825D01*
X39425Y-13825D01*
X39425Y-14250D01*
X39425Y-14794D01*
X39094Y-15125D01*
X33425Y-15125D01*
X33425Y-9225D01*
X33425Y-8774D01*
X33424Y-8675D01*
X33386Y-8583D01*
X33316Y-8512D01*
X33224Y-8474D01*
X33012Y-8475D01*
X32950Y-8537D01*
X32950Y-8950D01*
X33362Y-8950D01*
X33425Y-8887D01*
X33425Y-8774D01*
X33425Y-9225D01*
X33425Y-9112D01*
X33362Y-9050D01*
X32950Y-9050D01*
X32950Y-9462D01*
X33012Y-9525D01*
X33224Y-9525D01*
X33316Y-9487D01*
X33386Y-9416D01*
X33424Y-9324D01*
X33425Y-9225D01*
X33425Y-15125D01*
X33000Y-15125D01*
X33000Y-13199D01*
X33000Y-12400D01*
X32962Y-12308D01*
X32891Y-12238D01*
X32850Y-12220D01*
X32850Y-9462D01*
X32850Y-9050D01*
X32850Y-8950D01*
X32850Y-8537D01*
X32787Y-8475D01*
X32575Y-8474D01*
X32483Y-8512D01*
X32413Y-8583D01*
X32375Y-8675D01*
X32374Y-8774D01*
X32375Y-8887D01*
X32437Y-8950D01*
X32850Y-8950D01*
X32850Y-9050D01*
X32437Y-9050D01*
X32375Y-9112D01*
X32374Y-9225D01*
X32375Y-9324D01*
X32413Y-9416D01*
X32483Y-9487D01*
X32575Y-9525D01*
X32787Y-9525D01*
X32850Y-9462D01*
X32850Y-12220D01*
X32799Y-12200D01*
X32700Y-12199D01*
X32512Y-12200D01*
X32450Y-12262D01*
X32450Y-12750D01*
X32937Y-12750D01*
X33000Y-12687D01*
X33000Y-12400D01*
X33000Y-13199D01*
X33000Y-12912D01*
X32937Y-12850D01*
X32450Y-12850D01*
X32450Y-13337D01*
X32512Y-13400D01*
X32700Y-13400D01*
X32799Y-13399D01*
X32891Y-13361D01*
X32962Y-13291D01*
X33000Y-13199D01*
X33000Y-15125D01*
X29500Y-15125D01*
X29356Y-15153D01*
X29283Y-15202D01*
X29234Y-15234D01*
X29200Y-15269D01*
X29200Y-14707D01*
X30507Y-13400D01*
X30518Y-13400D01*
X30739Y-13308D01*
X30900Y-13148D01*
X31059Y-13308D01*
X31280Y-13399D01*
X31518Y-13400D01*
X31739Y-13308D01*
X31814Y-13234D01*
X31837Y-13291D01*
X31908Y-13361D01*
X32000Y-13399D01*
X32099Y-13400D01*
X32287Y-13400D01*
X32350Y-13337D01*
X32350Y-12850D01*
X32342Y-12850D01*
X32342Y-12750D01*
X32350Y-12750D01*
X32350Y-12262D01*
X32287Y-12200D01*
X32099Y-12199D01*
X32000Y-12200D01*
X31908Y-12238D01*
X31837Y-12308D01*
X31814Y-12365D01*
X31740Y-12291D01*
X31546Y-12211D01*
X31546Y-7347D01*
X31546Y-7050D01*
X31546Y-6950D01*
X31546Y-6653D01*
X31485Y-6447D01*
X31351Y-6281D01*
X31162Y-6178D01*
X31134Y-6173D01*
X31050Y-6221D01*
X31050Y-6950D01*
X31546Y-6950D01*
X31546Y-7050D01*
X31050Y-7050D01*
X31050Y-7778D01*
X31134Y-7826D01*
X31162Y-7821D01*
X31351Y-7718D01*
X31485Y-7552D01*
X31546Y-7347D01*
X31546Y-12211D01*
X31519Y-12200D01*
X31281Y-12199D01*
X31060Y-12291D01*
X30950Y-12401D01*
X30950Y-7778D01*
X30950Y-7050D01*
X30942Y-7050D01*
X30942Y-6950D01*
X30950Y-6950D01*
X30950Y-6221D01*
X30865Y-6173D01*
X30837Y-6178D01*
X30648Y-6281D01*
X30514Y-6447D01*
X30505Y-6478D01*
X30504Y-6477D01*
X30386Y-6300D01*
X30209Y-6181D01*
X30000Y-6139D01*
X29790Y-6181D01*
X29613Y-6300D01*
X29500Y-6470D01*
X29386Y-6300D01*
X29209Y-6181D01*
X29000Y-6139D01*
X28790Y-6181D01*
X28613Y-6300D01*
X28500Y-6470D01*
X28386Y-6300D01*
X28209Y-6181D01*
X28000Y-6139D01*
X27790Y-6181D01*
X27613Y-6300D01*
X27500Y-6470D01*
X27386Y-6300D01*
X27209Y-6181D01*
X27000Y-6139D01*
X26790Y-6181D01*
X26613Y-6300D01*
X26495Y-6477D01*
X26453Y-6686D01*
X26453Y-7313D01*
X26495Y-7522D01*
X26613Y-7699D01*
X26790Y-7818D01*
X27000Y-7860D01*
X27209Y-7818D01*
X27386Y-7699D01*
X27500Y-7529D01*
X27613Y-7699D01*
X27790Y-7818D01*
X28000Y-7860D01*
X28209Y-7818D01*
X28386Y-7699D01*
X28500Y-7529D01*
X28613Y-7699D01*
X28790Y-7818D01*
X29000Y-7860D01*
X29209Y-7818D01*
X29386Y-7699D01*
X29500Y-7529D01*
X29613Y-7699D01*
X29790Y-7818D01*
X30000Y-7860D01*
X30209Y-7818D01*
X30386Y-7699D01*
X30504Y-7522D01*
X30505Y-7521D01*
X30514Y-7552D01*
X30648Y-7718D01*
X30837Y-7821D01*
X30865Y-7826D01*
X30950Y-7778D01*
X30950Y-12401D01*
X30900Y-12451D01*
X30900Y-9500D01*
X30861Y-9308D01*
X30753Y-9146D01*
X30753Y-9146D01*
X30370Y-8763D01*
X30345Y-8703D01*
X30197Y-8555D01*
X30004Y-8475D01*
X29796Y-8474D01*
X29603Y-8554D01*
X29455Y-8702D01*
X29375Y-8895D01*
X29374Y-9103D01*
X29454Y-9297D01*
X29602Y-9444D01*
X29662Y-9470D01*
X29900Y-9707D01*
X29900Y-12451D01*
X29891Y-12459D01*
X29800Y-12680D01*
X29800Y-12692D01*
X28346Y-14146D01*
X28238Y-14308D01*
X28229Y-14349D01*
X28229Y-9075D01*
X28218Y-8867D01*
X28160Y-8727D01*
X28067Y-8702D01*
X27997Y-8773D01*
X27997Y-8632D01*
X27972Y-8539D01*
X27775Y-8470D01*
X27567Y-8481D01*
X27427Y-8539D01*
X27402Y-8632D01*
X27700Y-8929D01*
X27997Y-8632D01*
X27997Y-8773D01*
X27770Y-9000D01*
X28067Y-9297D01*
X28160Y-9272D01*
X28229Y-9075D01*
X28229Y-14349D01*
X28199Y-14500D01*
X28200Y-14500D01*
X28200Y-15300D01*
X28200Y-16050D01*
X28200Y-16300D01*
X28200Y-17500D01*
X28162Y-17408D01*
X28091Y-17338D01*
X27999Y-17300D01*
X27997Y-17300D01*
X27997Y-9367D01*
X27700Y-9070D01*
X27629Y-9141D01*
X27629Y-9000D01*
X27332Y-8702D01*
X27239Y-8727D01*
X27170Y-8924D01*
X27181Y-9132D01*
X27239Y-9272D01*
X27332Y-9297D01*
X27629Y-9000D01*
X27629Y-9141D01*
X27402Y-9367D01*
X27427Y-9460D01*
X27624Y-9529D01*
X27832Y-9518D01*
X27972Y-9460D01*
X27997Y-9367D01*
X27997Y-17300D01*
X27900Y-17299D01*
X27800Y-17299D01*
X27800Y-12681D01*
X27708Y-12460D01*
X27540Y-12291D01*
X27319Y-12200D01*
X27081Y-12199D01*
X26860Y-12291D01*
X26785Y-12365D01*
X26762Y-12308D01*
X26691Y-12238D01*
X26599Y-12200D01*
X26500Y-12199D01*
X26312Y-12200D01*
X26250Y-12262D01*
X26250Y-12750D01*
X26257Y-12750D01*
X26257Y-12850D01*
X26250Y-12850D01*
X26250Y-13337D01*
X26312Y-13400D01*
X26500Y-13400D01*
X26599Y-13399D01*
X26691Y-13361D01*
X26762Y-13291D01*
X26785Y-13234D01*
X26859Y-13308D01*
X27080Y-13399D01*
X27318Y-13400D01*
X27539Y-13308D01*
X27708Y-13140D01*
X27799Y-12919D01*
X27800Y-12681D01*
X27800Y-17299D01*
X26150Y-17299D01*
X26150Y-13337D01*
X26150Y-12850D01*
X26142Y-12850D01*
X26142Y-12750D01*
X26150Y-12750D01*
X26150Y-12262D01*
X26087Y-12200D01*
X26050Y-12199D01*
X26050Y-6792D01*
X25890Y-6406D01*
X25595Y-6110D01*
X25209Y-5950D01*
X24792Y-5949D01*
X24406Y-6109D01*
X24110Y-6404D01*
X23950Y-6790D01*
X23949Y-7207D01*
X24109Y-7594D01*
X24404Y-7889D01*
X24790Y-8049D01*
X25207Y-8050D01*
X25594Y-7890D01*
X25889Y-7595D01*
X26049Y-7209D01*
X26050Y-6792D01*
X26050Y-12199D01*
X25899Y-12199D01*
X25800Y-12200D01*
X25708Y-12238D01*
X25700Y-12246D01*
X25700Y-9500D01*
X25661Y-9308D01*
X25553Y-9146D01*
X25553Y-9146D01*
X25225Y-8817D01*
X25225Y-8675D01*
X25187Y-8583D01*
X25116Y-8513D01*
X25024Y-8475D01*
X24925Y-8474D01*
X24375Y-8474D01*
X24283Y-8512D01*
X24213Y-8583D01*
X24175Y-8675D01*
X24174Y-8774D01*
X24174Y-9324D01*
X24212Y-9416D01*
X24283Y-9486D01*
X24375Y-9524D01*
X24474Y-9525D01*
X24517Y-9525D01*
X24700Y-9707D01*
X24700Y-12451D01*
X24691Y-12459D01*
X24600Y-12680D01*
X24599Y-12918D01*
X24691Y-13139D01*
X24859Y-13308D01*
X25080Y-13399D01*
X25318Y-13400D01*
X25539Y-13308D01*
X25614Y-13234D01*
X25637Y-13291D01*
X25708Y-13361D01*
X25800Y-13399D01*
X25899Y-13400D01*
X26087Y-13400D01*
X26150Y-13337D01*
X26150Y-17299D01*
X24400Y-17299D01*
X24308Y-17337D01*
X24238Y-17408D01*
X24200Y-17500D01*
X24199Y-17599D01*
X24199Y-21099D01*
X24237Y-21191D01*
X24308Y-21261D01*
X24400Y-21299D01*
X24499Y-21300D01*
X27999Y-21300D01*
X28091Y-21262D01*
X28161Y-21191D01*
X28199Y-21099D01*
X28200Y-21049D01*
X28200Y-21599D01*
X28199Y-21600D01*
X28238Y-21791D01*
X28346Y-21953D01*
X28500Y-22107D01*
X28500Y-22470D01*
X28386Y-22300D01*
X28209Y-22181D01*
X28000Y-22139D01*
X27790Y-22181D01*
X27613Y-22300D01*
X27500Y-22470D01*
X27386Y-22300D01*
X27209Y-22181D01*
X27000Y-22139D01*
X26790Y-22181D01*
X26613Y-22300D01*
X26495Y-22477D01*
X26453Y-22686D01*
X26453Y-23313D01*
X26495Y-23522D01*
X26613Y-23699D01*
X26790Y-23818D01*
X27000Y-23860D01*
X27209Y-23818D01*
X27386Y-23699D01*
X27500Y-23529D01*
X27613Y-23699D01*
X27790Y-23818D01*
X28000Y-23860D01*
X28209Y-23818D01*
X28386Y-23699D01*
X28500Y-23529D01*
X28613Y-23699D01*
X28790Y-23818D01*
X29000Y-23860D01*
X29209Y-23818D01*
X29386Y-23699D01*
X29500Y-23529D01*
X29613Y-23699D01*
X29790Y-23818D01*
X30000Y-23860D01*
X30209Y-23818D01*
X30386Y-23699D01*
X30504Y-23522D01*
X30505Y-23521D01*
X30514Y-23552D01*
X30648Y-23718D01*
X30837Y-23821D01*
X30865Y-23826D01*
X30950Y-23778D01*
X30950Y-23050D01*
X30942Y-23050D01*
X30942Y-22950D01*
X30950Y-22950D01*
X30950Y-22221D01*
X30865Y-22173D01*
X30837Y-22178D01*
X30648Y-22281D01*
X30514Y-22447D01*
X30505Y-22478D01*
X30504Y-22477D01*
X30386Y-22300D01*
X30209Y-22181D01*
X30000Y-22139D01*
X29790Y-22181D01*
X29613Y-22300D01*
X29500Y-22470D01*
X29500Y-21900D01*
X29499Y-21899D01*
X29500Y-21899D01*
X29461Y-21708D01*
X29353Y-21546D01*
X29353Y-21546D01*
X29200Y-21392D01*
X29200Y-20800D01*
X29200Y-16330D01*
X29655Y-15875D01*
X39250Y-15875D01*
X39393Y-15846D01*
X39515Y-15765D01*
X39799Y-15480D01*
X39825Y-15505D01*
X39825Y-16332D01*
X39755Y-16402D01*
X39725Y-16474D01*
X39725Y-16375D01*
X39687Y-16283D01*
X39616Y-16213D01*
X39524Y-16175D01*
X39425Y-16174D01*
X38875Y-16174D01*
X38783Y-16212D01*
X38713Y-16283D01*
X38700Y-16314D01*
X38687Y-16283D01*
X38616Y-16213D01*
X38524Y-16175D01*
X38425Y-16174D01*
X37875Y-16174D01*
X37783Y-16212D01*
X37713Y-16283D01*
X37675Y-16375D01*
X37674Y-16474D01*
X37674Y-17024D01*
X37712Y-17116D01*
X37783Y-17186D01*
X37875Y-17224D01*
X37974Y-17225D01*
X38524Y-17225D01*
X38616Y-17187D01*
X38686Y-17116D01*
X38699Y-17085D01*
X38712Y-17116D01*
X38783Y-17186D01*
X38875Y-17224D01*
X38974Y-17225D01*
X39524Y-17225D01*
X39616Y-17187D01*
X39686Y-17116D01*
X39724Y-17024D01*
X39725Y-16925D01*
X39725Y-16925D01*
X39754Y-16997D01*
X39902Y-17144D01*
X40095Y-17224D01*
X40303Y-17225D01*
X40497Y-17145D01*
X40567Y-17075D01*
X40832Y-17075D01*
X40902Y-17144D01*
X41095Y-17224D01*
X41303Y-17225D01*
X41497Y-17145D01*
X41644Y-16997D01*
X41724Y-16804D01*
X41725Y-16596D01*
X41645Y-16403D01*
X41497Y-16255D01*
X41304Y-16175D01*
X41096Y-16174D01*
X40903Y-16254D01*
X40832Y-16325D01*
X40575Y-16325D01*
X40575Y-15350D01*
X40574Y-15349D01*
X40546Y-15206D01*
X40497Y-15133D01*
X40465Y-15084D01*
X40465Y-15084D01*
X40175Y-14794D01*
X40175Y-14250D01*
X40175Y-13855D01*
X40205Y-13825D01*
X40303Y-13825D01*
X40497Y-13745D01*
X40567Y-13675D01*
X40832Y-13675D01*
X40902Y-13744D01*
X41095Y-13824D01*
X41303Y-13825D01*
X41497Y-13745D01*
X41567Y-13675D01*
X46694Y-13675D01*
X46815Y-13724D01*
X46984Y-13725D01*
X47140Y-13660D01*
X47260Y-13541D01*
X47324Y-13384D01*
X47325Y-13215D01*
X47325Y-21998D01*
X47209Y-21950D01*
X46792Y-21949D01*
X46675Y-21998D01*
X46675Y-17915D01*
X46610Y-17759D01*
X46601Y-17750D01*
X46610Y-17741D01*
X46674Y-17584D01*
X46675Y-17415D01*
X46610Y-17259D01*
X46491Y-17139D01*
X46334Y-17075D01*
X46165Y-17074D01*
X46009Y-17139D01*
X46000Y-17148D01*
X45991Y-17139D01*
X45834Y-17075D01*
X45665Y-17074D01*
X45509Y-17139D01*
X45500Y-17148D01*
X45491Y-17139D01*
X45334Y-17075D01*
X45165Y-17074D01*
X45009Y-17139D01*
X45000Y-17148D01*
X44991Y-17139D01*
X44834Y-17075D01*
X44665Y-17074D01*
X44509Y-17139D01*
X44500Y-17148D01*
X44491Y-17139D01*
X44334Y-17075D01*
X44165Y-17074D01*
X44009Y-17139D01*
X43948Y-17200D01*
X43500Y-17200D01*
X43385Y-17222D01*
X43287Y-17287D01*
X43222Y-17385D01*
X43200Y-17500D01*
X43222Y-17614D01*
X43287Y-17712D01*
X43385Y-17777D01*
X43500Y-17800D01*
X43872Y-17800D01*
X43825Y-17915D01*
X43824Y-18084D01*
X43889Y-18240D01*
X44008Y-18360D01*
X44165Y-18424D01*
X44334Y-18425D01*
X44490Y-18360D01*
X44499Y-18351D01*
X44508Y-18360D01*
X44665Y-18424D01*
X44834Y-18425D01*
X44990Y-18360D01*
X44999Y-18351D01*
X45008Y-18360D01*
X45165Y-18424D01*
X45334Y-18425D01*
X45490Y-18360D01*
X45499Y-18351D01*
X45508Y-18360D01*
X45665Y-18424D01*
X45834Y-18425D01*
X45990Y-18360D01*
X45999Y-18351D01*
X46008Y-18360D01*
X46165Y-18424D01*
X46334Y-18425D01*
X46490Y-18360D01*
X46610Y-18241D01*
X46674Y-18084D01*
X46675Y-17915D01*
X46675Y-21998D01*
X46406Y-22109D01*
X46110Y-22404D01*
X45950Y-22790D01*
X45949Y-23207D01*
X46109Y-23594D01*
X46404Y-23889D01*
X46790Y-24049D01*
X47207Y-24050D01*
X47594Y-23890D01*
X47889Y-23595D01*
X48049Y-23209D01*
X48050Y-22792D01*
X48050Y-24230D01*
X43725Y-24230D01*
X43725Y-18315D01*
X43660Y-18159D01*
X43541Y-18039D01*
X43384Y-17975D01*
X43215Y-17974D01*
X43059Y-18039D01*
X43024Y-18075D01*
X40500Y-18075D01*
X40499Y-18075D01*
X40475Y-18079D01*
X40375Y-18099D01*
X40270Y-18170D01*
X40270Y-18170D01*
X39970Y-18470D01*
X39899Y-18575D01*
X39875Y-18700D01*
X39875Y-19175D01*
X39783Y-19212D01*
X39713Y-19283D01*
X39675Y-19375D01*
X39674Y-19474D01*
X39674Y-19474D01*
X39645Y-19403D01*
X39497Y-19255D01*
X39304Y-19175D01*
X39096Y-19174D01*
X38903Y-19254D01*
X38755Y-19402D01*
X38699Y-19535D01*
X38645Y-19403D01*
X38497Y-19255D01*
X38304Y-19175D01*
X38096Y-19174D01*
X37903Y-19254D01*
X37755Y-19402D01*
X37675Y-19595D01*
X37674Y-19803D01*
X37754Y-19997D01*
X37902Y-20144D01*
X38095Y-20224D01*
X38303Y-20225D01*
X38497Y-20145D01*
X38644Y-19997D01*
X38700Y-19864D01*
X38754Y-19997D01*
X38902Y-20144D01*
X39095Y-20224D01*
X39303Y-20225D01*
X39497Y-20145D01*
X39644Y-19997D01*
X39674Y-19925D01*
X39674Y-20024D01*
X39712Y-20116D01*
X39783Y-20186D01*
X39875Y-20224D01*
X39974Y-20225D01*
X40524Y-20225D01*
X40616Y-20187D01*
X40686Y-20116D01*
X40699Y-20085D01*
X40712Y-20116D01*
X40783Y-20186D01*
X40875Y-20224D01*
X40974Y-20225D01*
X41524Y-20225D01*
X41616Y-20187D01*
X41686Y-20116D01*
X41724Y-20024D01*
X41725Y-19925D01*
X41725Y-19375D01*
X41687Y-19283D01*
X41616Y-19213D01*
X41524Y-19175D01*
X41425Y-19174D01*
X40875Y-19174D01*
X40783Y-19212D01*
X40713Y-19283D01*
X40700Y-19314D01*
X40687Y-19283D01*
X40616Y-19213D01*
X40525Y-19175D01*
X40525Y-18834D01*
X40634Y-18725D01*
X43023Y-18725D01*
X43058Y-18760D01*
X43215Y-18824D01*
X43384Y-18825D01*
X43540Y-18760D01*
X43660Y-18641D01*
X43724Y-18484D01*
X43725Y-18315D01*
X43725Y-24230D01*
X40546Y-24230D01*
X40546Y-23347D01*
X40546Y-23050D01*
X40546Y-22950D01*
X40546Y-22653D01*
X40485Y-22447D01*
X40351Y-22281D01*
X40162Y-22178D01*
X40134Y-22173D01*
X40050Y-22221D01*
X40050Y-22950D01*
X40546Y-22950D01*
X40546Y-23050D01*
X40050Y-23050D01*
X40050Y-23778D01*
X40134Y-23826D01*
X40162Y-23821D01*
X40351Y-23718D01*
X40485Y-23552D01*
X40546Y-23347D01*
X40546Y-24230D01*
X39950Y-24230D01*
X39950Y-23778D01*
X39950Y-23050D01*
X39942Y-23050D01*
X39942Y-22950D01*
X39950Y-22950D01*
X39950Y-22221D01*
X39865Y-22173D01*
X39837Y-22178D01*
X39648Y-22281D01*
X39514Y-22447D01*
X39505Y-22478D01*
X39504Y-22477D01*
X39386Y-22300D01*
X39209Y-22181D01*
X39000Y-22139D01*
X38790Y-22181D01*
X38613Y-22300D01*
X38500Y-22470D01*
X38386Y-22300D01*
X38209Y-22181D01*
X38000Y-22139D01*
X37790Y-22181D01*
X37613Y-22300D01*
X37500Y-22470D01*
X37386Y-22300D01*
X37209Y-22181D01*
X37000Y-22139D01*
X36790Y-22181D01*
X36613Y-22300D01*
X36500Y-22470D01*
X36386Y-22300D01*
X36209Y-22181D01*
X36000Y-22139D01*
X35790Y-22181D01*
X35613Y-22300D01*
X35495Y-22477D01*
X35453Y-22686D01*
X35453Y-23313D01*
X35495Y-23522D01*
X35613Y-23699D01*
X35790Y-23818D01*
X36000Y-23860D01*
X36209Y-23818D01*
X36386Y-23699D01*
X36500Y-23529D01*
X36613Y-23699D01*
X36790Y-23818D01*
X37000Y-23860D01*
X37209Y-23818D01*
X37386Y-23699D01*
X37500Y-23529D01*
X37613Y-23699D01*
X37790Y-23818D01*
X38000Y-23860D01*
X38209Y-23818D01*
X38386Y-23699D01*
X38500Y-23529D01*
X38613Y-23699D01*
X38790Y-23818D01*
X39000Y-23860D01*
X39209Y-23818D01*
X39386Y-23699D01*
X39504Y-23522D01*
X39505Y-23521D01*
X39514Y-23552D01*
X39648Y-23718D01*
X39837Y-23821D01*
X39865Y-23826D01*
X39950Y-23778D01*
X39950Y-24230D01*
X33400Y-24230D01*
X33400Y-21000D01*
X33400Y-17500D01*
X33362Y-17408D01*
X33291Y-17338D01*
X33199Y-17300D01*
X33100Y-17299D01*
X29600Y-17299D01*
X29508Y-17337D01*
X29438Y-17408D01*
X29400Y-17500D01*
X29399Y-17599D01*
X29399Y-21099D01*
X29437Y-21191D01*
X29508Y-21261D01*
X29600Y-21299D01*
X29699Y-21300D01*
X33199Y-21300D01*
X33291Y-21262D01*
X33361Y-21191D01*
X33399Y-21099D01*
X33400Y-21000D01*
X33400Y-24230D01*
X31546Y-24230D01*
X31546Y-23347D01*
X31546Y-23050D01*
X31546Y-22950D01*
X31546Y-22653D01*
X31485Y-22447D01*
X31351Y-22281D01*
X31162Y-22178D01*
X31134Y-22173D01*
X31050Y-22221D01*
X31050Y-22950D01*
X31546Y-22950D01*
X31546Y-23050D01*
X31050Y-23050D01*
X31050Y-23778D01*
X31134Y-23826D01*
X31162Y-23821D01*
X31351Y-23718D01*
X31485Y-23552D01*
X31546Y-23347D01*
X31546Y-24230D01*
X26050Y-24230D01*
X26050Y-22792D01*
X25890Y-22406D01*
X25595Y-22110D01*
X25209Y-21950D01*
X24792Y-21949D01*
X24406Y-22109D01*
X24110Y-22404D01*
X23950Y-22790D01*
X23949Y-23207D01*
X24109Y-23594D01*
X24404Y-23889D01*
X24790Y-24049D01*
X25207Y-24050D01*
X25594Y-23890D01*
X25889Y-23595D01*
X26049Y-23209D01*
X26050Y-22792D01*
X26050Y-24230D01*
X23769Y-24230D01*
X23769Y-6000D01*
X23769Y-5769D01*
X48230Y-5769D01*
X48230Y-6000D01*
X48230Y-24230D01*
X48230Y-24230D01*
G37*
G54D19*
X48230Y-24230D02*
X48050Y-24230D01*
X48050Y-22792D01*
X48050Y-6792D01*
X47890Y-6406D01*
X47595Y-6110D01*
X47209Y-5950D01*
X46792Y-5949D01*
X46406Y-6109D01*
X46110Y-6404D01*
X45950Y-6790D01*
X45949Y-7207D01*
X46109Y-7594D01*
X46404Y-7889D01*
X46790Y-8049D01*
X47207Y-8050D01*
X47594Y-7890D01*
X47889Y-7595D01*
X48049Y-7209D01*
X48050Y-6792D01*
X48050Y-22792D01*
X47890Y-22406D01*
X47595Y-22110D01*
X47325Y-21998D01*
X47325Y-13215D01*
X47260Y-13059D01*
X47141Y-12939D01*
X46984Y-12875D01*
X46815Y-12874D01*
X46694Y-12925D01*
X44575Y-12925D01*
X44575Y-7815D01*
X44510Y-7659D01*
X44391Y-7539D01*
X44234Y-7475D01*
X44108Y-7474D01*
X44060Y-7359D01*
X43941Y-7239D01*
X43784Y-7175D01*
X43615Y-7174D01*
X43459Y-7239D01*
X43339Y-7358D01*
X43275Y-7515D01*
X43275Y-7565D01*
X42015Y-8825D01*
X40546Y-8825D01*
X40546Y-7347D01*
X40546Y-7050D01*
X40546Y-6950D01*
X40546Y-6653D01*
X40485Y-6447D01*
X40351Y-6281D01*
X40162Y-6178D01*
X40134Y-6173D01*
X40050Y-6221D01*
X40050Y-6950D01*
X40546Y-6950D01*
X40546Y-7050D01*
X40050Y-7050D01*
X40050Y-7778D01*
X40134Y-7826D01*
X40162Y-7821D01*
X40351Y-7718D01*
X40485Y-7552D01*
X40546Y-7347D01*
X40546Y-8825D01*
X40300Y-8825D01*
X40175Y-8849D01*
X40133Y-8877D01*
X40070Y-8920D01*
X40070Y-8920D01*
X39970Y-9020D01*
X39950Y-9050D01*
X39950Y-7778D01*
X39950Y-7050D01*
X39942Y-7050D01*
X39942Y-6950D01*
X39950Y-6950D01*
X39950Y-6221D01*
X39865Y-6173D01*
X39837Y-6178D01*
X39648Y-6281D01*
X39514Y-6447D01*
X39505Y-6478D01*
X39504Y-6477D01*
X39386Y-6300D01*
X39209Y-6181D01*
X39000Y-6139D01*
X38790Y-6181D01*
X38613Y-6300D01*
X38500Y-6470D01*
X38386Y-6300D01*
X38209Y-6181D01*
X38000Y-6139D01*
X37790Y-6181D01*
X37613Y-6300D01*
X37500Y-6470D01*
X37386Y-6300D01*
X37209Y-6181D01*
X37000Y-6139D01*
X36790Y-6181D01*
X36613Y-6300D01*
X36500Y-6470D01*
X36386Y-6300D01*
X36209Y-6181D01*
X36000Y-6139D01*
X35790Y-6181D01*
X35613Y-6300D01*
X35495Y-6477D01*
X35453Y-6686D01*
X35453Y-7313D01*
X35495Y-7522D01*
X35613Y-7699D01*
X35790Y-7818D01*
X36000Y-7860D01*
X36209Y-7818D01*
X36386Y-7699D01*
X36500Y-7529D01*
X36613Y-7699D01*
X36790Y-7818D01*
X37000Y-7860D01*
X37209Y-7818D01*
X37386Y-7699D01*
X37500Y-7529D01*
X37613Y-7699D01*
X37790Y-7818D01*
X38000Y-7860D01*
X38209Y-7818D01*
X38386Y-7699D01*
X38500Y-7529D01*
X38613Y-7699D01*
X38790Y-7818D01*
X39000Y-7860D01*
X39209Y-7818D01*
X39386Y-7699D01*
X39504Y-7522D01*
X39505Y-7521D01*
X39514Y-7552D01*
X39648Y-7718D01*
X39837Y-7821D01*
X39865Y-7826D01*
X39950Y-7778D01*
X39950Y-9050D01*
X39899Y-9125D01*
X39875Y-9250D01*
X39875Y-9775D01*
X39783Y-9812D01*
X39713Y-9883D01*
X39675Y-9975D01*
X39674Y-10074D01*
X39674Y-10074D01*
X39645Y-10003D01*
X39497Y-9855D01*
X39304Y-9775D01*
X39096Y-9774D01*
X38903Y-9854D01*
X38755Y-10002D01*
X38699Y-10135D01*
X38645Y-10003D01*
X38497Y-9855D01*
X38304Y-9775D01*
X38096Y-9774D01*
X37903Y-9854D01*
X37755Y-10002D01*
X37675Y-10195D01*
X37674Y-10403D01*
X37754Y-10597D01*
X37902Y-10744D01*
X38095Y-10824D01*
X38303Y-10825D01*
X38497Y-10745D01*
X38644Y-10597D01*
X38700Y-10464D01*
X38754Y-10597D01*
X38902Y-10744D01*
X39095Y-10824D01*
X39303Y-10825D01*
X39497Y-10745D01*
X39644Y-10597D01*
X39674Y-10525D01*
X39674Y-10624D01*
X39712Y-10716D01*
X39783Y-10786D01*
X39875Y-10824D01*
X39974Y-10825D01*
X40524Y-10825D01*
X40616Y-10787D01*
X40686Y-10716D01*
X40699Y-10685D01*
X40712Y-10716D01*
X40783Y-10786D01*
X40875Y-10824D01*
X40974Y-10825D01*
X41524Y-10825D01*
X41616Y-10787D01*
X41686Y-10716D01*
X41724Y-10625D01*
X42650Y-10625D01*
X42774Y-10600D01*
X42774Y-10600D01*
X42879Y-10529D01*
X44379Y-9029D01*
X44379Y-9029D01*
X44379Y-9029D01*
X44450Y-8924D01*
X44450Y-8924D01*
X44475Y-8800D01*
X44475Y-8176D01*
X44510Y-8141D01*
X44574Y-7984D01*
X44575Y-7815D01*
X44575Y-12925D01*
X41567Y-12925D01*
X41497Y-12855D01*
X41304Y-12775D01*
X41096Y-12774D01*
X40903Y-12854D01*
X40832Y-12925D01*
X40567Y-12925D01*
X40497Y-12855D01*
X40304Y-12775D01*
X40096Y-12774D01*
X39903Y-12854D01*
X39755Y-13002D01*
X39725Y-13074D01*
X39725Y-12975D01*
X39687Y-12883D01*
X39616Y-12813D01*
X39524Y-12775D01*
X39425Y-12774D01*
X38875Y-12774D01*
X38783Y-12812D01*
X38713Y-12883D01*
X38700Y-12914D01*
X38687Y-12883D01*
X38616Y-12813D01*
X38524Y-12775D01*
X38425Y-12774D01*
X37875Y-12774D01*
X37783Y-12812D01*
X37713Y-12883D01*
X37675Y-12975D01*
X37674Y-13074D01*
X37674Y-13624D01*
X37712Y-13716D01*
X37783Y-13786D01*
X37875Y-13824D01*
X37974Y-13825D01*
X38524Y-13825D01*
X38616Y-13787D01*
X38686Y-13716D01*
X38699Y-13685D01*
X38712Y-13716D01*
X38783Y-13786D01*
X38875Y-13824D01*
X38974Y-13825D01*
X39425Y-13825D01*
X39425Y-14250D01*
X39425Y-14794D01*
X39094Y-15125D01*
X33425Y-15125D01*
X33425Y-9225D01*
X33425Y-8774D01*
X33424Y-8675D01*
X33386Y-8583D01*
X33316Y-8512D01*
X33224Y-8474D01*
X33012Y-8475D01*
X32950Y-8537D01*
X32950Y-8950D01*
X33362Y-8950D01*
X33425Y-8887D01*
X33425Y-8774D01*
X33425Y-9225D01*
X33425Y-9112D01*
X33362Y-9050D01*
X32950Y-9050D01*
X32950Y-9462D01*
X33012Y-9525D01*
X33224Y-9525D01*
X33316Y-9487D01*
X33386Y-9416D01*
X33424Y-9324D01*
X33425Y-9225D01*
X33425Y-15125D01*
X33000Y-15125D01*
X33000Y-13199D01*
X33000Y-12400D01*
X32962Y-12308D01*
X32891Y-12238D01*
X32850Y-12220D01*
X32850Y-9462D01*
X32850Y-9050D01*
X32850Y-8950D01*
X32850Y-8537D01*
X32787Y-8475D01*
X32575Y-8474D01*
X32483Y-8512D01*
X32413Y-8583D01*
X32375Y-8675D01*
X32374Y-8774D01*
X32375Y-8887D01*
X32437Y-8950D01*
X32850Y-8950D01*
X32850Y-9050D01*
X32437Y-9050D01*
X32375Y-9112D01*
X32374Y-9225D01*
X32375Y-9324D01*
X32413Y-9416D01*
X32483Y-9487D01*
X32575Y-9525D01*
X32787Y-9525D01*
X32850Y-9462D01*
X32850Y-12220D01*
X32799Y-12200D01*
X32700Y-12199D01*
X32512Y-12200D01*
X32450Y-12262D01*
X32450Y-12750D01*
X32937Y-12750D01*
X33000Y-12687D01*
X33000Y-12400D01*
X33000Y-13199D01*
X33000Y-12912D01*
X32937Y-12850D01*
X32450Y-12850D01*
X32450Y-13337D01*
X32512Y-13400D01*
X32700Y-13400D01*
X32799Y-13399D01*
X32891Y-13361D01*
X32962Y-13291D01*
X33000Y-13199D01*
X33000Y-15125D01*
X29500Y-15125D01*
X29356Y-15153D01*
X29283Y-15202D01*
X29234Y-15234D01*
X29200Y-15269D01*
X29200Y-14707D01*
X30507Y-13400D01*
X30518Y-13400D01*
X30739Y-13308D01*
X30900Y-13148D01*
X31059Y-13308D01*
X31280Y-13399D01*
X31518Y-13400D01*
X31739Y-13308D01*
X31814Y-13234D01*
X31837Y-13291D01*
X31908Y-13361D01*
X32000Y-13399D01*
X32099Y-13400D01*
X32287Y-13400D01*
X32350Y-13337D01*
X32350Y-12850D01*
X32342Y-12850D01*
X32342Y-12750D01*
X32350Y-12750D01*
X32350Y-12262D01*
X32287Y-12200D01*
X32099Y-12199D01*
X32000Y-12200D01*
X31908Y-12238D01*
X31837Y-12308D01*
X31814Y-12365D01*
X31740Y-12291D01*
X31546Y-12211D01*
X31546Y-7347D01*
X31546Y-7050D01*
X31546Y-6950D01*
X31546Y-6653D01*
X31485Y-6447D01*
X31351Y-6281D01*
X31162Y-6178D01*
X31134Y-6173D01*
X31050Y-6221D01*
X31050Y-6950D01*
X31546Y-6950D01*
X31546Y-7050D01*
X31050Y-7050D01*
X31050Y-7778D01*
X31134Y-7826D01*
X31162Y-7821D01*
X31351Y-7718D01*
X31485Y-7552D01*
X31546Y-7347D01*
X31546Y-12211D01*
X31519Y-12200D01*
X31281Y-12199D01*
X31060Y-12291D01*
X30950Y-12401D01*
X30950Y-7778D01*
X30950Y-7050D01*
X30942Y-7050D01*
X30942Y-6950D01*
X30950Y-6950D01*
X30950Y-6221D01*
X30865Y-6173D01*
X30837Y-6178D01*
X30648Y-6281D01*
X30514Y-6447D01*
X30505Y-6478D01*
X30504Y-6477D01*
X30386Y-6300D01*
X30209Y-6181D01*
X30000Y-6139D01*
X29790Y-6181D01*
X29613Y-6300D01*
X29500Y-6470D01*
X29386Y-6300D01*
X29209Y-6181D01*
X29000Y-6139D01*
X28790Y-6181D01*
X28613Y-6300D01*
X28500Y-6470D01*
X28386Y-6300D01*
X28209Y-6181D01*
X28000Y-6139D01*
X27790Y-6181D01*
X27613Y-6300D01*
X27500Y-6470D01*
X27386Y-6300D01*
X27209Y-6181D01*
X27000Y-6139D01*
X26790Y-6181D01*
X26613Y-6300D01*
X26495Y-6477D01*
X26453Y-6686D01*
X26453Y-7313D01*
X26495Y-7522D01*
X26613Y-7699D01*
X26790Y-7818D01*
X27000Y-7860D01*
X27209Y-7818D01*
X27386Y-7699D01*
X27500Y-7529D01*
X27613Y-7699D01*
X27790Y-7818D01*
X28000Y-7860D01*
X28209Y-7818D01*
X28386Y-7699D01*
X28500Y-7529D01*
X28613Y-7699D01*
X28790Y-7818D01*
X29000Y-7860D01*
X29209Y-7818D01*
X29386Y-7699D01*
X29500Y-7529D01*
X29613Y-7699D01*
X29790Y-7818D01*
X30000Y-7860D01*
X30209Y-7818D01*
X30386Y-7699D01*
X30504Y-7522D01*
X30505Y-7521D01*
X30514Y-7552D01*
X30648Y-7718D01*
X30837Y-7821D01*
X30865Y-7826D01*
X30950Y-7778D01*
X30950Y-12401D01*
X30900Y-12451D01*
X30900Y-9500D01*
X30861Y-9308D01*
X30753Y-9146D01*
X30753Y-9146D01*
X30370Y-8763D01*
X30345Y-8703D01*
X30197Y-8555D01*
X30004Y-8475D01*
X29796Y-8474D01*
X29603Y-8554D01*
X29455Y-8702D01*
X29375Y-8895D01*
X29374Y-9103D01*
X29454Y-9297D01*
X29602Y-9444D01*
X29662Y-9470D01*
X29900Y-9707D01*
X29900Y-12451D01*
X29891Y-12459D01*
X29800Y-12680D01*
X29800Y-12692D01*
X28346Y-14146D01*
X28238Y-14308D01*
X28229Y-14349D01*
X28229Y-9075D01*
X28218Y-8867D01*
X28160Y-8727D01*
X28067Y-8702D01*
X27997Y-8773D01*
X27997Y-8632D01*
X27972Y-8539D01*
X27775Y-8470D01*
X27567Y-8481D01*
X27427Y-8539D01*
X27402Y-8632D01*
X27700Y-8929D01*
X27997Y-8632D01*
X27997Y-8773D01*
X27770Y-9000D01*
X28067Y-9297D01*
X28160Y-9272D01*
X28229Y-9075D01*
X28229Y-14349D01*
X28199Y-14500D01*
X28200Y-14500D01*
X28200Y-15300D01*
X28200Y-16050D01*
X28200Y-16300D01*
X28200Y-17500D01*
X28162Y-17408D01*
X28091Y-17338D01*
X27999Y-17300D01*
X27997Y-17300D01*
X27997Y-9367D01*
X27700Y-9070D01*
X27629Y-9141D01*
X27629Y-9000D01*
X27332Y-8702D01*
X27239Y-8727D01*
X27170Y-8924D01*
X27181Y-9132D01*
X27239Y-9272D01*
X27332Y-9297D01*
X27629Y-9000D01*
X27629Y-9141D01*
X27402Y-9367D01*
X27427Y-9460D01*
X27624Y-9529D01*
X27832Y-9518D01*
X27972Y-9460D01*
X27997Y-9367D01*
X27997Y-17300D01*
X27900Y-17299D01*
X27800Y-17299D01*
X27800Y-12681D01*
X27708Y-12460D01*
X27540Y-12291D01*
X27319Y-12200D01*
X27081Y-12199D01*
X26860Y-12291D01*
X26785Y-12365D01*
X26762Y-12308D01*
X26691Y-12238D01*
X26599Y-12200D01*
X26500Y-12199D01*
X26312Y-12200D01*
X26250Y-12262D01*
X26250Y-12750D01*
X26257Y-12750D01*
X26257Y-12850D01*
X26250Y-12850D01*
X26250Y-13337D01*
X26312Y-13400D01*
X26500Y-13400D01*
X26599Y-13399D01*
X26691Y-13361D01*
X26762Y-13291D01*
X26785Y-13234D01*
X26859Y-13308D01*
X27080Y-13399D01*
X27318Y-13400D01*
X27539Y-13308D01*
X27708Y-13140D01*
X27799Y-12919D01*
X27800Y-12681D01*
X27800Y-17299D01*
X26150Y-17299D01*
X26150Y-13337D01*
X26150Y-12850D01*
X26142Y-12850D01*
X26142Y-12750D01*
X26150Y-12750D01*
X26150Y-12262D01*
X26087Y-12200D01*
X26050Y-12199D01*
X26050Y-6792D01*
X25890Y-6406D01*
X25595Y-6110D01*
X25209Y-5950D01*
X24792Y-5949D01*
X24406Y-6109D01*
X24110Y-6404D01*
X23950Y-6790D01*
X23949Y-7207D01*
X24109Y-7594D01*
X24404Y-7889D01*
X24790Y-8049D01*
X25207Y-8050D01*
X25594Y-7890D01*
X25889Y-7595D01*
X26049Y-7209D01*
X26050Y-6792D01*
X26050Y-12199D01*
X25899Y-12199D01*
X25800Y-12200D01*
X25708Y-12238D01*
X25700Y-12246D01*
X25700Y-9500D01*
X25661Y-9308D01*
X25553Y-9146D01*
X25553Y-9146D01*
X25225Y-8817D01*
X25225Y-8675D01*
X25187Y-8583D01*
X25116Y-8513D01*
X25024Y-8475D01*
X24925Y-8474D01*
X24375Y-8474D01*
X24283Y-8512D01*
X24213Y-8583D01*
X24175Y-8675D01*
X24174Y-8774D01*
X24174Y-9324D01*
X24212Y-9416D01*
X24283Y-9486D01*
X24375Y-9524D01*
X24474Y-9525D01*
X24517Y-9525D01*
X24700Y-9707D01*
X24700Y-12451D01*
X24691Y-12459D01*
X24600Y-12680D01*
X24599Y-12918D01*
X24691Y-13139D01*
X24859Y-13308D01*
X25080Y-13399D01*
X25318Y-13400D01*
X25539Y-13308D01*
X25614Y-13234D01*
X25637Y-13291D01*
X25708Y-13361D01*
X25800Y-13399D01*
X25899Y-13400D01*
X26087Y-13400D01*
X26150Y-13337D01*
X26150Y-17299D01*
X24400Y-17299D01*
X24308Y-17337D01*
X24238Y-17408D01*
X24200Y-17500D01*
X24199Y-17599D01*
X24199Y-21099D01*
X24237Y-21191D01*
X24308Y-21261D01*
X24400Y-21299D01*
X24499Y-21300D01*
X27999Y-21300D01*
X28091Y-21262D01*
X28161Y-21191D01*
X28199Y-21099D01*
X28200Y-21049D01*
X28200Y-21599D01*
X28199Y-21600D01*
X28238Y-21791D01*
X28346Y-21953D01*
X28500Y-22107D01*
X28500Y-22470D01*
X28386Y-22300D01*
X28209Y-22181D01*
X28000Y-22139D01*
X27790Y-22181D01*
X27613Y-22300D01*
X27500Y-22470D01*
X27386Y-22300D01*
X27209Y-22181D01*
X27000Y-22139D01*
X26790Y-22181D01*
X26613Y-22300D01*
X26495Y-22477D01*
X26453Y-22686D01*
X26453Y-23313D01*
X26495Y-23522D01*
X26613Y-23699D01*
X26790Y-23818D01*
X27000Y-23860D01*
X27209Y-23818D01*
X27386Y-23699D01*
X27500Y-23529D01*
X27613Y-23699D01*
X27790Y-23818D01*
X28000Y-23860D01*
X28209Y-23818D01*
X28386Y-23699D01*
X28500Y-23529D01*
X28613Y-23699D01*
X28790Y-23818D01*
X29000Y-23860D01*
X29209Y-23818D01*
X29386Y-23699D01*
X29500Y-23529D01*
X29613Y-23699D01*
X29790Y-23818D01*
X30000Y-23860D01*
X30209Y-23818D01*
X30386Y-23699D01*
X30504Y-23522D01*
X30505Y-23521D01*
X30514Y-23552D01*
X30648Y-23718D01*
X30837Y-23821D01*
X30865Y-23826D01*
X30950Y-23778D01*
X30950Y-23050D01*
X30942Y-23050D01*
X30942Y-22950D01*
X30950Y-22950D01*
X30950Y-22221D01*
X30865Y-22173D01*
X30837Y-22178D01*
X30648Y-22281D01*
X30514Y-22447D01*
X30505Y-22478D01*
X30504Y-22477D01*
X30386Y-22300D01*
X30209Y-22181D01*
X30000Y-22139D01*
X29790Y-22181D01*
X29613Y-22300D01*
X29500Y-22470D01*
X29500Y-21900D01*
X29499Y-21899D01*
X29500Y-21899D01*
X29461Y-21708D01*
X29353Y-21546D01*
X29353Y-21546D01*
X29200Y-21392D01*
X29200Y-20800D01*
X29200Y-16330D01*
X29655Y-15875D01*
X39250Y-15875D01*
X39393Y-15846D01*
X39515Y-15765D01*
X39799Y-15480D01*
X39825Y-15505D01*
X39825Y-16332D01*
X39755Y-16402D01*
X39725Y-16474D01*
X39725Y-16375D01*
X39687Y-16283D01*
X39616Y-16213D01*
X39524Y-16175D01*
X39425Y-16174D01*
X38875Y-16174D01*
X38783Y-16212D01*
X38713Y-16283D01*
X38700Y-16314D01*
X38687Y-16283D01*
X38616Y-16213D01*
X38524Y-16175D01*
X38425Y-16174D01*
X37875Y-16174D01*
X37783Y-16212D01*
X37713Y-16283D01*
X37675Y-16375D01*
X37674Y-16474D01*
X37674Y-17024D01*
X37712Y-17116D01*
X37783Y-17186D01*
X37875Y-17224D01*
X37974Y-17225D01*
X38524Y-17225D01*
X38616Y-17187D01*
X38686Y-17116D01*
X38699Y-17085D01*
X38712Y-17116D01*
X38783Y-17186D01*
X38875Y-17224D01*
X38974Y-17225D01*
X39524Y-17225D01*
X39616Y-17187D01*
X39686Y-17116D01*
X39724Y-17024D01*
X39725Y-16925D01*
X39725Y-16925D01*
X39754Y-16997D01*
X39902Y-17144D01*
X40095Y-17224D01*
X40303Y-17225D01*
X40497Y-17145D01*
X40567Y-17075D01*
X40832Y-17075D01*
X40902Y-17144D01*
X41095Y-17224D01*
X41303Y-17225D01*
X41497Y-17145D01*
X41644Y-16997D01*
X41724Y-16804D01*
X41725Y-16596D01*
X41645Y-16403D01*
X41497Y-16255D01*
X41304Y-16175D01*
X41096Y-16174D01*
X40903Y-16254D01*
X40832Y-16325D01*
X40575Y-16325D01*
X40575Y-15350D01*
X40574Y-15349D01*
X40546Y-15206D01*
X40497Y-15133D01*
X40465Y-15084D01*
X40465Y-15084D01*
X40175Y-14794D01*
X40175Y-14250D01*
X40175Y-13855D01*
X40205Y-13825D01*
X40303Y-13825D01*
X40497Y-13745D01*
X40567Y-13675D01*
X40832Y-13675D01*
X40902Y-13744D01*
X41095Y-13824D01*
X41303Y-13825D01*
X41497Y-13745D01*
X41567Y-13675D01*
X46694Y-13675D01*
X46815Y-13724D01*
X46984Y-13725D01*
X47140Y-13660D01*
X47260Y-13541D01*
X47324Y-13384D01*
X47325Y-13215D01*
X47325Y-21998D01*
X47209Y-21950D01*
X46792Y-21949D01*
X46675Y-21998D01*
X46675Y-17915D01*
X46610Y-17759D01*
X46601Y-17750D01*
X46610Y-17741D01*
X46674Y-17584D01*
X46675Y-17415D01*
X46610Y-17259D01*
X46491Y-17139D01*
X46334Y-17075D01*
X46165Y-17074D01*
X46009Y-17139D01*
X46000Y-17148D01*
X45991Y-17139D01*
X45834Y-17075D01*
X45665Y-17074D01*
X45509Y-17139D01*
X45500Y-17148D01*
X45491Y-17139D01*
X45334Y-17075D01*
X45165Y-17074D01*
X45009Y-17139D01*
X45000Y-17148D01*
X44991Y-17139D01*
X44834Y-17075D01*
X44665Y-17074D01*
X44509Y-17139D01*
X44500Y-17148D01*
X44491Y-17139D01*
X44334Y-17075D01*
X44165Y-17074D01*
X44009Y-17139D01*
X43948Y-17200D01*
X43500Y-17200D01*
X43385Y-17222D01*
X43287Y-17287D01*
X43222Y-17385D01*
X43200Y-17500D01*
X43222Y-17614D01*
X43287Y-17712D01*
X43385Y-17777D01*
X43500Y-17800D01*
X43872Y-17800D01*
X43825Y-17915D01*
X43824Y-18084D01*
X43889Y-18240D01*
X44008Y-18360D01*
X44165Y-18424D01*
X44334Y-18425D01*
X44490Y-18360D01*
X44499Y-18351D01*
X44508Y-18360D01*
X44665Y-18424D01*
X44834Y-18425D01*
X44990Y-18360D01*
X44999Y-18351D01*
X45008Y-18360D01*
X45165Y-18424D01*
X45334Y-18425D01*
X45490Y-18360D01*
X45499Y-18351D01*
X45508Y-18360D01*
X45665Y-18424D01*
X45834Y-18425D01*
X45990Y-18360D01*
X45999Y-18351D01*
X46008Y-18360D01*
X46165Y-18424D01*
X46334Y-18425D01*
X46490Y-18360D01*
X46610Y-18241D01*
X46674Y-18084D01*
X46675Y-17915D01*
X46675Y-21998D01*
X46406Y-22109D01*
X46110Y-22404D01*
X45950Y-22790D01*
X45949Y-23207D01*
X46109Y-23594D01*
X46404Y-23889D01*
X46790Y-24049D01*
X47207Y-24050D01*
X47594Y-23890D01*
X47889Y-23595D01*
X48049Y-23209D01*
X48050Y-22792D01*
X48050Y-24230D01*
X43725Y-24230D01*
X43725Y-18315D01*
X43660Y-18159D01*
X43541Y-18039D01*
X43384Y-17975D01*
X43215Y-17974D01*
X43059Y-18039D01*
X43024Y-18075D01*
X40500Y-18075D01*
X40499Y-18075D01*
X40475Y-18079D01*
X40375Y-18099D01*
X40270Y-18170D01*
X40270Y-18170D01*
X39970Y-18470D01*
X39899Y-18575D01*
X39875Y-18700D01*
X39875Y-19175D01*
X39783Y-19212D01*
X39713Y-19283D01*
X39675Y-19375D01*
X39674Y-19474D01*
X39674Y-19474D01*
X39645Y-19403D01*
X39497Y-19255D01*
X39304Y-19175D01*
X39096Y-19174D01*
X38903Y-19254D01*
X38755Y-19402D01*
X38699Y-19535D01*
X38645Y-19403D01*
X38497Y-19255D01*
X38304Y-19175D01*
X38096Y-19174D01*
X37903Y-19254D01*
X37755Y-19402D01*
X37675Y-19595D01*
X37674Y-19803D01*
X37754Y-19997D01*
X37902Y-20144D01*
X38095Y-20224D01*
X38303Y-20225D01*
X38497Y-20145D01*
X38644Y-19997D01*
X38700Y-19864D01*
X38754Y-19997D01*
X38902Y-20144D01*
X39095Y-20224D01*
X39303Y-20225D01*
X39497Y-20145D01*
X39644Y-19997D01*
X39674Y-19925D01*
X39674Y-20024D01*
X39712Y-20116D01*
X39783Y-20186D01*
X39875Y-20224D01*
X39974Y-20225D01*
X40524Y-20225D01*
X40616Y-20187D01*
X40686Y-20116D01*
X40699Y-20085D01*
X40712Y-20116D01*
X40783Y-20186D01*
X40875Y-20224D01*
X40974Y-20225D01*
X41524Y-20225D01*
X41616Y-20187D01*
X41686Y-20116D01*
X41724Y-20024D01*
X41725Y-19925D01*
X41725Y-19375D01*
X41687Y-19283D01*
X41616Y-19213D01*
X41524Y-19175D01*
X41425Y-19174D01*
X40875Y-19174D01*
X40783Y-19212D01*
X40713Y-19283D01*
X40700Y-19314D01*
X40687Y-19283D01*
X40616Y-19213D01*
X40525Y-19175D01*
X40525Y-18834D01*
X40634Y-18725D01*
X43023Y-18725D01*
X43058Y-18760D01*
X43215Y-18824D01*
X43384Y-18825D01*
X43540Y-18760D01*
X43660Y-18641D01*
X43724Y-18484D01*
X43725Y-18315D01*
X43725Y-24230D01*
X40546Y-24230D01*
X40546Y-23347D01*
X40546Y-23050D01*
X40546Y-22950D01*
X40546Y-22653D01*
X40485Y-22447D01*
X40351Y-22281D01*
X40162Y-22178D01*
X40134Y-22173D01*
X40050Y-22221D01*
X40050Y-22950D01*
X40546Y-22950D01*
X40546Y-23050D01*
X40050Y-23050D01*
X40050Y-23778D01*
X40134Y-23826D01*
X40162Y-23821D01*
X40351Y-23718D01*
X40485Y-23552D01*
X40546Y-23347D01*
X40546Y-24230D01*
X39950Y-24230D01*
X39950Y-23778D01*
X39950Y-23050D01*
X39942Y-23050D01*
X39942Y-22950D01*
X39950Y-22950D01*
X39950Y-22221D01*
X39865Y-22173D01*
X39837Y-22178D01*
X39648Y-22281D01*
X39514Y-22447D01*
X39505Y-22478D01*
X39504Y-22477D01*
X39386Y-22300D01*
X39209Y-22181D01*
X39000Y-22139D01*
X38790Y-22181D01*
X38613Y-22300D01*
X38500Y-22470D01*
X38386Y-22300D01*
X38209Y-22181D01*
X38000Y-22139D01*
X37790Y-22181D01*
X37613Y-22300D01*
X37500Y-22470D01*
X37386Y-22300D01*
X37209Y-22181D01*
X37000Y-22139D01*
X36790Y-22181D01*
X36613Y-22300D01*
X36500Y-22470D01*
X36386Y-22300D01*
X36209Y-22181D01*
X36000Y-22139D01*
X35790Y-22181D01*
X35613Y-22300D01*
X35495Y-22477D01*
X35453Y-22686D01*
X35453Y-23313D01*
X35495Y-23522D01*
X35613Y-23699D01*
X35790Y-23818D01*
X36000Y-23860D01*
X36209Y-23818D01*
X36386Y-23699D01*
X36500Y-23529D01*
X36613Y-23699D01*
X36790Y-23818D01*
X37000Y-23860D01*
X37209Y-23818D01*
X37386Y-23699D01*
X37500Y-23529D01*
X37613Y-23699D01*
X37790Y-23818D01*
X38000Y-23860D01*
X38209Y-23818D01*
X38386Y-23699D01*
X38500Y-23529D01*
X38613Y-23699D01*
X38790Y-23818D01*
X39000Y-23860D01*
X39209Y-23818D01*
X39386Y-23699D01*
X39504Y-23522D01*
X39505Y-23521D01*
X39514Y-23552D01*
X39648Y-23718D01*
X39837Y-23821D01*
X39865Y-23826D01*
X39950Y-23778D01*
X39950Y-24230D01*
X33400Y-24230D01*
X33400Y-21000D01*
X33400Y-17500D01*
X33362Y-17408D01*
X33291Y-17338D01*
X33199Y-17300D01*
X33100Y-17299D01*
X29600Y-17299D01*
X29508Y-17337D01*
X29438Y-17408D01*
X29400Y-17500D01*
X29399Y-17599D01*
X29399Y-21099D01*
X29437Y-21191D01*
X29508Y-21261D01*
X29600Y-21299D01*
X29699Y-21300D01*
X33199Y-21300D01*
X33291Y-21262D01*
X33361Y-21191D01*
X33399Y-21099D01*
X33400Y-21000D01*
X33400Y-24230D01*
X31546Y-24230D01*
X31546Y-23347D01*
X31546Y-23050D01*
X31546Y-22950D01*
X31546Y-22653D01*
X31485Y-22447D01*
X31351Y-22281D01*
X31162Y-22178D01*
X31134Y-22173D01*
X31050Y-22221D01*
X31050Y-22950D01*
X31546Y-22950D01*
X31546Y-23050D01*
X31050Y-23050D01*
X31050Y-23778D01*
X31134Y-23826D01*
X31162Y-23821D01*
X31351Y-23718D01*
X31485Y-23552D01*
X31546Y-23347D01*
X31546Y-24230D01*
X26050Y-24230D01*
X26050Y-22792D01*
X25890Y-22406D01*
X25595Y-22110D01*
X25209Y-21950D01*
X24792Y-21949D01*
X24406Y-22109D01*
X24110Y-22404D01*
X23950Y-22790D01*
X23949Y-23207D01*
X24109Y-23594D01*
X24404Y-23889D01*
X24790Y-24049D01*
X25207Y-24050D01*
X25594Y-23890D01*
X25889Y-23595D01*
X26049Y-23209D01*
X26050Y-22792D01*
X26050Y-24230D01*
X23769Y-24230D01*
X23769Y-6000D01*
X23769Y-5769D01*
X48230Y-5769D01*
X48230Y-6000D01*
X48230Y-24230D01*
M02*
