G04 (created by PCBNEW (2013-07-07 BZR 4022)-stable) date 10/7/2014 12:40:21 PM*
%MOIN*%
G04 Gerber Fmt 3.4, Leading zero omitted, Abs format*
%FSLAX34Y34*%
G01*
G70*
G90*
G04 APERTURE LIST*
%ADD10C,0.00590551*%
%ADD11C,0.011811*%
%ADD12C,0.00787402*%
%ADD13C,0.01*%
%ADD14C,0.0001*%
G04 APERTURE END LIST*
G54D10*
G54D11*
X47260Y-21706D02*
X47851Y-21706D01*
X47851Y-21566D01*
X47823Y-21482D01*
X47767Y-21425D01*
X47710Y-21397D01*
X47598Y-21369D01*
X47514Y-21369D01*
X47401Y-21397D01*
X47345Y-21425D01*
X47289Y-21482D01*
X47260Y-21566D01*
X47260Y-21706D01*
X47654Y-20863D02*
X47260Y-20863D01*
X47654Y-21116D02*
X47345Y-21116D01*
X47289Y-21088D01*
X47260Y-21032D01*
X47260Y-20947D01*
X47289Y-20891D01*
X47317Y-20863D01*
X47260Y-20329D02*
X47570Y-20329D01*
X47626Y-20357D01*
X47654Y-20413D01*
X47654Y-20525D01*
X47626Y-20582D01*
X47289Y-20329D02*
X47260Y-20385D01*
X47260Y-20525D01*
X47289Y-20582D01*
X47345Y-20610D01*
X47401Y-20610D01*
X47457Y-20582D01*
X47485Y-20525D01*
X47485Y-20385D01*
X47514Y-20329D01*
X47260Y-19963D02*
X47289Y-20019D01*
X47345Y-20047D01*
X47851Y-20047D01*
X47260Y-19288D02*
X47851Y-19288D01*
X47654Y-19007D02*
X47260Y-19007D01*
X47598Y-19007D02*
X47626Y-18979D01*
X47654Y-18922D01*
X47654Y-18838D01*
X47626Y-18782D01*
X47570Y-18754D01*
X47260Y-18754D01*
X47289Y-18501D02*
X47260Y-18444D01*
X47260Y-18332D01*
X47289Y-18276D01*
X47345Y-18248D01*
X47373Y-18248D01*
X47429Y-18276D01*
X47457Y-18332D01*
X47457Y-18416D01*
X47485Y-18473D01*
X47542Y-18501D01*
X47570Y-18501D01*
X47626Y-18473D01*
X47654Y-18416D01*
X47654Y-18332D01*
X47626Y-18276D01*
X47654Y-18079D02*
X47654Y-17854D01*
X47851Y-17994D02*
X47345Y-17994D01*
X47289Y-17966D01*
X47260Y-17910D01*
X47260Y-17854D01*
X47260Y-17657D02*
X47654Y-17657D01*
X47542Y-17657D02*
X47598Y-17629D01*
X47626Y-17601D01*
X47654Y-17544D01*
X47654Y-17488D01*
X47654Y-17038D02*
X47260Y-17038D01*
X47654Y-17291D02*
X47345Y-17291D01*
X47289Y-17263D01*
X47260Y-17207D01*
X47260Y-17123D01*
X47289Y-17066D01*
X47317Y-17038D01*
X47260Y-16757D02*
X47654Y-16757D01*
X47598Y-16757D02*
X47626Y-16729D01*
X47654Y-16673D01*
X47654Y-16588D01*
X47626Y-16532D01*
X47570Y-16504D01*
X47260Y-16504D01*
X47570Y-16504D02*
X47626Y-16476D01*
X47654Y-16420D01*
X47654Y-16335D01*
X47626Y-16279D01*
X47570Y-16251D01*
X47260Y-16251D01*
X47289Y-15745D02*
X47260Y-15801D01*
X47260Y-15913D01*
X47289Y-15970D01*
X47345Y-15998D01*
X47570Y-15998D01*
X47626Y-15970D01*
X47654Y-15913D01*
X47654Y-15801D01*
X47626Y-15745D01*
X47570Y-15717D01*
X47514Y-15717D01*
X47457Y-15998D01*
X47654Y-15464D02*
X47260Y-15464D01*
X47598Y-15464D02*
X47626Y-15435D01*
X47654Y-15379D01*
X47654Y-15295D01*
X47626Y-15239D01*
X47570Y-15210D01*
X47260Y-15210D01*
X47654Y-15014D02*
X47654Y-14789D01*
X47851Y-14929D02*
X47345Y-14929D01*
X47289Y-14901D01*
X47260Y-14845D01*
X47260Y-14789D01*
X47260Y-14339D02*
X47570Y-14339D01*
X47626Y-14367D01*
X47654Y-14423D01*
X47654Y-14535D01*
X47626Y-14592D01*
X47289Y-14339D02*
X47260Y-14395D01*
X47260Y-14535D01*
X47289Y-14592D01*
X47345Y-14620D01*
X47401Y-14620D01*
X47457Y-14592D01*
X47485Y-14535D01*
X47485Y-14395D01*
X47514Y-14339D01*
X47654Y-14142D02*
X47654Y-13917D01*
X47851Y-14057D02*
X47345Y-14057D01*
X47289Y-14029D01*
X47260Y-13973D01*
X47260Y-13917D01*
X47260Y-13720D02*
X47654Y-13720D01*
X47851Y-13720D02*
X47823Y-13748D01*
X47795Y-13720D01*
X47823Y-13692D01*
X47851Y-13720D01*
X47795Y-13720D01*
X47260Y-13354D02*
X47289Y-13411D01*
X47317Y-13439D01*
X47373Y-13467D01*
X47542Y-13467D01*
X47598Y-13439D01*
X47626Y-13411D01*
X47654Y-13354D01*
X47654Y-13270D01*
X47626Y-13214D01*
X47598Y-13186D01*
X47542Y-13158D01*
X47373Y-13158D01*
X47317Y-13186D01*
X47289Y-13214D01*
X47260Y-13270D01*
X47260Y-13354D01*
X47654Y-12904D02*
X47260Y-12904D01*
X47598Y-12904D02*
X47626Y-12876D01*
X47654Y-12820D01*
X47654Y-12736D01*
X47626Y-12679D01*
X47570Y-12651D01*
X47260Y-12651D01*
X47429Y-11948D02*
X47429Y-11667D01*
X47260Y-12005D02*
X47851Y-11808D01*
X47260Y-11611D01*
X47260Y-11414D02*
X47654Y-11414D01*
X47598Y-11414D02*
X47626Y-11386D01*
X47654Y-11330D01*
X47654Y-11245D01*
X47626Y-11189D01*
X47570Y-11161D01*
X47260Y-11161D01*
X47570Y-11161D02*
X47626Y-11133D01*
X47654Y-11077D01*
X47654Y-10992D01*
X47626Y-10936D01*
X47570Y-10908D01*
X47260Y-10908D01*
X47654Y-10627D02*
X47064Y-10627D01*
X47626Y-10627D02*
X47654Y-10570D01*
X47654Y-10458D01*
X47626Y-10402D01*
X47598Y-10374D01*
X47542Y-10345D01*
X47373Y-10345D01*
X47317Y-10374D01*
X47289Y-10402D01*
X47260Y-10458D01*
X47260Y-10570D01*
X47289Y-10627D01*
X47260Y-10008D02*
X47289Y-10064D01*
X47345Y-10092D01*
X47851Y-10092D01*
X47260Y-9783D02*
X47654Y-9783D01*
X47851Y-9783D02*
X47823Y-9811D01*
X47795Y-9783D01*
X47823Y-9755D01*
X47851Y-9783D01*
X47795Y-9783D01*
X47654Y-9586D02*
X47654Y-9361D01*
X47260Y-9502D02*
X47767Y-9502D01*
X47823Y-9474D01*
X47851Y-9417D01*
X47851Y-9361D01*
X47260Y-9164D02*
X47654Y-9164D01*
X47851Y-9164D02*
X47823Y-9192D01*
X47795Y-9164D01*
X47823Y-9136D01*
X47851Y-9164D01*
X47795Y-9164D01*
X47289Y-8658D02*
X47260Y-8714D01*
X47260Y-8827D01*
X47289Y-8883D01*
X47345Y-8911D01*
X47570Y-8911D01*
X47626Y-8883D01*
X47654Y-8827D01*
X47654Y-8714D01*
X47626Y-8658D01*
X47570Y-8630D01*
X47514Y-8630D01*
X47457Y-8911D01*
X47260Y-8377D02*
X47654Y-8377D01*
X47542Y-8377D02*
X47598Y-8349D01*
X47626Y-8321D01*
X47654Y-8264D01*
X47654Y-8208D01*
G54D12*
X27500Y-22150D02*
X27500Y-22600D01*
X30500Y-22150D02*
X30500Y-22600D01*
X27500Y-22150D02*
X30500Y-22150D01*
G54D13*
X27059Y-20921D02*
X27059Y-21226D01*
X26811Y-21359D02*
X27211Y-21492D01*
X26811Y-21626D01*
X27211Y-21759D02*
X26811Y-21759D01*
X27211Y-21950D02*
X26811Y-21950D01*
X27211Y-22178D01*
X26811Y-22178D01*
X29059Y-19442D02*
X29059Y-19747D01*
X29211Y-20147D02*
X29211Y-19919D01*
X29211Y-20033D02*
X28811Y-20033D01*
X28869Y-19995D01*
X28907Y-19957D01*
X28926Y-19919D01*
X28811Y-20509D02*
X28811Y-20319D01*
X29002Y-20300D01*
X28983Y-20319D01*
X28964Y-20357D01*
X28964Y-20452D01*
X28983Y-20490D01*
X29002Y-20509D01*
X29040Y-20528D01*
X29135Y-20528D01*
X29173Y-20509D01*
X29192Y-20490D01*
X29211Y-20452D01*
X29211Y-20357D01*
X29192Y-20319D01*
X29173Y-20300D01*
X28811Y-20947D02*
X29211Y-21080D01*
X28811Y-21214D01*
X29211Y-21347D02*
X28811Y-21347D01*
X28811Y-21442D01*
X28830Y-21500D01*
X28869Y-21538D01*
X28907Y-21557D01*
X28983Y-21576D01*
X29040Y-21576D01*
X29116Y-21557D01*
X29154Y-21538D01*
X29192Y-21500D01*
X29211Y-21442D01*
X29211Y-21347D01*
X29173Y-21976D02*
X29192Y-21957D01*
X29211Y-21900D01*
X29211Y-21861D01*
X29192Y-21804D01*
X29154Y-21766D01*
X29116Y-21747D01*
X29040Y-21728D01*
X28983Y-21728D01*
X28907Y-21747D01*
X28869Y-21766D01*
X28830Y-21804D01*
X28811Y-21861D01*
X28811Y-21900D01*
X28830Y-21957D01*
X28850Y-21976D01*
X30830Y-21345D02*
X30811Y-21307D01*
X30811Y-21250D01*
X30830Y-21192D01*
X30869Y-21154D01*
X30907Y-21135D01*
X30983Y-21116D01*
X31040Y-21116D01*
X31116Y-21135D01*
X31154Y-21154D01*
X31192Y-21192D01*
X31211Y-21250D01*
X31211Y-21288D01*
X31192Y-21345D01*
X31173Y-21364D01*
X31040Y-21364D01*
X31040Y-21288D01*
X31211Y-21535D02*
X30811Y-21535D01*
X31211Y-21764D01*
X30811Y-21764D01*
X31211Y-21954D02*
X30811Y-21954D01*
X30811Y-22050D01*
X30830Y-22107D01*
X30869Y-22145D01*
X30907Y-22164D01*
X30983Y-22183D01*
X31040Y-22183D01*
X31116Y-22164D01*
X31154Y-22145D01*
X31192Y-22107D01*
X31211Y-22050D01*
X31211Y-21954D01*
X30830Y-8095D02*
X30811Y-8057D01*
X30811Y-8000D01*
X30830Y-7942D01*
X30869Y-7904D01*
X30907Y-7885D01*
X30983Y-7866D01*
X31040Y-7866D01*
X31116Y-7885D01*
X31154Y-7904D01*
X31192Y-7942D01*
X31211Y-8000D01*
X31211Y-8038D01*
X31192Y-8095D01*
X31173Y-8114D01*
X31040Y-8114D01*
X31040Y-8038D01*
X31211Y-8285D02*
X30811Y-8285D01*
X31211Y-8514D01*
X30811Y-8514D01*
X31211Y-8704D02*
X30811Y-8704D01*
X30811Y-8800D01*
X30830Y-8857D01*
X30869Y-8895D01*
X30907Y-8914D01*
X30983Y-8933D01*
X31040Y-8933D01*
X31116Y-8914D01*
X31154Y-8895D01*
X31192Y-8857D01*
X31211Y-8800D01*
X31211Y-8704D01*
G54D12*
X27500Y-7600D02*
X27500Y-7550D01*
X27500Y-7600D02*
X27500Y-7700D01*
X30500Y-7850D02*
X30500Y-7400D01*
X27500Y-7850D02*
X30500Y-7850D01*
X27500Y-7500D02*
X27500Y-7850D01*
G54D13*
X29059Y-8042D02*
X29059Y-8347D01*
X29211Y-8195D02*
X28907Y-8195D01*
X29211Y-8747D02*
X29211Y-8519D01*
X29211Y-8633D02*
X28811Y-8633D01*
X28869Y-8595D01*
X28907Y-8557D01*
X28926Y-8519D01*
X28811Y-9109D02*
X28811Y-8919D01*
X29002Y-8900D01*
X28983Y-8919D01*
X28964Y-8957D01*
X28964Y-9052D01*
X28983Y-9090D01*
X29002Y-9109D01*
X29040Y-9128D01*
X29135Y-9128D01*
X29173Y-9109D01*
X29192Y-9090D01*
X29211Y-9052D01*
X29211Y-8957D01*
X29192Y-8919D01*
X29173Y-8900D01*
X28811Y-9547D02*
X29211Y-9680D01*
X28811Y-9814D01*
X29211Y-9947D02*
X28811Y-9947D01*
X28811Y-10042D01*
X28830Y-10100D01*
X28869Y-10138D01*
X28907Y-10157D01*
X28983Y-10176D01*
X29040Y-10176D01*
X29116Y-10157D01*
X29154Y-10138D01*
X29192Y-10100D01*
X29211Y-10042D01*
X29211Y-9947D01*
X29173Y-10576D02*
X29192Y-10557D01*
X29211Y-10500D01*
X29211Y-10461D01*
X29192Y-10404D01*
X29154Y-10366D01*
X29116Y-10347D01*
X29040Y-10328D01*
X28983Y-10328D01*
X28907Y-10347D01*
X28869Y-10366D01*
X28830Y-10404D01*
X28811Y-10461D01*
X28811Y-10500D01*
X28830Y-10557D01*
X28850Y-10576D01*
X26959Y-7821D02*
X26959Y-8126D01*
X27111Y-7973D02*
X26807Y-7973D01*
X26711Y-8259D02*
X27111Y-8392D01*
X26711Y-8526D01*
X27111Y-8659D02*
X26711Y-8659D01*
X27111Y-8850D02*
X26711Y-8850D01*
X27111Y-9078D01*
X26711Y-9078D01*
X39780Y-8195D02*
X39761Y-8157D01*
X39761Y-8100D01*
X39780Y-8042D01*
X39819Y-8004D01*
X39857Y-7985D01*
X39933Y-7966D01*
X39990Y-7966D01*
X40066Y-7985D01*
X40104Y-8004D01*
X40142Y-8042D01*
X40161Y-8100D01*
X40161Y-8138D01*
X40142Y-8195D01*
X40123Y-8214D01*
X39990Y-8214D01*
X39990Y-8138D01*
X40161Y-8385D02*
X39761Y-8385D01*
X40161Y-8614D01*
X39761Y-8614D01*
X40161Y-8804D02*
X39761Y-8804D01*
X39761Y-8900D01*
X39780Y-8957D01*
X39819Y-8995D01*
X39857Y-9014D01*
X39933Y-9033D01*
X39990Y-9033D01*
X40066Y-9014D01*
X40104Y-8995D01*
X40142Y-8957D01*
X40161Y-8900D01*
X40161Y-8804D01*
X38959Y-7892D02*
X38959Y-8197D01*
X38711Y-8464D02*
X38711Y-8540D01*
X38730Y-8578D01*
X38769Y-8616D01*
X38845Y-8635D01*
X38978Y-8635D01*
X39054Y-8616D01*
X39092Y-8578D01*
X39111Y-8540D01*
X39111Y-8464D01*
X39092Y-8426D01*
X39054Y-8388D01*
X38978Y-8369D01*
X38845Y-8369D01*
X38769Y-8388D01*
X38730Y-8426D01*
X38711Y-8464D01*
X38845Y-8978D02*
X39111Y-8978D01*
X38845Y-8807D02*
X39054Y-8807D01*
X39092Y-8826D01*
X39111Y-8864D01*
X39111Y-8921D01*
X39092Y-8959D01*
X39073Y-8978D01*
X38845Y-9111D02*
X38845Y-9264D01*
X38711Y-9169D02*
X39054Y-9169D01*
X39092Y-9188D01*
X39111Y-9226D01*
X39111Y-9264D01*
X38009Y-7842D02*
X38009Y-8147D01*
X38161Y-7995D02*
X37857Y-7995D01*
X37761Y-8414D02*
X37761Y-8490D01*
X37780Y-8528D01*
X37819Y-8566D01*
X37895Y-8585D01*
X38028Y-8585D01*
X38104Y-8566D01*
X38142Y-8528D01*
X38161Y-8490D01*
X38161Y-8414D01*
X38142Y-8376D01*
X38104Y-8338D01*
X38028Y-8319D01*
X37895Y-8319D01*
X37819Y-8338D01*
X37780Y-8376D01*
X37761Y-8414D01*
X37895Y-8928D02*
X38161Y-8928D01*
X37895Y-8757D02*
X38104Y-8757D01*
X38142Y-8776D01*
X38161Y-8814D01*
X38161Y-8871D01*
X38142Y-8909D01*
X38123Y-8928D01*
X37895Y-9061D02*
X37895Y-9214D01*
X37761Y-9119D02*
X38104Y-9119D01*
X38142Y-9138D01*
X38161Y-9176D01*
X38161Y-9214D01*
X37009Y-7871D02*
X37009Y-8176D01*
X37161Y-8023D02*
X36857Y-8023D01*
X37161Y-8366D02*
X36761Y-8366D01*
X36895Y-8557D02*
X37161Y-8557D01*
X36933Y-8557D02*
X36914Y-8576D01*
X36895Y-8614D01*
X36895Y-8671D01*
X36914Y-8709D01*
X36952Y-8728D01*
X37161Y-8728D01*
X35959Y-7821D02*
X35959Y-8126D01*
X36111Y-8316D02*
X35711Y-8316D01*
X35845Y-8507D02*
X36111Y-8507D01*
X35883Y-8507D02*
X35864Y-8526D01*
X35845Y-8564D01*
X35845Y-8621D01*
X35864Y-8659D01*
X35902Y-8678D01*
X36111Y-8678D01*
X39780Y-21345D02*
X39761Y-21307D01*
X39761Y-21250D01*
X39780Y-21192D01*
X39819Y-21154D01*
X39857Y-21135D01*
X39933Y-21116D01*
X39990Y-21116D01*
X40066Y-21135D01*
X40104Y-21154D01*
X40142Y-21192D01*
X40161Y-21250D01*
X40161Y-21288D01*
X40142Y-21345D01*
X40123Y-21364D01*
X39990Y-21364D01*
X39990Y-21288D01*
X40161Y-21535D02*
X39761Y-21535D01*
X40161Y-21764D01*
X39761Y-21764D01*
X40161Y-21954D02*
X39761Y-21954D01*
X39761Y-22050D01*
X39780Y-22107D01*
X39819Y-22145D01*
X39857Y-22164D01*
X39933Y-22183D01*
X39990Y-22183D01*
X40066Y-22164D01*
X40104Y-22145D01*
X40142Y-22107D01*
X40161Y-22050D01*
X40161Y-21954D01*
X39059Y-20792D02*
X39059Y-21097D01*
X38811Y-21364D02*
X38811Y-21440D01*
X38830Y-21478D01*
X38869Y-21516D01*
X38945Y-21535D01*
X39078Y-21535D01*
X39154Y-21516D01*
X39192Y-21478D01*
X39211Y-21440D01*
X39211Y-21364D01*
X39192Y-21326D01*
X39154Y-21288D01*
X39078Y-21269D01*
X38945Y-21269D01*
X38869Y-21288D01*
X38830Y-21326D01*
X38811Y-21364D01*
X38945Y-21878D02*
X39211Y-21878D01*
X38945Y-21707D02*
X39154Y-21707D01*
X39192Y-21726D01*
X39211Y-21764D01*
X39211Y-21821D01*
X39192Y-21859D01*
X39173Y-21878D01*
X38945Y-22011D02*
X38945Y-22164D01*
X38811Y-22069D02*
X39154Y-22069D01*
X39192Y-22088D01*
X39211Y-22126D01*
X39211Y-22164D01*
X38059Y-20792D02*
X38059Y-21097D01*
X38211Y-20945D02*
X37907Y-20945D01*
X37811Y-21364D02*
X37811Y-21440D01*
X37830Y-21478D01*
X37869Y-21516D01*
X37945Y-21535D01*
X38078Y-21535D01*
X38154Y-21516D01*
X38192Y-21478D01*
X38211Y-21440D01*
X38211Y-21364D01*
X38192Y-21326D01*
X38154Y-21288D01*
X38078Y-21269D01*
X37945Y-21269D01*
X37869Y-21288D01*
X37830Y-21326D01*
X37811Y-21364D01*
X37945Y-21878D02*
X38211Y-21878D01*
X37945Y-21707D02*
X38154Y-21707D01*
X38192Y-21726D01*
X38211Y-21764D01*
X38211Y-21821D01*
X38192Y-21859D01*
X38173Y-21878D01*
X37945Y-22011D02*
X37945Y-22164D01*
X37811Y-22069D02*
X38154Y-22069D01*
X38192Y-22088D01*
X38211Y-22126D01*
X38211Y-22164D01*
X35959Y-21271D02*
X35959Y-21576D01*
X36111Y-21766D02*
X35711Y-21766D01*
X35845Y-21957D02*
X36111Y-21957D01*
X35883Y-21957D02*
X35864Y-21976D01*
X35845Y-22014D01*
X35845Y-22071D01*
X35864Y-22109D01*
X35902Y-22128D01*
X36111Y-22128D01*
X37009Y-21321D02*
X37009Y-21626D01*
X37161Y-21473D02*
X36857Y-21473D01*
X37161Y-21816D02*
X36761Y-21816D01*
X36895Y-22007D02*
X37161Y-22007D01*
X36933Y-22007D02*
X36914Y-22026D01*
X36895Y-22064D01*
X36895Y-22121D01*
X36914Y-22159D01*
X36952Y-22178D01*
X37161Y-22178D01*
G54D14*
G36*
X33798Y-17120D02*
X33775Y-17246D01*
X33707Y-17323D01*
X33677Y-17330D01*
X33677Y-17116D01*
X33676Y-17104D01*
X33664Y-17014D01*
X33637Y-16974D01*
X33600Y-16967D01*
X33554Y-16980D01*
X33530Y-17032D01*
X33522Y-17096D01*
X33529Y-17205D01*
X33568Y-17261D01*
X33638Y-17260D01*
X33640Y-17259D01*
X33672Y-17215D01*
X33677Y-17116D01*
X33677Y-17330D01*
X33596Y-17350D01*
X33593Y-17350D01*
X33531Y-17369D01*
X33519Y-17413D01*
X33558Y-17456D01*
X33583Y-17467D01*
X33671Y-17474D01*
X33716Y-17467D01*
X33770Y-17464D01*
X33783Y-17498D01*
X33754Y-17533D01*
X33684Y-17549D01*
X33594Y-17547D01*
X33507Y-17525D01*
X33464Y-17503D01*
X33432Y-17469D01*
X33412Y-17418D01*
X33402Y-17332D01*
X33400Y-17197D01*
X33400Y-17178D01*
X33400Y-17042D01*
X33406Y-16959D01*
X33420Y-16915D01*
X33446Y-16897D01*
X33483Y-16890D01*
X33631Y-16885D01*
X33727Y-16915D01*
X33780Y-16985D01*
X33798Y-17102D01*
X33798Y-17120D01*
X33798Y-17120D01*
X33798Y-17120D01*
G37*
G36*
X26819Y-16888D02*
X26809Y-17110D01*
X26800Y-17235D01*
X26784Y-17305D01*
X26759Y-17332D01*
X26750Y-17333D01*
X26716Y-17313D01*
X26700Y-17244D01*
X26696Y-17180D01*
X26686Y-17051D01*
X26659Y-16978D01*
X26612Y-16951D01*
X26599Y-16950D01*
X26569Y-16974D01*
X26550Y-17051D01*
X26543Y-17139D01*
X26528Y-17253D01*
X26502Y-17327D01*
X26469Y-17351D01*
X26436Y-17318D01*
X26429Y-17301D01*
X26416Y-17215D01*
X26424Y-17105D01*
X26447Y-16996D01*
X26483Y-16915D01*
X26501Y-16895D01*
X26561Y-16869D01*
X26593Y-16873D01*
X26648Y-16887D01*
X26722Y-16890D01*
X26819Y-16888D01*
X26819Y-16888D01*
X26819Y-16888D01*
G37*
G36*
X27316Y-17063D02*
X27311Y-17176D01*
X27264Y-17276D01*
X27204Y-17321D01*
X27204Y-17079D01*
X27172Y-17002D01*
X27120Y-16959D01*
X27089Y-16956D01*
X27047Y-16994D01*
X27023Y-17070D01*
X27022Y-17156D01*
X27045Y-17228D01*
X27050Y-17233D01*
X27107Y-17264D01*
X27164Y-17239D01*
X27203Y-17166D01*
X27204Y-17079D01*
X27204Y-17321D01*
X27187Y-17334D01*
X27087Y-17349D01*
X26992Y-17317D01*
X26969Y-17298D01*
X26904Y-17196D01*
X26889Y-17087D01*
X26920Y-16988D01*
X26993Y-16916D01*
X27079Y-16889D01*
X27192Y-16905D01*
X27274Y-16968D01*
X27316Y-17063D01*
X27316Y-17063D01*
X27316Y-17063D01*
G37*
G36*
X27489Y-16925D02*
X27486Y-16969D01*
X27483Y-17059D01*
X27483Y-17150D01*
X27477Y-17275D01*
X27460Y-17339D01*
X27428Y-17345D01*
X27405Y-17328D01*
X27394Y-17285D01*
X27386Y-17196D01*
X27383Y-17092D01*
X27385Y-16975D01*
X27395Y-16912D01*
X27416Y-16889D01*
X27439Y-16889D01*
X27484Y-16910D01*
X27489Y-16925D01*
X27489Y-16925D01*
X27489Y-16925D01*
G37*
G36*
X27877Y-16902D02*
X27872Y-16942D01*
X27835Y-16973D01*
X27802Y-17025D01*
X27780Y-17125D01*
X27777Y-17167D01*
X27768Y-17266D01*
X27749Y-17316D01*
X27709Y-17337D01*
X27658Y-17344D01*
X27580Y-17342D01*
X27551Y-17314D01*
X27550Y-17300D01*
X27575Y-17259D01*
X27608Y-17257D01*
X27647Y-17249D01*
X27668Y-17201D01*
X27676Y-17129D01*
X27677Y-17039D01*
X27658Y-16993D01*
X27615Y-16973D01*
X27568Y-16942D01*
X27575Y-16904D01*
X27629Y-16883D01*
X27635Y-16883D01*
X27677Y-16856D01*
X27683Y-16831D01*
X27707Y-16791D01*
X27741Y-16791D01*
X27786Y-16820D01*
X27791Y-16843D01*
X27810Y-16878D01*
X27833Y-16883D01*
X27877Y-16902D01*
X27877Y-16902D01*
X27877Y-16902D01*
G37*
G36*
X28265Y-17239D02*
X28254Y-17270D01*
X28221Y-17319D01*
X28169Y-17340D01*
X28143Y-17340D01*
X28143Y-17222D01*
X28138Y-17169D01*
X28103Y-17123D01*
X28083Y-17117D01*
X28040Y-17142D01*
X28025Y-17197D01*
X28046Y-17247D01*
X28053Y-17252D01*
X28110Y-17261D01*
X28143Y-17222D01*
X28143Y-17340D01*
X28075Y-17342D01*
X28067Y-17342D01*
X27916Y-17335D01*
X27916Y-17149D01*
X27923Y-17039D01*
X27940Y-16954D01*
X27956Y-16923D01*
X28009Y-16897D01*
X28087Y-16884D01*
X28166Y-16885D01*
X28226Y-16898D01*
X28242Y-16924D01*
X28202Y-16953D01*
X28133Y-16965D01*
X28060Y-16979D01*
X28025Y-17008D01*
X28042Y-17040D01*
X28112Y-17050D01*
X28211Y-17076D01*
X28265Y-17144D01*
X28265Y-17239D01*
X28265Y-17239D01*
X28265Y-17239D01*
G37*
G36*
X28616Y-16933D02*
X28598Y-16978D01*
X28583Y-16983D01*
X28563Y-17013D01*
X28551Y-17088D01*
X28550Y-17127D01*
X28541Y-17225D01*
X28519Y-17297D01*
X28510Y-17310D01*
X28449Y-17343D01*
X28379Y-17348D01*
X28327Y-17326D01*
X28316Y-17300D01*
X28344Y-17259D01*
X28383Y-17250D01*
X28427Y-17238D01*
X28446Y-17192D01*
X28450Y-17120D01*
X28441Y-17030D01*
X28411Y-16985D01*
X28383Y-16974D01*
X28329Y-16944D01*
X28316Y-16920D01*
X28344Y-16890D01*
X28383Y-16883D01*
X28437Y-16862D01*
X28450Y-16833D01*
X28476Y-16789D01*
X28500Y-16783D01*
X28544Y-16810D01*
X28550Y-16833D01*
X28567Y-16878D01*
X28583Y-16883D01*
X28612Y-16910D01*
X28616Y-16933D01*
X28616Y-16933D01*
X28616Y-16933D01*
G37*
G36*
X29033Y-17117D02*
X29029Y-17238D01*
X29018Y-17306D01*
X28994Y-17332D01*
X28983Y-17333D01*
X28950Y-17312D01*
X28928Y-17240D01*
X28916Y-17150D01*
X28903Y-17043D01*
X28883Y-16987D01*
X28851Y-16968D01*
X28833Y-16967D01*
X28794Y-16975D01*
X28772Y-17011D01*
X28761Y-17090D01*
X28756Y-17158D01*
X28745Y-17279D01*
X28724Y-17340D01*
X28693Y-17344D01*
X28672Y-17328D01*
X28659Y-17284D01*
X28651Y-17197D01*
X28650Y-17144D01*
X28666Y-17018D01*
X28709Y-16923D01*
X28771Y-16871D01*
X28835Y-16872D01*
X28914Y-16891D01*
X28961Y-16896D01*
X29000Y-16904D01*
X29021Y-16932D01*
X29031Y-16997D01*
X29033Y-17112D01*
X29033Y-17117D01*
X29033Y-17117D01*
X29033Y-17117D01*
G37*
G36*
X29513Y-17074D02*
X29505Y-17187D01*
X29448Y-17280D01*
X29350Y-17338D01*
X29268Y-17350D01*
X29185Y-17341D01*
X29135Y-17319D01*
X29133Y-17316D01*
X29140Y-17282D01*
X29182Y-17256D01*
X29229Y-17255D01*
X29239Y-17261D01*
X29282Y-17265D01*
X29337Y-17235D01*
X29377Y-17188D01*
X29383Y-17165D01*
X29383Y-17018D01*
X29359Y-16972D01*
X29305Y-16966D01*
X29256Y-16996D01*
X29224Y-17035D01*
X29244Y-17048D01*
X29292Y-17050D01*
X29358Y-17040D01*
X29383Y-17018D01*
X29383Y-17165D01*
X29359Y-17131D01*
X29283Y-17117D01*
X29250Y-17117D01*
X29153Y-17104D01*
X29115Y-17063D01*
X29132Y-16986D01*
X29151Y-16948D01*
X29212Y-16896D01*
X29302Y-16881D01*
X29395Y-16902D01*
X29464Y-16957D01*
X29513Y-17074D01*
X29513Y-17074D01*
X29513Y-17074D01*
G37*
G36*
X30219Y-16898D02*
X30209Y-17113D01*
X30197Y-17244D01*
X30175Y-17323D01*
X30158Y-17342D01*
X30131Y-17328D01*
X30118Y-17259D01*
X30116Y-17190D01*
X30104Y-17058D01*
X30067Y-16984D01*
X30065Y-16982D01*
X30011Y-16958D01*
X29973Y-16992D01*
X29950Y-17088D01*
X29943Y-17164D01*
X29927Y-17278D01*
X29902Y-17337D01*
X29876Y-17339D01*
X29856Y-17282D01*
X29850Y-17190D01*
X29837Y-17058D01*
X29800Y-16984D01*
X29798Y-16982D01*
X29744Y-16958D01*
X29707Y-16992D01*
X29684Y-17088D01*
X29676Y-17164D01*
X29662Y-17269D01*
X29636Y-17333D01*
X29623Y-17342D01*
X29600Y-17334D01*
X29589Y-17285D01*
X29588Y-17183D01*
X29590Y-17128D01*
X29596Y-17008D01*
X29607Y-16938D01*
X29629Y-16905D01*
X29669Y-16892D01*
X29693Y-16889D01*
X29778Y-16894D01*
X29832Y-16916D01*
X29881Y-16934D01*
X29898Y-16919D01*
X29941Y-16900D01*
X30026Y-16891D01*
X30069Y-16891D01*
X30219Y-16898D01*
X30219Y-16898D01*
X30219Y-16898D01*
G37*
G36*
X30683Y-17082D02*
X30679Y-17200D01*
X30663Y-17269D01*
X30631Y-17307D01*
X30618Y-17315D01*
X30504Y-17348D01*
X30403Y-17324D01*
X30369Y-17297D01*
X30337Y-17237D01*
X30318Y-17145D01*
X30313Y-17044D01*
X30322Y-16953D01*
X30345Y-16895D01*
X30366Y-16883D01*
X30398Y-16902D01*
X30413Y-16965D01*
X30416Y-17043D01*
X30429Y-17174D01*
X30465Y-17249D01*
X30523Y-17264D01*
X30537Y-17260D01*
X30568Y-17216D01*
X30582Y-17111D01*
X30583Y-17063D01*
X30587Y-16954D01*
X30604Y-16898D01*
X30633Y-16883D01*
X30662Y-16899D01*
X30678Y-16953D01*
X30683Y-17060D01*
X30683Y-17082D01*
X30683Y-17082D01*
X30683Y-17082D01*
G37*
G36*
X30980Y-16963D02*
X30978Y-17064D01*
X30976Y-17106D01*
X30964Y-17238D01*
X30943Y-17319D01*
X30919Y-17346D01*
X30897Y-17315D01*
X30880Y-17223D01*
X30876Y-17177D01*
X30865Y-17068D01*
X30842Y-17005D01*
X30800Y-16971D01*
X30791Y-16967D01*
X30741Y-16929D01*
X30731Y-16892D01*
X30763Y-16876D01*
X30787Y-16880D01*
X30856Y-16888D01*
X30909Y-16888D01*
X30950Y-16890D01*
X30972Y-16910D01*
X30980Y-16963D01*
X30980Y-16963D01*
X30980Y-16963D01*
G37*
G36*
X31350Y-16933D02*
X31332Y-16978D01*
X31316Y-16983D01*
X31296Y-17013D01*
X31284Y-17088D01*
X31283Y-17127D01*
X31274Y-17225D01*
X31252Y-17297D01*
X31243Y-17310D01*
X31182Y-17343D01*
X31112Y-17348D01*
X31061Y-17326D01*
X31050Y-17300D01*
X31077Y-17259D01*
X31116Y-17250D01*
X31160Y-17239D01*
X31179Y-17193D01*
X31183Y-17117D01*
X31177Y-17029D01*
X31155Y-16991D01*
X31116Y-16983D01*
X31062Y-16962D01*
X31050Y-16933D01*
X31077Y-16892D01*
X31116Y-16883D01*
X31170Y-16862D01*
X31183Y-16833D01*
X31210Y-16789D01*
X31233Y-16783D01*
X31277Y-16810D01*
X31283Y-16833D01*
X31301Y-16878D01*
X31316Y-16883D01*
X31346Y-16910D01*
X31350Y-16933D01*
X31350Y-16933D01*
X31350Y-16933D01*
G37*
G36*
X31683Y-17298D02*
X31656Y-17337D01*
X31590Y-17351D01*
X31507Y-17342D01*
X31431Y-17310D01*
X31402Y-17286D01*
X31368Y-17208D01*
X31393Y-17129D01*
X31469Y-17064D01*
X31504Y-17048D01*
X31559Y-17009D01*
X31557Y-16972D01*
X31502Y-16955D01*
X31475Y-16957D01*
X31413Y-16947D01*
X31391Y-16923D01*
X31405Y-16894D01*
X31460Y-16885D01*
X31535Y-16894D01*
X31608Y-16917D01*
X31659Y-16953D01*
X31663Y-16958D01*
X31678Y-17035D01*
X31640Y-17103D01*
X31561Y-17143D01*
X31554Y-17144D01*
X31498Y-17171D01*
X31483Y-17202D01*
X31500Y-17242D01*
X31561Y-17255D01*
X31625Y-17252D01*
X31674Y-17270D01*
X31683Y-17298D01*
X31683Y-17298D01*
X31683Y-17298D01*
G37*
G36*
X32133Y-16901D02*
X32126Y-17100D01*
X32122Y-17211D01*
X32119Y-17295D01*
X32118Y-17328D01*
X32092Y-17345D01*
X32075Y-17342D01*
X32048Y-17303D01*
X32025Y-17217D01*
X32016Y-17147D01*
X32003Y-17041D01*
X31983Y-16987D01*
X31949Y-16968D01*
X31933Y-16967D01*
X31894Y-16975D01*
X31872Y-17011D01*
X31861Y-17090D01*
X31856Y-17158D01*
X31845Y-17279D01*
X31824Y-17340D01*
X31793Y-17344D01*
X31772Y-17328D01*
X31753Y-17274D01*
X31748Y-17181D01*
X31754Y-17074D01*
X31769Y-16979D01*
X31793Y-16922D01*
X31796Y-16919D01*
X31857Y-16897D01*
X31953Y-16889D01*
X31988Y-16891D01*
X32133Y-16901D01*
X32133Y-16901D01*
X32133Y-16901D01*
G37*
G36*
X32345Y-16839D02*
X32344Y-16966D01*
X32342Y-17022D01*
X32333Y-17191D01*
X32317Y-17297D01*
X32294Y-17341D01*
X32291Y-17342D01*
X32271Y-17331D01*
X32258Y-17278D01*
X32251Y-17173D01*
X32250Y-17036D01*
X32251Y-16885D01*
X32257Y-16789D01*
X32270Y-16737D01*
X32291Y-16718D01*
X32301Y-16717D01*
X32325Y-16726D01*
X32339Y-16763D01*
X32345Y-16839D01*
X32345Y-16839D01*
X32345Y-16839D01*
G37*
G36*
X33145Y-17168D02*
X33127Y-17250D01*
X33089Y-17295D01*
X33017Y-17332D01*
X33016Y-17332D01*
X33016Y-17182D01*
X33000Y-17115D01*
X32977Y-17110D01*
X32977Y-16875D01*
X32956Y-16816D01*
X32933Y-16800D01*
X32903Y-16828D01*
X32889Y-16875D01*
X32897Y-16936D01*
X32933Y-16950D01*
X32974Y-16927D01*
X32977Y-16875D01*
X32977Y-17110D01*
X32955Y-17107D01*
X32897Y-17153D01*
X32858Y-17206D01*
X32867Y-17239D01*
X32881Y-17249D01*
X32952Y-17264D01*
X33004Y-17229D01*
X33016Y-17182D01*
X33016Y-17332D01*
X32925Y-17348D01*
X32842Y-17341D01*
X32798Y-17314D01*
X32764Y-17295D01*
X32739Y-17314D01*
X32686Y-17344D01*
X32636Y-17346D01*
X32616Y-17323D01*
X32637Y-17279D01*
X32656Y-17256D01*
X32679Y-17211D01*
X32656Y-17177D01*
X32622Y-17116D01*
X32621Y-17054D01*
X32652Y-17018D01*
X32664Y-17017D01*
X32711Y-17044D01*
X32734Y-17086D01*
X32755Y-17133D01*
X32785Y-17126D01*
X32816Y-17100D01*
X32857Y-17056D01*
X32851Y-17021D01*
X32813Y-16980D01*
X32756Y-16890D01*
X32758Y-16805D01*
X32814Y-16742D01*
X32916Y-16717D01*
X32920Y-16717D01*
X33009Y-16737D01*
X33082Y-16787D01*
X33116Y-16849D01*
X33116Y-16854D01*
X33102Y-16908D01*
X33080Y-16955D01*
X33063Y-17023D01*
X33097Y-17080D01*
X33145Y-17168D01*
X33145Y-17168D01*
X33145Y-17168D01*
G37*
G36*
X34252Y-16894D02*
X34243Y-17111D01*
X34230Y-17243D01*
X34209Y-17322D01*
X34191Y-17342D01*
X34164Y-17328D01*
X34151Y-17259D01*
X34150Y-17190D01*
X34137Y-17058D01*
X34100Y-16984D01*
X34098Y-16982D01*
X34044Y-16958D01*
X34007Y-16992D01*
X33984Y-17088D01*
X33976Y-17164D01*
X33962Y-17269D01*
X33936Y-17333D01*
X33923Y-17342D01*
X33900Y-17334D01*
X33889Y-17285D01*
X33888Y-17183D01*
X33890Y-17128D01*
X33900Y-16900D01*
X34076Y-16897D01*
X34252Y-16894D01*
X34252Y-16894D01*
X34252Y-16894D01*
G37*
G36*
X34450Y-17117D02*
X34445Y-17253D01*
X34431Y-17329D01*
X34404Y-17349D01*
X34372Y-17328D01*
X34360Y-17285D01*
X34352Y-17196D01*
X34350Y-17094D01*
X34353Y-16975D01*
X34365Y-16909D01*
X34390Y-16884D01*
X34400Y-16883D01*
X34427Y-16897D01*
X34442Y-16946D01*
X34449Y-17043D01*
X34450Y-17117D01*
X34450Y-17117D01*
X34450Y-17117D01*
G37*
G36*
X34848Y-16937D02*
X34833Y-16957D01*
X34808Y-16968D01*
X34767Y-17006D01*
X34751Y-17089D01*
X34750Y-17130D01*
X34740Y-17227D01*
X34718Y-17298D01*
X34710Y-17310D01*
X34648Y-17343D01*
X34578Y-17348D01*
X34527Y-17325D01*
X34516Y-17298D01*
X34542Y-17259D01*
X34575Y-17257D01*
X34614Y-17249D01*
X34635Y-17201D01*
X34643Y-17129D01*
X34644Y-17038D01*
X34624Y-16993D01*
X34585Y-16974D01*
X34527Y-16942D01*
X34522Y-16905D01*
X34570Y-16884D01*
X34583Y-16883D01*
X34637Y-16862D01*
X34650Y-16833D01*
X34676Y-16789D01*
X34700Y-16783D01*
X34744Y-16804D01*
X34750Y-16821D01*
X34774Y-16870D01*
X34808Y-16902D01*
X34848Y-16937D01*
X34848Y-16937D01*
X34848Y-16937D01*
G37*
G36*
X34978Y-16927D02*
X34976Y-17005D01*
X34967Y-17178D01*
X34952Y-17288D01*
X34930Y-17338D01*
X34925Y-17342D01*
X34905Y-17331D01*
X34892Y-17279D01*
X34885Y-17176D01*
X34883Y-17019D01*
X34884Y-16864D01*
X34890Y-16764D01*
X34902Y-16708D01*
X34921Y-16685D01*
X34934Y-16683D01*
X34958Y-16693D01*
X34972Y-16729D01*
X34978Y-16803D01*
X34978Y-16927D01*
X34978Y-16927D01*
X34978Y-16927D01*
G37*
G36*
X35450Y-17040D02*
X35438Y-17159D01*
X35409Y-17256D01*
X35398Y-17276D01*
X35319Y-17338D01*
X35223Y-17349D01*
X35133Y-17309D01*
X35098Y-17269D01*
X35067Y-17190D01*
X35054Y-17092D01*
X35059Y-16997D01*
X35081Y-16926D01*
X35116Y-16900D01*
X35149Y-16920D01*
X35168Y-16988D01*
X35176Y-17075D01*
X35186Y-17179D01*
X35205Y-17232D01*
X35238Y-17249D01*
X35250Y-17250D01*
X35288Y-17239D01*
X35309Y-17196D01*
X35321Y-17106D01*
X35323Y-17075D01*
X35334Y-16966D01*
X35357Y-16909D01*
X35391Y-16889D01*
X35427Y-16893D01*
X35444Y-16931D01*
X35449Y-17018D01*
X35450Y-17040D01*
X35450Y-17040D01*
X35450Y-17040D01*
G37*
G36*
X35816Y-17298D02*
X35788Y-17333D01*
X35721Y-17350D01*
X35641Y-17346D01*
X35571Y-17322D01*
X35556Y-17310D01*
X35514Y-17229D01*
X35529Y-17146D01*
X35595Y-17082D01*
X35616Y-17073D01*
X35688Y-17032D01*
X35700Y-16993D01*
X35653Y-16969D01*
X35616Y-16966D01*
X35550Y-16950D01*
X35524Y-16924D01*
X35540Y-16895D01*
X35598Y-16883D01*
X35673Y-16887D01*
X35744Y-16906D01*
X35782Y-16932D01*
X35812Y-17010D01*
X35782Y-17087D01*
X35707Y-17143D01*
X35631Y-17192D01*
X35618Y-17231D01*
X35665Y-17252D01*
X35758Y-17252D01*
X35807Y-17270D01*
X35816Y-17298D01*
X35816Y-17298D01*
X35816Y-17298D01*
G37*
G36*
X36286Y-16888D02*
X36276Y-17110D01*
X36267Y-17235D01*
X36251Y-17305D01*
X36226Y-17332D01*
X36216Y-17333D01*
X36183Y-17312D01*
X36161Y-17240D01*
X36150Y-17150D01*
X36133Y-17036D01*
X36108Y-16975D01*
X36076Y-16956D01*
X36043Y-16961D01*
X36024Y-17000D01*
X36013Y-17086D01*
X36010Y-17137D01*
X35994Y-17265D01*
X35965Y-17335D01*
X35925Y-17343D01*
X35906Y-17328D01*
X35892Y-17284D01*
X35884Y-17197D01*
X35883Y-17144D01*
X35897Y-17030D01*
X35935Y-16936D01*
X35986Y-16876D01*
X36042Y-16864D01*
X36056Y-16870D01*
X36114Y-16886D01*
X36189Y-16890D01*
X36286Y-16888D01*
X36286Y-16888D01*
X36286Y-16888D01*
G37*
G36*
X36776Y-17067D02*
X36771Y-17178D01*
X36724Y-17273D01*
X36658Y-17322D01*
X36658Y-17075D01*
X36630Y-16995D01*
X36583Y-16952D01*
X36568Y-16950D01*
X36511Y-16979D01*
X36472Y-17049D01*
X36463Y-17134D01*
X36469Y-17159D01*
X36514Y-17241D01*
X36572Y-17268D01*
X36626Y-17242D01*
X36657Y-17170D01*
X36658Y-17075D01*
X36658Y-17322D01*
X36641Y-17335D01*
X36566Y-17350D01*
X36480Y-17327D01*
X36416Y-17283D01*
X36358Y-17186D01*
X36350Y-17080D01*
X36387Y-16982D01*
X36462Y-16910D01*
X36566Y-16883D01*
X36672Y-16905D01*
X36731Y-16957D01*
X36776Y-17067D01*
X36776Y-17067D01*
X36776Y-17067D01*
G37*
G36*
X37283Y-17039D02*
X37257Y-17186D01*
X37184Y-17288D01*
X37067Y-17342D01*
X36990Y-17350D01*
X36901Y-17345D01*
X36844Y-17332D01*
X36838Y-17328D01*
X36810Y-17275D01*
X36839Y-17242D01*
X36916Y-17237D01*
X36929Y-17239D01*
X37027Y-17240D01*
X37102Y-17197D01*
X37112Y-17187D01*
X37172Y-17089D01*
X37177Y-16988D01*
X37134Y-16900D01*
X37053Y-16840D01*
X36942Y-16826D01*
X36927Y-16828D01*
X36850Y-16835D01*
X36822Y-16819D01*
X36823Y-16790D01*
X36856Y-16747D01*
X36942Y-16726D01*
X36969Y-16723D01*
X37107Y-16741D01*
X37209Y-16811D01*
X37269Y-16929D01*
X37283Y-17039D01*
X37283Y-17039D01*
X37283Y-17039D01*
G37*
G36*
X27505Y-16793D02*
X27481Y-16839D01*
X27450Y-16850D01*
X27407Y-16826D01*
X27398Y-16814D01*
X27394Y-16763D01*
X27429Y-16729D01*
X27477Y-16733D01*
X27487Y-16740D01*
X27505Y-16793D01*
X27505Y-16793D01*
X27505Y-16793D01*
G37*
G36*
X34450Y-16765D02*
X34431Y-16819D01*
X34392Y-16838D01*
X34371Y-16827D01*
X34349Y-16774D01*
X34369Y-16727D01*
X34400Y-16717D01*
X34444Y-16742D01*
X34450Y-16765D01*
X34450Y-16765D01*
X34450Y-16765D01*
G37*
G36*
X37350Y-16483D02*
X36816Y-16483D01*
X36816Y-16050D01*
X36816Y-15217D01*
X36816Y-14384D01*
X31700Y-14384D01*
X26583Y-14384D01*
X26583Y-15300D01*
X26583Y-16217D01*
X30733Y-16217D01*
X34883Y-16217D01*
X34883Y-16133D01*
X34883Y-16050D01*
X35850Y-16050D01*
X36816Y-16050D01*
X36816Y-16483D01*
X36116Y-16483D01*
X34883Y-16483D01*
X34883Y-16400D01*
X34883Y-16317D01*
X30733Y-16317D01*
X26583Y-16317D01*
X26583Y-16431D01*
X26576Y-16513D01*
X26558Y-16561D01*
X26555Y-16563D01*
X26521Y-16551D01*
X26483Y-16531D01*
X26483Y-16033D01*
X26483Y-15888D01*
X26483Y-15325D01*
X26483Y-15203D01*
X26483Y-14660D01*
X26482Y-14478D01*
X26479Y-14322D01*
X26475Y-14203D01*
X26471Y-14132D01*
X26467Y-14117D01*
X26435Y-14132D01*
X26355Y-14177D01*
X26233Y-14245D01*
X26080Y-14333D01*
X25902Y-14434D01*
X25709Y-14545D01*
X25510Y-14659D01*
X25312Y-14774D01*
X25124Y-14883D01*
X24955Y-14981D01*
X24812Y-15064D01*
X24706Y-15128D01*
X24643Y-15166D01*
X24634Y-15172D01*
X24613Y-15191D01*
X24624Y-15204D01*
X24676Y-15212D01*
X24777Y-15216D01*
X24936Y-15216D01*
X25111Y-15213D01*
X25286Y-15204D01*
X25434Y-15190D01*
X25502Y-15181D01*
X25665Y-15136D01*
X25770Y-15070D01*
X25776Y-15064D01*
X25834Y-15009D01*
X25874Y-14983D01*
X25876Y-14983D01*
X25903Y-14954D01*
X25932Y-14878D01*
X25959Y-14778D01*
X25978Y-14672D01*
X25983Y-14600D01*
X25988Y-14510D01*
X26001Y-14478D01*
X26019Y-14499D01*
X26039Y-14567D01*
X26057Y-14675D01*
X26067Y-14767D01*
X26084Y-14914D01*
X26104Y-15011D01*
X26126Y-15049D01*
X26129Y-15050D01*
X26175Y-15075D01*
X26206Y-15113D01*
X26268Y-15162D01*
X26364Y-15189D01*
X26483Y-15203D01*
X26483Y-15325D01*
X26358Y-15350D01*
X26260Y-15373D01*
X26184Y-15396D01*
X26177Y-15398D01*
X26134Y-15448D01*
X26096Y-15548D01*
X26068Y-15684D01*
X26052Y-15840D01*
X26050Y-15918D01*
X26043Y-16013D01*
X26028Y-16072D01*
X26016Y-16083D01*
X25993Y-16054D01*
X25983Y-15983D01*
X25982Y-15975D01*
X25969Y-15852D01*
X25934Y-15713D01*
X25887Y-15582D01*
X25835Y-15487D01*
X25824Y-15473D01*
X25746Y-15409D01*
X25683Y-15374D01*
X25631Y-15364D01*
X25532Y-15352D01*
X25398Y-15341D01*
X25241Y-15330D01*
X25075Y-15321D01*
X24912Y-15313D01*
X24764Y-15308D01*
X24644Y-15306D01*
X24564Y-15308D01*
X24536Y-15314D01*
X24537Y-15315D01*
X24567Y-15334D01*
X24647Y-15381D01*
X24768Y-15453D01*
X24922Y-15543D01*
X25101Y-15648D01*
X25296Y-15762D01*
X25500Y-15882D01*
X25704Y-16001D01*
X25900Y-16115D01*
X26080Y-16220D01*
X26236Y-16310D01*
X26359Y-16381D01*
X26441Y-16428D01*
X26474Y-16447D01*
X26475Y-16447D01*
X26477Y-16416D01*
X26480Y-16330D01*
X26481Y-16198D01*
X26483Y-16033D01*
X26483Y-16531D01*
X26436Y-16508D01*
X26306Y-16440D01*
X26138Y-16348D01*
X25938Y-16237D01*
X25713Y-16109D01*
X25469Y-15970D01*
X25430Y-15948D01*
X25184Y-15806D01*
X24957Y-15673D01*
X24755Y-15554D01*
X24584Y-15452D01*
X24451Y-15372D01*
X24362Y-15316D01*
X24324Y-15289D01*
X24323Y-15288D01*
X24337Y-15245D01*
X24357Y-15225D01*
X24403Y-15194D01*
X24497Y-15137D01*
X24632Y-15057D01*
X24799Y-14959D01*
X24991Y-14848D01*
X25200Y-14728D01*
X25418Y-14604D01*
X25637Y-14480D01*
X25849Y-14360D01*
X26046Y-14249D01*
X26220Y-14152D01*
X26364Y-14073D01*
X26470Y-14016D01*
X26530Y-13987D01*
X26540Y-13983D01*
X26569Y-14012D01*
X26582Y-14099D01*
X26583Y-14150D01*
X26583Y-14317D01*
X31700Y-14317D01*
X36816Y-14317D01*
X36816Y-13617D01*
X36816Y-12917D01*
X37083Y-12917D01*
X37350Y-12917D01*
X37350Y-14700D01*
X37350Y-16483D01*
X37350Y-16483D01*
X37350Y-16483D01*
G37*
G36*
X32283Y-14150D02*
X32200Y-14150D01*
X32161Y-14148D01*
X32136Y-14132D01*
X32123Y-14092D01*
X32117Y-14013D01*
X32116Y-13884D01*
X32116Y-13838D01*
X32110Y-13658D01*
X32090Y-13535D01*
X32050Y-13460D01*
X31985Y-13425D01*
X31890Y-13421D01*
X31878Y-13422D01*
X31766Y-13433D01*
X31750Y-13783D01*
X31741Y-13939D01*
X31732Y-14041D01*
X31719Y-14101D01*
X31699Y-14130D01*
X31670Y-14142D01*
X31658Y-14144D01*
X31587Y-14131D01*
X31562Y-14101D01*
X31555Y-14046D01*
X31551Y-13942D01*
X31553Y-13807D01*
X31555Y-13733D01*
X31564Y-13580D01*
X31576Y-13478D01*
X31596Y-13409D01*
X31628Y-13358D01*
X31648Y-13334D01*
X31750Y-13270D01*
X31879Y-13248D01*
X32008Y-13270D01*
X32054Y-13292D01*
X32111Y-13316D01*
X32137Y-13298D01*
X32140Y-13292D01*
X32182Y-13257D01*
X32219Y-13250D01*
X32245Y-13254D01*
X32262Y-13273D01*
X32274Y-13319D01*
X32280Y-13400D01*
X32282Y-13527D01*
X32283Y-13700D01*
X32283Y-14150D01*
X32283Y-14150D01*
X32283Y-14150D01*
G37*
G36*
X33216Y-13874D02*
X33187Y-13993D01*
X33109Y-14085D01*
X33000Y-14141D01*
X33000Y-13867D01*
X32995Y-13806D01*
X32970Y-13775D01*
X32906Y-13761D01*
X32841Y-13756D01*
X32746Y-13753D01*
X32699Y-13764D01*
X32684Y-13798D01*
X32683Y-13830D01*
X32711Y-13917D01*
X32789Y-13966D01*
X32900Y-13975D01*
X32971Y-13960D01*
X32997Y-13915D01*
X33000Y-13867D01*
X33000Y-14141D01*
X32873Y-14154D01*
X32749Y-14116D01*
X32686Y-14101D01*
X32666Y-14116D01*
X32619Y-14144D01*
X32581Y-14150D01*
X32552Y-14145D01*
X32534Y-14123D01*
X32523Y-14073D01*
X32518Y-13982D01*
X32517Y-13839D01*
X32517Y-13792D01*
X32520Y-13613D01*
X32531Y-13487D01*
X32553Y-13403D01*
X32591Y-13345D01*
X32649Y-13302D01*
X32672Y-13289D01*
X32757Y-13264D01*
X32876Y-13251D01*
X32998Y-13252D01*
X33092Y-13268D01*
X33097Y-13270D01*
X33139Y-13316D01*
X33150Y-13364D01*
X33145Y-13406D01*
X33119Y-13426D01*
X33058Y-13430D01*
X32961Y-13423D01*
X32846Y-13418D01*
X32778Y-13428D01*
X32736Y-13458D01*
X32727Y-13468D01*
X32686Y-13544D01*
X32701Y-13584D01*
X32774Y-13592D01*
X32799Y-13590D01*
X32965Y-13593D01*
X33094Y-13643D01*
X33181Y-13733D01*
X33216Y-13858D01*
X33216Y-13874D01*
X33216Y-13874D01*
X33216Y-13874D01*
G37*
G36*
X34645Y-13512D02*
X34642Y-13691D01*
X34642Y-13692D01*
X34638Y-13870D01*
X34633Y-13993D01*
X34625Y-14071D01*
X34611Y-14115D01*
X34591Y-14135D01*
X34562Y-14143D01*
X34558Y-14144D01*
X34523Y-14146D01*
X34501Y-14132D01*
X34489Y-14090D01*
X34484Y-14008D01*
X34483Y-13873D01*
X34483Y-13841D01*
X34477Y-13660D01*
X34457Y-13536D01*
X34417Y-13461D01*
X34353Y-13426D01*
X34259Y-13421D01*
X34244Y-13422D01*
X34133Y-13433D01*
X34116Y-13783D01*
X34107Y-13941D01*
X34097Y-14044D01*
X34083Y-14104D01*
X34063Y-14134D01*
X34037Y-14144D01*
X33983Y-14142D01*
X33947Y-14104D01*
X33927Y-14021D01*
X33920Y-13886D01*
X33920Y-13786D01*
X33917Y-13619D01*
X33896Y-13509D01*
X33853Y-13446D01*
X33780Y-13422D01*
X33700Y-13423D01*
X33600Y-13433D01*
X33583Y-13783D01*
X33574Y-13940D01*
X33565Y-14042D01*
X33552Y-14102D01*
X33532Y-14131D01*
X33502Y-14142D01*
X33498Y-14143D01*
X33432Y-14141D01*
X33406Y-14129D01*
X33396Y-14087D01*
X33388Y-13995D01*
X33384Y-13868D01*
X33383Y-13793D01*
X33392Y-13578D01*
X33419Y-13423D01*
X33467Y-13321D01*
X33534Y-13271D01*
X33658Y-13250D01*
X33790Y-13267D01*
X33891Y-13316D01*
X33950Y-13359D01*
X33987Y-13360D01*
X34029Y-13320D01*
X34034Y-13316D01*
X34110Y-13270D01*
X34216Y-13249D01*
X34323Y-13256D01*
X34405Y-13289D01*
X34418Y-13302D01*
X34455Y-13337D01*
X34482Y-13317D01*
X34490Y-13302D01*
X34545Y-13258D01*
X34585Y-13250D01*
X34612Y-13253D01*
X34630Y-13271D01*
X34641Y-13313D01*
X34645Y-13390D01*
X34645Y-13512D01*
X34645Y-13512D01*
X34645Y-13512D01*
G37*
G36*
X35583Y-13700D02*
X35558Y-13881D01*
X35485Y-14017D01*
X35366Y-14105D01*
X35200Y-14145D01*
X35126Y-14147D01*
X35023Y-14142D01*
X34944Y-14133D01*
X34925Y-14128D01*
X34891Y-14085D01*
X34883Y-14037D01*
X34888Y-13995D01*
X34913Y-13975D01*
X34973Y-13970D01*
X35078Y-13976D01*
X35190Y-13982D01*
X35259Y-13973D01*
X35306Y-13943D01*
X35344Y-13899D01*
X35393Y-13830D01*
X35416Y-13782D01*
X35416Y-13779D01*
X35385Y-13766D01*
X35383Y-13765D01*
X35383Y-13537D01*
X35355Y-13471D01*
X35287Y-13431D01*
X35201Y-13420D01*
X35116Y-13438D01*
X35055Y-13488D01*
X35046Y-13508D01*
X35034Y-13551D01*
X35049Y-13573D01*
X35105Y-13582D01*
X35201Y-13583D01*
X35314Y-13578D01*
X35371Y-13560D01*
X35383Y-13537D01*
X35383Y-13765D01*
X35303Y-13756D01*
X35185Y-13750D01*
X35133Y-13750D01*
X34850Y-13750D01*
X34850Y-13632D01*
X34870Y-13497D01*
X34924Y-13376D01*
X35000Y-13293D01*
X35014Y-13284D01*
X35118Y-13255D01*
X35245Y-13254D01*
X35362Y-13278D01*
X35409Y-13302D01*
X35509Y-13411D01*
X35569Y-13564D01*
X35583Y-13700D01*
X35583Y-13700D01*
X35583Y-13700D01*
G37*
G36*
X36478Y-13657D02*
X36470Y-13808D01*
X36427Y-13947D01*
X36346Y-14057D01*
X36287Y-14098D01*
X36184Y-14131D01*
X36053Y-14147D01*
X35924Y-14144D01*
X35823Y-14121D01*
X35808Y-14114D01*
X35759Y-14058D01*
X35750Y-14018D01*
X35756Y-13984D01*
X35787Y-13968D01*
X35857Y-13967D01*
X35950Y-13974D01*
X36105Y-13975D01*
X36210Y-13941D01*
X36274Y-13868D01*
X36293Y-13814D01*
X36296Y-13784D01*
X36283Y-13769D01*
X36283Y-13564D01*
X36269Y-13523D01*
X36248Y-13481D01*
X36189Y-13431D01*
X36100Y-13414D01*
X36011Y-13431D01*
X35951Y-13481D01*
X35925Y-13537D01*
X35930Y-13568D01*
X35978Y-13580D01*
X36079Y-13583D01*
X36100Y-13583D01*
X36200Y-13580D01*
X36267Y-13572D01*
X36283Y-13564D01*
X36283Y-13769D01*
X36279Y-13765D01*
X36229Y-13754D01*
X36134Y-13750D01*
X36013Y-13750D01*
X35863Y-13748D01*
X35770Y-13738D01*
X35725Y-13711D01*
X35716Y-13656D01*
X35735Y-13566D01*
X35751Y-13510D01*
X35818Y-13376D01*
X35926Y-13288D01*
X36060Y-13251D01*
X36208Y-13269D01*
X36280Y-13298D01*
X36382Y-13385D01*
X36448Y-13511D01*
X36478Y-13657D01*
X36478Y-13657D01*
X36478Y-13657D01*
G37*
G36*
X31822Y-14873D02*
X31818Y-14906D01*
X31793Y-14989D01*
X31750Y-15110D01*
X31693Y-15257D01*
X31679Y-15292D01*
X31514Y-15700D01*
X31598Y-15900D01*
X31649Y-16023D01*
X31674Y-16097D01*
X31672Y-16135D01*
X31644Y-16148D01*
X31599Y-16150D01*
X31518Y-16123D01*
X31486Y-16075D01*
X31464Y-16020D01*
X31420Y-15915D01*
X31361Y-15774D01*
X31291Y-15607D01*
X31239Y-15482D01*
X31152Y-15275D01*
X31088Y-15121D01*
X31046Y-15013D01*
X31023Y-14942D01*
X31016Y-14900D01*
X31025Y-14879D01*
X31047Y-14871D01*
X31079Y-14867D01*
X31113Y-14868D01*
X31143Y-14883D01*
X31175Y-14920D01*
X31214Y-14990D01*
X31264Y-15099D01*
X31333Y-15258D01*
X31367Y-15340D01*
X31420Y-15467D01*
X31544Y-15167D01*
X31607Y-15020D01*
X31656Y-14927D01*
X31697Y-14878D01*
X31733Y-14864D01*
X31799Y-14867D01*
X31822Y-14873D01*
X31822Y-14873D01*
X31822Y-14873D01*
G37*
G36*
X33616Y-15738D02*
X33614Y-15901D01*
X33610Y-16014D01*
X33603Y-16086D01*
X33592Y-16127D01*
X33577Y-16146D01*
X33556Y-16150D01*
X33555Y-16150D01*
X33492Y-16139D01*
X33472Y-16128D01*
X33460Y-16085D01*
X33452Y-15996D01*
X33450Y-15888D01*
X33450Y-15314D01*
X33447Y-15188D01*
X33435Y-15112D01*
X33411Y-15069D01*
X33385Y-15051D01*
X33265Y-15015D01*
X33164Y-15038D01*
X33091Y-15116D01*
X33053Y-15240D01*
X33050Y-15300D01*
X33073Y-15444D01*
X33138Y-15541D01*
X33239Y-15586D01*
X33368Y-15573D01*
X33397Y-15563D01*
X33426Y-15536D01*
X33443Y-15474D01*
X33449Y-15363D01*
X33450Y-15314D01*
X33450Y-15888D01*
X33447Y-15771D01*
X33438Y-15712D01*
X33420Y-15702D01*
X33410Y-15710D01*
X33338Y-15742D01*
X33232Y-15747D01*
X33117Y-15727D01*
X33052Y-15701D01*
X32955Y-15616D01*
X32889Y-15489D01*
X32857Y-15339D01*
X32862Y-15183D01*
X32908Y-15041D01*
X32940Y-14989D01*
X33041Y-14904D01*
X33174Y-14860D01*
X33313Y-14863D01*
X33358Y-14876D01*
X33450Y-14898D01*
X33504Y-14880D01*
X33541Y-14857D01*
X33569Y-14862D01*
X33589Y-14901D01*
X33603Y-14981D01*
X33611Y-15109D01*
X33615Y-15290D01*
X33616Y-15518D01*
X33616Y-15738D01*
X33616Y-15738D01*
X33616Y-15738D01*
G37*
G36*
X28051Y-15750D02*
X27966Y-15750D01*
X27881Y-15750D01*
X27890Y-15092D01*
X27894Y-14867D01*
X27898Y-14700D01*
X27903Y-14582D01*
X27910Y-14506D01*
X27921Y-14461D01*
X27936Y-14440D01*
X27956Y-14433D01*
X27966Y-14433D01*
X27989Y-14436D01*
X28006Y-14450D01*
X28018Y-14484D01*
X28027Y-14547D01*
X28033Y-14648D01*
X28037Y-14794D01*
X28041Y-14995D01*
X28042Y-15092D01*
X28051Y-15750D01*
X28051Y-15750D01*
X28051Y-15750D01*
G37*
G36*
X28997Y-15433D02*
X28987Y-15554D01*
X28985Y-15557D01*
X28942Y-15644D01*
X28891Y-15703D01*
X28810Y-15735D01*
X28810Y-15494D01*
X28792Y-15421D01*
X28726Y-15373D01*
X28627Y-15360D01*
X28581Y-15367D01*
X28503Y-15403D01*
X28478Y-15456D01*
X28498Y-15512D01*
X28557Y-15557D01*
X28649Y-15577D01*
X28683Y-15576D01*
X28767Y-15559D01*
X28804Y-15519D01*
X28810Y-15494D01*
X28810Y-15735D01*
X28808Y-15736D01*
X28694Y-15748D01*
X28579Y-15737D01*
X28514Y-15715D01*
X28461Y-15698D01*
X28450Y-15715D01*
X28423Y-15742D01*
X28366Y-15749D01*
X28312Y-15733D01*
X28305Y-15728D01*
X28292Y-15681D01*
X28284Y-15586D01*
X28283Y-15461D01*
X28286Y-15325D01*
X28295Y-15195D01*
X28308Y-15090D01*
X28323Y-15032D01*
X28401Y-14935D01*
X28523Y-14871D01*
X28656Y-14850D01*
X28796Y-14860D01*
X28880Y-14891D01*
X28914Y-14947D01*
X28916Y-14969D01*
X28911Y-15014D01*
X28886Y-15034D01*
X28823Y-15035D01*
X28750Y-15027D01*
X28607Y-15025D01*
X28519Y-15061D01*
X28484Y-15135D01*
X28483Y-15152D01*
X28494Y-15191D01*
X28538Y-15201D01*
X28599Y-15193D01*
X28742Y-15195D01*
X28863Y-15243D01*
X28952Y-15326D01*
X28997Y-15433D01*
X28997Y-15433D01*
X28997Y-15433D01*
G37*
G36*
X29777Y-15262D02*
X29771Y-15414D01*
X29722Y-15555D01*
X29630Y-15668D01*
X29577Y-15705D01*
X29494Y-15730D01*
X29376Y-15744D01*
X29256Y-15745D01*
X29165Y-15730D01*
X29158Y-15728D01*
X29125Y-15685D01*
X29116Y-15632D01*
X29123Y-15581D01*
X29158Y-15565D01*
X29231Y-15573D01*
X29383Y-15579D01*
X29491Y-15539D01*
X29561Y-15450D01*
X29567Y-15436D01*
X29596Y-15321D01*
X29580Y-15205D01*
X29528Y-15095D01*
X29441Y-15036D01*
X29313Y-15023D01*
X29261Y-15029D01*
X29171Y-15038D01*
X29128Y-15028D01*
X29116Y-14994D01*
X29116Y-14984D01*
X29145Y-14917D01*
X29222Y-14871D01*
X29327Y-14850D01*
X29445Y-14858D01*
X29548Y-14892D01*
X29666Y-14985D01*
X29742Y-15114D01*
X29777Y-15262D01*
X29777Y-15262D01*
X29777Y-15262D01*
G37*
G36*
X30133Y-15300D02*
X30132Y-15477D01*
X30130Y-15598D01*
X30123Y-15674D01*
X30111Y-15716D01*
X30091Y-15736D01*
X30062Y-15743D01*
X30057Y-15744D01*
X29981Y-15755D01*
X29990Y-15311D01*
X29995Y-15131D01*
X30000Y-15008D01*
X30008Y-14930D01*
X30021Y-14888D01*
X30040Y-14870D01*
X30066Y-14867D01*
X30093Y-14870D01*
X30112Y-14888D01*
X30124Y-14931D01*
X30130Y-15010D01*
X30132Y-15135D01*
X30133Y-15300D01*
X30133Y-15300D01*
X30133Y-15300D01*
G37*
G36*
X30917Y-15082D02*
X30901Y-15183D01*
X30828Y-15276D01*
X30706Y-15350D01*
X30625Y-15379D01*
X30528Y-15416D01*
X30487Y-15460D01*
X30483Y-15484D01*
X30512Y-15542D01*
X30595Y-15575D01*
X30722Y-15578D01*
X30784Y-15570D01*
X30869Y-15560D01*
X30906Y-15572D01*
X30916Y-15614D01*
X30916Y-15629D01*
X30903Y-15691D01*
X30856Y-15729D01*
X30763Y-15746D01*
X30651Y-15750D01*
X30504Y-15732D01*
X30404Y-15681D01*
X30340Y-15610D01*
X30317Y-15517D01*
X30316Y-15483D01*
X30330Y-15378D01*
X30381Y-15305D01*
X30404Y-15286D01*
X30487Y-15237D01*
X30564Y-15217D01*
X30650Y-15197D01*
X30700Y-15170D01*
X30743Y-15128D01*
X30731Y-15086D01*
X30716Y-15066D01*
X30670Y-15031D01*
X30597Y-15021D01*
X30509Y-15028D01*
X30413Y-15037D01*
X30366Y-15029D01*
X30351Y-14999D01*
X30350Y-14969D01*
X30377Y-14901D01*
X30449Y-14861D01*
X30550Y-14847D01*
X30662Y-14860D01*
X30771Y-14898D01*
X30858Y-14962D01*
X30873Y-14980D01*
X30917Y-15082D01*
X30917Y-15082D01*
X30917Y-15082D01*
G37*
G36*
X32651Y-15755D02*
X32575Y-15744D01*
X32539Y-15735D01*
X32516Y-15710D01*
X32503Y-15658D01*
X32495Y-15564D01*
X32491Y-15433D01*
X32484Y-15285D01*
X32473Y-15188D01*
X32454Y-15127D01*
X32424Y-15086D01*
X32412Y-15075D01*
X32317Y-15026D01*
X32220Y-15023D01*
X32156Y-15057D01*
X32135Y-15114D01*
X32121Y-15231D01*
X32116Y-15404D01*
X32116Y-15423D01*
X32116Y-15573D01*
X32112Y-15668D01*
X32102Y-15721D01*
X32083Y-15744D01*
X32051Y-15750D01*
X32033Y-15750D01*
X31950Y-15750D01*
X31950Y-15382D01*
X31950Y-15219D01*
X31955Y-15108D01*
X31966Y-15036D01*
X31985Y-14987D01*
X32017Y-14947D01*
X32031Y-14932D01*
X32140Y-14866D01*
X32269Y-14851D01*
X32392Y-14891D01*
X32407Y-14901D01*
X32444Y-14924D01*
X32466Y-14923D01*
X32478Y-14887D01*
X32485Y-14804D01*
X32490Y-14692D01*
X32496Y-14562D01*
X32506Y-14484D01*
X32524Y-14446D01*
X32553Y-14434D01*
X32566Y-14433D01*
X32589Y-14436D01*
X32606Y-14450D01*
X32618Y-14484D01*
X32627Y-14547D01*
X32633Y-14647D01*
X32637Y-14793D01*
X32640Y-14994D01*
X32642Y-15094D01*
X32651Y-15755D01*
X32651Y-15755D01*
X32651Y-15755D01*
G37*
G36*
X34634Y-15234D02*
X34626Y-15397D01*
X34568Y-15549D01*
X34498Y-15642D01*
X34442Y-15688D01*
X34442Y-15246D01*
X34405Y-15125D01*
X34329Y-15045D01*
X34219Y-15017D01*
X34112Y-15046D01*
X34037Y-15128D01*
X34002Y-15255D01*
X34000Y-15300D01*
X34023Y-15438D01*
X34087Y-15534D01*
X34182Y-15581D01*
X34297Y-15572D01*
X34350Y-15549D01*
X34399Y-15495D01*
X34433Y-15409D01*
X34435Y-15400D01*
X34442Y-15246D01*
X34442Y-15688D01*
X34413Y-15713D01*
X34331Y-15743D01*
X34245Y-15748D01*
X34135Y-15739D01*
X34042Y-15722D01*
X34025Y-15716D01*
X33932Y-15645D01*
X33864Y-15529D01*
X33824Y-15386D01*
X33818Y-15233D01*
X33849Y-15090D01*
X33867Y-15049D01*
X33955Y-14944D01*
X34081Y-14878D01*
X34225Y-14854D01*
X34369Y-14875D01*
X34492Y-14943D01*
X34502Y-14952D01*
X34593Y-15080D01*
X34634Y-15234D01*
X34634Y-15234D01*
X34634Y-15234D01*
G37*
G36*
X35516Y-15283D02*
X35503Y-15434D01*
X35451Y-15569D01*
X35359Y-15673D01*
X35317Y-15699D01*
X35224Y-15728D01*
X35098Y-15744D01*
X34970Y-15746D01*
X34870Y-15732D01*
X34858Y-15728D01*
X34825Y-15685D01*
X34816Y-15636D01*
X34821Y-15594D01*
X34847Y-15573D01*
X34909Y-15570D01*
X34999Y-15576D01*
X35142Y-15577D01*
X35236Y-15545D01*
X35297Y-15476D01*
X35316Y-15434D01*
X35324Y-15401D01*
X35316Y-15389D01*
X35316Y-15155D01*
X35288Y-15101D01*
X35222Y-15051D01*
X35146Y-15023D01*
X35114Y-15022D01*
X35040Y-15057D01*
X34991Y-15108D01*
X34966Y-15151D01*
X34970Y-15173D01*
X35016Y-15182D01*
X35116Y-15183D01*
X35129Y-15183D01*
X35230Y-15179D01*
X35298Y-15167D01*
X35316Y-15155D01*
X35316Y-15389D01*
X35310Y-15380D01*
X35263Y-15367D01*
X35171Y-15357D01*
X35053Y-15350D01*
X34766Y-15333D01*
X34778Y-15217D01*
X34811Y-15073D01*
X34872Y-14955D01*
X34948Y-14884D01*
X35067Y-14853D01*
X35205Y-14863D01*
X35319Y-14907D01*
X35424Y-15003D01*
X35490Y-15134D01*
X35516Y-15283D01*
X35516Y-15283D01*
X35516Y-15283D01*
G37*
G36*
X36681Y-15053D02*
X36678Y-15212D01*
X36677Y-15233D01*
X36664Y-15362D01*
X36640Y-15449D01*
X36595Y-15519D01*
X36565Y-15553D01*
X36474Y-15633D01*
X36376Y-15696D01*
X36359Y-15704D01*
X36267Y-15727D01*
X36135Y-15741D01*
X35989Y-15746D01*
X35855Y-15740D01*
X35775Y-15727D01*
X35746Y-15711D01*
X35729Y-15672D01*
X35720Y-15597D01*
X35716Y-15473D01*
X35716Y-15414D01*
X35716Y-15117D01*
X35933Y-15117D01*
X36049Y-15118D01*
X36114Y-15126D01*
X36143Y-15147D01*
X36149Y-15186D01*
X36150Y-15200D01*
X36142Y-15254D01*
X36108Y-15277D01*
X36028Y-15283D01*
X36016Y-15283D01*
X35883Y-15283D01*
X35883Y-15433D01*
X35883Y-15583D01*
X36048Y-15583D01*
X36165Y-15575D01*
X36267Y-15556D01*
X36297Y-15545D01*
X36407Y-15462D01*
X36476Y-15342D01*
X36504Y-15200D01*
X36494Y-15052D01*
X36444Y-14912D01*
X36357Y-14797D01*
X36265Y-14735D01*
X36155Y-14697D01*
X36028Y-14687D01*
X35944Y-14693D01*
X35835Y-14701D01*
X35777Y-14697D01*
X35754Y-14676D01*
X35750Y-14634D01*
X35767Y-14575D01*
X35825Y-14539D01*
X35932Y-14521D01*
X36050Y-14518D01*
X36241Y-14547D01*
X36420Y-14628D01*
X36559Y-14748D01*
X36627Y-14841D01*
X36666Y-14936D01*
X36681Y-15053D01*
X36681Y-15053D01*
X36681Y-15053D01*
G37*
G36*
X30150Y-14617D02*
X30140Y-14688D01*
X30102Y-14714D01*
X30072Y-14717D01*
X30002Y-14708D01*
X29972Y-14694D01*
X29954Y-14647D01*
X29950Y-14594D01*
X29962Y-14538D01*
X30011Y-14518D01*
X30050Y-14517D01*
X30120Y-14525D01*
X30146Y-14564D01*
X30150Y-14617D01*
X30150Y-14617D01*
X30150Y-14617D01*
G37*
M02*
