G04 (created by PCBNEW (2013-07-07 BZR 4022)-stable) date 12/7/2014 8:29:54 AM*
%MOIN*%
G04 Gerber Fmt 3.4, Leading zero omitted, Abs format*
%FSLAX34Y34*%
G01*
G70*
G90*
G04 APERTURE LIST*
%ADD10C,0.00590551*%
%ADD11C,0.00787402*%
%ADD12C,0.011811*%
%ADD13C,0.01*%
%ADD14C,0.0001*%
G04 APERTURE END LIST*
G54D10*
G54D11*
X54900Y-51400D02*
X54900Y-52200D01*
X57850Y-52200D02*
X57850Y-51450D01*
X54900Y-52200D02*
X57850Y-52200D01*
X54900Y-67400D02*
X54900Y-66600D01*
X57850Y-67400D02*
X57850Y-66600D01*
X54900Y-66600D02*
X57850Y-66600D01*
X54900Y-67400D02*
X54900Y-66600D01*
G54D12*
X73740Y-65785D02*
X74022Y-65982D01*
X73740Y-66123D02*
X74331Y-66123D01*
X74331Y-65898D01*
X74303Y-65842D01*
X74275Y-65814D01*
X74219Y-65785D01*
X74134Y-65785D01*
X74078Y-65814D01*
X74050Y-65842D01*
X74022Y-65898D01*
X74022Y-66123D01*
X73769Y-65307D02*
X73740Y-65364D01*
X73740Y-65476D01*
X73769Y-65532D01*
X73825Y-65560D01*
X74050Y-65560D01*
X74106Y-65532D01*
X74134Y-65476D01*
X74134Y-65364D01*
X74106Y-65307D01*
X74050Y-65279D01*
X73994Y-65279D01*
X73937Y-65560D01*
X74134Y-65082D02*
X73740Y-64942D01*
X74134Y-64801D01*
X73797Y-64576D02*
X73769Y-64548D01*
X73740Y-64576D01*
X73769Y-64604D01*
X73797Y-64576D01*
X73740Y-64576D01*
X74050Y-63648D02*
X74022Y-63564D01*
X73994Y-63536D01*
X73937Y-63508D01*
X73853Y-63508D01*
X73797Y-63536D01*
X73769Y-63564D01*
X73740Y-63620D01*
X73740Y-63845D01*
X74331Y-63845D01*
X74331Y-63648D01*
X74303Y-63592D01*
X74275Y-63564D01*
X74219Y-63536D01*
X74162Y-63536D01*
X74106Y-63564D01*
X74078Y-63592D01*
X74050Y-63648D01*
X74050Y-63845D01*
X74275Y-62833D02*
X74303Y-62805D01*
X74331Y-62748D01*
X74331Y-62608D01*
X74303Y-62551D01*
X74275Y-62523D01*
X74219Y-62495D01*
X74162Y-62495D01*
X74078Y-62523D01*
X73740Y-62861D01*
X73740Y-62495D01*
X74331Y-62130D02*
X74331Y-62073D01*
X74303Y-62017D01*
X74275Y-61989D01*
X74219Y-61961D01*
X74106Y-61933D01*
X73965Y-61933D01*
X73853Y-61961D01*
X73797Y-61989D01*
X73769Y-62017D01*
X73740Y-62073D01*
X73740Y-62130D01*
X73769Y-62186D01*
X73797Y-62214D01*
X73853Y-62242D01*
X73965Y-62270D01*
X74106Y-62270D01*
X74219Y-62242D01*
X74275Y-62214D01*
X74303Y-62186D01*
X74331Y-62130D01*
X73740Y-61370D02*
X73740Y-61708D01*
X73740Y-61539D02*
X74331Y-61539D01*
X74247Y-61595D01*
X74190Y-61652D01*
X74162Y-61708D01*
X74134Y-60864D02*
X73740Y-60864D01*
X74359Y-61005D02*
X73937Y-61145D01*
X73937Y-60780D01*
X74640Y-66118D02*
X75230Y-66118D01*
X75230Y-65977D01*
X75202Y-65893D01*
X75146Y-65837D01*
X75090Y-65808D01*
X74977Y-65780D01*
X74893Y-65780D01*
X74780Y-65808D01*
X74724Y-65837D01*
X74668Y-65893D01*
X74640Y-65977D01*
X74640Y-66118D01*
X75034Y-65274D02*
X74640Y-65274D01*
X75034Y-65527D02*
X74724Y-65527D01*
X74668Y-65499D01*
X74640Y-65443D01*
X74640Y-65358D01*
X74668Y-65302D01*
X74696Y-65274D01*
X74640Y-64740D02*
X74949Y-64740D01*
X75005Y-64768D01*
X75034Y-64824D01*
X75034Y-64937D01*
X75005Y-64993D01*
X74668Y-64740D02*
X74640Y-64796D01*
X74640Y-64937D01*
X74668Y-64993D01*
X74724Y-65021D01*
X74780Y-65021D01*
X74837Y-64993D01*
X74865Y-64937D01*
X74865Y-64796D01*
X74893Y-64740D01*
X74640Y-64374D02*
X74668Y-64430D01*
X74724Y-64459D01*
X75230Y-64459D01*
X74640Y-63699D02*
X75230Y-63699D01*
X75034Y-63418D02*
X74640Y-63418D01*
X74977Y-63418D02*
X75005Y-63390D01*
X75034Y-63334D01*
X75034Y-63249D01*
X75005Y-63193D01*
X74949Y-63165D01*
X74640Y-63165D01*
X74668Y-62912D02*
X74640Y-62856D01*
X74640Y-62743D01*
X74668Y-62687D01*
X74724Y-62659D01*
X74752Y-62659D01*
X74809Y-62687D01*
X74837Y-62743D01*
X74837Y-62828D01*
X74865Y-62884D01*
X74921Y-62912D01*
X74949Y-62912D01*
X75005Y-62884D01*
X75034Y-62828D01*
X75034Y-62743D01*
X75005Y-62687D01*
X75034Y-62490D02*
X75034Y-62265D01*
X75230Y-62406D02*
X74724Y-62406D01*
X74668Y-62378D01*
X74640Y-62321D01*
X74640Y-62265D01*
X74640Y-62068D02*
X75034Y-62068D01*
X74921Y-62068D02*
X74977Y-62040D01*
X75005Y-62012D01*
X75034Y-61956D01*
X75034Y-61900D01*
X75034Y-61450D02*
X74640Y-61450D01*
X75034Y-61703D02*
X74724Y-61703D01*
X74668Y-61675D01*
X74640Y-61618D01*
X74640Y-61534D01*
X74668Y-61478D01*
X74696Y-61450D01*
X74640Y-61168D02*
X75034Y-61168D01*
X74977Y-61168D02*
X75005Y-61140D01*
X75034Y-61084D01*
X75034Y-61000D01*
X75005Y-60943D01*
X74949Y-60915D01*
X74640Y-60915D01*
X74949Y-60915D02*
X75005Y-60887D01*
X75034Y-60831D01*
X75034Y-60747D01*
X75005Y-60690D01*
X74949Y-60662D01*
X74640Y-60662D01*
X74668Y-60156D02*
X74640Y-60212D01*
X74640Y-60325D01*
X74668Y-60381D01*
X74724Y-60409D01*
X74949Y-60409D01*
X75005Y-60381D01*
X75034Y-60325D01*
X75034Y-60212D01*
X75005Y-60156D01*
X74949Y-60128D01*
X74893Y-60128D01*
X74837Y-60409D01*
X75034Y-59875D02*
X74640Y-59875D01*
X74977Y-59875D02*
X75005Y-59847D01*
X75034Y-59790D01*
X75034Y-59706D01*
X75005Y-59650D01*
X74949Y-59622D01*
X74640Y-59622D01*
X75034Y-59425D02*
X75034Y-59200D01*
X75230Y-59340D02*
X74724Y-59340D01*
X74668Y-59312D01*
X74640Y-59256D01*
X74640Y-59200D01*
X74640Y-58750D02*
X74949Y-58750D01*
X75005Y-58778D01*
X75034Y-58834D01*
X75034Y-58947D01*
X75005Y-59003D01*
X74668Y-58750D02*
X74640Y-58806D01*
X74640Y-58947D01*
X74668Y-59003D01*
X74724Y-59031D01*
X74780Y-59031D01*
X74837Y-59003D01*
X74865Y-58947D01*
X74865Y-58806D01*
X74893Y-58750D01*
X75034Y-58553D02*
X75034Y-58328D01*
X75230Y-58469D02*
X74724Y-58469D01*
X74668Y-58441D01*
X74640Y-58384D01*
X74640Y-58328D01*
X74640Y-58131D02*
X75034Y-58131D01*
X75230Y-58131D02*
X75202Y-58159D01*
X75174Y-58131D01*
X75202Y-58103D01*
X75230Y-58131D01*
X75174Y-58131D01*
X74640Y-57766D02*
X74668Y-57822D01*
X74696Y-57850D01*
X74752Y-57878D01*
X74921Y-57878D01*
X74977Y-57850D01*
X75005Y-57822D01*
X75034Y-57766D01*
X75034Y-57681D01*
X75005Y-57625D01*
X74977Y-57597D01*
X74921Y-57569D01*
X74752Y-57569D01*
X74696Y-57597D01*
X74668Y-57625D01*
X74640Y-57681D01*
X74640Y-57766D01*
X75034Y-57316D02*
X74640Y-57316D01*
X74977Y-57316D02*
X75005Y-57288D01*
X75034Y-57231D01*
X75034Y-57147D01*
X75005Y-57091D01*
X74949Y-57063D01*
X74640Y-57063D01*
X74809Y-56360D02*
X74809Y-56078D01*
X74640Y-56416D02*
X75230Y-56219D01*
X74640Y-56022D01*
X74640Y-55825D02*
X75034Y-55825D01*
X74977Y-55825D02*
X75005Y-55797D01*
X75034Y-55741D01*
X75034Y-55657D01*
X75005Y-55600D01*
X74949Y-55572D01*
X74640Y-55572D01*
X74949Y-55572D02*
X75005Y-55544D01*
X75034Y-55488D01*
X75034Y-55403D01*
X75005Y-55347D01*
X74949Y-55319D01*
X74640Y-55319D01*
X75034Y-55038D02*
X74443Y-55038D01*
X75005Y-55038D02*
X75034Y-54982D01*
X75034Y-54869D01*
X75005Y-54813D01*
X74977Y-54785D01*
X74921Y-54757D01*
X74752Y-54757D01*
X74696Y-54785D01*
X74668Y-54813D01*
X74640Y-54869D01*
X74640Y-54982D01*
X74668Y-55038D01*
X74640Y-54419D02*
X74668Y-54475D01*
X74724Y-54504D01*
X75230Y-54504D01*
X74640Y-54194D02*
X75034Y-54194D01*
X75230Y-54194D02*
X75202Y-54222D01*
X75174Y-54194D01*
X75202Y-54166D01*
X75230Y-54194D01*
X75174Y-54194D01*
X75034Y-53997D02*
X75034Y-53772D01*
X74640Y-53913D02*
X75146Y-53913D01*
X75202Y-53885D01*
X75230Y-53829D01*
X75230Y-53772D01*
X74640Y-53576D02*
X75034Y-53576D01*
X75230Y-53576D02*
X75202Y-53604D01*
X75174Y-53576D01*
X75202Y-53547D01*
X75230Y-53576D01*
X75174Y-53576D01*
X74668Y-53069D02*
X74640Y-53126D01*
X74640Y-53238D01*
X74668Y-53294D01*
X74724Y-53322D01*
X74949Y-53322D01*
X75005Y-53294D01*
X75034Y-53238D01*
X75034Y-53126D01*
X75005Y-53069D01*
X74949Y-53041D01*
X74893Y-53041D01*
X74837Y-53322D01*
X74640Y-52788D02*
X75034Y-52788D01*
X74921Y-52788D02*
X74977Y-52760D01*
X75005Y-52732D01*
X75034Y-52676D01*
X75034Y-52619D01*
G54D13*
X54438Y-65361D02*
X54438Y-65666D01*
X54191Y-65799D02*
X54591Y-65932D01*
X54191Y-66066D01*
X54591Y-66199D02*
X54324Y-66199D01*
X54191Y-66199D02*
X54210Y-66180D01*
X54229Y-66199D01*
X54210Y-66218D01*
X54191Y-66199D01*
X54229Y-66199D01*
X54324Y-66389D02*
X54591Y-66389D01*
X54362Y-66389D02*
X54343Y-66408D01*
X54324Y-66446D01*
X54324Y-66504D01*
X54343Y-66542D01*
X54381Y-66561D01*
X54591Y-66561D01*
X56359Y-64750D02*
X56359Y-65054D01*
X56111Y-65188D02*
X56511Y-65321D01*
X56111Y-65454D01*
X56511Y-65645D02*
X56492Y-65607D01*
X56473Y-65588D01*
X56435Y-65569D01*
X56321Y-65569D01*
X56283Y-65588D01*
X56264Y-65607D01*
X56245Y-65645D01*
X56245Y-65702D01*
X56264Y-65740D01*
X56283Y-65759D01*
X56321Y-65778D01*
X56435Y-65778D01*
X56473Y-65759D01*
X56492Y-65740D01*
X56511Y-65702D01*
X56511Y-65645D01*
X56245Y-66121D02*
X56511Y-66121D01*
X56245Y-65950D02*
X56454Y-65950D01*
X56492Y-65969D01*
X56511Y-66007D01*
X56511Y-66064D01*
X56492Y-66102D01*
X56473Y-66121D01*
X56245Y-66254D02*
X56245Y-66407D01*
X56111Y-66311D02*
X56454Y-66311D01*
X56492Y-66330D01*
X56511Y-66369D01*
X56511Y-66407D01*
X58210Y-65756D02*
X58191Y-65718D01*
X58191Y-65661D01*
X58210Y-65604D01*
X58248Y-65566D01*
X58286Y-65546D01*
X58362Y-65527D01*
X58419Y-65527D01*
X58496Y-65546D01*
X58534Y-65566D01*
X58572Y-65604D01*
X58591Y-65661D01*
X58591Y-65699D01*
X58572Y-65756D01*
X58553Y-65775D01*
X58419Y-65775D01*
X58419Y-65699D01*
X58591Y-65946D02*
X58191Y-65946D01*
X58591Y-66175D01*
X58191Y-66175D01*
X58591Y-66366D02*
X58191Y-66366D01*
X58191Y-66461D01*
X58210Y-66518D01*
X58248Y-66556D01*
X58286Y-66575D01*
X58362Y-66594D01*
X58419Y-66594D01*
X58496Y-66575D01*
X58534Y-66556D01*
X58572Y-66518D01*
X58591Y-66461D01*
X58591Y-66366D01*
X58210Y-52506D02*
X58191Y-52468D01*
X58191Y-52411D01*
X58210Y-52354D01*
X58248Y-52316D01*
X58286Y-52296D01*
X58362Y-52277D01*
X58419Y-52277D01*
X58496Y-52296D01*
X58534Y-52316D01*
X58572Y-52354D01*
X58591Y-52411D01*
X58591Y-52449D01*
X58572Y-52506D01*
X58553Y-52525D01*
X58419Y-52525D01*
X58419Y-52449D01*
X58591Y-52696D02*
X58191Y-52696D01*
X58591Y-52925D01*
X58191Y-52925D01*
X58591Y-53116D02*
X58191Y-53116D01*
X58191Y-53211D01*
X58210Y-53268D01*
X58248Y-53306D01*
X58286Y-53325D01*
X58362Y-53344D01*
X58419Y-53344D01*
X58496Y-53325D01*
X58534Y-53306D01*
X58572Y-53268D01*
X58591Y-53211D01*
X58591Y-53116D01*
X56359Y-52350D02*
X56359Y-52654D01*
X56511Y-52502D02*
X56207Y-52502D01*
X56111Y-52788D02*
X56511Y-52921D01*
X56111Y-53054D01*
X56511Y-53245D02*
X56492Y-53207D01*
X56473Y-53188D01*
X56435Y-53169D01*
X56321Y-53169D01*
X56283Y-53188D01*
X56264Y-53207D01*
X56245Y-53245D01*
X56245Y-53302D01*
X56264Y-53340D01*
X56283Y-53359D01*
X56321Y-53378D01*
X56435Y-53378D01*
X56473Y-53359D01*
X56492Y-53340D01*
X56511Y-53302D01*
X56511Y-53245D01*
X56245Y-53721D02*
X56511Y-53721D01*
X56245Y-53550D02*
X56454Y-53550D01*
X56492Y-53569D01*
X56511Y-53607D01*
X56511Y-53664D01*
X56492Y-53702D01*
X56473Y-53721D01*
X56245Y-53854D02*
X56245Y-54007D01*
X56111Y-53911D02*
X56454Y-53911D01*
X56492Y-53930D01*
X56511Y-53969D01*
X56511Y-54007D01*
X54338Y-52261D02*
X54338Y-52566D01*
X54491Y-52413D02*
X54186Y-52413D01*
X54091Y-52699D02*
X54491Y-52832D01*
X54091Y-52966D01*
X54491Y-53099D02*
X54224Y-53099D01*
X54091Y-53099D02*
X54110Y-53080D01*
X54129Y-53099D01*
X54110Y-53118D01*
X54091Y-53099D01*
X54129Y-53099D01*
X54224Y-53289D02*
X54491Y-53289D01*
X54262Y-53289D02*
X54243Y-53308D01*
X54224Y-53346D01*
X54224Y-53404D01*
X54243Y-53442D01*
X54281Y-53461D01*
X54491Y-53461D01*
X67160Y-52606D02*
X67141Y-52568D01*
X67141Y-52511D01*
X67160Y-52454D01*
X67198Y-52416D01*
X67236Y-52396D01*
X67312Y-52377D01*
X67369Y-52377D01*
X67446Y-52396D01*
X67484Y-52416D01*
X67522Y-52454D01*
X67541Y-52511D01*
X67541Y-52549D01*
X67522Y-52606D01*
X67503Y-52625D01*
X67369Y-52625D01*
X67369Y-52549D01*
X67541Y-52796D02*
X67141Y-52796D01*
X67541Y-53025D01*
X67141Y-53025D01*
X67541Y-53216D02*
X67141Y-53216D01*
X67141Y-53311D01*
X67160Y-53368D01*
X67198Y-53406D01*
X67236Y-53425D01*
X67312Y-53444D01*
X67369Y-53444D01*
X67446Y-53425D01*
X67484Y-53406D01*
X67522Y-53368D01*
X67541Y-53311D01*
X67541Y-53216D01*
X66338Y-52304D02*
X66338Y-52608D01*
X66091Y-52875D02*
X66091Y-52951D01*
X66110Y-52989D01*
X66148Y-53027D01*
X66224Y-53046D01*
X66357Y-53046D01*
X66434Y-53027D01*
X66472Y-52989D01*
X66491Y-52951D01*
X66491Y-52875D01*
X66472Y-52837D01*
X66434Y-52799D01*
X66357Y-52780D01*
X66224Y-52780D01*
X66148Y-52799D01*
X66110Y-52837D01*
X66091Y-52875D01*
X66224Y-53389D02*
X66491Y-53389D01*
X66224Y-53218D02*
X66434Y-53218D01*
X66472Y-53237D01*
X66491Y-53275D01*
X66491Y-53332D01*
X66472Y-53370D01*
X66453Y-53389D01*
X66224Y-53523D02*
X66224Y-53675D01*
X66091Y-53580D02*
X66434Y-53580D01*
X66472Y-53599D01*
X66491Y-53637D01*
X66491Y-53675D01*
X65388Y-52254D02*
X65388Y-52558D01*
X65541Y-52406D02*
X65236Y-52406D01*
X65141Y-52825D02*
X65141Y-52901D01*
X65160Y-52939D01*
X65198Y-52977D01*
X65274Y-52996D01*
X65407Y-52996D01*
X65484Y-52977D01*
X65522Y-52939D01*
X65541Y-52901D01*
X65541Y-52825D01*
X65522Y-52787D01*
X65484Y-52749D01*
X65407Y-52730D01*
X65274Y-52730D01*
X65198Y-52749D01*
X65160Y-52787D01*
X65141Y-52825D01*
X65274Y-53339D02*
X65541Y-53339D01*
X65274Y-53168D02*
X65484Y-53168D01*
X65522Y-53187D01*
X65541Y-53225D01*
X65541Y-53282D01*
X65522Y-53320D01*
X65503Y-53339D01*
X65274Y-53473D02*
X65274Y-53625D01*
X65141Y-53530D02*
X65484Y-53530D01*
X65522Y-53549D01*
X65541Y-53587D01*
X65541Y-53625D01*
X64388Y-52282D02*
X64388Y-52587D01*
X64541Y-52435D02*
X64236Y-52435D01*
X64541Y-52777D02*
X64141Y-52777D01*
X64274Y-52968D02*
X64541Y-52968D01*
X64312Y-52968D02*
X64293Y-52987D01*
X64274Y-53025D01*
X64274Y-53082D01*
X64293Y-53120D01*
X64331Y-53139D01*
X64541Y-53139D01*
X63338Y-52232D02*
X63338Y-52537D01*
X63491Y-52727D02*
X63091Y-52727D01*
X63224Y-52918D02*
X63491Y-52918D01*
X63262Y-52918D02*
X63243Y-52937D01*
X63224Y-52975D01*
X63224Y-53032D01*
X63243Y-53070D01*
X63281Y-53089D01*
X63491Y-53089D01*
X67160Y-65756D02*
X67141Y-65718D01*
X67141Y-65661D01*
X67160Y-65604D01*
X67198Y-65566D01*
X67236Y-65546D01*
X67312Y-65527D01*
X67369Y-65527D01*
X67446Y-65546D01*
X67484Y-65566D01*
X67522Y-65604D01*
X67541Y-65661D01*
X67541Y-65699D01*
X67522Y-65756D01*
X67503Y-65775D01*
X67369Y-65775D01*
X67369Y-65699D01*
X67541Y-65946D02*
X67141Y-65946D01*
X67541Y-66175D01*
X67141Y-66175D01*
X67541Y-66366D02*
X67141Y-66366D01*
X67141Y-66461D01*
X67160Y-66518D01*
X67198Y-66556D01*
X67236Y-66575D01*
X67312Y-66594D01*
X67369Y-66594D01*
X67446Y-66575D01*
X67484Y-66556D01*
X67522Y-66518D01*
X67541Y-66461D01*
X67541Y-66366D01*
X66438Y-65204D02*
X66438Y-65508D01*
X66191Y-65775D02*
X66191Y-65851D01*
X66210Y-65889D01*
X66248Y-65927D01*
X66324Y-65946D01*
X66457Y-65946D01*
X66534Y-65927D01*
X66572Y-65889D01*
X66591Y-65851D01*
X66591Y-65775D01*
X66572Y-65737D01*
X66534Y-65699D01*
X66457Y-65680D01*
X66324Y-65680D01*
X66248Y-65699D01*
X66210Y-65737D01*
X66191Y-65775D01*
X66324Y-66289D02*
X66591Y-66289D01*
X66324Y-66118D02*
X66534Y-66118D01*
X66572Y-66137D01*
X66591Y-66175D01*
X66591Y-66232D01*
X66572Y-66270D01*
X66553Y-66289D01*
X66324Y-66423D02*
X66324Y-66575D01*
X66191Y-66480D02*
X66534Y-66480D01*
X66572Y-66499D01*
X66591Y-66537D01*
X66591Y-66575D01*
X65438Y-65204D02*
X65438Y-65508D01*
X65591Y-65356D02*
X65286Y-65356D01*
X65191Y-65775D02*
X65191Y-65851D01*
X65210Y-65889D01*
X65248Y-65927D01*
X65324Y-65946D01*
X65457Y-65946D01*
X65534Y-65927D01*
X65572Y-65889D01*
X65591Y-65851D01*
X65591Y-65775D01*
X65572Y-65737D01*
X65534Y-65699D01*
X65457Y-65680D01*
X65324Y-65680D01*
X65248Y-65699D01*
X65210Y-65737D01*
X65191Y-65775D01*
X65324Y-66289D02*
X65591Y-66289D01*
X65324Y-66118D02*
X65534Y-66118D01*
X65572Y-66137D01*
X65591Y-66175D01*
X65591Y-66232D01*
X65572Y-66270D01*
X65553Y-66289D01*
X65324Y-66423D02*
X65324Y-66575D01*
X65191Y-66480D02*
X65534Y-66480D01*
X65572Y-66499D01*
X65591Y-66537D01*
X65591Y-66575D01*
X63338Y-65682D02*
X63338Y-65987D01*
X63491Y-66177D02*
X63091Y-66177D01*
X63224Y-66368D02*
X63491Y-66368D01*
X63262Y-66368D02*
X63243Y-66387D01*
X63224Y-66425D01*
X63224Y-66482D01*
X63243Y-66520D01*
X63281Y-66539D01*
X63491Y-66539D01*
X64388Y-65732D02*
X64388Y-66037D01*
X64541Y-65885D02*
X64236Y-65885D01*
X64541Y-66227D02*
X64141Y-66227D01*
X64274Y-66418D02*
X64541Y-66418D01*
X64312Y-66418D02*
X64293Y-66437D01*
X64274Y-66475D01*
X64274Y-66532D01*
X64293Y-66570D01*
X64331Y-66589D01*
X64541Y-66589D01*
G54D14*
G36*
X61177Y-61531D02*
X61154Y-61657D01*
X61086Y-61734D01*
X61056Y-61741D01*
X61056Y-61527D01*
X61055Y-61515D01*
X61043Y-61425D01*
X61016Y-61385D01*
X60979Y-61378D01*
X60933Y-61391D01*
X60909Y-61443D01*
X60901Y-61507D01*
X60908Y-61616D01*
X60947Y-61672D01*
X61017Y-61671D01*
X61019Y-61670D01*
X61051Y-61626D01*
X61056Y-61527D01*
X61056Y-61741D01*
X60975Y-61761D01*
X60972Y-61761D01*
X60910Y-61780D01*
X60898Y-61824D01*
X60937Y-61867D01*
X60962Y-61878D01*
X61050Y-61885D01*
X61095Y-61878D01*
X61149Y-61875D01*
X61162Y-61909D01*
X61133Y-61944D01*
X61063Y-61960D01*
X60973Y-61958D01*
X60886Y-61936D01*
X60843Y-61914D01*
X60811Y-61880D01*
X60791Y-61829D01*
X60781Y-61743D01*
X60779Y-61608D01*
X60779Y-61589D01*
X60779Y-61453D01*
X60785Y-61370D01*
X60799Y-61326D01*
X60825Y-61308D01*
X60862Y-61301D01*
X61010Y-61296D01*
X61106Y-61326D01*
X61159Y-61396D01*
X61177Y-61513D01*
X61177Y-61531D01*
X61177Y-61531D01*
X61177Y-61531D01*
G37*
G36*
X54198Y-61299D02*
X54188Y-61521D01*
X54179Y-61646D01*
X54163Y-61716D01*
X54138Y-61743D01*
X54129Y-61744D01*
X54095Y-61724D01*
X54079Y-61655D01*
X54075Y-61591D01*
X54065Y-61462D01*
X54038Y-61389D01*
X53991Y-61362D01*
X53978Y-61361D01*
X53948Y-61385D01*
X53929Y-61462D01*
X53922Y-61550D01*
X53907Y-61664D01*
X53881Y-61738D01*
X53848Y-61762D01*
X53815Y-61729D01*
X53808Y-61712D01*
X53795Y-61626D01*
X53803Y-61516D01*
X53826Y-61407D01*
X53862Y-61326D01*
X53880Y-61306D01*
X53940Y-61280D01*
X53972Y-61284D01*
X54027Y-61298D01*
X54101Y-61301D01*
X54198Y-61299D01*
X54198Y-61299D01*
X54198Y-61299D01*
G37*
G36*
X54695Y-61474D02*
X54690Y-61587D01*
X54643Y-61687D01*
X54583Y-61732D01*
X54583Y-61490D01*
X54551Y-61413D01*
X54499Y-61370D01*
X54468Y-61367D01*
X54426Y-61405D01*
X54402Y-61481D01*
X54401Y-61567D01*
X54424Y-61639D01*
X54429Y-61644D01*
X54486Y-61675D01*
X54543Y-61650D01*
X54582Y-61577D01*
X54583Y-61490D01*
X54583Y-61732D01*
X54566Y-61745D01*
X54466Y-61760D01*
X54371Y-61728D01*
X54348Y-61709D01*
X54283Y-61607D01*
X54268Y-61498D01*
X54299Y-61399D01*
X54372Y-61327D01*
X54458Y-61300D01*
X54571Y-61316D01*
X54653Y-61379D01*
X54695Y-61474D01*
X54695Y-61474D01*
X54695Y-61474D01*
G37*
G36*
X54868Y-61336D02*
X54865Y-61380D01*
X54862Y-61470D01*
X54862Y-61561D01*
X54856Y-61686D01*
X54839Y-61750D01*
X54807Y-61756D01*
X54784Y-61739D01*
X54773Y-61696D01*
X54765Y-61607D01*
X54762Y-61503D01*
X54764Y-61386D01*
X54774Y-61323D01*
X54795Y-61300D01*
X54818Y-61300D01*
X54863Y-61321D01*
X54868Y-61336D01*
X54868Y-61336D01*
X54868Y-61336D01*
G37*
G36*
X55256Y-61313D02*
X55251Y-61353D01*
X55214Y-61384D01*
X55181Y-61436D01*
X55159Y-61536D01*
X55156Y-61578D01*
X55147Y-61677D01*
X55128Y-61727D01*
X55088Y-61748D01*
X55037Y-61755D01*
X54959Y-61753D01*
X54930Y-61725D01*
X54929Y-61711D01*
X54954Y-61670D01*
X54987Y-61668D01*
X55026Y-61660D01*
X55047Y-61612D01*
X55055Y-61540D01*
X55056Y-61450D01*
X55037Y-61404D01*
X54994Y-61384D01*
X54947Y-61353D01*
X54954Y-61315D01*
X55008Y-61294D01*
X55014Y-61294D01*
X55056Y-61267D01*
X55062Y-61242D01*
X55086Y-61202D01*
X55120Y-61202D01*
X55165Y-61231D01*
X55170Y-61254D01*
X55189Y-61289D01*
X55212Y-61294D01*
X55256Y-61313D01*
X55256Y-61313D01*
X55256Y-61313D01*
G37*
G36*
X55644Y-61650D02*
X55633Y-61681D01*
X55600Y-61730D01*
X55548Y-61751D01*
X55522Y-61751D01*
X55522Y-61633D01*
X55517Y-61580D01*
X55482Y-61534D01*
X55462Y-61528D01*
X55419Y-61553D01*
X55404Y-61608D01*
X55425Y-61658D01*
X55432Y-61663D01*
X55489Y-61672D01*
X55522Y-61633D01*
X55522Y-61751D01*
X55454Y-61753D01*
X55446Y-61753D01*
X55295Y-61746D01*
X55295Y-61560D01*
X55302Y-61450D01*
X55319Y-61365D01*
X55335Y-61334D01*
X55388Y-61308D01*
X55466Y-61295D01*
X55545Y-61296D01*
X55605Y-61309D01*
X55621Y-61335D01*
X55581Y-61364D01*
X55512Y-61376D01*
X55439Y-61390D01*
X55404Y-61419D01*
X55421Y-61451D01*
X55491Y-61461D01*
X55590Y-61487D01*
X55644Y-61555D01*
X55644Y-61650D01*
X55644Y-61650D01*
X55644Y-61650D01*
G37*
G36*
X55995Y-61344D02*
X55977Y-61389D01*
X55962Y-61394D01*
X55942Y-61424D01*
X55930Y-61499D01*
X55929Y-61538D01*
X55920Y-61636D01*
X55898Y-61708D01*
X55889Y-61721D01*
X55828Y-61754D01*
X55758Y-61759D01*
X55706Y-61737D01*
X55695Y-61711D01*
X55723Y-61670D01*
X55762Y-61661D01*
X55806Y-61649D01*
X55825Y-61603D01*
X55829Y-61531D01*
X55820Y-61441D01*
X55790Y-61396D01*
X55762Y-61385D01*
X55708Y-61355D01*
X55695Y-61331D01*
X55723Y-61301D01*
X55762Y-61294D01*
X55816Y-61273D01*
X55829Y-61244D01*
X55855Y-61200D01*
X55879Y-61194D01*
X55923Y-61221D01*
X55929Y-61244D01*
X55946Y-61289D01*
X55962Y-61294D01*
X55991Y-61321D01*
X55995Y-61344D01*
X55995Y-61344D01*
X55995Y-61344D01*
G37*
G36*
X56412Y-61528D02*
X56408Y-61649D01*
X56397Y-61717D01*
X56373Y-61743D01*
X56362Y-61744D01*
X56329Y-61723D01*
X56307Y-61651D01*
X56295Y-61561D01*
X56282Y-61454D01*
X56262Y-61398D01*
X56230Y-61379D01*
X56212Y-61378D01*
X56173Y-61386D01*
X56151Y-61422D01*
X56140Y-61501D01*
X56135Y-61569D01*
X56124Y-61690D01*
X56103Y-61751D01*
X56072Y-61755D01*
X56051Y-61739D01*
X56038Y-61695D01*
X56030Y-61608D01*
X56029Y-61555D01*
X56045Y-61429D01*
X56088Y-61334D01*
X56150Y-61282D01*
X56214Y-61283D01*
X56293Y-61302D01*
X56340Y-61307D01*
X56379Y-61315D01*
X56400Y-61343D01*
X56410Y-61408D01*
X56412Y-61523D01*
X56412Y-61528D01*
X56412Y-61528D01*
X56412Y-61528D01*
G37*
G36*
X56892Y-61485D02*
X56884Y-61598D01*
X56827Y-61691D01*
X56729Y-61749D01*
X56647Y-61761D01*
X56564Y-61752D01*
X56514Y-61730D01*
X56512Y-61727D01*
X56519Y-61693D01*
X56561Y-61667D01*
X56608Y-61666D01*
X56618Y-61672D01*
X56661Y-61676D01*
X56716Y-61646D01*
X56756Y-61599D01*
X56762Y-61576D01*
X56762Y-61429D01*
X56738Y-61383D01*
X56684Y-61377D01*
X56635Y-61407D01*
X56603Y-61446D01*
X56623Y-61459D01*
X56671Y-61461D01*
X56737Y-61451D01*
X56762Y-61429D01*
X56762Y-61576D01*
X56738Y-61542D01*
X56662Y-61528D01*
X56629Y-61528D01*
X56532Y-61515D01*
X56494Y-61474D01*
X56511Y-61397D01*
X56530Y-61359D01*
X56591Y-61307D01*
X56681Y-61292D01*
X56774Y-61313D01*
X56843Y-61368D01*
X56892Y-61485D01*
X56892Y-61485D01*
X56892Y-61485D01*
G37*
G36*
X57598Y-61309D02*
X57588Y-61524D01*
X57576Y-61655D01*
X57554Y-61734D01*
X57537Y-61753D01*
X57510Y-61739D01*
X57497Y-61670D01*
X57495Y-61601D01*
X57483Y-61469D01*
X57446Y-61395D01*
X57444Y-61393D01*
X57390Y-61369D01*
X57352Y-61403D01*
X57329Y-61499D01*
X57322Y-61575D01*
X57306Y-61689D01*
X57281Y-61748D01*
X57255Y-61750D01*
X57235Y-61693D01*
X57229Y-61601D01*
X57216Y-61469D01*
X57179Y-61395D01*
X57177Y-61393D01*
X57123Y-61369D01*
X57086Y-61403D01*
X57063Y-61499D01*
X57055Y-61575D01*
X57041Y-61680D01*
X57015Y-61744D01*
X57002Y-61753D01*
X56979Y-61745D01*
X56968Y-61696D01*
X56967Y-61594D01*
X56969Y-61539D01*
X56975Y-61419D01*
X56986Y-61349D01*
X57008Y-61316D01*
X57048Y-61303D01*
X57072Y-61300D01*
X57157Y-61305D01*
X57211Y-61327D01*
X57260Y-61345D01*
X57277Y-61330D01*
X57320Y-61311D01*
X57405Y-61302D01*
X57448Y-61302D01*
X57598Y-61309D01*
X57598Y-61309D01*
X57598Y-61309D01*
G37*
G36*
X58062Y-61493D02*
X58058Y-61611D01*
X58042Y-61680D01*
X58010Y-61718D01*
X57997Y-61726D01*
X57883Y-61759D01*
X57782Y-61735D01*
X57748Y-61708D01*
X57716Y-61648D01*
X57697Y-61556D01*
X57692Y-61455D01*
X57701Y-61364D01*
X57724Y-61306D01*
X57745Y-61294D01*
X57777Y-61313D01*
X57792Y-61376D01*
X57795Y-61454D01*
X57808Y-61585D01*
X57844Y-61660D01*
X57902Y-61675D01*
X57916Y-61671D01*
X57947Y-61627D01*
X57961Y-61522D01*
X57962Y-61474D01*
X57966Y-61365D01*
X57983Y-61309D01*
X58012Y-61294D01*
X58041Y-61310D01*
X58057Y-61364D01*
X58062Y-61471D01*
X58062Y-61493D01*
X58062Y-61493D01*
X58062Y-61493D01*
G37*
G36*
X58359Y-61374D02*
X58357Y-61475D01*
X58355Y-61517D01*
X58343Y-61649D01*
X58322Y-61730D01*
X58298Y-61757D01*
X58276Y-61726D01*
X58259Y-61634D01*
X58255Y-61588D01*
X58244Y-61479D01*
X58221Y-61416D01*
X58179Y-61382D01*
X58170Y-61378D01*
X58120Y-61340D01*
X58110Y-61303D01*
X58142Y-61287D01*
X58166Y-61291D01*
X58235Y-61299D01*
X58288Y-61299D01*
X58329Y-61301D01*
X58351Y-61321D01*
X58359Y-61374D01*
X58359Y-61374D01*
X58359Y-61374D01*
G37*
G36*
X58729Y-61344D02*
X58711Y-61389D01*
X58695Y-61394D01*
X58675Y-61424D01*
X58663Y-61499D01*
X58662Y-61538D01*
X58653Y-61636D01*
X58631Y-61708D01*
X58622Y-61721D01*
X58561Y-61754D01*
X58491Y-61759D01*
X58440Y-61737D01*
X58429Y-61711D01*
X58456Y-61670D01*
X58495Y-61661D01*
X58539Y-61650D01*
X58558Y-61604D01*
X58562Y-61528D01*
X58556Y-61440D01*
X58534Y-61402D01*
X58495Y-61394D01*
X58441Y-61373D01*
X58429Y-61344D01*
X58456Y-61303D01*
X58495Y-61294D01*
X58549Y-61273D01*
X58562Y-61244D01*
X58589Y-61200D01*
X58612Y-61194D01*
X58656Y-61221D01*
X58662Y-61244D01*
X58680Y-61289D01*
X58695Y-61294D01*
X58725Y-61321D01*
X58729Y-61344D01*
X58729Y-61344D01*
X58729Y-61344D01*
G37*
G36*
X59062Y-61709D02*
X59035Y-61748D01*
X58969Y-61762D01*
X58886Y-61753D01*
X58810Y-61721D01*
X58781Y-61697D01*
X58747Y-61619D01*
X58772Y-61540D01*
X58848Y-61475D01*
X58883Y-61459D01*
X58938Y-61420D01*
X58936Y-61383D01*
X58881Y-61366D01*
X58854Y-61368D01*
X58792Y-61358D01*
X58770Y-61334D01*
X58784Y-61305D01*
X58839Y-61296D01*
X58914Y-61305D01*
X58987Y-61328D01*
X59038Y-61364D01*
X59042Y-61369D01*
X59057Y-61446D01*
X59019Y-61514D01*
X58940Y-61554D01*
X58933Y-61555D01*
X58877Y-61582D01*
X58862Y-61613D01*
X58879Y-61653D01*
X58940Y-61666D01*
X59004Y-61663D01*
X59053Y-61681D01*
X59062Y-61709D01*
X59062Y-61709D01*
X59062Y-61709D01*
G37*
G36*
X59512Y-61312D02*
X59505Y-61511D01*
X59501Y-61622D01*
X59498Y-61706D01*
X59497Y-61739D01*
X59471Y-61756D01*
X59454Y-61753D01*
X59427Y-61714D01*
X59404Y-61628D01*
X59395Y-61558D01*
X59382Y-61452D01*
X59362Y-61398D01*
X59328Y-61379D01*
X59312Y-61378D01*
X59273Y-61386D01*
X59251Y-61422D01*
X59240Y-61501D01*
X59235Y-61569D01*
X59224Y-61690D01*
X59203Y-61751D01*
X59172Y-61755D01*
X59151Y-61739D01*
X59132Y-61685D01*
X59127Y-61592D01*
X59133Y-61485D01*
X59148Y-61390D01*
X59172Y-61333D01*
X59175Y-61330D01*
X59236Y-61308D01*
X59332Y-61300D01*
X59367Y-61302D01*
X59512Y-61312D01*
X59512Y-61312D01*
X59512Y-61312D01*
G37*
G36*
X59724Y-61250D02*
X59723Y-61377D01*
X59721Y-61433D01*
X59712Y-61602D01*
X59696Y-61708D01*
X59673Y-61752D01*
X59670Y-61753D01*
X59650Y-61742D01*
X59637Y-61689D01*
X59630Y-61584D01*
X59629Y-61447D01*
X59630Y-61296D01*
X59636Y-61200D01*
X59649Y-61148D01*
X59670Y-61129D01*
X59680Y-61128D01*
X59704Y-61137D01*
X59718Y-61174D01*
X59724Y-61250D01*
X59724Y-61250D01*
X59724Y-61250D01*
G37*
G36*
X60524Y-61579D02*
X60506Y-61661D01*
X60468Y-61706D01*
X60396Y-61743D01*
X60395Y-61743D01*
X60395Y-61593D01*
X60379Y-61526D01*
X60356Y-61521D01*
X60356Y-61286D01*
X60335Y-61227D01*
X60312Y-61211D01*
X60282Y-61239D01*
X60268Y-61286D01*
X60276Y-61347D01*
X60312Y-61361D01*
X60353Y-61338D01*
X60356Y-61286D01*
X60356Y-61521D01*
X60334Y-61518D01*
X60276Y-61564D01*
X60237Y-61617D01*
X60246Y-61650D01*
X60260Y-61660D01*
X60331Y-61675D01*
X60383Y-61640D01*
X60395Y-61593D01*
X60395Y-61743D01*
X60304Y-61759D01*
X60221Y-61752D01*
X60177Y-61725D01*
X60143Y-61706D01*
X60118Y-61725D01*
X60065Y-61755D01*
X60015Y-61757D01*
X59995Y-61734D01*
X60016Y-61690D01*
X60035Y-61667D01*
X60058Y-61622D01*
X60035Y-61588D01*
X60001Y-61527D01*
X60000Y-61465D01*
X60031Y-61429D01*
X60043Y-61428D01*
X60090Y-61455D01*
X60113Y-61497D01*
X60134Y-61544D01*
X60164Y-61537D01*
X60195Y-61511D01*
X60236Y-61467D01*
X60230Y-61432D01*
X60192Y-61391D01*
X60135Y-61301D01*
X60137Y-61216D01*
X60193Y-61153D01*
X60295Y-61128D01*
X60299Y-61128D01*
X60388Y-61148D01*
X60461Y-61198D01*
X60495Y-61260D01*
X60495Y-61265D01*
X60481Y-61319D01*
X60459Y-61366D01*
X60442Y-61434D01*
X60476Y-61491D01*
X60524Y-61579D01*
X60524Y-61579D01*
X60524Y-61579D01*
G37*
G36*
X61631Y-61305D02*
X61622Y-61522D01*
X61609Y-61654D01*
X61588Y-61733D01*
X61570Y-61753D01*
X61543Y-61739D01*
X61530Y-61670D01*
X61529Y-61601D01*
X61516Y-61469D01*
X61479Y-61395D01*
X61477Y-61393D01*
X61423Y-61369D01*
X61386Y-61403D01*
X61363Y-61499D01*
X61355Y-61575D01*
X61341Y-61680D01*
X61315Y-61744D01*
X61302Y-61753D01*
X61279Y-61745D01*
X61268Y-61696D01*
X61267Y-61594D01*
X61269Y-61539D01*
X61279Y-61311D01*
X61455Y-61308D01*
X61631Y-61305D01*
X61631Y-61305D01*
X61631Y-61305D01*
G37*
G36*
X61829Y-61528D02*
X61824Y-61664D01*
X61810Y-61740D01*
X61783Y-61760D01*
X61751Y-61739D01*
X61739Y-61696D01*
X61731Y-61607D01*
X61729Y-61505D01*
X61732Y-61386D01*
X61744Y-61320D01*
X61769Y-61295D01*
X61779Y-61294D01*
X61806Y-61308D01*
X61821Y-61357D01*
X61828Y-61454D01*
X61829Y-61528D01*
X61829Y-61528D01*
X61829Y-61528D01*
G37*
G36*
X62227Y-61348D02*
X62212Y-61368D01*
X62187Y-61379D01*
X62146Y-61417D01*
X62130Y-61500D01*
X62129Y-61541D01*
X62119Y-61638D01*
X62097Y-61709D01*
X62089Y-61721D01*
X62027Y-61754D01*
X61957Y-61759D01*
X61906Y-61736D01*
X61895Y-61709D01*
X61921Y-61670D01*
X61954Y-61668D01*
X61993Y-61660D01*
X62014Y-61612D01*
X62022Y-61540D01*
X62023Y-61449D01*
X62003Y-61404D01*
X61964Y-61385D01*
X61906Y-61353D01*
X61901Y-61316D01*
X61949Y-61295D01*
X61962Y-61294D01*
X62016Y-61273D01*
X62029Y-61244D01*
X62055Y-61200D01*
X62079Y-61194D01*
X62123Y-61215D01*
X62129Y-61232D01*
X62153Y-61281D01*
X62187Y-61313D01*
X62227Y-61348D01*
X62227Y-61348D01*
X62227Y-61348D01*
G37*
G36*
X62357Y-61338D02*
X62355Y-61416D01*
X62346Y-61589D01*
X62331Y-61699D01*
X62309Y-61749D01*
X62304Y-61753D01*
X62284Y-61742D01*
X62271Y-61690D01*
X62264Y-61587D01*
X62262Y-61430D01*
X62263Y-61275D01*
X62269Y-61175D01*
X62281Y-61119D01*
X62300Y-61096D01*
X62313Y-61094D01*
X62337Y-61104D01*
X62351Y-61140D01*
X62357Y-61214D01*
X62357Y-61338D01*
X62357Y-61338D01*
X62357Y-61338D01*
G37*
G36*
X62829Y-61451D02*
X62817Y-61570D01*
X62788Y-61667D01*
X62777Y-61687D01*
X62698Y-61749D01*
X62602Y-61760D01*
X62512Y-61720D01*
X62477Y-61680D01*
X62446Y-61601D01*
X62433Y-61503D01*
X62438Y-61408D01*
X62460Y-61337D01*
X62495Y-61311D01*
X62528Y-61331D01*
X62547Y-61399D01*
X62555Y-61486D01*
X62565Y-61590D01*
X62584Y-61643D01*
X62617Y-61660D01*
X62629Y-61661D01*
X62667Y-61650D01*
X62688Y-61607D01*
X62700Y-61517D01*
X62702Y-61486D01*
X62713Y-61377D01*
X62736Y-61320D01*
X62770Y-61300D01*
X62806Y-61304D01*
X62823Y-61342D01*
X62828Y-61429D01*
X62829Y-61451D01*
X62829Y-61451D01*
X62829Y-61451D01*
G37*
G36*
X63195Y-61709D02*
X63167Y-61744D01*
X63100Y-61761D01*
X63020Y-61757D01*
X62950Y-61733D01*
X62935Y-61721D01*
X62893Y-61640D01*
X62908Y-61557D01*
X62974Y-61493D01*
X62995Y-61484D01*
X63067Y-61443D01*
X63079Y-61404D01*
X63032Y-61380D01*
X62995Y-61377D01*
X62929Y-61361D01*
X62903Y-61335D01*
X62919Y-61306D01*
X62977Y-61294D01*
X63052Y-61298D01*
X63123Y-61317D01*
X63161Y-61343D01*
X63191Y-61421D01*
X63161Y-61498D01*
X63086Y-61554D01*
X63010Y-61603D01*
X62997Y-61642D01*
X63044Y-61663D01*
X63137Y-61663D01*
X63186Y-61681D01*
X63195Y-61709D01*
X63195Y-61709D01*
X63195Y-61709D01*
G37*
G36*
X63665Y-61299D02*
X63655Y-61521D01*
X63646Y-61646D01*
X63630Y-61716D01*
X63605Y-61743D01*
X63595Y-61744D01*
X63562Y-61723D01*
X63540Y-61651D01*
X63529Y-61561D01*
X63512Y-61447D01*
X63487Y-61386D01*
X63455Y-61367D01*
X63422Y-61372D01*
X63403Y-61411D01*
X63392Y-61497D01*
X63389Y-61548D01*
X63373Y-61676D01*
X63344Y-61746D01*
X63304Y-61754D01*
X63285Y-61739D01*
X63271Y-61695D01*
X63263Y-61608D01*
X63262Y-61555D01*
X63276Y-61441D01*
X63314Y-61347D01*
X63365Y-61287D01*
X63421Y-61275D01*
X63435Y-61281D01*
X63493Y-61297D01*
X63568Y-61301D01*
X63665Y-61299D01*
X63665Y-61299D01*
X63665Y-61299D01*
G37*
G36*
X64155Y-61478D02*
X64150Y-61589D01*
X64103Y-61684D01*
X64037Y-61733D01*
X64037Y-61486D01*
X64009Y-61406D01*
X63962Y-61363D01*
X63947Y-61361D01*
X63890Y-61390D01*
X63851Y-61460D01*
X63842Y-61545D01*
X63848Y-61570D01*
X63893Y-61652D01*
X63951Y-61679D01*
X64005Y-61653D01*
X64036Y-61581D01*
X64037Y-61486D01*
X64037Y-61733D01*
X64020Y-61746D01*
X63945Y-61761D01*
X63859Y-61738D01*
X63795Y-61694D01*
X63737Y-61597D01*
X63729Y-61491D01*
X63766Y-61393D01*
X63841Y-61321D01*
X63945Y-61294D01*
X64051Y-61316D01*
X64110Y-61368D01*
X64155Y-61478D01*
X64155Y-61478D01*
X64155Y-61478D01*
G37*
G36*
X64662Y-61450D02*
X64636Y-61597D01*
X64563Y-61699D01*
X64446Y-61753D01*
X64369Y-61761D01*
X64280Y-61756D01*
X64223Y-61743D01*
X64217Y-61739D01*
X64189Y-61686D01*
X64218Y-61653D01*
X64295Y-61648D01*
X64308Y-61650D01*
X64406Y-61651D01*
X64481Y-61608D01*
X64491Y-61598D01*
X64551Y-61500D01*
X64556Y-61399D01*
X64513Y-61311D01*
X64432Y-61251D01*
X64321Y-61237D01*
X64306Y-61239D01*
X64229Y-61246D01*
X64201Y-61230D01*
X64202Y-61201D01*
X64235Y-61158D01*
X64321Y-61137D01*
X64348Y-61134D01*
X64486Y-61152D01*
X64588Y-61222D01*
X64648Y-61340D01*
X64662Y-61450D01*
X64662Y-61450D01*
X64662Y-61450D01*
G37*
G36*
X54884Y-61204D02*
X54860Y-61250D01*
X54829Y-61261D01*
X54786Y-61237D01*
X54777Y-61225D01*
X54773Y-61174D01*
X54808Y-61140D01*
X54856Y-61144D01*
X54866Y-61151D01*
X54884Y-61204D01*
X54884Y-61204D01*
X54884Y-61204D01*
G37*
G36*
X61829Y-61176D02*
X61810Y-61230D01*
X61771Y-61249D01*
X61750Y-61238D01*
X61728Y-61185D01*
X61748Y-61138D01*
X61779Y-61128D01*
X61823Y-61153D01*
X61829Y-61176D01*
X61829Y-61176D01*
X61829Y-61176D01*
G37*
G36*
X64729Y-60894D02*
X64195Y-60894D01*
X64195Y-60461D01*
X64195Y-59628D01*
X64195Y-58795D01*
X59079Y-58795D01*
X53962Y-58795D01*
X53962Y-59711D01*
X53962Y-60628D01*
X58112Y-60628D01*
X62262Y-60628D01*
X62262Y-60544D01*
X62262Y-60461D01*
X63229Y-60461D01*
X64195Y-60461D01*
X64195Y-60894D01*
X63495Y-60894D01*
X62262Y-60894D01*
X62262Y-60811D01*
X62262Y-60728D01*
X58112Y-60728D01*
X53962Y-60728D01*
X53962Y-60842D01*
X53955Y-60924D01*
X53937Y-60972D01*
X53934Y-60974D01*
X53900Y-60962D01*
X53862Y-60942D01*
X53862Y-60444D01*
X53862Y-60299D01*
X53862Y-59736D01*
X53862Y-59614D01*
X53862Y-59071D01*
X53861Y-58889D01*
X53858Y-58733D01*
X53854Y-58614D01*
X53850Y-58543D01*
X53846Y-58528D01*
X53814Y-58543D01*
X53734Y-58588D01*
X53612Y-58656D01*
X53459Y-58744D01*
X53281Y-58845D01*
X53088Y-58956D01*
X52889Y-59070D01*
X52691Y-59185D01*
X52503Y-59294D01*
X52334Y-59392D01*
X52191Y-59475D01*
X52085Y-59539D01*
X52022Y-59577D01*
X52013Y-59583D01*
X51992Y-59602D01*
X52003Y-59615D01*
X52055Y-59623D01*
X52156Y-59627D01*
X52315Y-59627D01*
X52490Y-59624D01*
X52665Y-59615D01*
X52813Y-59601D01*
X52881Y-59592D01*
X53044Y-59547D01*
X53149Y-59481D01*
X53155Y-59475D01*
X53213Y-59420D01*
X53253Y-59394D01*
X53255Y-59394D01*
X53282Y-59365D01*
X53311Y-59289D01*
X53338Y-59189D01*
X53357Y-59083D01*
X53362Y-59011D01*
X53367Y-58921D01*
X53380Y-58889D01*
X53398Y-58910D01*
X53418Y-58978D01*
X53436Y-59086D01*
X53446Y-59178D01*
X53463Y-59325D01*
X53483Y-59422D01*
X53505Y-59460D01*
X53508Y-59461D01*
X53554Y-59486D01*
X53585Y-59524D01*
X53647Y-59573D01*
X53743Y-59600D01*
X53862Y-59614D01*
X53862Y-59736D01*
X53737Y-59761D01*
X53639Y-59784D01*
X53563Y-59807D01*
X53556Y-59809D01*
X53513Y-59859D01*
X53475Y-59959D01*
X53447Y-60095D01*
X53431Y-60251D01*
X53429Y-60329D01*
X53422Y-60424D01*
X53407Y-60483D01*
X53395Y-60494D01*
X53372Y-60465D01*
X53362Y-60394D01*
X53361Y-60386D01*
X53348Y-60263D01*
X53313Y-60124D01*
X53266Y-59993D01*
X53214Y-59898D01*
X53203Y-59884D01*
X53125Y-59820D01*
X53062Y-59785D01*
X53010Y-59775D01*
X52911Y-59763D01*
X52777Y-59752D01*
X52620Y-59741D01*
X52454Y-59732D01*
X52291Y-59724D01*
X52143Y-59719D01*
X52023Y-59717D01*
X51943Y-59719D01*
X51915Y-59725D01*
X51916Y-59726D01*
X51946Y-59745D01*
X52026Y-59792D01*
X52147Y-59864D01*
X52301Y-59954D01*
X52480Y-60059D01*
X52675Y-60173D01*
X52879Y-60293D01*
X53083Y-60412D01*
X53279Y-60526D01*
X53459Y-60631D01*
X53615Y-60721D01*
X53738Y-60792D01*
X53820Y-60839D01*
X53853Y-60858D01*
X53854Y-60858D01*
X53856Y-60827D01*
X53859Y-60741D01*
X53860Y-60609D01*
X53862Y-60444D01*
X53862Y-60942D01*
X53815Y-60919D01*
X53685Y-60851D01*
X53517Y-60759D01*
X53317Y-60648D01*
X53092Y-60520D01*
X52848Y-60381D01*
X52809Y-60359D01*
X52563Y-60217D01*
X52336Y-60084D01*
X52134Y-59965D01*
X51963Y-59863D01*
X51830Y-59783D01*
X51741Y-59727D01*
X51703Y-59700D01*
X51702Y-59699D01*
X51716Y-59656D01*
X51736Y-59636D01*
X51782Y-59605D01*
X51876Y-59548D01*
X52011Y-59468D01*
X52178Y-59370D01*
X52370Y-59259D01*
X52579Y-59139D01*
X52797Y-59015D01*
X53016Y-58891D01*
X53228Y-58771D01*
X53425Y-58660D01*
X53599Y-58563D01*
X53743Y-58484D01*
X53849Y-58427D01*
X53909Y-58398D01*
X53919Y-58394D01*
X53948Y-58423D01*
X53961Y-58510D01*
X53962Y-58561D01*
X53962Y-58728D01*
X59079Y-58728D01*
X64195Y-58728D01*
X64195Y-58028D01*
X64195Y-57328D01*
X64462Y-57328D01*
X64729Y-57328D01*
X64729Y-59111D01*
X64729Y-60894D01*
X64729Y-60894D01*
X64729Y-60894D01*
G37*
G36*
X59662Y-58561D02*
X59579Y-58561D01*
X59540Y-58559D01*
X59515Y-58543D01*
X59502Y-58503D01*
X59496Y-58424D01*
X59495Y-58295D01*
X59495Y-58249D01*
X59489Y-58069D01*
X59469Y-57946D01*
X59429Y-57871D01*
X59364Y-57836D01*
X59269Y-57832D01*
X59257Y-57833D01*
X59145Y-57844D01*
X59129Y-58194D01*
X59120Y-58350D01*
X59111Y-58452D01*
X59098Y-58512D01*
X59078Y-58541D01*
X59049Y-58553D01*
X59037Y-58555D01*
X58966Y-58542D01*
X58941Y-58512D01*
X58934Y-58457D01*
X58930Y-58353D01*
X58932Y-58218D01*
X58934Y-58144D01*
X58943Y-57991D01*
X58955Y-57889D01*
X58975Y-57820D01*
X59007Y-57769D01*
X59027Y-57745D01*
X59129Y-57681D01*
X59258Y-57659D01*
X59387Y-57681D01*
X59433Y-57703D01*
X59490Y-57727D01*
X59516Y-57709D01*
X59519Y-57703D01*
X59561Y-57668D01*
X59598Y-57661D01*
X59624Y-57665D01*
X59641Y-57684D01*
X59653Y-57730D01*
X59659Y-57811D01*
X59661Y-57938D01*
X59662Y-58111D01*
X59662Y-58561D01*
X59662Y-58561D01*
X59662Y-58561D01*
G37*
G36*
X60595Y-58285D02*
X60566Y-58404D01*
X60488Y-58496D01*
X60379Y-58552D01*
X60379Y-58278D01*
X60374Y-58217D01*
X60349Y-58186D01*
X60285Y-58172D01*
X60220Y-58167D01*
X60125Y-58164D01*
X60078Y-58175D01*
X60063Y-58209D01*
X60062Y-58241D01*
X60090Y-58328D01*
X60168Y-58377D01*
X60279Y-58386D01*
X60350Y-58371D01*
X60376Y-58326D01*
X60379Y-58278D01*
X60379Y-58552D01*
X60252Y-58565D01*
X60128Y-58527D01*
X60065Y-58512D01*
X60045Y-58527D01*
X59998Y-58555D01*
X59960Y-58561D01*
X59931Y-58556D01*
X59913Y-58534D01*
X59902Y-58484D01*
X59897Y-58393D01*
X59896Y-58250D01*
X59896Y-58203D01*
X59899Y-58024D01*
X59910Y-57898D01*
X59932Y-57814D01*
X59970Y-57756D01*
X60028Y-57713D01*
X60051Y-57700D01*
X60136Y-57675D01*
X60255Y-57662D01*
X60377Y-57663D01*
X60471Y-57679D01*
X60476Y-57681D01*
X60518Y-57727D01*
X60529Y-57775D01*
X60524Y-57817D01*
X60498Y-57837D01*
X60437Y-57841D01*
X60340Y-57834D01*
X60225Y-57829D01*
X60157Y-57839D01*
X60115Y-57869D01*
X60106Y-57879D01*
X60065Y-57955D01*
X60080Y-57995D01*
X60153Y-58003D01*
X60178Y-58001D01*
X60344Y-58004D01*
X60473Y-58054D01*
X60560Y-58144D01*
X60595Y-58269D01*
X60595Y-58285D01*
X60595Y-58285D01*
X60595Y-58285D01*
G37*
G36*
X62024Y-57923D02*
X62021Y-58102D01*
X62021Y-58103D01*
X62017Y-58281D01*
X62012Y-58404D01*
X62004Y-58482D01*
X61990Y-58526D01*
X61970Y-58546D01*
X61941Y-58554D01*
X61937Y-58555D01*
X61902Y-58557D01*
X61880Y-58543D01*
X61868Y-58501D01*
X61863Y-58419D01*
X61862Y-58284D01*
X61862Y-58252D01*
X61856Y-58071D01*
X61836Y-57947D01*
X61796Y-57872D01*
X61732Y-57837D01*
X61638Y-57832D01*
X61623Y-57833D01*
X61512Y-57844D01*
X61495Y-58194D01*
X61486Y-58352D01*
X61476Y-58455D01*
X61462Y-58515D01*
X61442Y-58545D01*
X61416Y-58555D01*
X61362Y-58553D01*
X61326Y-58515D01*
X61306Y-58432D01*
X61299Y-58297D01*
X61299Y-58197D01*
X61296Y-58030D01*
X61275Y-57920D01*
X61232Y-57857D01*
X61159Y-57833D01*
X61079Y-57834D01*
X60979Y-57844D01*
X60962Y-58194D01*
X60953Y-58351D01*
X60944Y-58453D01*
X60931Y-58513D01*
X60911Y-58542D01*
X60881Y-58553D01*
X60877Y-58554D01*
X60811Y-58552D01*
X60785Y-58540D01*
X60775Y-58498D01*
X60767Y-58406D01*
X60763Y-58279D01*
X60762Y-58204D01*
X60771Y-57989D01*
X60798Y-57834D01*
X60846Y-57732D01*
X60913Y-57682D01*
X61037Y-57661D01*
X61169Y-57678D01*
X61270Y-57727D01*
X61329Y-57770D01*
X61366Y-57771D01*
X61408Y-57731D01*
X61413Y-57727D01*
X61489Y-57681D01*
X61595Y-57660D01*
X61702Y-57667D01*
X61784Y-57700D01*
X61797Y-57713D01*
X61834Y-57748D01*
X61861Y-57728D01*
X61869Y-57713D01*
X61924Y-57669D01*
X61964Y-57661D01*
X61991Y-57664D01*
X62009Y-57682D01*
X62020Y-57724D01*
X62024Y-57801D01*
X62024Y-57923D01*
X62024Y-57923D01*
X62024Y-57923D01*
G37*
G36*
X62962Y-58111D02*
X62937Y-58292D01*
X62864Y-58428D01*
X62745Y-58516D01*
X62579Y-58556D01*
X62505Y-58558D01*
X62402Y-58553D01*
X62323Y-58544D01*
X62304Y-58539D01*
X62270Y-58496D01*
X62262Y-58448D01*
X62267Y-58406D01*
X62292Y-58386D01*
X62352Y-58381D01*
X62457Y-58387D01*
X62569Y-58393D01*
X62638Y-58384D01*
X62685Y-58354D01*
X62723Y-58310D01*
X62772Y-58241D01*
X62795Y-58193D01*
X62795Y-58190D01*
X62764Y-58177D01*
X62762Y-58176D01*
X62762Y-57948D01*
X62734Y-57882D01*
X62666Y-57842D01*
X62580Y-57831D01*
X62495Y-57849D01*
X62434Y-57899D01*
X62425Y-57919D01*
X62413Y-57962D01*
X62428Y-57984D01*
X62484Y-57993D01*
X62580Y-57994D01*
X62693Y-57989D01*
X62750Y-57971D01*
X62762Y-57948D01*
X62762Y-58176D01*
X62682Y-58167D01*
X62564Y-58161D01*
X62512Y-58161D01*
X62229Y-58161D01*
X62229Y-58043D01*
X62249Y-57908D01*
X62303Y-57787D01*
X62379Y-57704D01*
X62393Y-57695D01*
X62497Y-57666D01*
X62624Y-57665D01*
X62741Y-57689D01*
X62788Y-57713D01*
X62888Y-57822D01*
X62948Y-57975D01*
X62962Y-58111D01*
X62962Y-58111D01*
X62962Y-58111D01*
G37*
G36*
X63857Y-58068D02*
X63849Y-58219D01*
X63806Y-58358D01*
X63725Y-58468D01*
X63666Y-58509D01*
X63563Y-58542D01*
X63432Y-58558D01*
X63303Y-58555D01*
X63202Y-58532D01*
X63187Y-58525D01*
X63138Y-58469D01*
X63129Y-58429D01*
X63135Y-58395D01*
X63166Y-58379D01*
X63236Y-58378D01*
X63329Y-58385D01*
X63484Y-58386D01*
X63589Y-58352D01*
X63653Y-58279D01*
X63672Y-58225D01*
X63675Y-58195D01*
X63662Y-58180D01*
X63662Y-57975D01*
X63648Y-57934D01*
X63627Y-57892D01*
X63568Y-57842D01*
X63479Y-57825D01*
X63390Y-57842D01*
X63330Y-57892D01*
X63304Y-57948D01*
X63309Y-57979D01*
X63357Y-57991D01*
X63458Y-57994D01*
X63479Y-57994D01*
X63579Y-57991D01*
X63646Y-57983D01*
X63662Y-57975D01*
X63662Y-58180D01*
X63658Y-58176D01*
X63608Y-58165D01*
X63513Y-58161D01*
X63392Y-58161D01*
X63242Y-58159D01*
X63149Y-58149D01*
X63104Y-58122D01*
X63095Y-58067D01*
X63114Y-57977D01*
X63130Y-57921D01*
X63197Y-57787D01*
X63305Y-57699D01*
X63439Y-57662D01*
X63587Y-57680D01*
X63659Y-57709D01*
X63761Y-57796D01*
X63827Y-57922D01*
X63857Y-58068D01*
X63857Y-58068D01*
X63857Y-58068D01*
G37*
G36*
X59201Y-59284D02*
X59197Y-59317D01*
X59172Y-59400D01*
X59129Y-59521D01*
X59072Y-59668D01*
X59058Y-59703D01*
X58893Y-60111D01*
X58977Y-60311D01*
X59028Y-60434D01*
X59053Y-60508D01*
X59051Y-60546D01*
X59023Y-60559D01*
X58978Y-60561D01*
X58897Y-60534D01*
X58865Y-60486D01*
X58843Y-60431D01*
X58799Y-60326D01*
X58740Y-60185D01*
X58670Y-60018D01*
X58618Y-59893D01*
X58531Y-59686D01*
X58467Y-59532D01*
X58425Y-59424D01*
X58402Y-59353D01*
X58395Y-59311D01*
X58404Y-59290D01*
X58426Y-59282D01*
X58458Y-59278D01*
X58492Y-59279D01*
X58522Y-59294D01*
X58554Y-59331D01*
X58593Y-59401D01*
X58643Y-59510D01*
X58712Y-59669D01*
X58746Y-59751D01*
X58799Y-59878D01*
X58923Y-59578D01*
X58986Y-59431D01*
X59035Y-59338D01*
X59076Y-59289D01*
X59112Y-59275D01*
X59178Y-59278D01*
X59201Y-59284D01*
X59201Y-59284D01*
X59201Y-59284D01*
G37*
G36*
X60995Y-60149D02*
X60993Y-60312D01*
X60989Y-60425D01*
X60982Y-60497D01*
X60971Y-60538D01*
X60956Y-60557D01*
X60935Y-60561D01*
X60934Y-60561D01*
X60871Y-60550D01*
X60851Y-60539D01*
X60839Y-60496D01*
X60831Y-60407D01*
X60829Y-60299D01*
X60829Y-59725D01*
X60826Y-59599D01*
X60814Y-59523D01*
X60790Y-59480D01*
X60764Y-59462D01*
X60644Y-59426D01*
X60543Y-59449D01*
X60470Y-59527D01*
X60432Y-59651D01*
X60429Y-59711D01*
X60452Y-59855D01*
X60517Y-59952D01*
X60618Y-59997D01*
X60747Y-59984D01*
X60776Y-59974D01*
X60805Y-59947D01*
X60822Y-59885D01*
X60828Y-59774D01*
X60829Y-59725D01*
X60829Y-60299D01*
X60826Y-60182D01*
X60817Y-60123D01*
X60799Y-60113D01*
X60789Y-60121D01*
X60717Y-60153D01*
X60611Y-60158D01*
X60496Y-60138D01*
X60431Y-60112D01*
X60334Y-60027D01*
X60268Y-59900D01*
X60236Y-59750D01*
X60241Y-59594D01*
X60287Y-59452D01*
X60319Y-59400D01*
X60420Y-59315D01*
X60553Y-59271D01*
X60692Y-59274D01*
X60737Y-59287D01*
X60829Y-59309D01*
X60883Y-59291D01*
X60920Y-59268D01*
X60948Y-59273D01*
X60968Y-59312D01*
X60982Y-59392D01*
X60990Y-59520D01*
X60994Y-59701D01*
X60995Y-59929D01*
X60995Y-60149D01*
X60995Y-60149D01*
X60995Y-60149D01*
G37*
G36*
X55430Y-60161D02*
X55345Y-60161D01*
X55260Y-60161D01*
X55269Y-59503D01*
X55273Y-59278D01*
X55277Y-59111D01*
X55282Y-58993D01*
X55289Y-58917D01*
X55300Y-58872D01*
X55315Y-58851D01*
X55335Y-58844D01*
X55345Y-58844D01*
X55368Y-58847D01*
X55385Y-58861D01*
X55397Y-58895D01*
X55406Y-58958D01*
X55412Y-59059D01*
X55416Y-59205D01*
X55420Y-59406D01*
X55421Y-59503D01*
X55430Y-60161D01*
X55430Y-60161D01*
X55430Y-60161D01*
G37*
G36*
X56376Y-59844D02*
X56366Y-59965D01*
X56364Y-59968D01*
X56321Y-60055D01*
X56270Y-60114D01*
X56189Y-60146D01*
X56189Y-59905D01*
X56171Y-59832D01*
X56105Y-59784D01*
X56006Y-59771D01*
X55960Y-59778D01*
X55882Y-59814D01*
X55857Y-59867D01*
X55877Y-59923D01*
X55936Y-59968D01*
X56028Y-59988D01*
X56062Y-59987D01*
X56146Y-59970D01*
X56183Y-59930D01*
X56189Y-59905D01*
X56189Y-60146D01*
X56187Y-60147D01*
X56073Y-60159D01*
X55958Y-60148D01*
X55893Y-60126D01*
X55840Y-60109D01*
X55829Y-60126D01*
X55802Y-60153D01*
X55745Y-60160D01*
X55691Y-60144D01*
X55684Y-60139D01*
X55671Y-60092D01*
X55663Y-59997D01*
X55662Y-59872D01*
X55665Y-59736D01*
X55674Y-59606D01*
X55687Y-59501D01*
X55702Y-59443D01*
X55780Y-59346D01*
X55902Y-59282D01*
X56035Y-59261D01*
X56175Y-59271D01*
X56259Y-59302D01*
X56293Y-59358D01*
X56295Y-59380D01*
X56290Y-59425D01*
X56265Y-59445D01*
X56202Y-59446D01*
X56129Y-59438D01*
X55986Y-59436D01*
X55898Y-59472D01*
X55863Y-59546D01*
X55862Y-59563D01*
X55873Y-59602D01*
X55917Y-59612D01*
X55978Y-59604D01*
X56121Y-59606D01*
X56242Y-59654D01*
X56331Y-59737D01*
X56376Y-59844D01*
X56376Y-59844D01*
X56376Y-59844D01*
G37*
G36*
X57156Y-59673D02*
X57150Y-59825D01*
X57101Y-59966D01*
X57009Y-60079D01*
X56956Y-60116D01*
X56873Y-60141D01*
X56755Y-60155D01*
X56635Y-60156D01*
X56544Y-60141D01*
X56537Y-60139D01*
X56504Y-60096D01*
X56495Y-60043D01*
X56502Y-59992D01*
X56537Y-59976D01*
X56610Y-59984D01*
X56762Y-59990D01*
X56870Y-59950D01*
X56940Y-59861D01*
X56946Y-59847D01*
X56975Y-59732D01*
X56959Y-59616D01*
X56907Y-59506D01*
X56820Y-59447D01*
X56692Y-59434D01*
X56640Y-59440D01*
X56550Y-59449D01*
X56507Y-59439D01*
X56495Y-59405D01*
X56495Y-59395D01*
X56524Y-59328D01*
X56601Y-59282D01*
X56706Y-59261D01*
X56824Y-59269D01*
X56927Y-59303D01*
X57045Y-59396D01*
X57121Y-59525D01*
X57156Y-59673D01*
X57156Y-59673D01*
X57156Y-59673D01*
G37*
G36*
X57512Y-59711D02*
X57511Y-59888D01*
X57509Y-60009D01*
X57502Y-60085D01*
X57490Y-60127D01*
X57470Y-60147D01*
X57441Y-60154D01*
X57436Y-60155D01*
X57360Y-60166D01*
X57369Y-59722D01*
X57374Y-59542D01*
X57379Y-59419D01*
X57387Y-59341D01*
X57400Y-59299D01*
X57419Y-59281D01*
X57445Y-59278D01*
X57472Y-59281D01*
X57491Y-59299D01*
X57503Y-59342D01*
X57509Y-59421D01*
X57511Y-59546D01*
X57512Y-59711D01*
X57512Y-59711D01*
X57512Y-59711D01*
G37*
G36*
X58296Y-59493D02*
X58280Y-59594D01*
X58207Y-59687D01*
X58085Y-59761D01*
X58004Y-59790D01*
X57907Y-59827D01*
X57866Y-59871D01*
X57862Y-59895D01*
X57891Y-59953D01*
X57974Y-59986D01*
X58101Y-59989D01*
X58163Y-59981D01*
X58248Y-59971D01*
X58285Y-59983D01*
X58295Y-60025D01*
X58295Y-60040D01*
X58282Y-60102D01*
X58235Y-60140D01*
X58142Y-60157D01*
X58030Y-60161D01*
X57883Y-60143D01*
X57783Y-60092D01*
X57719Y-60021D01*
X57696Y-59928D01*
X57695Y-59894D01*
X57709Y-59789D01*
X57760Y-59716D01*
X57783Y-59697D01*
X57866Y-59648D01*
X57943Y-59628D01*
X58029Y-59608D01*
X58079Y-59581D01*
X58122Y-59539D01*
X58110Y-59497D01*
X58095Y-59477D01*
X58049Y-59442D01*
X57976Y-59432D01*
X57888Y-59439D01*
X57792Y-59448D01*
X57745Y-59440D01*
X57730Y-59410D01*
X57729Y-59380D01*
X57756Y-59312D01*
X57828Y-59272D01*
X57929Y-59258D01*
X58041Y-59271D01*
X58150Y-59309D01*
X58237Y-59373D01*
X58252Y-59391D01*
X58296Y-59493D01*
X58296Y-59493D01*
X58296Y-59493D01*
G37*
G36*
X60030Y-60166D02*
X59954Y-60155D01*
X59918Y-60146D01*
X59895Y-60121D01*
X59882Y-60069D01*
X59874Y-59975D01*
X59870Y-59844D01*
X59863Y-59696D01*
X59852Y-59599D01*
X59833Y-59538D01*
X59803Y-59497D01*
X59791Y-59486D01*
X59696Y-59437D01*
X59599Y-59434D01*
X59535Y-59468D01*
X59514Y-59525D01*
X59500Y-59642D01*
X59495Y-59815D01*
X59495Y-59834D01*
X59495Y-59984D01*
X59491Y-60079D01*
X59481Y-60132D01*
X59462Y-60155D01*
X59430Y-60161D01*
X59412Y-60161D01*
X59329Y-60161D01*
X59329Y-59793D01*
X59329Y-59630D01*
X59334Y-59519D01*
X59345Y-59447D01*
X59364Y-59398D01*
X59396Y-59358D01*
X59410Y-59343D01*
X59519Y-59277D01*
X59648Y-59262D01*
X59771Y-59302D01*
X59786Y-59312D01*
X59823Y-59335D01*
X59845Y-59334D01*
X59857Y-59298D01*
X59864Y-59215D01*
X59869Y-59103D01*
X59875Y-58973D01*
X59885Y-58895D01*
X59903Y-58857D01*
X59932Y-58845D01*
X59945Y-58844D01*
X59968Y-58847D01*
X59985Y-58861D01*
X59997Y-58895D01*
X60006Y-58958D01*
X60012Y-59058D01*
X60016Y-59204D01*
X60019Y-59405D01*
X60021Y-59505D01*
X60030Y-60166D01*
X60030Y-60166D01*
X60030Y-60166D01*
G37*
G36*
X62013Y-59645D02*
X62005Y-59808D01*
X61947Y-59960D01*
X61877Y-60053D01*
X61821Y-60099D01*
X61821Y-59657D01*
X61784Y-59536D01*
X61708Y-59456D01*
X61598Y-59428D01*
X61491Y-59457D01*
X61416Y-59539D01*
X61381Y-59666D01*
X61379Y-59711D01*
X61402Y-59849D01*
X61466Y-59945D01*
X61561Y-59992D01*
X61676Y-59983D01*
X61729Y-59960D01*
X61778Y-59906D01*
X61812Y-59820D01*
X61814Y-59811D01*
X61821Y-59657D01*
X61821Y-60099D01*
X61792Y-60124D01*
X61710Y-60154D01*
X61624Y-60159D01*
X61514Y-60150D01*
X61421Y-60133D01*
X61404Y-60127D01*
X61311Y-60056D01*
X61243Y-59940D01*
X61203Y-59797D01*
X61197Y-59644D01*
X61228Y-59501D01*
X61246Y-59460D01*
X61334Y-59355D01*
X61460Y-59289D01*
X61604Y-59265D01*
X61748Y-59286D01*
X61871Y-59354D01*
X61881Y-59363D01*
X61972Y-59491D01*
X62013Y-59645D01*
X62013Y-59645D01*
X62013Y-59645D01*
G37*
G36*
X62895Y-59694D02*
X62882Y-59845D01*
X62830Y-59980D01*
X62738Y-60084D01*
X62696Y-60110D01*
X62603Y-60139D01*
X62477Y-60155D01*
X62349Y-60157D01*
X62249Y-60143D01*
X62237Y-60139D01*
X62204Y-60096D01*
X62195Y-60047D01*
X62200Y-60005D01*
X62226Y-59984D01*
X62288Y-59981D01*
X62378Y-59987D01*
X62521Y-59988D01*
X62615Y-59956D01*
X62676Y-59887D01*
X62695Y-59845D01*
X62703Y-59812D01*
X62695Y-59800D01*
X62695Y-59566D01*
X62667Y-59512D01*
X62601Y-59462D01*
X62525Y-59434D01*
X62493Y-59433D01*
X62419Y-59468D01*
X62370Y-59519D01*
X62345Y-59562D01*
X62349Y-59584D01*
X62395Y-59593D01*
X62495Y-59594D01*
X62508Y-59594D01*
X62609Y-59590D01*
X62677Y-59578D01*
X62695Y-59566D01*
X62695Y-59800D01*
X62689Y-59791D01*
X62642Y-59778D01*
X62550Y-59768D01*
X62432Y-59761D01*
X62145Y-59744D01*
X62157Y-59628D01*
X62190Y-59484D01*
X62251Y-59366D01*
X62327Y-59295D01*
X62446Y-59264D01*
X62584Y-59274D01*
X62698Y-59318D01*
X62803Y-59414D01*
X62869Y-59545D01*
X62895Y-59694D01*
X62895Y-59694D01*
X62895Y-59694D01*
G37*
G36*
X64060Y-59464D02*
X64057Y-59623D01*
X64056Y-59644D01*
X64043Y-59773D01*
X64019Y-59860D01*
X63974Y-59930D01*
X63944Y-59964D01*
X63853Y-60044D01*
X63755Y-60107D01*
X63738Y-60115D01*
X63646Y-60138D01*
X63514Y-60152D01*
X63368Y-60157D01*
X63234Y-60151D01*
X63154Y-60138D01*
X63125Y-60122D01*
X63108Y-60083D01*
X63099Y-60008D01*
X63095Y-59884D01*
X63095Y-59825D01*
X63095Y-59528D01*
X63312Y-59528D01*
X63428Y-59529D01*
X63493Y-59537D01*
X63522Y-59558D01*
X63528Y-59597D01*
X63529Y-59611D01*
X63521Y-59665D01*
X63487Y-59688D01*
X63407Y-59694D01*
X63395Y-59694D01*
X63262Y-59694D01*
X63262Y-59844D01*
X63262Y-59994D01*
X63427Y-59994D01*
X63544Y-59986D01*
X63646Y-59967D01*
X63676Y-59956D01*
X63786Y-59873D01*
X63855Y-59753D01*
X63883Y-59611D01*
X63873Y-59463D01*
X63823Y-59323D01*
X63736Y-59208D01*
X63644Y-59146D01*
X63534Y-59108D01*
X63407Y-59098D01*
X63323Y-59104D01*
X63214Y-59112D01*
X63156Y-59108D01*
X63133Y-59087D01*
X63129Y-59045D01*
X63146Y-58986D01*
X63204Y-58950D01*
X63311Y-58932D01*
X63429Y-58929D01*
X63620Y-58958D01*
X63799Y-59039D01*
X63938Y-59159D01*
X64006Y-59252D01*
X64045Y-59347D01*
X64060Y-59464D01*
X64060Y-59464D01*
X64060Y-59464D01*
G37*
G36*
X57529Y-59028D02*
X57519Y-59099D01*
X57481Y-59125D01*
X57451Y-59128D01*
X57381Y-59119D01*
X57351Y-59105D01*
X57333Y-59058D01*
X57329Y-59005D01*
X57341Y-58949D01*
X57390Y-58929D01*
X57429Y-58928D01*
X57499Y-58936D01*
X57525Y-58975D01*
X57529Y-59028D01*
X57529Y-59028D01*
X57529Y-59028D01*
G37*
M02*
