M48
;DRILL file {Pcbnew (2013-07-07 BZR 4022)-stable} date 12/7/2014 8:29:57 AM
;FORMAT={2:4/ absolute / inch / suppress leading zeros}
FMAT,2
INCH,TZ
T1C0.025
T2C0.032
T3C0.040
T4C0.045
T5C0.120
%
G90
G05
M72
T1
X51629Y-54411
X59379Y-51411
X59379Y-51911
X59379Y-66411
X59379Y-66911
X59379Y-67411
X59879Y-51411
X59879Y-51911
X59879Y-66411
X59879Y-66911
X59879Y-67411
X60379Y-51411
X60379Y-51911
X60379Y-66411
X60379Y-66911
X60379Y-67411
X60629Y-56911
X60629Y-57411
X60629Y-57911
X60629Y-58411
X60879Y-51411
X60879Y-51911
X60879Y-66411
X60879Y-66911
X60879Y-67411
X61129Y-56911
X61129Y-57411
X61129Y-57911
X61129Y-58411
X61379Y-51411
X61379Y-51911
X61629Y-56911
X61629Y-57411
X61629Y-57911
X61629Y-58411
X61879Y-51411
X61879Y-51911
X62129Y-56911
X62129Y-57411
X62129Y-57911
X62129Y-58411
X68379Y-51161
X68379Y-51661
X68379Y-52161
X68379Y-52661
X68379Y-66161
X68379Y-66661
X68379Y-67161
X68879Y-51161
X68879Y-51661
X68879Y-52161
X68879Y-52661
X68879Y-66161
X68879Y-66661
X68879Y-67161
X69379Y-66161
X69379Y-66661
X69379Y-67161
X69732Y-56109
X69732Y-56609
X69732Y-57109
X70232Y-56109
X70232Y-56609
X70232Y-57109
X70679Y-62811
X70732Y-56109
X70732Y-56609
X70732Y-57109
X71079Y-52011
X71529Y-52311
X72000Y-62000
X72000Y-62500
X72500Y-62000
X72500Y-62500
X72879Y-55911
X72879Y-56411
X72879Y-56911
X72879Y-58661
X72879Y-59161
X72879Y-59661
X73000Y-62000
X73000Y-62500
X73379Y-55911
X73379Y-56411
X73379Y-56911
X73379Y-58661
X73379Y-59161
X73379Y-59661
X73500Y-62000
X73500Y-62500
X73879Y-55911
X73879Y-56411
X73879Y-56911
X73879Y-58661
X73879Y-59161
X73879Y-59661
X74279Y-57711
X74379Y-58661
X74379Y-59161
X74379Y-59661
T2
X52079Y-53411
X55079Y-53411
X57279Y-53411
X60279Y-53411
X65579Y-54711
X65579Y-57711
X65579Y-61111
X65579Y-64111
X66682Y-54709
X66682Y-57709
X66682Y-61109
X66682Y-64109
X67782Y-54709
X67782Y-57709
X67782Y-61109
X67782Y-64109
X68882Y-54709
X68882Y-57709
X68882Y-61109
X68882Y-64109
T3
X54382Y-51409
X54382Y-67409
X55382Y-51409
X55382Y-67409
X56382Y-51409
X56382Y-67409
X57382Y-51409
X57382Y-67409
X58382Y-51409
X58382Y-67409
X63382Y-51409
X63382Y-67409
X64382Y-51409
X64382Y-67409
X65382Y-51409
X65382Y-67409
X66382Y-51409
X66382Y-67409
X67382Y-51409
X67382Y-67409
T4
X52579Y-57211
X53579Y-57211
X54579Y-57211
X57779Y-57211
X58779Y-57211
X59779Y-57211
T5
X52379Y-51411
X52379Y-67411
X53579Y-63711
X58779Y-63711
X74379Y-51411
X74379Y-67411
T0
M30
