G04 (created by PCBNEW (2013-07-07 BZR 4022)-stable) date 10/7/2014 12:40:21 PM*
%MOIN*%
G04 Gerber Fmt 3.4, Leading zero omitted, Abs format*
%FSLAX34Y34*%
G01*
G70*
G90*
G04 APERTURE LIST*
%ADD10C,0.00590551*%
%ADD11R,0.02X0.045*%
%ADD12R,0.035X0.055*%
%ADD13R,0.055X0.035*%
%ADD14R,0.055X0.055*%
%ADD15C,0.055*%
%ADD16R,0.0933071X0.0956693*%
%ADD17R,0.0708661X0.0877953*%
%ADD18C,0.07*%
%ADD19R,0.07X0.07*%
%ADD20R,0.35X0.35*%
%ADD21O,0.0593X0.1187*%
%ADD22R,0.025X0.05*%
%ADD23R,0.05X0.025*%
%ADD24C,0.16*%
G04 APERTURE END LIST*
G54D10*
G54D11*
X44250Y-21550D03*
X43750Y-21550D03*
X43250Y-21550D03*
X42750Y-21550D03*
X42750Y-19050D03*
X43250Y-19050D03*
X43750Y-19050D03*
X44250Y-19050D03*
X44350Y-11050D03*
X43850Y-11050D03*
X43350Y-11050D03*
X42850Y-11050D03*
X42850Y-8550D03*
X43350Y-8550D03*
X43850Y-8550D03*
X44350Y-8550D03*
G54D12*
X39775Y-8400D03*
X39025Y-8400D03*
X46415Y-20340D03*
X47165Y-20340D03*
X46415Y-19540D03*
X47165Y-19540D03*
G54D13*
X36800Y-9925D03*
X36800Y-10675D03*
G54D12*
X35925Y-11600D03*
X36675Y-11600D03*
X43875Y-11950D03*
X44625Y-11950D03*
X42825Y-7650D03*
X42075Y-7650D03*
X47275Y-10900D03*
X46525Y-10900D03*
X46525Y-9300D03*
X47275Y-9300D03*
G54D13*
X38250Y-9075D03*
X38250Y-8325D03*
X36800Y-13025D03*
X36800Y-13775D03*
X35900Y-13775D03*
X35900Y-13025D03*
X35900Y-9925D03*
X35900Y-10675D03*
G54D12*
X46525Y-10100D03*
X47275Y-10100D03*
X42725Y-17600D03*
X43475Y-17600D03*
X47165Y-21140D03*
X46415Y-21140D03*
X43575Y-22600D03*
X42825Y-22600D03*
X35925Y-18400D03*
X36675Y-18400D03*
G54D13*
X24600Y-11375D03*
X24600Y-10625D03*
X29800Y-10625D03*
X29800Y-11375D03*
X36800Y-19975D03*
X36800Y-19225D03*
G54D12*
X39775Y-21600D03*
X39025Y-21600D03*
G54D13*
X38200Y-20925D03*
X38200Y-21675D03*
X36800Y-16975D03*
X36800Y-16225D03*
X35900Y-16225D03*
X35900Y-16975D03*
X35800Y-19975D03*
X35800Y-19225D03*
G54D14*
X38200Y-16700D03*
G54D15*
X38200Y-19700D03*
G54D14*
X32900Y-9000D03*
G54D15*
X29900Y-9000D03*
G54D14*
X38200Y-13300D03*
G54D15*
X38200Y-10300D03*
G54D14*
X41200Y-10300D03*
G54D15*
X41200Y-13300D03*
G54D14*
X39200Y-13300D03*
G54D15*
X39200Y-10300D03*
G54D14*
X40200Y-10300D03*
G54D15*
X40200Y-13300D03*
G54D14*
X24700Y-9000D03*
G54D15*
X27700Y-9000D03*
G54D14*
X41200Y-19700D03*
G54D15*
X41200Y-16700D03*
G54D14*
X40200Y-19700D03*
G54D15*
X40200Y-16700D03*
G54D14*
X39200Y-16700D03*
G54D15*
X39200Y-19700D03*
G54D16*
X33828Y-10800D03*
X31371Y-10800D03*
G54D17*
X27174Y-10600D03*
X26025Y-10600D03*
G54D18*
X30400Y-12800D03*
G54D19*
X32400Y-12800D03*
G54D18*
X31400Y-12800D03*
G54D20*
X31400Y-19300D03*
X26200Y-19300D03*
G54D18*
X27200Y-12800D03*
G54D19*
X26200Y-12800D03*
G54D18*
X25200Y-12800D03*
G54D21*
X31000Y-23000D03*
X31000Y-7000D03*
X27000Y-7000D03*
X27000Y-23000D03*
X39000Y-7000D03*
X38000Y-7000D03*
X37000Y-7000D03*
X36000Y-7000D03*
X40000Y-7000D03*
X40000Y-23000D03*
X36000Y-23000D03*
X30000Y-23000D03*
X29000Y-23000D03*
X28000Y-23000D03*
X30000Y-7000D03*
X28000Y-7000D03*
X29000Y-7000D03*
X39000Y-23000D03*
X38000Y-23000D03*
X37000Y-23000D03*
G54D22*
X37100Y-21000D03*
X36750Y-21000D03*
X37450Y-21000D03*
X35500Y-21000D03*
X35150Y-21000D03*
X35850Y-21000D03*
X37200Y-8900D03*
X36850Y-8900D03*
X37550Y-8900D03*
X35500Y-8900D03*
X35150Y-8900D03*
X35850Y-8900D03*
G54D23*
X45090Y-20340D03*
X45090Y-19940D03*
X45690Y-20340D03*
X45090Y-20740D03*
X45200Y-10100D03*
X45200Y-9700D03*
X45800Y-10100D03*
X45200Y-10500D03*
G54D24*
X47000Y-23000D03*
X25000Y-23000D03*
X25000Y-7000D03*
X47000Y-7000D03*
M02*
